<svg xmlns="http://www.w3.org/2000/svg" viewBox="0 0 480 480"><defs><style>.a{fill:#fdd020;}</style></defs><path class="a" d="M376,240A136,136,0,1,1,240,104,136,136,0,0,1,376,240ZM240,480a8,8,0,0,1-8-8V408a8,8,0,0,1,16,0v64A8,8,0,0,1,240,480Zm0-400a8,8,0,0,1-8-8V8a8,8,0,0,1,16,0V72A8,8,0,0,1,240,80ZM120,120,72,72m48,56a8,8,0,0,1-5.66-2.34l-48-48A8,8,0,0,1,77.66,66.34l48,48A8,8,0,0,1,120,128ZM408,408l-48-48m48,56a8,8,0,0,1-5.66-2.34l-48-48a8,8,0,0,1,11.32-11.32l48,48A8,8,0,0,1,408,416ZM360,120l48-48m-48,56a8,8,0,0,1-5.66-13.66l48-48a8,8,0,0,1,11.32,11.32l-48,48A8,8,0,0,1,360,128ZM472,248H408a8,8,0,0,1,0-16h64a8,8,0,0,1,0,16ZM72,248H8a8,8,0,0,1,0-16H72a8,8,0,0,1,0,16Zm0,160,48-48M72,416a8,8,0,0,1-5.66-13.66l48-48a8,8,0,0,1,11.32,11.32l-48,48A8,8,0,0,1,72,416Z"/></svg>