<svg xmlns="http://www.w3.org/2000/svg" xmlns:xlink="http://www.w3.org/1999/xlink" viewBox="0 0 839.22 1491.11"><defs><style>.a{fill:url(#a);}.b{fill:url(#b);}.c{fill:url(#c);}.d{fill:url(#d);}.e{fill:url(#e);}.f{fill:#ad6ca1;}.g{fill:#c1809a;}.h{fill:url(#f);}.i{fill:url(#g);}.j{fill:url(#h);}.k{fill:url(#i);}.l{fill:url(#j);}.m{fill:url(#k);}.n{fill:url(#l);}.o{fill:url(#m);}.p{fill:url(#n);}.q{fill:url(#o);}.r{fill:url(#p);}.s{fill:url(#q);}.t{fill:url(#r);}.u{fill:url(#s);}.v{fill:#fffceb;}</style><linearGradient id="a" x1="419.84" y1="883.61" x2="419.84" y2="44.86" gradientUnits="userSpaceOnUse"><stop offset="0" stop-color="#fffceb"/><stop offset="0.31" stop-color="#f7dc85"/><stop offset="0.66" stop-color="#ef7886"/><stop offset="1" stop-color="#e567ac"/></linearGradient><linearGradient id="b" x1="-122.1" y1="-241.49" x2="-121.01" y2="-241.49" gradientTransform="matrix(0, -765.52, -765.52, 0, -184265.54, -92590.55)" gradientUnits="userSpaceOnUse"><stop offset="0" stop-color="#fffceb"/><stop offset="0.31" stop-color="#f9e49d"/><stop offset="0.66" stop-color="#f3989e"/><stop offset="1" stop-color="#eb8bbb"/></linearGradient><linearGradient id="c" x1="-122.1" y1="-241.49" x2="-121.01" y2="-241.49" gradientTransform="matrix(0, -765.52, -765.52, 0, -184265.54, -92590.55)" gradientUnits="userSpaceOnUse"><stop offset="0" stop-color="#fffceb"/><stop offset="0.31" stop-color="#faeab0"/><stop offset="0.66" stop-color="#f6b0b0"/><stop offset="1" stop-color="#f0a6c6"/></linearGradient><linearGradient id="d" x1="400.58" y1="1149.95" x2="400.58" y2="925.25" gradientUnits="userSpaceOnUse"><stop offset="0" stop-color="#c1809a"/><stop offset="1" stop-color="#b2709e"/></linearGradient><linearGradient id="e" x1="368.7" y1="1068.06" x2="368.7" y2="784.92" gradientUnits="userSpaceOnUse"><stop offset="0" stop-color="#ad6ca1"/><stop offset="1" stop-color="#9b5d95"/></linearGradient><linearGradient id="f" x1="497.52" y1="1153.63" x2="497.52" y2="1075.25" xlink:href="#e"/><linearGradient id="g" x1="486.02" y1="984.13" x2="489.74" y2="1011.36" xlink:href="#e"/><linearGradient id="h" x1="557.74" y1="974.26" x2="557.74" y2="1006.33" xlink:href="#e"/><linearGradient id="i" x1="790.78" y1="873.03" x2="790.78" y2="899.43" xlink:href="#e"/><linearGradient id="j" x1="421.22" y1="1000.79" x2="422.69" y2="1043.89" gradientUnits="userSpaceOnUse"><stop offset="0" stop-color="#895396"/><stop offset="1" stop-color="#784784"/></linearGradient><linearGradient id="k" x1="220.59" y1="897.96" x2="220.59" y2="957.13" xlink:href="#j"/><linearGradient id="l" x1="394.2" y1="985.14" x2="394.2" y2="1014.36" xlink:href="#j"/><linearGradient id="m" x1="419.84" y1="1282.95" x2="419.84" y2="1150.89" xlink:href="#j"/><linearGradient id="n" x1="628.49" y1="949.37" x2="624.84" y2="996.85" xlink:href="#j"/><linearGradient id="o" x1="706.34" y1="903.59" x2="706.34" y2="984.45" xlink:href="#j"/><linearGradient id="p" x1="758.59" y1="881.32" x2="756.98" y2="955.2" xlink:href="#j"/><linearGradient id="q" x1="159.08" y1="922.99" x2="162.37" y2="1011.74" gradientUnits="userSpaceOnUse"><stop offset="0" stop-color="#64467c"/><stop offset="1" stop-color="#593b6d"/></linearGradient><linearGradient id="r" x1="350.64" y1="960.8" x2="350.64" y2="1059.02" xlink:href="#q"/><linearGradient id="s" x1="419.84" y1="1556.85" x2="419.84" y2="1282.51" xlink:href="#q"/></defs><rect class="a" x="0.47" width="838.75" height="1491.11" rx="30.7"/><path class="b" d="M599.7,786.35A142.89,142.89,0,1,1,742.59,643.46,142.89,142.89,0,0,1,599.7,786.35m0-306.24A163.36,163.36,0,1,0,763.06,643.46,163.36,163.36,0,0,0,599.7,480.11"/><path class="c" d="M599.7,500.58A142.89,142.89,0,1,0,742.59,643.46,142.89,142.89,0,0,0,599.7,500.58"/><path class="d" d="M230.08,815s3.28-38.62,34.51-55.05,34.36-31.46,42.65-26.41,46.09,16.55,51,26.41,19.72,56.82,29.58,76.89,42.6,64.44,58.28,62.8,33.75,3.32,38.68,14.81,31.23,57,37.8,67.12,35.78,62.69,34.33,67.62,26.87,74,26.87,74l-100.64,44.27L268,1120.61s-41.49-95.15-48.89-104.94S230.08,815,230.08,815Z"/><path class="e" d="M.41,707.33s57.35-52.59,68.9-49.3,50.43-14.79,75.76-18.08,48.73-3.29,78.9,26.29-.15,31.23,17.18,87.1,86.92,161,99.17,216.32,48.14,168.15,62.57,175.59,334.5,32.6,334.5,32.6L424.54,1315.74,0,1208.57Z"/><path class="f" d="M99.43,682.74c8,16.8,22.65,30,24.11,35.79s8-27.75,8-27.75,29.58-1.46,36,0,13.7-22.65,23.2-23.38,24.1,24.84,20.45,40.91,16.74,58.43,6.18,62.09-55.12,13.87-45.62,17.53,40.9-10.23,53.32-5.85,57.51,60.54,57.59,60.65c-17.65-33.6-34.21-65.86-41.51-89.39-17.33-55.87,13-57.51-17.18-87.1s-53.58-29.58-78.9-26.29S80.86,661.31,69.31,658c-4.76-1.36-17.3,6.78-30.39,16.81h0S91.4,665.94,99.43,682.74Z"/><path class="g" d="M292.94,763.09c4.81-7.12,13-20.27,18-14.24s24.1-.57,22.46,17.25-5.48,27.12,6,14,18.63,5.48,23.56,19.73,20.27,57.52-3.29,64.09-9.83,4.25,18.37,9.79,40.81,28.22,46.91,23.63S441.28,911,439.09,917c-1,2.86,5.83-7.16,14.5-17.71a56.16,56.16,0,0,0-7.47.29c-15.68,1.64-48.42-42.73-58.28-62.8s-24.65-67-29.58-76.89-42.73-21.37-51-26.41-11.43,10-42.65,26.41c-.65.34-1.26.7-1.88,1.05.18,3.29,1.76,5.62,6.55,4.31C281.31,762,288.13,770.21,292.94,763.09Z"/><path class="h" d="M839.22,936.31c-4.78-.33-9.58-.45-14.37-.46-15.89-.07-31.82,0-47.67,1.22-32.92,2.57-64.62,10.56-91.94,29.75-12,8.43-23.17,18-34.09,27.77-5.15,4.61-10.27,9.25-15.47,13.8-2.6,2.27-5.21,4.52-7.86,6.73-1.32,1.1-2.64,2.19-4,3.27l-2.37,1.88-.85.64c-5,3.72-10.18,7.31-15.57,10.51q-4.49,2.67-9.17,5a68.77,68.77,0,0,1-9.58,4.15c-14.7,5.49-30.08,8.85-45.43,11.91-14.85,3-29.79,5.64-44.4,9.67-16.36,4.5-31.79,11.37-47.34,18-10.54,4.52-27.91,10.89-39.78,12.66-17.31,2.59-35.3.92-52.62-.58-34.89-3-69.57-4.35-104.54-1.73-15.91,1.19-31.77,3.08-47.54,5.5a39.21,39.21,0,0,0-19.3-1.67c-17.38,2.76-28.15,18.29-29.38,35.09-2.57,34.83,32.15,53.5,54.28,73.68,24.19,22,46.93,45.25,73.88,64.06,25.45,17.76,53.31,31.68,82.23,42.86,60.23,23.29,125.34,32.31,189.65,33.06,35.1.41,70.18-1.63,105.11-5s70.43-7.09,105.13-13.22c25.09-4.42,50.55-11.46,73-24Zm-646,192-.11,0c.18,0,.3,0,.34,0Z"/><path class="i" d="M536.25,1083c-5.71.48-15.26-13.1-15.26-13.1,4.62,6.19,9.52,4.32,9.52,4.32-2.13-.06-5-2.1-6.92-3.66,4.82,3.29,10.77,1.58,10.77,1.58-5.45-.24-10.17-7-10.17-7,4.56,3.76,12,3.28,12,3.28-4.43-.8-12.35-4.84-17.61-7.73,6.52,1.73,16.17,1.09,16.17,1.09-16.53-2.92-22.59-11.53-22.59-11.53,2.94,3,12.71,4.53,14.2,4.75-2.37-.37-6.71-2.4-9.91-4a39.21,39.21,0,0,0,9.25,1.48c-4.8-.92-9.68-6.27-12.3-9.58a12.74,12.74,0,0,0,11.55,4.3c-5.14-.55-10.27-8.15-13-12.91,2.44,3.46,4.79,3.41,4.79,3.41-2.16-.4-4.41-6.72-4.41-6.72,4.73,7.84,11.77,7.28,11.77,7.28-5.92-.48-11.69-9.2-11.69-9.2,3.69,5.12,10.17,2.8,10.17,2.8-7.28-.48-11.85-11.93-11.85-11.93,2.23,2.91,7,3,8.4,2.91a10.11,10.11,0,0,1-5.6-2c3.39,1.62,8,.73,8,.73-3.76-.16-9.5-9.34-9.5-9.34,3.36,2.83,7.58,1,7.58,1-4.22-.06-7.95-5.82-7.95-5.82,2.83,3.74,7.95,2.62,7.95,2.62-5.66.1-10.94-9-10.94-9,2.19,3.68,5.5,2.19,5.5,2.19-3.85,0-5.66-4.27-5.66-4.27,2.88,3.74,8.43,1.65,8.43,1.65-8.75-1.76-10.73-8.27-10.73-8.27,3,4.22,8,2.46,8,2.46a8.61,8.61,0,0,1-8-3.52c3.47,4.8,10.94,2,10.94,2-7.09.43-11.26-7.2-11.26-7.2,1.28,1.76,3.69,1.07,3.69,1.07-2,.37-5.18-4.33-5.18-4.33,2.88,3.53,8.22,1.07,8.22,1.07-4.81,1.6-14.1-12.56-14.1-12.56s-9.29,14.16-14.09,12.56c0,0,5.34,2.46,8.22-1.07,0,0-3.2,4.7-5.18,4.33,0,0,2.4.69,3.68-1.07,0,0-4.16,7.63-11.26,7.2,0,0,7.48,2.78,10.94-2a8.59,8.59,0,0,1-8,3.52s5,1.76,8-2.46c0,0-2,6.51-10.72,8.27,0,0,5.55,2.09,8.43-1.65,0,0-1.81,4.22-5.66,4.27,0,0,3.31,1.49,5.5-2.19,0,0-5.28,9.07-10.94,9,0,0,5.12,1.12,8-2.62,0,0-3.73,5.76-8,5.82,0,0,4.22,1.81,7.58-1,0,0-5.74,9.18-9.5,9.34,0,0,4.62.89,8-.73a10.11,10.11,0,0,1-5.6,2c1.43,0,6.17,0,8.39-2.91,0,0-4.56,11.45-11.84,11.93,0,0,6.48,2.32,10.16-2.8,0,0-5.76,8.72-11.68,9.2,0,0,7,.56,11.76-7.28,0,0-2.24,6.32-4.4,6.72,0,0,2.35,0,4.79-3.41-2.73,4.76-7.86,12.36-13,12.91a12.76,12.76,0,0,0,11.56-4.3c-2.62,3.31-7.5,8.66-12.3,9.58a39.21,39.21,0,0,0,9.25-1.48c-3.2,1.62-7.54,3.65-9.91,4,1.49-.22,11.26-1.72,14.2-4.75,0,0-6.06,8.61-22.59,11.53,0,0,9.65.64,16.17-1.09-5.26,2.89-13.18,6.93-17.61,7.73,0,0,7.44.48,12-3.28,0,0-4.73,6.72-10.17,7,0,0,5.94,1.71,10.77-1.58-1.91,1.56-4.8,3.6-6.93,3.66,0,0,4.91,1.87,9.53-4.32,0,0-9.55,13.58-15.26,13.1,0,0,7.91.82,14-2.81a55.74,55.74,0,0,1-5.27,5h57.94a58.27,58.27,0,0,1-5.27-5C528.34,1083.84,536.25,1083,536.25,1083Z"/><path class="j" d="M534.28,1068.8c-4.39,2.71-13.08,7.67-17.83,7.58,0,0,1.4.21,3.51.41h75.57c2.1-.2,3.5-.41,3.5-.41-4.75.09-13.43-4.87-17.83-7.58,6.17,2.23,18.5.44,18.5.44a34,34,0,0,1-10-4.61,7.68,7.68,0,0,0,2.35-.42,21.38,21.38,0,0,1-6.16-2.15c-2.24-1.61-4.38-3.3-6.28-4.89a18.67,18.67,0,0,0,7,.54,9,9,0,0,1-4.49-2.17,16.84,16.84,0,0,0,6.26-1.48,24.9,24.9,0,0,1-8-5.79c3.66,3.13,13.6-.6,13.6-.6-9.41-.85-19.33-9.69-23.21-13.51a9,9,0,0,0,7.78,1.34c-6.4.36-9.93-8.56-9.93-8.56,5.49,8.08,20.52,4,20.52,4-12.16.48-21.05-17.71-21.05-17.71,6,7.11,16.61,3.13,16.61,3.13a13,13,0,0,1-12.55-8.92c3.4,1.57,4.57.49,4.57.49-3.92.12-6.8-4.34-6.8-4.34,6.15,5.18,14,.36,14,.36-6.14,1.32-13.29-10.85-13.29-10.85,2.93,2.17,8.33,0,8.33,0-2.47.61-7.22-2-10.4-4,6.51,3,15.36.86,15.36.86a26.66,26.66,0,0,1-16.47-9.16,10,10,0,0,0,6.41.73,11.72,11.72,0,0,1-10.46-6.87c1,1.44,6.27,1.56,6.27,1.56-1.57,0-4.56-2.64-4.56-2.64,4.12,1.9,10.88.27,10.88.27-13.53,0-15.88-12.74-14-10.57s4.62.54,4.62.54c-5-2.15-7.31-8.94-8.36-14.4v-7.56a45.4,45.4,0,0,1-.44,4.89,48.8,48.8,0,0,1-.44-4.89v7.56c-1,5.46-3.34,12.25-8.35,14.4,0,0,2.76,1.63,4.61-.54s-.49,10.57-14,10.57c0,0,6.76,1.63,10.88-.27,0,0-3,2.64-4.57,2.64,0,0,5.23-.12,6.28-1.56a11.74,11.74,0,0,1-10.46,6.87,10,10,0,0,0,6.41-.73A26.7,26.7,0,0,1,531.6,990s8.85,2.17,15.37-.86c-3.18,2-7.93,4.6-10.4,4,0,0,5.4,2.17,8.32,0,0,0-7.14,12.17-13.29,10.85,0,0,7.85,4.82,14-.36,0,0-2.87,4.46-6.8,4.34,0,0,1.18,1.08,4.58-.49a13,13,0,0,1-12.55,8.92s10.59,4,16.6-3.13c0,0-8.89,18.19-21,17.71,0,0,15,4.1,20.53-4,0,0-3.53,8.92-9.94,8.56a9,9,0,0,0,7.79-1.34c-3.89,3.82-13.81,12.66-23.21,13.51,0,0,9.93,3.73,13.59.6a24.79,24.79,0,0,1-8,5.79,16.76,16.76,0,0,0,6.25,1.48,9,9,0,0,1-4.49,2.17,18.67,18.67,0,0,0,7-.54c-1.9,1.59-4,3.28-6.28,4.89a21.28,21.28,0,0,1-6.16,2.15,7.79,7.79,0,0,0,2.36.42,34,34,0,0,1-10,4.61S528.12,1071,534.28,1068.8Zm42.55,5.35h0l-.13-.21Zm-38-.21-.12.21h0Z"/><path class="k" d="M770.53,952.31c-3.79,2.34-11.29,6.62-15.39,6.54,0,0,1.21.18,3,.36H823.4c1.82-.18,3-.36,3-.36-4.1.08-11.59-4.2-15.38-6.54,5.31,1.92,16,.38,16,.38a29.3,29.3,0,0,1-8.64-4,6.54,6.54,0,0,0,2-.36,18.59,18.59,0,0,1-5.32-1.86c-1.93-1.39-3.78-2.85-5.42-4.22a16.07,16.07,0,0,0,6,.46,7.75,7.75,0,0,1-3.87-1.86,14.65,14.65,0,0,0,5.39-1.29,21.41,21.41,0,0,1-6.88-5c3.16,2.7,11.74-.52,11.74-.52-8.12-.73-16.69-8.36-20-11.66a7.76,7.76,0,0,0,6.72,1.15c-5.53.32-8.58-7.38-8.58-7.38,4.74,7,17.72,3.43,17.72,3.43-10.49.42-18.17-15.29-18.17-15.29C804.88,910.46,814,907,814,907a11.18,11.18,0,0,1-10.83-7.7c2.93,1.35,3.95.42,3.95.42-3.38.1-5.87-3.75-5.87-3.75,5.31,4.47,12.08.31,12.08.31C808,897.46,801.88,887,801.88,887c2.52,1.87,7.18,0,7.18,0-2.13.53-6.23-1.71-9-3.44,5.63,2.61,13.27.74,13.27.74a23.06,23.06,0,0,1-14.22-7.91,8.67,8.67,0,0,0,5.53.63,10.14,10.14,0,0,1-9-5.93c.9,1.25,5.42,1.35,5.42,1.35-1.36,0-3.94-2.28-3.94-2.28,3.55,1.64,9.39.23,9.39.23-11.68,0-13.71-11-12.11-9.13s4,.47,4,.47c-4.32-1.86-6.3-7.71-7.21-12.43v-6.52a41,41,0,0,1-.38,4.22,41,41,0,0,1-.38-4.22v6.52c-.9,4.72-2.88,10.57-7.21,12.43,0,0,2.39,1.41,4-.47s-.43,9.13-12.11,9.13c0,0,5.84,1.41,9.39-.23,0,0-2.59,2.28-3.94,2.28,0,0,4.51-.1,5.42-1.35a10.14,10.14,0,0,1-9,5.93,8.67,8.67,0,0,0,5.53-.63,23.06,23.06,0,0,1-14.22,7.91s7.64,1.87,13.26-.74c-2.74,1.73-6.84,4-9,3.44,0,0,4.66,1.87,7.18,0,0,0-6.17,10.51-11.47,9.36,0,0,6.77,4.16,12.07-.31,0,0-2.48,3.85-5.86,3.75,0,0,1,.93,4-.42a11.2,11.2,0,0,1-10.84,7.7s9.14,3.43,14.33-2.71c0,0-7.67,15.71-18.16,15.29,0,0,13,3.54,17.71-3.43,0,0-3,7.7-8.57,7.38a7.74,7.74,0,0,0,6.71-1.15c-3.35,3.3-11.91,10.93-20,11.66,0,0,8.58,3.22,11.74.52a21.53,21.53,0,0,1-6.89,5,14.74,14.74,0,0,0,5.4,1.29,7.84,7.84,0,0,1-3.87,1.86,16.07,16.07,0,0,0,6-.46c-1.64,1.37-3.49,2.83-5.43,4.22a18.42,18.42,0,0,1-5.31,1.86,6.54,6.54,0,0,0,2,.36,29.35,29.35,0,0,1-8.65,4S765.21,954.23,770.53,952.31Zm36.73,4.62h0l-.11-.19Zm-32.83-.19-.11.19h0A1.27,1.27,0,0,0,774.43,956.74Z"/><path class="l" d="M398.7,1109.66c-4.91,3-14.62,8.58-19.93,8.48,0,0,1.57.24,3.92.46h84.48c2.36-.22,3.92-.46,3.92-.46-5.31.1-15-5.44-19.93-8.48,6.89,2.5,20.68.5,20.68.5a38.15,38.15,0,0,1-11.2-5.15,8.76,8.76,0,0,0,2.64-.47,23.94,23.94,0,0,1-6.89-2.41c-2.51-1.8-4.9-3.69-7-5.46a21,21,0,0,0,7.78.59,10,10,0,0,1-5-2.41,19.08,19.08,0,0,0,7-1.67,27.76,27.76,0,0,1-8.92-6.46c4.09,3.5,15.2-.68,15.2-.68-10.51-1-21.61-10.83-26-15.1a10,10,0,0,0,8.7,1.5c-7.16.4-11.1-9.57-11.1-9.57,6.13,9,22.94,4.45,22.94,4.45-13.59.54-23.53-19.81-23.53-19.81,6.72,8,18.56,3.51,18.56,3.51-11.4-.27-14-10-14-10,3.8,1.75,5.12.54,5.12.54-4.39.13-7.6-4.85-7.6-4.85,6.87,5.79,15.64.4,15.64.4-6.87,1.48-14.86-12.12-14.86-12.12,3.27,2.42,9.3,0,9.3,0-2.76.68-8.07-2.22-11.62-4.47,7.28,3.39,17.18,1,17.18,1a29.84,29.84,0,0,1-18.42-10.23c4.24,1.75,7.16.8,7.16.8a13.11,13.11,0,0,1-11.69-7.67c1.17,1.61,7,1.75,7,1.75-1.75,0-5.1-3-5.1-3,4.6,2.12,12.17.3,12.17.3-15.13,0-17.76-14.24-15.69-11.82s5.16.61,5.16.61c-5.6-2.41-8.16-10-9.34-16.1v-8.45a52.57,52.57,0,0,1-.49,5.46,52.57,52.57,0,0,1-.49-5.46v8.45c-1.17,6.11-3.74,13.69-9.34,16.1,0,0,3.09,1.82,5.16-.61s-.56,11.82-15.68,11.82c0,0,7.56,1.82,12.16-.3,0,0-3.35,3-5.1,3,0,0,5.85-.14,7-1.75a13.09,13.09,0,0,1-11.69,7.67s2.92.95,7.16-.8a29.8,29.8,0,0,1-18.41,10.23s9.89,2.43,17.18-1c-3.56,2.25-8.87,5.15-11.63,4.47,0,0,6,2.42,9.3,0,0,0-8,13.6-14.85,12.12,0,0,8.77,5.39,15.64-.4,0,0-3.22,5-7.6,4.85,0,0,1.31,1.21,5.11-.54,0,0-2.63,9.7-14,10,0,0,11.84,4.44,18.56-3.51,0,0-9.94,20.35-23.53,19.81,0,0,16.81,4.58,22.95-4.45,0,0-3.95,10-11.11,9.57a10,10,0,0,0,8.7-1.5c-4.34,4.27-15.43,14.15-25.95,15.1,0,0,11.11,4.18,15.2.68a27.79,27.79,0,0,1-8.91,6.46,19,19,0,0,0,7,1.67,10,10,0,0,1-5,2.41,21,21,0,0,0,7.78-.59c-2.12,1.77-4.51,3.66-7,5.46a23.94,23.94,0,0,1-6.89,2.41,8.85,8.85,0,0,0,2.64.47,38.15,38.15,0,0,1-11.2,5.15S391.81,1112.16,398.7,1109.66Zm47.58,6h0c-.1-.16-.14-.24-.14-.24Zm-42.53-.24-.15.24h0Z"/><path class="m" d="M292.94,1080.39c-11,.92-29.28-25.13-29.28-25.13,8.85,11.87,18.27,8.29,18.27,8.29-4.09-.13-9.63-4-13.29-7,9.26,6.32,20.66,3,20.66,3-10.44-.46-19.5-13.36-19.5-13.36,8.75,7.21,23,6.29,23,6.29-8.5-1.54-23.69-9.29-33.79-14.83,12.52,3.32,31,2.08,31,2.08-31.71-5.6-43.34-22.11-43.34-22.11,5.64,5.81,24.39,8.7,27.25,9.11-4.54-.71-12.88-4.6-19-7.71,7.93,2.55,17.76,2.85,17.76,2.85-9.22-1.78-18.59-12-23.6-18.39a24.46,24.46,0,0,0,22.16,8.25c-9.87-1-19.71-15.64-25-24.77,4.69,6.64,9.2,6.55,9.2,6.55-4.15-.77-8.45-12.9-8.45-12.9,9.06,15,22.57,14,22.57,14-11.36-.92-22.42-17.66-22.42-17.66,7.07,9.83,19.51,5.38,19.51,5.38-14-.93-22.73-22.89-22.73-22.89,4.27,5.58,13.37,5.68,16.1,5.58-3.94.08-7.85-1.93-10.74-3.92,6.5,3.11,15.37,1.41,15.37,1.41-7.22-.3-18.22-17.91-18.22-17.91C253,950,261,946.52,261,946.52c-8.08-.1-15.25-11.16-15.25-11.16,5.42,7.17,15.25,5,15.25,5-10.85.2-21-17.2-21-17.2,4.19,7.06,10.54,4.2,10.54,4.2-7.37-.11-10.85-8.19-10.85-8.19,5.53,7.16,16.17,3.17,16.17,3.17-16.79-3.38-20.57-15.87-20.57-15.87,5.73,8.09,15.35,4.71,15.35,4.71-10,1.33-15.35-6.76-15.35-6.76,6.65,9.22,21,3.89,21,3.89-13.61.82-21.6-13.82-21.6-13.82,2.46,3.38,7.07,2,7.07,2-3.79.71-9.94-8.3-9.94-8.3,5.53,6.76,15.77,2,15.77,2-9.21,3.07-27-24.1-27-24.1s-17.82,27.17-27,24.1c0,0,10.24,4.71,15.77-2,0,0-6.14,9-9.93,8.3,0,0,4.61,1.33,7.06-2,0,0-8,14.64-21.6,13.82,0,0,14.33,5.33,21-3.89,0,0-5.33,8.09-15.36,6.76,0,0,9.62,3.38,15.36-4.71,0,0-3.79,12.49-20.58,15.87,0,0,10.65,4,16.18-3.17,0,0-3.49,8.08-10.86,8.19,0,0,6.35,2.86,10.55-4.2,0,0-10.14,17.4-21,17.2,0,0,9.83,2.15,15.25-5,0,0-7.16,11.06-15.25,11.16,0,0,8.09,3.48,14.54-1.94,0,0-11,17.61-18.23,17.91,0,0,8.88,1.7,15.37-1.41-2.88,2-6.79,4-10.73,3.92,2.73.1,11.82,0,16.1-5.58,0,0-8.76,22-22.73,22.89,0,0,12.44,4.45,19.5-5.38,0,0-11.06,16.74-22.42,17.66,0,0,13.51,1.08,22.57-14,0,0-4.3,12.13-8.44,12.9,0,0,4.51.09,9.19-6.55-5.24,9.13-15.09,23.72-25,24.77a24.49,24.49,0,0,0,22.17-8.25c-5,6.35-14.38,16.61-23.6,18.39,0,0,9.82-.3,17.75-2.85-6.13,3.11-14.47,7-19,7.71,2.87-.41,21.61-3.3,27.25-9.11,0,0-11.62,16.51-43.34,22.11,0,0,18.52,1.24,31-2.08-10.1,5.54-25.29,13.29-33.79,14.83,0,0,14.28.92,23-6.29,0,0-9.07,12.9-19.51,13.36,0,0,11.4,3.27,20.67-3-3.67,3-9.21,6.91-13.3,7,0,0,9.42,3.58,18.28-8.29,0,0-18.33,26-29.28,25.13,0,0,15.18,1.57,26.87-5.39a112.67,112.67,0,0,1-10.11,9.61H276.17a112.67,112.67,0,0,1-10.11-9.61C277.75,1082,292.94,1080.39,292.94,1080.39Z"/><path class="n" d="M358.24,1124.28c-6.74,4.17-20.05,11.76-27.33,11.63,0,0,2.14.32,5.37.62H452.12c3.23-.3,5.38-.62,5.38-.62-7.29.13-20.6-7.46-27.33-11.63,9.44,3.42,28.35.68,28.35.68-4.74-1.07-10.09-3.75-15.35-7.07a11.66,11.66,0,0,0,3.61-.64,32.57,32.57,0,0,1-9.44-3.3c-3.44-2.46-6.72-5.06-9.63-7.49a28.62,28.62,0,0,0,10.67.82,13.78,13.78,0,0,1-6.88-3.32,25.9,25.9,0,0,0,9.59-2.28,38.08,38.08,0,0,1-12.23-8.86c5.61,4.8,20.84-.93,20.84-.93-14.41-1.3-29.63-14.85-35.58-20.7,5.45,4.21,11.94,2,11.94,2-9.82.55-15.24-13.12-15.24-13.12,8.42,12.38,31.47,6.1,31.47,6.1-18.64.74-32.27-27.15-32.27-27.15,9.22,10.89,25.46,4.8,25.46,4.8-15.64-.37-19.24-13.67-19.24-13.67,5.21,2.4,7,.74,7,.74-6,.18-10.42-6.65-10.42-6.65,9.42,7.94,21.44.55,21.44.55-9.42,2-20.37-16.62-20.37-16.62,4.48,3.32,12.76,0,12.76,0-3.79.93-11.07-3.05-15.94-6.12,10,4.64,23.55,1.32,23.55,1.32a41,41,0,0,1-25.25-14c5.81,2.4,9.82,1.11,9.82,1.11-11.82-.19-16-10.53-16-10.53,1.6,2.21,9.62,2.4,9.62,2.4-2.41,0-7-4.06-7-4.06,6.31,2.91,16.68.42,16.68.42-20.74,0-24.35-19.53-21.5-16.21s7.07.83,7.07.83c-7.67-3.3-11.2-13.7-12.81-22.07V929.68a73.09,73.09,0,0,1-.67,7.49,73.09,73.09,0,0,1-.67-7.49v11.59c-1.61,8.37-5.13,18.77-12.81,22.07,0,0,4.23,2.5,7.08-.83s-.77,16.21-21.51,16.21c0,0,10.37,2.49,16.68-.42,0,0-4.59,4.06-7,4.06,0,0,8-.19,9.61-2.4,0,0-4.2,10.34-16,10.53,0,0,4,1.29,9.82-1.11a41,41,0,0,1-25.25,14s13.57,3.32,23.56-1.32c-4.88,3.07-12.16,7-15.94,6.12,0,0,8.27,3.32,12.75,0,0,0-10.95,18.65-20.37,16.62,0,0,12,7.39,21.44-.55,0,0-4.4,6.83-10.42,6.65,0,0,1.81,1.66,7-.74,0,0-3.61,13.3-19.24,13.67,0,0,16.23,6.09,25.45-4.8,0,0-13.63,27.89-32.27,27.15,0,0,23.05,6.28,31.47-6.1,0,0-5.41,13.67-15.23,13.12,0,0,6.48,2.16,11.93-2-5.95,5.85-21.16,19.4-35.58,20.7,0,0,15.23,5.73,20.84.93a38.11,38.11,0,0,1-12.22,8.86,25.89,25.89,0,0,0,9.58,2.28,13.74,13.74,0,0,1-6.87,3.32,28.57,28.57,0,0,0,10.66-.82c-2.91,2.43-6.19,5-9.62,7.49a32.73,32.73,0,0,1-9.45,3.3,11.69,11.69,0,0,0,3.62.64c-5.27,3.32-10.62,6-15.36,7.07C329.88,1125,348.79,1127.7,358.24,1124.28Zm65.23,8.21h0l-.19-.33C423.32,1132.27,423.39,1132.38,423.47,1132.49Zm-58.32-.33s-.06.12-.19.33h0C365,1132.38,365.09,1132.27,365.15,1132.16Z"/><path class="o" d="M839.22,1002a167.09,167.09,0,0,0-23.23-.49l-1.39-.38a18.38,18.38,0,0,0-13,1.63c-35.94,4.51-70.73,19-102.69,35.48-21,10.81-41.47,22.68-62.46,33.53-21.68,11.21-40.48,19.78-64,26.31a280.48,280.48,0,0,1-35.26,7.36c-8.53,1.21-23.16,2.29-34.13,2.56-12.06.29-24.13,0-36.17-.84q-8.58-.57-17.14-1.47c-6.46-.67-11.48-1.28-16.53-2C383.9,1096.52,336,1083,288,1069.82c-50-13.81-100.35-26.88-152-32.66a393.69,393.69,0,0,0-75.82-1.6c-19.94,1.64-41.06,4-59.7,12v409.9a33.64,33.64,0,0,0,33.64,33.64H805.58a33.64,33.64,0,0,0,33.64-33.64Z"/><path class="p" d="M688,1130.09c-11,.93-29.28-25.13-29.28-25.13,8.86,11.88,18.28,8.29,18.28,8.29-4.09-.12-9.63-4-13.29-7,9.26,6.33,20.66,3,20.66,3-10.44-.46-19.51-13.36-19.51-13.36,8.76,7.22,23,6.29,23,6.29-8.5-1.54-23.69-9.29-33.79-14.82,12.51,3.31,31,2.08,31,2.08-31.72-5.61-43.34-22.12-43.34-22.12,5.64,5.81,24.38,8.7,27.25,9.11-4.55-.71-12.89-4.6-19-7.71,7.93,2.55,17.75,2.85,17.75,2.85-9.22-1.78-18.58-12-23.6-18.39a24.49,24.49,0,0,0,22.17,8.25c-9.87-1-19.72-15.64-25-24.77,4.68,6.64,9.19,6.55,9.19,6.55-4.14-.77-8.44-12.9-8.44-12.9,9.06,15,22.57,14,22.57,14-11.36-.92-22.42-17.66-22.42-17.66,7.06,9.83,19.5,5.38,19.5,5.38-14-.92-22.73-22.89-22.73-22.89,4.28,5.58,13.37,5.68,16.1,5.58-3.94.09-7.85-1.93-10.73-3.92,6.49,3.11,15.37,1.42,15.37,1.42-7.22-.31-18.23-17.92-18.23-17.92,6.45,5.43,14.54,1.94,14.54,1.94-8.09-.1-15.25-11.16-15.25-11.16,5.42,7.17,15.25,5,15.25,5-10.85.21-21-17.2-21-17.2,4.2,7.06,10.55,4.2,10.55,4.2-7.37-.1-10.86-8.19-10.86-8.19,5.53,7.16,16.18,3.17,16.18,3.17-16.79-3.38-20.58-15.87-20.58-15.87,5.74,8.09,15.36,4.71,15.36,4.71-10,1.33-15.36-6.76-15.36-6.76,6.66,9.22,21,3.89,21,3.89-13.62.82-21.6-13.82-21.6-13.82,2.45,3.38,7.06,2,7.06,2-3.79.72-9.93-8.29-9.93-8.29,5.53,6.75,15.77,2,15.77,2-9.22,3.08-27-24.1-27-24.1s-17.83,27.18-27,24.1c0,0,10.24,4.71,15.77-2,0,0-6.15,9-9.94,8.29,0,0,4.61,1.33,7.07-2,0,0-8,14.64-21.6,13.82,0,0,14.33,5.33,21-3.89,0,0-5.32,8.09-15.35,6.76,0,0,9.62,3.38,15.35-4.71,0,0-3.78,12.49-20.57,15.87,0,0,10.64,4,16.17-3.17,0,0-3.48,8.09-10.85,8.19,0,0,6.35,2.86,10.55-4.2,0,0-10.14,17.41-21,17.2,0,0,9.83,2.15,15.25-5,0,0-7.17,11.06-15.25,11.16,0,0,8.08,3.49,14.53-1.94,0,0-11,17.61-18.22,17.92,0,0,8.87,1.69,15.37-1.42-2.89,2-6.8,4-10.74,3.92,2.73.1,11.83,0,16.1-5.58,0,0-8.75,22-22.73,22.89,0,0,12.44,4.45,19.51-5.38,0,0-11.06,16.74-22.42,17.66,0,0,13.51,1.08,22.57-14,0,0-4.3,12.13-8.45,12.9,0,0,4.51.09,9.2-6.55-5.25,9.13-15.09,23.72-25,24.77a24.49,24.49,0,0,0,22.17-8.25c-5,6.35-14.39,16.61-23.61,18.39,0,0,9.83-.3,17.76-2.85-6.14,3.11-14.48,7-19,7.71,2.86-.41,21.61-3.3,27.25-9.11,0,0-11.63,16.51-43.34,22.12,0,0,18.51,1.23,31-2.08-10.1,5.53-25.29,13.28-33.79,14.82,0,0,14.28.93,23-6.29,0,0-9.06,12.9-19.5,13.36,0,0,11.4,3.28,20.66-3-3.66,3-9.2,6.92-13.29,7,0,0,9.42,3.59,18.28-8.29,0,0-18.33,26.06-29.29,25.13,0,0,15.19,1.57,26.88-5.39a111.27,111.27,0,0,1-10.11,9.61H671.19a111.27,111.27,0,0,1-10.11-9.61C672.77,1131.66,688,1130.09,688,1130.09Z"/><path class="q" d="M659.12,1130.66c-8.84,5.47-26.32,15.44-35.87,15.26,0,0,2.81.42,7,.82H782.38c4.24-.4,7-.82,7-.82-9.55.18-27-9.79-35.87-15.26,12.39,4.49,37.22.88,37.22.88-6.22-1.4-13.25-4.91-20.16-9.27a15.66,15.66,0,0,0,4.75-.84c-3.84-.47-8.56-2.44-12.4-4.33-4.51-3.24-8.82-6.65-12.64-9.83,6.28,2,14,1.06,14,1.06a18,18,0,0,1-9-4.35,33.92,33.92,0,0,0,12.59-3,50.14,50.14,0,0,1-16-11.64c7.37,6.3,27.37-1.21,27.37-1.21-18.93-1.71-38.9-19.5-46.71-27.18,7.15,5.53,15.66,2.68,15.66,2.68-12.89.73-20-17.21-20-17.21,11.05,16.24,41.31,8,41.31,8-24.47,1-42.36-35.65-42.36-35.65,12.1,14.31,33.42,6.31,33.42,6.31-20.53-.49-25.26-17.95-25.26-17.95,6.84,3.15,9.21,1,9.21,1-7.9.24-13.69-8.73-13.69-8.73,12.37,10.43,28.16.73,28.16.73-12.37,2.67-26.75-21.83-26.75-21.83,5.88,4.37,16.75,0,16.75,0-5,1.23-14.53-4-20.93-8C741.13,976.34,759,972,759,972a53.74,53.74,0,0,1-33.15-18.43c7.63,3.15,12.89,1.45,12.89,1.45-15.53-.24-21.05-13.82-21.05-13.82,2.1,2.91,12.63,3.15,12.63,3.15-3.16,0-9.19-5.32-9.19-5.32,8.29,3.82,21.9.55,21.9.55-27.23,0-32-25.65-28.23-21.28s9.29,1.09,9.29,1.09c-10.08-4.34-14.7-18-16.82-29V875.18a95.34,95.34,0,0,1-.88,9.84,95.34,95.34,0,0,1-.88-9.84v15.21c-2.12,11-6.74,24.64-16.82,29,0,0,5.56,3.27,9.29-1.09s-1,21.28-28.23,21.28c0,0,13.61,3.27,21.9-.55,0,0-6,5.32-9.19,5.32,0,0,10.53-.24,12.63-3.15,0,0-5.52,13.58-21,13.82,0,0,5.26,1.7,12.89-1.45A53.74,53.74,0,0,1,653.73,972s17.82,4.36,30.93-1.73c-6.4,4-16,9.26-20.93,8,0,0,10.87,4.37,16.75,0,0,0-14.38,24.5-26.75,21.83,0,0,15.79,9.7,28.16-.73,0,0-5.79,9-13.69,8.73,0,0,2.37,2.18,9.21-1,0,0-4.73,17.46-25.26,17.95,0,0,21.32,8,33.42-6.31,0,0-17.89,36.62-42.36,35.65,0,0,30.26,8.24,41.31-8,0,0-7.11,17.94-20,17.21,0,0,8.51,2.85,15.66-2.68-7.81,7.68-27.78,25.47-46.71,27.18,0,0,20,7.51,27.37,1.21A50.14,50.14,0,0,1,644.79,1101a33.91,33.91,0,0,0,12.58,3,17.9,17.9,0,0,1-9,4.35s7.73,1,14-1.06c-3.82,3.18-8.13,6.59-12.64,9.83-3.84,1.89-8.56,3.86-12.4,4.33a15.64,15.64,0,0,0,4.74.84c-6.9,4.36-13.93,7.87-20.15,9.27C621.9,1131.54,646.73,1135.15,659.12,1130.66Zm85.64,10.78h0l-.25-.44C744.56,1141.15,744.66,1141.29,744.76,1141.44ZM668.2,1141l-.25.44h0C668,1141.29,668.12,1141.15,668.2,1141Z"/><path class="r" d="M839.22,1064.16c-29.29-9.3-40.49-25.17-40.49-25.17,7.48,7.7,32.32,11.53,36.12,12.08-6-.94-17.08-6.11-25.21-10.23,10.51,3.39,23.53,3.78,23.53,3.78-12.22-2.36-24.63-16-31.28-24.37,13.07,14.48,29.38,10.94,29.38,10.94-13.08-1.39-26.13-20.74-33.08-32.84,6.21,8.81,12.18,8.68,12.18,8.68-5.49-1-11.19-17.09-11.19-17.09,12,19.94,29.92,18.52,29.92,18.52-15.06-1.22-29.72-23.41-29.72-23.41,9.37,13,25.85,7.12,25.85,7.12-18.52-1.22-30.12-30.32-30.12-30.32,5.67,7.38,17.72,7.52,21.34,7.38-5.23.12-10.41-2.55-14.23-5.19,8.61,4.13,20.37,1.88,20.37,1.88-9.57-.41-24.16-23.75-24.16-23.75,8.55,7.19,19.27,2.58,19.27,2.58C807,944.61,797.48,930,797.48,930c7.19,9.5,20.22,6.65,20.22,6.65-14.38.27-27.82-22.8-27.82-22.8,5.57,9.36,14,5.56,14,5.56-9.77-.13-14.38-10.85-14.38-10.85,7.32,9.5,21.44,4.2,21.44,4.2-22.26-4.47-27.28-21-27.28-21,7.6,10.72,20.36,6.24,20.36,6.24-13.3,1.77-20.36-8.95-20.36-8.95,8.82,12.21,27.82,5.15,27.82,5.15-18.05,1.09-28.63-18.32-28.63-18.32,3.25,4.48,9.36,2.72,9.36,2.72-5,1-13.16-11-13.16-11,7.32,9,20.89,2.71,20.89,2.71-12.21,4.07-35.83-32-35.83-32s-23.63,36-35.84,32c0,0,13.57,6.24,20.9-2.71,0,0-8.14,11.94-13.17,11,0,0,6.11,1.76,9.37-2.72,0,0-10.59,19.41-28.63,18.32,0,0,19,7.06,27.81-5.15,0,0-7,10.72-20.35,8.95,0,0,12.75,4.48,20.35-6.24,0,0-5,16.56-27.27,21,0,0,14.11,5.3,21.44-4.2,0,0-4.62,10.72-14.39,10.85,0,0,8.42,3.8,14-5.56,0,0-13.43,23.07-27.82,22.8,0,0,13,2.85,20.22-6.65,0,0-9.5,14.65-20.22,14.79,0,0,10.72,4.61,19.27-2.58,0,0-14.58,23.34-24.15,23.75,0,0,11.76,2.25,20.37-1.88-3.83,2.64-9,5.31-14.23,5.19,3.62.14,15.67,0,21.34-7.38,0,0-11.6,29.1-30.13,30.32,0,0,16.49,5.91,25.85-7.12,0,0-14.65,22.19-29.72,23.41,0,0,17.92,1.42,29.93-18.52,0,0-5.7,16.08-11.2,17.09,0,0,6,.13,12.18-8.68-6.94,12.1-20,31.45-33.08,32.84,0,0,16.32,3.54,29.38-10.94-6.65,8.41-19.06,22-31.28,24.37,0,0,13-.39,23.54-3.78-8.14,4.12-19.19,9.29-25.22,10.23,3.8-.55,28.65-4.38,36.12-12.08,0,0-15.4,21.88-57.44,29.31,0,0,24.54,1.64,41.13-2.76-13.39,7.34-33.52,17.61-44.79,19.66,0,0,18.93,1.22,30.53-8.35,0,0-12,17.1-25.85,17.71,0,0,15.11,4.34,27.39-4-4.86,4-12.2,9.16-17.62,9.33,0,0,12.49,4.75,24.22-11,0,0-24.29,34.53-38.81,33.31,0,0,20.13,2.08,35.62-7.15a146.67,146.67,0,0,1-13.4,12.74H837.75a146.67,146.67,0,0,1-13.4-12.74,50.24,50.24,0,0,0,14.87,5.69v-10.53a176,176,0,0,1-18.06-21.32c6.56,8.79,13.34,11.19,18.06,11.59v-2.34a57.94,57.94,0,0,1-11.45-7.59,29.47,29.47,0,0,0,11.45,4.59v-7.74a60.43,60.43,0,0,1-9.92-10.52,32.76,32.76,0,0,0,9.92,5.43v-4.48c-8.42-3.84-17.21-8.44-24.17-12.26,7.43,2,16.46,2.73,24.17,3Z"/><path class="s" d="M288.26,1172.37c-18.28,1.53-48.86-41.95-48.86-41.95,14.78,19.82,30.5,13.84,30.5,13.84-6.83-.21-16.07-6.74-22.18-11.74,15.45,10.55,34.48,5.08,34.48,5.08-17.43-.77-32.55-22.3-32.55-22.3,14.61,12,38.44,10.51,38.44,10.51-14.19-2.58-39.54-15.51-56.39-24.74,20.89,5.53,51.78,3.47,51.78,3.47-52.92-9.35-72.32-36.9-72.32-36.9,9.41,9.69,40.69,14.51,45.48,15.2-7.59-1.18-21.51-7.68-31.75-12.87,13.23,4.26,29.63,4.76,29.63,4.76-15.38-3-31-20.1-39.38-30.68,16.45,18.23,37,13.77,37,13.77-16.47-1.76-32.9-26.11-41.65-41.34,7.82,11.08,15.34,10.93,15.34,10.93-6.92-1.29-14.1-21.53-14.1-21.53,15.12,25.11,37.67,23.32,37.67,23.32-19-1.54-37.41-29.47-37.41-29.47,11.79,16.4,32.55,9,32.55,9-23.32-1.54-37.93-38.19-37.93-38.19,7.14,9.31,22.31,9.48,26.86,9.31-6.57.14-13.1-3.22-17.91-6.54,10.84,5.19,25.64,2.36,25.64,2.36-12-.51-30.41-29.9-30.41-29.9C221.55,954.8,235,949,235,949c-13.49-.17-25.45-18.62-25.45-18.62,9,12,25.45,8.37,25.45,8.37-18.11.34-35-28.7-35-28.7,7,11.78,17.6,7,17.6,7-12.3-.17-18.11-13.67-18.11-13.67,9.22,12,27,5.3,27,5.3-28-5.64-34.34-26.48-34.34-26.48,9.57,13.49,25.63,7.86,25.63,7.86-16.74,2.22-25.63-11.28-25.63-11.28,11.11,15.38,35,6.49,35,6.49-22.72,1.37-36-23.06-36-23.06,4.1,5.64,11.78,3.42,11.78,3.42-6.32,1.19-16.57-13.84-16.57-13.84,9.23,11.27,26.31,3.41,26.31,3.41C197.29,860.32,167.54,815,167.54,815s-29.74,45.35-45.12,40.22c0,0,17.09,7.86,26.31-3.41,0,0-10.25,15-16.57,13.84,0,0,7.69,2.22,11.79-3.42,0,0-13.33,24.43-36,23.06,0,0,23.92,8.89,35-6.49,0,0-8.89,13.5-25.63,11.28,0,0,16.06,5.63,25.63-7.86,0,0-6.33,20.84-34.34,26.48,0,0,17.76,6.66,27-5.3,0,0-5.81,13.5-18.11,13.67,0,0,10.59,4.78,17.6-7,0,0-16.92,29-35,28.7,0,0,16.4,3.58,25.46-8.37,0,0-12,18.45-25.46,18.62,0,0,13.5,5.81,24.26-3.25,0,0-18.36,29.39-30.41,29.9,0,0,14.81,2.83,25.65-2.36-4.82,3.32-11.34,6.68-17.92,6.54,4.56.17,19.73,0,26.87-9.31,0,0-14.61,36.65-37.93,38.19,0,0,20.76,7.43,32.55-9,0,0-18.45,27.93-37.42,29.47,0,0,22.55,1.79,37.67-23.32,0,0-7.17,20.24-14.09,21.53,0,0,7.52.15,15.33-10.93-8.74,15.23-25.17,39.58-41.64,41.34,0,0,20.54,4.46,37-13.77-8.38,10.58-24,27.71-39.38,30.68,0,0,16.39-.5,29.62-4.76-10.23,5.19-24.15,11.69-31.74,12.87,4.79-.69,36.07-5.51,45.48-15.2,0,0-19.4,27.55-72.32,36.9,0,0,30.89,2.06,51.77-3.47-16.85,9.23-42.19,22.16-56.38,24.74,0,0,23.83,1.54,38.44-10.51,0,0-15.12,21.53-32.55,22.3,0,0,19,5.47,34.48-5.08-6.11,5-15.35,11.53-22.18,11.74,0,0,15.72,6,30.5-13.84,0,0-30.58,43.48-48.86,41.95,0,0,25.33,2.62,44.84-9a184.63,184.63,0,0,1-16.87,16H260.29a183.34,183.34,0,0,1-16.87-16C262.92,1175,288.26,1172.37,288.26,1172.37Z"/><path class="t" d="M297.1,1168.82c-10,6.2-29.84,17.51-40.67,17.31,0,0,3.19.47,8,.93H436.86c4.8-.46,8-.93,8-.93-10.83.2-30.65-11.11-40.67-17.31,14.05,5.09,42.2,1,42.2,1-7.06-1.59-15-5.58-22.85-10.52a17.65,17.65,0,0,0,5.38-1c-4.35-.54-9.71-2.76-14.06-4.91-5.12-3.68-10-7.54-14.33-11.15,7.12,2.31,15.88,1.21,15.88,1.21a20.43,20.43,0,0,1-10.24-4.93,38.52,38.52,0,0,0,14.27-3.4,56.63,56.63,0,0,1-18.2-13.19c8.36,7.14,31-1.38,31-1.38-21.46-1.93-44.11-22.11-53-30.82,8.11,6.28,17.76,3,17.76,3-14.62.83-22.68-19.52-22.68-19.52,12.53,18.42,46.84,9.07,46.84,9.07-27.74,1.1-48-40.41-48-40.41,13.72,16.22,37.89,7.14,37.89,7.14-23.27-.55-28.64-20.34-28.64-20.34,7.75,3.57,10.44,1.1,10.44,1.1-8.95.27-15.51-9.9-15.51-9.9,14,11.82,31.92.82,31.92.82-14,3-30.33-24.74-30.33-24.74,6.67,5,19,0,19,0-5.63,1.38-16.47-4.53-23.73-9.11,14.87,6.91,35.07,2,35.07,2A60.92,60.92,0,0,1,372.7,968c8.65,3.58,14.62,1.65,14.62,1.65-17.6-.27-23.87-15.67-23.87-15.67,2.39,3.3,14.32,3.58,14.32,3.58-3.58,0-10.42-6-10.42-6,9.4,4.33,24.84.62,24.84.62-30.88,0-36.25-29.07-32-24.12s10.54,1.23,10.54,1.23c-11.43-4.91-16.67-20.39-19.07-32.86V879.16a106.87,106.87,0,0,1-1,11.15,110.35,110.35,0,0,1-1-11.15V896.4c-2.4,12.47-7.64,28-19.07,32.86,0,0,6.31,3.71,10.54-1.23s-1.14,24.12-32,24.12c0,0,15.44,3.71,24.84-.62,0,0-6.84,6-10.42,6,0,0,11.93-.28,14.32-3.58,0,0-6.27,15.4-23.87,15.67,0,0,6,1.93,14.62-1.65A60.92,60.92,0,0,1,291,988.91s20.2,5,35.07-2c-7.26,4.58-18.1,10.49-23.73,9.11,0,0,12.32,5,19,0,0,0-16.31,27.77-30.33,24.74,0,0,17.9,11,31.92-.82,0,0-6.56,10.17-15.51,9.9,0,0,2.69,2.47,10.44-1.1,0,0-5.37,19.79-28.64,20.34,0,0,24.17,9.08,37.89-7.14,0,0-20.29,41.51-48,40.41,0,0,34.31,9.35,46.84-9.07,0,0-8.06,20.35-22.68,19.52,0,0,9.65,3.23,17.76-3-8.85,8.71-31.5,28.89-53,30.82,0,0,22.68,8.52,31,1.38a56.63,56.63,0,0,1-18.2,13.19,38.52,38.52,0,0,0,14.27,3.4,20.43,20.43,0,0,1-10.24,4.93s8.76,1.1,15.88-1.21c-4.33,3.61-9.21,7.47-14.33,11.15-4.35,2.15-9.71,4.37-14.06,4.91a17.65,17.65,0,0,0,5.38,1c-7.83,4.94-15.79,8.93-22.85,10.52C254.9,1169.83,283.05,1173.91,297.1,1168.82ZM394.2,1181h0l-.29-.49C394,1180.72,394.09,1180.88,394.2,1181Zm-86.8-.49-.29.49h0C307.19,1180.88,307.3,1180.72,307.4,1180.55Z"/><path class="u" d="M839.22,1457.47V1254.73c-18.54-.19-37.07-1.16-55.54-2.81-11.38-1-22.73-2.34-34.08-3.76l-.25,0-.3-.05-3.4-.47q-4.54-.64-9.07-1.34-8.51-1.29-17-2.72c-45.39-7.67-90.23-18.22-134.78-29.7-87.92-22.66-175.18-48.9-265-63-82.64-13-166.43-15.83-248.49,2.62A467.12,467.12,0,0,0,.47,1175.32v282.15a33.64,33.64,0,0,0,33.64,33.64H805.58A33.64,33.64,0,0,0,839.22,1457.47Z"/><circle class="v" cx="599.7" cy="643.46" r="121.38" transform="translate(-279.35 612.52) rotate(-45)"/></svg>