<svg xmlns="http://www.w3.org/2000/svg" viewBox="0 0 176 464"><defs><style>.a{fill:#a3d4f7;}.b{fill:#92aeba;}.c{fill:#ff5b42;}</style></defs><path class="a" d="M88,360V32a32,32,0,0,0-64,0V360A60,60,0,0,0,0,408a56,56,0,0,0,112,0A60,60,0,0,0,88,360Z"/><path class="b" d="M168,336H120a8,8,0,0,1,0-16h48a8,8,0,0,1,0,16Zm-16-32H120a8,8,0,0,1,0-16h32a8,8,0,0,1,0,16Zm16-32H120a8,8,0,0,1,0-16h48a8,8,0,0,1,0,16Zm-16-32H120a8,8,0,0,1,0-16h32a8,8,0,0,1,0,16Zm16-32H120a8,8,0,0,1,0-16h48a8,8,0,0,1,0,16Zm-16-32H120a8,8,0,0,1,0-16h32a8,8,0,0,1,0,16Zm16-32H120a8,8,0,0,1,0-16h48a8,8,0,0,1,0,16Zm-16-32H120a8,8,0,0,1,0-16h32a8,8,0,0,1,0,16Zm16-32H120a8,8,0,0,1,0-16h48a8,8,0,0,1,0,16Z"/><path class="c" d="M64,377V336a8,8,0,0,0-16,0v41A30.39,30.39,0,0,0,24,407.2a32,32,0,0,0,64,0A30.39,30.39,0,0,0,64,377Z"/></svg>