<svg xmlns="http://www.w3.org/2000/svg" viewBox="0 0 246.67 197.87"><defs><style>.a{opacity:0.1;}.b{fill:#231f20;}.c{fill:#ffa9a9;}.d{fill:#fff;}.e{fill:#ed9f9f;}</style></defs><g class="a"><path class="b" d="M14.56,76.69S70.27,108.1,91.93,96c15.48-8.63,50.39-12,67.7,3.79,15.27,5.61,54.46-14,68.71-23.13s23.42,5.21,15.27,22-20.36,40.15-62.1,37.1c4.08,11.19,10.18,34.61-7.12,58-29.52-1-44.79-16.28-48.87-24.43-4.07,6.11-34.61,29.53-49.88,28.51-11.2-15.27-19.34-44.57-11.2-62C38,131.66,13.54,128.61,3.36,95S8.85,73.94,14.56,76.69Z"/></g><path class="c" d="M14.56,70.69S70.27,102.1,91.93,90c15.48-8.63,50.39-12,67.7,3.79,15.27,5.61,54.46-14,68.71-23.13s23.42,5.21,15.27,22-20.36,40.15-62.1,37.1c4.08,11.19,10.18,34.61-7.12,58-29.52-1-44.79-16.28-48.87-24.43-4.07,6.11-34.61,29.53-49.88,28.51-11.2-15.27-19.34-44.57-11.2-62C38,125.66,13.54,122.61,3.36,89S8.85,67.94,14.56,70.69Z"/><path class="c" d="M133.56,86.11,130.72,85c11.93-29.82,6.08-72.09,6-72.52l3-.43C140,13.79,145.78,55.54,133.56,86.11Z"/><path class="c" d="M112.55,90.94C82.45,63.34,91.89,29,92,28.62l2.93.85c-.09.32-9,32.93,19.7,59.22Z"/><path class="c" d="M122.07,86.4c-12.6-18.68-6.44-43.94-6.17-45l3,.74c-.06.25-6.09,25,5.74,42.55Z"/><path class="c" d="M140.6,90.37l-1.66-2.56c16.47-10.68,19.14-38.76,19.17-39.05l3,.27a81.74,81.74,0,0,1-3.51,16.23C153.87,76.91,148,85.59,140.6,90.37Z"/><path class="c" d="M151.46,95.26l-1-2.89c19.12-6.57,20.81-22.82,20.87-23.51l3,.26C174.37,69.31,172.51,88,151.46,95.26Z"/><path class="c" d="M98.29,95.09C71.81,77.51,76.49,57.51,76.7,56.67l3,.74L78.18,57l1.49.37c-.19.76-4.28,18.82,20.31,35.13Z"/><path class="c" d="M86.21,51a8.4,8.4,0,1,1-8.4-8.39A8.4,8.4,0,0,1,86.21,51Z"/><path class="d" d="M81.68,55.31a3.87,3.87,0,1,1-3.87-3.87A3.87,3.87,0,0,1,81.68,55.31Z"/><path class="c" d="M77.81,59.57a4.26,4.26,0,1,1,4.26-4.26A4.27,4.27,0,0,1,77.81,59.57Zm0-7.74a3.48,3.48,0,1,0,3.47,3.48A3.48,3.48,0,0,0,77.81,51.83Z"/><path class="c" d="M102.59,26.93a8.4,8.4,0,1,1-5.38-10.59A8.39,8.39,0,0,1,102.59,26.93Z"/><path class="d" d="M97,29.59a3.87,3.87,0,1,1-2.48-4.88A3.87,3.87,0,0,1,97,29.59Z"/><path class="c" d="M93.28,32.65A4,4,0,0,1,92,32.44a4.26,4.26,0,1,1,5.38-2.73h0A4.27,4.27,0,0,1,93.28,32.65Zm0-7.74a3.5,3.5,0,1,0,1.07.18A3.38,3.38,0,0,0,93.29,24.91Z"/><path class="c" d="M127.51,41a8.4,8.4,0,1,1-5.38-10.59A8.4,8.4,0,0,1,127.51,41Z"/><path class="d" d="M121.88,43.66a3.87,3.87,0,1,1-2.48-4.88A3.87,3.87,0,0,1,121.88,43.66Z"/><path class="c" d="M118.2,46.72a4,4,0,0,1-1.32-.21,4.26,4.26,0,1,1,5.37-2.73h0A4.26,4.26,0,0,1,118.2,46.72Zm0-7.73a3.47,3.47,0,1,0,1.08.17A3.38,3.38,0,0,0,118.2,39Z"/><path class="c" d="M129.08,11A8.4,8.4,0,1,0,134.46.42,8.39,8.39,0,0,0,129.08,11Z"/><path class="d" d="M134.71,13.66a3.86,3.86,0,1,0,2.48-4.87A3.85,3.85,0,0,0,134.71,13.66Z"/><path class="c" d="M138.38,16.73a4.38,4.38,0,0,1-1.93-.46,4.28,4.28,0,1,1,3.26.25A4.35,4.35,0,0,1,138.38,16.73Zm0-7.74a3.67,3.67,0,0,0-1.07.17,3.49,3.49,0,0,0-2.23,4.38h0a3.48,3.48,0,0,0,6.61-2.15A3.48,3.48,0,0,0,138.38,9Z"/><path class="c" d="M150.12,46.91a8.4,8.4,0,1,0,5.38-10.58A8.39,8.39,0,0,0,150.12,46.91Z"/><path class="d" d="M155.75,49.57a3.86,3.86,0,1,0,2.48-4.87A3.85,3.85,0,0,0,155.75,49.57Z"/><path class="c" d="M159.43,52.64a4.26,4.26,0,0,1-3.8-6.2,4.21,4.21,0,0,1,2.47-2.12,4.27,4.27,0,1,1,2.65,8.11A4.33,4.33,0,0,1,159.43,52.64Zm0-7.74a3.67,3.67,0,0,0-1.07.17,3.48,3.48,0,1,0,1.07-.17Z"/><path class="c" d="M163.71,66.26a8.4,8.4,0,1,0,5.38-10.59A8.4,8.4,0,0,0,163.71,66.26Z"/><path class="d" d="M169.34,68.92A3.87,3.87,0,1,0,171.82,64,3.88,3.88,0,0,0,169.34,68.92Z"/><path class="c" d="M173,72A4.27,4.27,0,0,1,169,69h0a4.18,4.18,0,0,1,.25-3.25,4.26,4.26,0,0,1,7.85.61,4.18,4.18,0,0,1-.25,3.25,4.22,4.22,0,0,1-2.48,2.13A4.28,4.28,0,0,1,173,72Zm-3.3-3.19a3.47,3.47,0,0,0,6.4.5,3.48,3.48,0,1,0-6.4-.5Z"/><g class="a"><path d="M123.33,104.21c17.93,0,34.05-3.66,45.2-9.49a21.85,21.85,0,0,1-8.9-.9C142.32,78,107.41,81.4,91.93,90c-4.6,2.57-10.74,3.17-17.55,2.52C85.48,99.63,103.27,104.21,123.33,104.21Z"/></g><path class="e" d="M80.22,134.49s-.58,2.93-1.3,7.31c-.36,2.19-.73,4.75-1.07,7.49-.18,1.37-.3,2.79-.45,4.23s-.25,2.9-.31,4.37-.12,2.92-.12,4.36,0,2.86.1,4.23c.06.68.11,1.35.16,2s.13,1.29.2,1.92.18,1.22.27,1.81.21,1.14.31,1.68c.25,1.06.47,2,.73,2.91s.52,1.59.72,2.21c.47,1.2.76,1.9.76,1.9l-.3-.45c-.18-.29-.5-.71-.82-1.28A19.34,19.34,0,0,1,78,177.08a25.5,25.5,0,0,1-1.13-2.88c-.17-.54-.34-1.11-.52-1.7s-.28-1.21-.43-1.84-.25-1.29-.37-2-.19-1.37-.28-2.07c-.13-1.41-.27-2.87-.28-4.35s0-3,.06-4.5a70.82,70.82,0,0,1,1-8.75c.22-1.39.52-2.72.8-4s.59-2.43.9-3.51A54.73,54.73,0,0,1,80.22,134.49Z"/><path class="e" d="M115.72,150.39a46.39,46.39,0,0,1-2.61,6.52c-.45,1-1,2-1.54,3s-1.2,2.18-1.91,3.3-1.44,2.27-2.26,3.4-1.67,2.26-2.57,3.35-1.87,2.13-2.84,3.14-2,1.92-3,2.79a35.81,35.81,0,0,1-3.08,2.31c-.53.32-1,.66-1.52.95l-1.46.79-1.39.65c-.44.2-.88.35-1.28.51-.8.33-1.55.48-2.13.67s-1.09.22-1.41.29l-.49.09,1.76-.76c.54-.29,1.22-.57,2-1s1.53-.91,2.4-1.45,1.75-1.24,2.67-2,1.85-1.56,2.8-2.42l1.4-1.36,1.39-1.45c.92-1,1.83-2,2.69-3.08s1.74-2.13,2.56-3.21,1.61-2.15,2.34-3.22c1.48-2.13,2.81-4.16,3.93-5.92C114.31,152.82,115.72,150.39,115.72,150.39Z"/><path class="e" d="M97.71,145.94s-.53,1.95-1.56,4.76c-.51,1.41-1.14,3-1.86,4.77-.37.86-.72,1.75-1.13,2.65L92,160.83c-.43.9-.85,1.8-1.28,2.69s-.87,1.74-1.28,2.57c-.85,1.67-1.68,3.21-2.42,4.51-1.47,2.61-2.62,4.28-2.62,4.28s.53-2,1.56-4.77c.51-1.41,1.14-3,1.86-4.76.37-.86.72-1.77,1.13-2.66L90.11,160l1.28-2.68c.41-.89.87-1.74,1.28-2.58.85-1.67,1.68-3.2,2.43-4.5C96.57,147.6,97.71,145.94,97.71,145.94Z"/><path class="e" d="M170.32,131.74a54,54,0,0,1,2.43,7.06c.31,1.08.62,2.25.9,3.51s.58,2.58.81,4a73.23,73.23,0,0,1,1,8.76c.08,1.5.09,3,.06,4.49s-.15,2.95-.28,4.36c-.09.7-.17,1.39-.28,2.07s-.25,1.32-.37,2-.29,1.25-.43,1.84-.35,1.15-.51,1.7c-.37,1.07-.74,2-1.13,2.88a22.31,22.31,0,0,1-1.09,2.11c-.32.57-.63,1-.82,1.28l-.3.45s.29-.7.76-1.9c.2-.62.49-1.35.72-2.22s.48-1.84.73-2.9l.31-1.69q.14-.87.27-1.8l.21-1.92q.08-1,.15-2c.08-1.37.09-2.79.1-4.23s0-2.9-.12-4.37-.17-2.92-.3-4.36-.27-2.86-.45-4.23c-.34-2.74-.72-5.3-1.08-7.49C170.9,134.67,170.32,131.74,170.32,131.74Z"/><path class="e" d="M134.83,147.64s1.4,2.43,3.61,6c1.12,1.76,2.45,3.79,3.93,5.92.73,1.06,1.54,2.13,2.35,3.22s1.66,2.17,2.55,3.21,1.78,2.1,2.7,3.08l1.38,1.45,1.4,1.36c.95.86,1.88,1.69,2.8,2.42s1.82,1.38,2.67,2,1.66,1.06,2.41,1.46,1.4.71,1.94,1l1.77.76-.5-.1c-.32-.07-.81-.13-1.4-.28s-1.34-.34-2.13-.67c-.41-.16-.85-.31-1.29-.51l-1.39-.65-1.46-.8c-.5-.28-1-.62-1.51-1a35.74,35.74,0,0,1-3.09-2.3c-1-.87-2-1.78-3-2.79s-1.93-2-2.84-3.14S144,165,143.14,163.9s-1.55-2.28-2.26-3.4-1.33-2.24-1.91-3.3-1.09-2.09-1.54-3A47,47,0,0,1,134.83,147.64Z"/><path class="e" d="M152.83,143.19s1.15,1.66,2.62,4.27c.74,1.31,1.57,2.84,2.42,4.51.41.83.87,1.69,1.28,2.58s.85,1.78,1.28,2.68l1.22,2.71c.41.89.76,1.79,1.12,2.65.72,1.73,1.35,3.36,1.86,4.77,1,2.81,1.56,4.76,1.56,4.76s-1.15-1.66-2.62-4.27c-.74-1.31-1.57-2.84-2.42-4.51-.41-.84-.87-1.69-1.28-2.58l-1.28-2.68-1.21-2.71c-.41-.9-.76-1.8-1.13-2.66-.72-1.72-1.35-3.35-1.86-4.76C153.36,145.14,152.83,143.19,152.83,143.19Z"/><path class="e" d="M6.56,76.77l.33.87c.21.56.56,1.38,1,2.41a84.52,84.52,0,0,0,4.18,8.3c.95,1.67,2,3.43,3.26,5.26s2.59,3.68,4.05,5.56,3.11,3.72,4.86,5.51a66.2,66.2,0,0,0,5.55,5.14c1,.78,2,1.59,3,2.33s2,1.5,3.11,2.13,2.09,1.35,3.17,1.92l1.59.9c.52.29,1.07.53,1.6.8l1.59.78c.53.25,1.07.45,1.6.69,1,.45,2.08.91,3.12,1.25,2,.78,4,1.34,5.87,1.89.93.25,1.83.43,2.67.64s1.66.42,2.43.54c1.54.26,2.87.58,4,.68,2.23.28,3.51.47,3.51.47s-1.28,0-3.54-.08c-1.14,0-2.5-.2-4.08-.32s-3.33-.47-5.25-.8l-3-.68c-1-.22-2.06-.6-3.13-.91s-2.16-.72-3.26-1.14a32.59,32.59,0,0,1-3.32-1.4c-.56-.26-1.13-.49-1.68-.78l-1.67-.87c-1.13-.56-2.21-1.25-3.31-1.93s-2.14-1.44-3.22-2.16-2.08-1.58-3.11-2.39A66.93,66.93,0,0,1,22.82,106,64.33,64.33,0,0,1,18,100.26,70.15,70.15,0,0,1,14,94.42c-1.16-1.91-2.15-3.78-3-5.53a66.65,66.65,0,0,1-3.52-8.7c-.36-1.07-.58-1.93-.74-2.52S6.56,76.77,6.56,76.77Z"/><path class="e" d="M22.66,85.55s2,2.44,5.26,5.89c.82.86,1.7,1.78,2.65,2.74s2,1.94,3,3c2.14,2,4.48,4.09,6.95,6,1.22,1,2.47,1.9,3.74,2.76s2.52,1.7,3.78,2.42c.63.38,1.25.73,1.87,1.06s1.22.67,1.83,1,1.18.58,1.76.82,1.13.52,1.68.72c1.09.43,2.1.79,3,1.08s1.72.49,2.39.69l2.12.49s-.79,0-2.19-.09c-.69-.1-1.54-.15-2.5-.34l-1.53-.29c-.54-.12-1.09-.29-1.67-.44a31.05,31.05,0,0,1-3.69-1.26,36.38,36.38,0,0,1-3.95-1.83,45.07,45.07,0,0,1-4-2.36c-1.32-.87-2.62-1.81-3.89-2.79s-2.49-2-3.65-3.1-2.26-2.16-3.31-3.23A70,70,0,0,1,27,92.19,52.16,52.16,0,0,1,22.66,85.55Z"/><path class="e" d="M243.5,81l-.29.88c-.21.57-.51,1.41-1,2.45A68.13,68.13,0,0,1,238,92.65c-1,1.68-2.15,3.45-3.47,5.25a69.86,69.86,0,0,1-4.42,5.48,66.91,66.91,0,0,1-5.33,5.32,68.75,68.75,0,0,1-6.12,4.83c-1.1.72-2.19,1.44-3.31,2.11s-2.23,1.33-3.4,1.88-2.29,1.16-3.47,1.62l-1.73.73c-.57.24-1.17.42-1.74.63a35.94,35.94,0,0,1-3.43,1.11c-1.14.31-2.24.64-3.35.84s-2.15.51-3.2.64l-3,.42c-1.94.16-3.72.35-5.3.33s-2.95.07-4.08,0c-2.26-.13-3.55-.23-3.55-.23s1.3-.08,3.54-.16c1.13,0,2.48-.21,4-.33.78-.06,1.6-.18,2.46-.32s1.78-.25,2.72-.41c1.88-.39,3.91-.78,6-1.38,1.06-.25,2.13-.61,3.22-1,.54-.19,1.1-.35,1.64-.54l1.66-.64c.55-.22,1.12-.42,1.67-.66l1.66-.75c1.12-.48,2.21-1.08,3.32-1.64s2.18-1.23,3.28-1.85,2.13-1.37,3.19-2.06a68.1,68.1,0,0,0,6-4.64c1.89-1.63,3.66-3.34,5.31-5.06S232,98.7,233.31,97s2.61-3.38,3.7-5a82.15,82.15,0,0,0,4.89-7.89c.52-1,.94-1.78,1.2-2.32Z"/><path class="e" d="M226.7,88.31a52,52,0,0,1-4.94,6.23,72.64,72.64,0,0,1-5.83,5.74c-1.14,1-2.31,2-3.58,2.93s-2.57,1.87-3.9,2.77-2.73,1.68-4.13,2.44-2.8,1.41-4.19,2a35.66,35.66,0,0,1-4.1,1.47,30.63,30.63,0,0,1-3.78.94c-.59.1-1.16.21-1.7.29l-1.55.16c-1,.1-1.83.08-2.52.11-1.4,0-2.19-.1-2.19-.1l2.15-.3c.68-.14,1.51-.26,2.44-.48s2-.48,3.1-.81c.56-.15,1.13-.37,1.73-.57s1.21-.42,1.83-.67,1.26-.5,1.9-.78,1.3-.58,2-.89c1.32-.61,2.63-1.35,4-2.09s2.66-1.56,4-2.42c2.62-1.69,5.13-3.56,7.44-5.37,1.14-.93,2.25-1.81,3.28-2.69s2-1.72,2.87-2.5C224.46,90.57,226.7,88.31,226.7,88.31Z"/></svg>