<svg xmlns="http://www.w3.org/2000/svg" viewBox="0 0 288 464"><defs><style>.a{fill:#60a2d7;}.b{fill:#a3d4f7;}</style></defs><path class="a" d="M288,314.86C288,397.22,223.53,464,144,464S0,397.22,0,314.86,144,0,144,0,288,232.49,288,314.86Z"/><path class="b" d="M104,392a8,8,0,0,1-6.5-12.65l80-112a8,8,0,0,1,11.15-1.86h0a8,8,0,0,1,1.86,11.16h0l-80,112A8,8,0,0,1,104,392Zm0-64C90.54,328,80,314,80,296s10.54-32,24-32,24,14.05,24,32S117.46,328,104,328Zm0-48c-3.27,0-8,6.23-8,16s4.73,16,8,16,8-6.23,8-16S107.27,280,104,280Zm80,112c-13.46,0-24-14.05-24-32s10.54-32,24-32,24,14.05,24,32S197.46,392,184,392Zm0-48c-3.27,0-8,6.23-8,16s4.73,16,8,16,8-6.23,8-16S187.27,344,184,344Z"/></svg>