<svg xmlns="http://www.w3.org/2000/svg" viewBox="0 0 463.84 448.56"><defs><style>.a{fill:#d0dad9;}.b{fill:#60a2d7;}</style></defs><path class="a" d="M367.84,288.56h8a88,88,0,1,0-17.43-174.25,71.89,71.89,0,0,0-100.65-51.1A95.93,95.93,0,1,0,77.43,128.69a80,80,0,0,0,2.41,159.88"/><path class="b" d="M127.84,196.56a16,16,0,0,1,16,16v192a16,16,0,0,1-32,0v-192a16,16,0,0,1,16-16Zm64-20a16,16,0,0,1,16,16v240a16,16,0,0,1-32,0v-240a16,16,0,0,1,16-16Zm64,24a16,16,0,0,1,16,16v192a16,16,0,1,1-32,0v-192a16,16,0,0,1,16-16Zm64-24a16,16,0,0,1,16,16v240a16,16,0,0,1-32,0v-240a16,16,0,0,1,16-16Z"/></svg>