<svg xmlns="http://www.w3.org/2000/svg" viewBox="0 0 463.84 368.56"><defs><style>.a{fill:#d0dad9;}.b{fill:#60a2d7;}</style></defs><path class="a" d="M367.84,288.56h8a88,88,0,1,0-17.43-174.25,71.89,71.89,0,0,0-100.65-51.1A95.93,95.93,0,1,0,77.43,128.69a80,80,0,0,0,2.41,159.88"/><path class="b" d="M335.84,320.56a32,32,0,0,1-64,0c0-24,32-80,32-80S335.84,296.56,335.84,320.56Zm-80-80a32,32,0,0,1-64,0c0-24,32-80,32-80s32,56,32,80Zm-80,96a32,32,0,0,1-64,0c0-24,32-80,32-80S175.84,312.56,175.84,336.56Z"/></svg>