<svg xmlns="http://www.w3.org/2000/svg" viewBox="0 0 463.84 376.56"><defs><style>.a{fill:#a3d4f7;}.b{fill:#b7f9fe;}</style></defs><path class="a" d="M367.84,288.56h8a88,88,0,1,0-17.43-174.25,71.89,71.89,0,0,0-100.65-51.1A95.93,95.93,0,1,0,77.43,128.69a80,80,0,0,0,2.41,159.88"/><path class="b" d="M191.84,320.56H171.15l18.34-18.34a8,8,0,0,0-11.31-11.31l-18.34,18.34V288.56a8,8,0,0,0-16,0v20.69l-18.35-18.34a8,8,0,0,0-11.31,11.31l18.35,18.34H111.84a8,8,0,1,0,0,16h20.69l-18.35,18.35a8,8,0,1,0,11.31,11.31l18.35-18.34v20.68a8,8,0,0,0,16,0V347.88l18.34,18.34a8,8,0,0,0,11.31-11.31l-18.34-18.35h20.69a8,8,0,0,0,0-16Zm144-16H315.15l18.34-18.34a8,8,0,0,0-11.31-11.31l-18.34,18.34V272.56a8,8,0,0,0-16,0v20.69l-18.35-18.34a8,8,0,0,0-11.31,11.31l18.35,18.34H255.84a8,8,0,1,0,0,16h20.69l-18.35,18.35a8,8,0,1,0,11.31,11.31l18.35-18.34v20.68a8,8,0,0,0,16,0V331.88l18.34,18.34a8,8,0,0,0,11.31-11.31l-18.34-18.35h20.69a8,8,0,0,0,0-16Zm-90.35-61.65-18.34-18.35h20.69a8,8,0,0,0,0-16H227.15l18.34-18.34a8,8,0,0,0-11.31-11.31l-18.34,18.34V176.56a8,8,0,0,0-16,0v20.69l-18.35-18.34a8,8,0,0,0-11.31,11.31l18.35,18.34H167.84a8,8,0,1,0,0,16h20.69l-18.35,18.35a8,8,0,1,0,11.31,11.31l18.35-18.34v20.68a8,8,0,0,0,16,0V235.88l18.34,18.34a8,8,0,0,0,11.31-11.31Z"/></svg>