<svg xmlns="http://www.w3.org/2000/svg" viewBox="0 0 471.84 472"><defs><style>.a{fill:#fdd020;}.b{fill:#a3d4f7;}</style></defs><path class="a" d="M399.84,192a120,120,0,1,1-120-120A120,120,0,0,1,399.84,192Zm-120-144a8,8,0,0,1-8-8V8a8,8,0,0,1,16,0V40A8,8,0,0,1,279.84,48Zm184,152h-32a8,8,0,1,1,0-16h32a8,8,0,0,1,0,16Z"/><path class="b" d="M375.84,296a88.67,88.67,0,0,0-17.43,1.74,71.86,71.86,0,0,0-100.65-51.09A95.92,95.92,0,0,0,77.43,312.12,80,80,0,0,0,79.84,472h296a88,88,0,0,0,0-176Z"/><path class="a" d="M167.84,80l-32-32m32,40a8,8,0,0,1-5.66-2.34l-32-32a8,8,0,1,1,11.31-11.32l32,32A8,8,0,0,1,167.84,88Zm224-8,32-32m-32,40a8,8,0,0,1-5.66-13.66l32-32a8,8,0,1,1,11.31,11.32l-32,32A8,8,0,0,1,391.84,88Z"/></svg>