<svg xmlns="http://www.w3.org/2000/svg" viewBox="0 0 472.12 456"><defs><style>.a{fill:#fdd020;}.b{fill:#a3d4f7;}.c{fill:#ffa754;}</style></defs><path class="a" d="M416.12,160a104,104,0,1,1-104-104,104,104,0,0,1,104,104Zm48,8h-16a8,8,0,0,1,0-16h16a8,8,0,0,1,0,16Zm-168-136a8,8,0,0,1-8-8V8a8,8,0,0,1,16,0V24A8,8,0,0,1,296.12,32Zm112,40a8,8,0,0,1-5.65-13.66l16-16a8,8,0,1,1,11.31,11.32l-16,16A8,8,0,0,1,408.12,72Z"/><path class="b" d="M363.16,360a83.14,83.14,0,1,0,0-166.23,87.7,87.7,0,0,0-16.8,1.65,69.16,69.16,0,0,0-68.14-54.53,70.25,70.25,0,0,0-29,6.28A92.94,92.94,0,0,0,69.65,178.66,88.5,88.5,0,0,0,75.07,209a75.51,75.51,0,1,0,2.29,151"/><path class="c" d="M248.12,248h-64l-32,96h72L201.53,456l94.59-144h-64Z"/></svg>