<svg xmlns="http://www.w3.org/2000/svg" viewBox="0 0 480 384"><defs><style>.a{fill:#fce666;}.b{fill:#fdd020;}.c{fill:#f69c7f;}</style></defs><path class="a" d="M360,320H120a8,8,0,0,1,0-16H360a8,8,0,0,1,0,16Zm16-32H104a8,8,0,0,1,0-16H376a8,8,0,0,1,0,16Zm-72,96H176a8,8,0,0,1,0-16H304a8,8,0,0,1,0,16Zm40-32H144a8,8,0,0,1,0-16H344a8,8,0,0,1,0,16Z"/><path class="b" d="M240,80a8,8,0,0,1-8-8V8a8,8,0,0,1,16,0V72A8,8,0,0,1,240,80ZM120,128a8,8,0,0,1-5.66-2.34l-48-48A8,8,0,0,1,77.66,66.34l48,48A8,8,0,0,1,120,128Zm240,0a8,8,0,0,1-5.66-13.66l48-48a8,8,0,0,1,11.32,11.32l-48,48A8,8,0,0,1,360,128ZM472,256H408a8,8,0,0,1,0-16h64a8,8,0,0,1,0,16ZM72,256H8a8,8,0,0,1,0-16H72a8,8,0,0,1,0,16Zm304-8v-8a136,136,0,0,0-272,0v8Z"/><path class="b" d="M384,256H96V240a144,144,0,0,1,288,0ZM112,240H368a128,128,0,0,0-256,0Z"/><path class="c" d="M277.66,202.34a8,8,0,0,0-11.32,0L248,220.69V176a8,8,0,0,0-16,0v44.69l-18.34-18.35a8,8,0,0,0-11.32,11.32l32,32a8,8,0,0,0,11.33,0l32-32a8,8,0,0,0,0-11.32Z"/></svg>