<svg xmlns="http://www.w3.org/2000/svg" viewBox="0 0 20 20"><defs><style>.cls-1{fill:#5890ff;}.cls-2{fill:#ff3677;}</style></defs><g id="Layer_2" data-name="Layer 2"><g id="Layer_6" data-name="Layer 6"><path class="cls-1" d="M8,19.29V13a1,1,0,0,0-1-1H5a1,1,0,0,0-1,1v6a1,1,0,0,1-1,1H1a1,1,0,0,1-1-1V1A1,1,0,0,1,1,0H3A1,1,0,0,1,4,1V7A1,1,0,0,0,5,8H7A1,1,0,0,0,8,7V.71l0,0,4,4,4,4L17.29,10Z"/><path class="cls-2" d="M20,1V19a1,1,0,0,1-1,1H8.71l0,0,3-3,.29-.29.71-.71H15a1,1,0,0,0,1-1V12.71l2-2,.71-.71L16,7.29V5a1,1,0,0,0-1-1H12.71l-4-4H19A1,1,0,0,1,20,1Z"/></g></g></svg>