<svg xmlns="http://www.w3.org/2000/svg" xmlns:xlink="http://www.w3.org/1999/xlink" viewBox="0 0 765.52 1360.93"><defs><style>.a{fill:url(#a);}.b{fill:url(#b);}.c{fill:url(#c);}.d{fill:url(#d);}.e{fill:url(#e);}.f{fill:#e0f9fc;}.g{fill:url(#f);}.h{fill:url(#g);}.i{fill:url(#h);}.j{fill:url(#i);}.k{fill:url(#j);}.l{fill:url(#k);}.m{fill:url(#l);}.n{fill:url(#m);}.o{fill:url(#n);}.p{fill:url(#o);}.q{fill:url(#p);}.r{fill:url(#q);}.s{fill:url(#r);}.t{fill:url(#s);}.u{fill:url(#u);}.v{fill:url(#v);}.w{fill:url(#w);}.x{fill:url(#x);}.y{fill:url(#y);}.z{fill:url(#z);}.aa{fill:url(#aa);}.ab{fill:url(#ab);}.ac{fill:url(#ac);}.ad{fill:url(#ad);}.ae{fill:url(#ae);}.af{fill:url(#af);}.ag{fill:url(#ag);}.ah{fill:url(#ah);}</style><linearGradient id="a" x1="382.76" y1="631.54" x2="382.76" y2="30.64" gradientUnits="userSpaceOnUse"><stop offset="0" stop-color="#a4e5f4"/><stop offset="0.4" stop-color="#60acc4"/><stop offset="1" stop-color="#352968"/></linearGradient><linearGradient id="b" x1="419.46" y1="636.22" x2="454.92" y2="507.76" gradientUnits="userSpaceOnUse"><stop offset="0" stop-color="#5599b7"/><stop offset="1" stop-color="#407da0"/></linearGradient><linearGradient id="c" x1="105.88" y1="408.65" x2="137.32" y2="301.59" xlink:href="#b"/><linearGradient id="d" x1="300.5" y1="634.08" x2="360.47" y2="523.62" gradientUnits="userSpaceOnUse"><stop offset="0.01" stop-color="#496e9b"/><stop offset="1" stop-color="#3c578e"/></linearGradient><linearGradient id="e" x1="212.5" y1="539.37" x2="212.5" y2="702.42" gradientUnits="userSpaceOnUse"><stop offset="0.01" stop-color="#373c77"/><stop offset="1" stop-color="#455589"/></linearGradient><linearGradient id="f" x1="382.76" y1="745.29" x2="382.76" y2="894.71" gradientUnits="userSpaceOnUse"><stop offset="0.01" stop-color="#6eb2cc"/><stop offset="1" stop-color="#718fcc"/></linearGradient><linearGradient id="g" x1="-534.55" y1="43.17" x2="66.34" y2="43.17" gradientUnits="userSpaceOnUse"><stop offset="0" stop-color="#ccf4fa"/><stop offset="0" stop-color="#ccf4fa"/><stop offset="0.1" stop-color="#c2f0f7"/><stop offset="0.25" stop-color="#a8e6ef"/><stop offset="0.4" stop-color="#8adae6"/><stop offset="0.47" stop-color="#87d3e3"/><stop offset="0.58" stop-color="#7fbeda"/><stop offset="0.72" stop-color="#719ccb"/><stop offset="0.87" stop-color="#5e6eb7"/><stop offset="1" stop-color="#4c40a3"/></linearGradient><linearGradient id="h" x1="-1060.27" y1="-305.86" x2="-1059.25" y2="-305.86" gradientTransform="matrix(0, -589.41, -589.41, 0, -179867.09, -624300.74)" xlink:href="#g"/><linearGradient id="i" x1="-1060.27" y1="-305.45" x2="-1059.25" y2="-305.45" gradientTransform="matrix(0, -589.41, -589.41, 0, -179867.09, -624300.74)" xlink:href="#g"/><linearGradient id="j" x1="-1060.27" y1="-305.98" x2="-1059.25" y2="-305.98" gradientTransform="matrix(0, -589.41, -589.41, 0, -179867.09, -624300.74)" xlink:href="#g"/><linearGradient id="k" x1="-1060.27" y1="-306.28" x2="-1059.25" y2="-306.28" gradientTransform="matrix(0, -589.41, -589.41, 0, -179867.09, -624300.74)" xlink:href="#g"/><linearGradient id="l" x1="-1060.27" y1="-306.34" x2="-1059.25" y2="-306.34" gradientTransform="matrix(0, -589.41, -589.41, 0, -179867.09, -624300.74)" xlink:href="#g"/><linearGradient id="m" x1="-1060.27" y1="-305.3" x2="-1059.25" y2="-305.3" gradientTransform="matrix(0, -589.41, -589.41, 0, -179867.09, -624300.74)" xlink:href="#g"/><linearGradient id="n" x1="-1060.27" y1="-305.51" x2="-1059.25" y2="-305.51" gradientTransform="matrix(0, -589.41, -589.41, 0, -179867.09, -624300.74)" xlink:href="#g"/><linearGradient id="o" x1="-1060.27" y1="-305.66" x2="-1059.25" y2="-305.66" gradientTransform="matrix(0, -589.41, -589.41, 0, -179867.09, -624300.74)" xlink:href="#g"/><linearGradient id="p" x1="-1060.27" y1="-305.62" x2="-1059.25" y2="-305.62" gradientTransform="matrix(0, -589.41, -589.41, 0, -179867.09, -624300.74)" xlink:href="#g"/><linearGradient id="q" x1="-1060.27" y1="-306.08" x2="-1059.25" y2="-306.08" gradientTransform="matrix(0, -589.41, -589.41, 0, -179867.09, -624300.74)" xlink:href="#g"/><linearGradient id="r" x1="-1060.27" y1="-306.27" x2="-1059.25" y2="-306.27" gradientTransform="matrix(0, -589.41, -589.41, 0, -179867.09, -624300.74)" xlink:href="#g"/><linearGradient id="s" x1="-1060.27" y1="-305.63" x2="-1059.25" y2="-305.63" gradientTransform="matrix(0, -589.41, -589.41, 0, -179867.09, -624300.74)" xlink:href="#g"/><linearGradient id="u" x1="-1057.32" y1="-288.18" x2="-1056.3" y2="-288.18" gradientTransform="matrix(0, 154.17, 154.17, 0, 44681.06, 163749.02)" gradientUnits="userSpaceOnUse"><stop offset="0" stop-color="#9ac8d7"/><stop offset="0.01" stop-color="#9ac8d7"/><stop offset="1" stop-color="#9cb0d7"/></linearGradient><linearGradient id="v" x1="-1057.32" y1="-288.25" x2="-1056.3" y2="-288.25" xlink:href="#u"/><linearGradient id="w" x1="-1057.32" y1="-285.72" x2="-1056.3" y2="-285.72" xlink:href="#u"/><linearGradient id="x" x1="-1057.32" y1="-285.12" x2="-1056.3" y2="-285.12" xlink:href="#u"/><linearGradient id="y" x1="-1057.32" y1="-287.37" x2="-1056.3" y2="-287.37" xlink:href="#u"/><linearGradient id="z" x1="-1057.32" y1="-287.64" x2="-1056.3" y2="-287.64" xlink:href="#u"/><linearGradient id="aa" x1="-1057.32" y1="-288.87" x2="-1056.3" y2="-288.87" xlink:href="#u"/><linearGradient id="ab" x1="-1057.32" y1="-287.15" x2="-1056.3" y2="-287.15" xlink:href="#u"/><linearGradient id="ac" x1="343.45" y1="1075.41" x2="343.45" y2="895.1" gradientUnits="userSpaceOnUse"><stop offset="0.01" stop-color="#3b4072"/><stop offset="1" stop-color="#252851"/></linearGradient><linearGradient id="ad" x1="76.94" y1="739.94" x2="76.94" y2="857.56" xlink:href="#ac"/><linearGradient id="ae" x1="382.76" y1="631.54" x2="382.76" y2="30.65" xlink:href="#a"/><linearGradient id="af" x1="382.76" y1="1363.99" x2="382.76" y2="931.14" gradientUnits="userSpaceOnUse"><stop offset="0.01" stop-color="#373766"/><stop offset="1" stop-color="#19193d"/></linearGradient><linearGradient id="ag" x1="640.07" y1="657.92" x2="640.07" y2="855.79" xlink:href="#af"/><linearGradient id="ah" x1="473.85" y1="680.56" x2="473.85" y2="875.08" xlink:href="#af"/></defs><rect class="a" width="765.52" height="1360.93" rx="30.65"/><path class="b" d="M274.43,475.32s32.11-38.23,48.93-38.23,66.81,98.63,87,92.33,26.94-36.89,53.45-4.95S597,679.43,597,679.43L458.7,713.82Z"/><path class="c" d="M25.27,338.25s53.44-53.87,79.09-53.88c24.33,0,98.21,139.92,98.21,139.92L87.85,499.41Z"/><path class="d" d="M765.52,739.48S692.61,596.64,658.46,596.64c-8.65,0-116,97.21-183.39,45.63-54.38-41.62-180.63-193.52-227.4-250.67A28.87,28.87,0,0,0,208.12,387c-24,18.13-60.46,42.47-69.82,30.76C124,399.86,0,225.66,0,225.66V739.48Z"/><path class="e" d="M0,444.85s29.1-47.92,53.91-34.67C67.27,417.33,147.7,527.42,162,531.5s39.76-41.8,87.68,21.41S425,739.48,425,739.48H0Z"/><path class="f" d="M632.25,412.31A90.1,90.1,0,0,1,554.34,277,90.1,90.1,0,1,0,666.59,405.53,89.75,89.75,0,0,1,632.25,412.31Z"/><rect class="g" y="739.48" width="765.52" height="590.81"/><path class="h" d="M53.82,37.05a6.12,6.12,0,1,0,6.11,6.12A6.12,6.12,0,0,0,53.82,37.05Z"/><path class="i" d="M408.6,290.93a6.12,6.12,0,1,0,6.11,6.12,6.12,6.12,0,0,0-6.11-6.12"/><path class="j" d="M168.34,80.89A6.12,6.12,0,1,0,174.45,87a6.12,6.12,0,0,0-6.11-6.12"/><path class="k" d="M480,43.17a6.12,6.12,0,1,0,6.12,6.12A6.11,6.11,0,0,0,480,43.17"/><path class="l" d="M655.31,136.07a6.12,6.12,0,1,0,6.12,6.12,6.12,6.12,0,0,0-6.12-6.12"/><path class="m" d="M690.81,67a3.91,3.91,0,1,0,3.92,3.91A3.92,3.92,0,0,0,690.81,67"/><path class="n" d="M80.85,138.27a3.92,3.92,0,1,0,3.91,3.92,3.92,3.92,0,0,0-3.91-3.92"/><path class="o" d="M202.57,264.35a3.91,3.91,0,1,0,3.91,3.91,3.91,3.91,0,0,0-3.91-3.91"/><path class="p" d="M291.52,348.16a3.91,3.91,0,1,0,3.91,3.91,3.91,3.91,0,0,0-3.91-3.91"/><path class="q" d="M270.51,35.35a3.91,3.91,0,1,0,3.92,3.91,3.91,3.91,0,0,0-3.92-3.91"/><path class="r" d="M541.13,33.14A3.91,3.91,0,1,0,545,37.05a3.91,3.91,0,0,0-3.91-3.91"/><path class="s" d="M649.19,308.4a3.91,3.91,0,1,0,3.91,3.91,3.91,3.91,0,0,0-3.91-3.91"/><path class="t" d="M274.43,232.27a3.91,3.91,0,1,0,3.91,3.91,3.92,3.92,0,0,0-3.91-3.91"/><path class="s" d="M649.19,268.26a6.12,6.12,0,1,0,6.12,6.12,6.11,6.11,0,0,0-6.12-6.12"/><path class="u" d="M252.86,775.36c-81.23,0-153.55,2.11-200.38,5.38,46.83,3.28,119.15,5.39,200.38,5.39s153.56-2.11,200.38-5.39c-46.82-3.27-119.15-5.38-200.38-5.38"/><path class="v" d="M243,817.76c-30.43,0-57.53,2.11-75.07,5.39,17.54,3.28,44.64,5.38,75.07,5.38s57.53-2.1,75.08-5.38c-17.55-3.28-44.64-5.39-75.08-5.39"/><path class="w" d="M632,756.21c-41.84,0-79.09,2.1-103.21,5.38C552.87,764.87,590.12,767,632,767s79.08-2.1,103.2-5.38c-24.12-3.28-61.37-5.38-103.2-5.38"/><path class="x" d="M726,778.05c-11,0-20.86,1.06-27.21,2.69,6.35,1.64,16.18,2.7,27.21,2.7s20.85-1.06,27.21-2.7c-6.36-1.63-16.18-2.69-27.21-2.69"/><path class="y" d="M378.92,802.26c-13.78,0-26.05,1-34,2.69,7.94,1.64,20.21,2.69,34,2.69s26.05-1,34-2.69c-7.95-1.64-20.22-2.69-34-2.69"/><path class="z" d="M337.17,860.16c-30.06,0-56.82,1.06-74.14,2.7,17.32,1.64,44.08,2.69,74.14,2.69s56.81-1,74.14-2.69c-17.33-1.64-44.09-2.7-74.14-2.7"/><path class="aa" d="M147.24,846.7c-30.05,0-56.81,1.06-74.13,2.7,17.32,1.64,44.08,2.69,74.13,2.69s56.82-1.05,74.14-2.69c-17.32-1.64-44.08-2.7-74.14-2.7"/><path class="ab" d="M412.92,837.52c-30.06,0-56.82,1.06-74.14,2.7,17.32,1.64,44.08,2.69,74.14,2.69s56.81-1,74.14-2.69c-17.33-1.64-44.09-2.7-74.14-2.7"/><path class="ac" d="M0,851.13s191.54-1,475.07,206.49c278.68,203.93,202.24,303.31,202.24,303.31L0,1330.29Z"/><path class="ad" d="M34,853.81,21.5,873.73H33.79c-1.41,2.8-3,5.82-4.8,9H124.9c-1.8-3.19-3.39-6.21-4.8-9h12.29l-12.53-19.92,15.89.7c-5-5.88-11.76-15-11.76-15h7.56c-10-7-21.62-31.59-28.92-49l8.76,3.08-11.2-21.36h13.72c-17.22-13.35-37-73.17-37-73.17S57.2,758.91,40,772.26H53.7L42.5,793.62l8.76-3.08c-7.31,17.42-18.94,42-28.92,49H29.9s-6.72,9.08-11.76,15Z"/><path class="ae" d="M0,1330.29a30.64,30.64,0,0,0,30.65,30.64H734.88a30.64,30.64,0,0,0,30.64-30.64V828C409.74,859.16,0,1049.91,0,1049.91Z"/><path class="af" d="M0,1330.29a30.64,30.64,0,0,0,30.65,30.64H734.88a30.64,30.64,0,0,0,30.64-30.64V828C409.74,859.16,0,1049.91,0,1049.91Z"/><path class="ag" d="M567.88,834.07l-21.09,33.52h20.68c-2.37,4.7-5.06,9.78-8.08,15.15H720.74c-3-5.37-5.71-10.45-8.07-15.15h20.68l-21.09-33.52L739,835.24c-8.48-9.88-19.79-25.16-19.79-25.16h12.72c-16.8-11.8-36.36-53.15-48.66-82.45L698,732.81l-18.84-35.94h23.08c-29-22.46-62.18-123.09-62.18-123.09s-33.22,100.63-62.19,123.09H601l-18.84,35.94,14.74-5.18c-12.29,29.3-31.86,70.65-48.66,82.45h12.72s-11.31,15.28-19.79,25.16Z"/><path class="ah" d="M415.82,883.65l-16.95,26.94h16.62c-1.9,3.79-4.06,7.87-6.49,12.18H538.69c-2.43-4.31-4.59-8.39-6.49-12.18h16.62l-17-26.94,21.5.94c-6.82-7.94-15.91-20.22-15.91-20.22h10.23c-13.51-9.49-29.23-42.72-39.12-66.27l11.85,4.17-15.14-28.89h18.55c-23.29-18.06-50-98.94-50-98.94s-26.7,80.88-50,98.94h18.56l-15.15,28.89,11.85-4.17c-9.88,23.55-25.61,56.78-39.11,66.27h10.22s-9.09,12.28-15.9,20.22Z"/></svg>