<svg xmlns="http://www.w3.org/2000/svg" viewBox="0 0 111.81 115.75"><defs><style>.cls-1{fill:#005993;}.cls-1,.cls-2{fill-rule:evenodd;}.cls-2{fill:#d61d4b;}</style></defs><g id="Layer_2" data-name="Layer 2"><g id="Layer_1-2" data-name="Layer 1"><path class="cls-1" d="M39.5,41H72.28V70.88a104.84,104.84,0,0,1,34.21,11.73,59.51,59.51,0,0,0,5.32-24.68C111.81,25.93,86.74,0,55.87,0S0,25.93,0,57.93A59.65,59.65,0,0,0,5.28,82.57,104.71,104.71,0,0,1,39.5,70.86Z"/><path class="cls-2" d="M55.89,115.75c19.53,0,36.74-10.39,46.75-26.15a97.25,97.25,0,0,0-93.52,0c10,15.76,27.19,26.17,46.77,26.17"/></g></g></svg>