<svg xmlns="http://www.w3.org/2000/svg" xmlns:xlink="http://www.w3.org/1999/xlink" viewBox="0 0 765.52 1360.93"><defs><style>.a{fill:url(#a);}.b{fill:url(#c);}.c{fill:url(#d);}.d{fill:url(#e);}.e{fill:url(#f);}.f{fill:url(#g);}.g{fill:url(#h);}.h{fill:#fbf8f1;}.i{fill:url(#i);}.j{fill:url(#j);}.k{fill:url(#k);}.l{fill:url(#l);}.m{fill:url(#m);}.n{fill:url(#n);}.o{fill:url(#o);}.p{fill:url(#p);}.q{fill:url(#q);}.r{fill:url(#r);}.s{fill:url(#s);}.t{fill:url(#t);}.u{fill:url(#u);}.v{fill:url(#v);}.w{fill:url(#w);}</style><linearGradient id="a" x1="382.76" y1="665.18" x2="382.76" y2="64.29" gradientUnits="userSpaceOnUse"><stop offset="0" stop-color="#fff5dc"/><stop offset="1" stop-color="#f46494"/></linearGradient><linearGradient id="c" x1="-142.65" y1="-306.12" x2="-141.63" y2="-306.12" gradientTransform="matrix(0, -589.41, -589.41, 0, -179849.55, -83411.66)" gradientUnits="userSpaceOnUse"><stop offset="0" stop-color="#fef6e1"/><stop offset="1" stop-color="#f687aa"/></linearGradient><linearGradient id="d" x1="-142.65" y1="-306.12" x2="-141.63" y2="-306.12" gradientTransform="matrix(0, -589.41, -589.41, 0, -179849.55, -83411.66)" gradientUnits="userSpaceOnUse"><stop offset="0" stop-color="#fdf6e5"/><stop offset="1" stop-color="#f7a2bb"/></linearGradient><linearGradient id="e" x1="435.7" y1="642.74" x2="435.7" y2="441.21" gradientUnits="userSpaceOnUse"><stop offset="0.01" stop-color="#f495a9"/><stop offset="1" stop-color="#e0688d"/></linearGradient><linearGradient id="f" x1="115.55" y1="433.69" x2="111.04" y2="288.95" xlink:href="#e"/><linearGradient id="g" x1="301.78" y1="639.16" x2="364.34" y2="518.18" gradientUnits="userSpaceOnUse"><stop offset="0.01" stop-color="#e879a6"/><stop offset="1" stop-color="#cc5c8a"/></linearGradient><linearGradient id="h" x1="212.5" y1="804.83" x2="212.5" y2="580.12" gradientUnits="userSpaceOnUse"><stop offset="0.01" stop-color="#d86498"/><stop offset="1" stop-color="#b74e7e"/></linearGradient><linearGradient id="i" x1="382.76" y1="722.13" x2="382.76" y2="845.62" gradientUnits="userSpaceOnUse"><stop offset="0" stop-color="#fcb6dc"/><stop offset="1" stop-color="#e2a3e2"/></linearGradient><linearGradient id="j" x1="-139.23" y1="-285.49" x2="-138.21" y2="-285.49" gradientTransform="matrix(0, 128.12, 128.12, 0, 36832.75, 18558.67)" gradientUnits="userSpaceOnUse"><stop offset="0" stop-color="#fccee4"/><stop offset="1" stop-color="#ebc2e8"/></linearGradient><linearGradient id="k" x1="-139.23" y1="-285.56" x2="-138.21" y2="-285.56" xlink:href="#j"/><linearGradient id="l" x1="-139.23" y1="-282.53" x2="-138.21" y2="-282.53" xlink:href="#j"/><linearGradient id="m" x1="-139.23" y1="-281.8" x2="-138.21" y2="-281.8" xlink:href="#j"/><linearGradient id="n" x1="-139.23" y1="-284.5" x2="-138.21" y2="-284.5" xlink:href="#j"/><linearGradient id="o" x1="-139.23" y1="-284.83" x2="-138.21" y2="-284.83" xlink:href="#j"/><linearGradient id="p" x1="-139.23" y1="-286.31" x2="-138.21" y2="-286.31" xlink:href="#j"/><linearGradient id="q" x1="-139.23" y1="-284.24" x2="-138.21" y2="-284.24" xlink:href="#j"/><linearGradient id="r" x1="343.45" y1="1156.02" x2="343.45" y2="905.19" gradientUnits="userSpaceOnUse"><stop offset="0" stop-color="#9e4373"/><stop offset="1" stop-color="#662e55"/></linearGradient><linearGradient id="s" x1="76.94" y1="698.82" x2="76.94" y2="825.14" xlink:href="#r"/><linearGradient id="t" x1="382.76" y1="665.18" x2="382.76" y2="64.29" xlink:href="#a"/><linearGradient id="u" x1="382.76" y1="1349.74" x2="382.76" y2="962.76" gradientUnits="userSpaceOnUse"><stop offset="0" stop-color="#66305c"/><stop offset="1" stop-color="#421a3a"/></linearGradient><linearGradient id="v" x1="640.07" y1="618.16" x2="640.07" y2="833.27" gradientUnits="userSpaceOnUse"><stop offset="0.01" stop-color="#bc5e94"/><stop offset="0.13" stop-color="#9e4e80"/><stop offset="0.28" stop-color="#7f3e6d"/><stop offset="0.4" stop-color="#6d3460"/><stop offset="0.49" stop-color="#66305c"/><stop offset="1" stop-color="#421a3a"/></linearGradient><linearGradient id="w" x1="473.85" y1="679.67" x2="473.85" y2="861.14" gradientUnits="userSpaceOnUse"><stop offset="0.01" stop-color="#bc5e94"/><stop offset="0.03" stop-color="#b65b90"/><stop offset="0.16" stop-color="#93487a"/><stop offset="0.29" stop-color="#7a3b69"/><stop offset="0.4" stop-color="#6b335f"/><stop offset="0.49" stop-color="#66305c"/><stop offset="1" stop-color="#421a3a"/></linearGradient></defs><rect class="a" width="765.52" height="1360.93" rx="30.7"/><rect class="a" width="765.52" height="1360.93" rx="30.7"/><path class="b" d="M579.1,473.92A109.45,109.45,0,1,1,688.56,364.47,109.45,109.45,0,0,1,579.1,473.92m0-235.7A126.25,126.25,0,1,0,705.36,364.47,126.25,126.25,0,0,0,579.1,238.22"/><path class="c" d="M579.1,255A109.45,109.45,0,1,0,688.56,364.47,109.45,109.45,0,0,0,579.1,255"/><path class="d" d="M274.43,475.32s32.11-38.23,48.93-38.23,66.81,98.63,87,92.33,26.94-36.89,53.45-4.95S597,679.43,597,679.43L458.7,713.82Z"/><path class="e" d="M25.27,338.25s53.44-53.87,79.09-53.88c24.33,0,98.21,139.92,98.21,139.92L87.85,499.41Z"/><path class="f" d="M765.52,739.48S692.61,596.64,658.46,596.64c-8.65,0-116,97.21-183.39,45.63-54.38-41.62-180.63-193.52-227.4-250.67A28.87,28.87,0,0,0,208.12,387c-24,18.13-60.46,42.47-69.82,30.76C124,399.86,0,225.66,0,225.66V739.48Z"/><path class="g" d="M0,444.85s29.1-47.92,53.91-34.67C67.27,417.33,147.7,527.42,162,531.5s39.76-41.8,87.68,21.41S425,739.48,425,739.48H0Z"/><circle class="h" cx="579.1" cy="364.47" r="90.09" transform="translate(-88.1 516.24) rotate(-45)"/><polygon class="i" points="0 739.48 765.52 739.48 765.52 1327.02 0 1319.02 0 739.48"/><path class="j" d="M256.7,777.09c-81.23,0-153.55,2.11-200.38,5.39,46.83,3.27,119.15,5.38,200.38,5.38s153.56-2.11,200.38-5.38c-46.82-3.28-119.15-5.39-200.38-5.39"/><path class="k" d="M246.88,819.49c-30.43,0-57.53,2.11-75.07,5.39,17.54,3.28,44.64,5.38,75.07,5.38s57.53-2.1,75.08-5.38c-17.55-3.28-44.64-5.39-75.08-5.39"/><path class="l" d="M635.79,757.94c-41.83,0-79.08,2.1-103.2,5.38,24.12,3.28,61.37,5.38,103.2,5.38s79.09-2.1,103.21-5.38c-24.12-3.28-61.37-5.38-103.21-5.38"/><path class="m" d="M729.79,779.78c-11,0-20.85,1.06-27.21,2.7,6.36,1.63,16.18,2.69,27.21,2.69s20.86-1.06,27.22-2.69c-6.36-1.64-16.19-2.7-27.22-2.7"/><path class="n" d="M382.76,804c-13.78,0-26.05,1-34,2.69,7.94,1.64,20.21,2.69,34,2.69s26.05-1,34-2.69c-7.95-1.64-20.22-2.69-34-2.69"/><path class="o" d="M341,861.9c-30.06,0-56.82,1.05-74.14,2.69,17.32,1.64,44.08,2.69,74.14,2.69s56.81-1,74.13-2.69C397.82,863,371.06,861.9,341,861.9"/><path class="p" d="M151.08,848.43c-30.05,0-56.81,1.06-74.14,2.7,17.33,1.64,44.09,2.69,74.14,2.69s56.82-1.05,74.14-2.69c-17.32-1.64-44.08-2.7-74.14-2.7"/><path class="q" d="M416.76,839.26c-30.06,0-56.82,1-74.14,2.69,17.32,1.64,44.08,2.69,74.14,2.69s56.81-1,74.13-2.69c-17.32-1.64-44.08-2.69-74.13-2.69"/><path class="r" d="M0,851.13s191.54-1,475.07,206.49c278.68,203.93,202.24,303.31,202.24,303.31L0,1326.35Z"/><path class="s" d="M34,853.81,21.5,873.73H33.79c-1.41,2.8-3,5.82-4.8,9H124.9c-1.8-3.19-3.39-6.21-4.8-9h12.29l-12.53-19.92,15.89.7c-5-5.88-11.76-15-11.76-15h7.56c-10-7-21.62-31.59-28.92-49l8.76,3.08-11.2-21.36h13.72c-17.22-13.35-37-73.17-37-73.17S57.2,758.91,40,772.26H53.7L42.5,793.62l8.76-3.08c-7.31,17.42-18.94,42-28.92,49H29.9s-6.72,9.08-11.76,15Z"/><path class="t" d="M0,1330.23a30.7,30.7,0,0,0,30.7,30.7H734.82a30.69,30.69,0,0,0,30.7-30.7V828C409.74,859.16,0,1049.91,0,1049.91Z"/><path class="u" d="M0,1329.23a30.7,30.7,0,0,0,30.7,30.7H734.82a30.69,30.69,0,0,0,30.7-30.7V827C409.74,858.16,0,1048.91,0,1048.91Z"/><path class="v" d="M567.88,834.07l-21.09,33.52h20.68c-2.37,4.7-5.06,9.78-8.08,15.15H720.74c-3-5.37-5.71-10.45-8.07-15.15h20.68l-21.09-33.52L739,835.24c-8.48-9.88-19.79-25.16-19.79-25.16h12.72c-16.8-11.8-36.36-53.15-48.66-82.45L698,732.81l-18.84-35.94h23.08c-29-22.46-62.18-123.09-62.18-123.09s-33.22,100.63-62.19,123.09H601l-18.84,35.94,14.74-5.18c-12.29,29.3-31.86,70.65-48.66,82.45h12.72s-11.31,15.28-19.79,25.16Z"/><path class="w" d="M415.82,883.65l-16.95,26.94h16.62c-1.9,3.79-4.06,7.87-6.49,12.18H538.69c-2.43-4.31-4.59-8.39-6.49-12.18h16.62l-17-26.94,21.5.94c-6.82-7.94-15.91-20.22-15.91-20.22h10.23c-13.51-9.49-29.23-42.72-39.12-66.27l11.85,4.17-15.14-28.89h18.55c-23.29-18.06-50-98.94-50-98.94s-26.7,80.88-50,98.94h18.56l-15.15,28.89,11.85-4.17c-9.88,23.55-25.61,56.78-39.11,66.27h10.22s-9.09,12.28-15.9,20.22Z"/></svg>