<svg xmlns="http://www.w3.org/2000/svg" viewBox="0 0 20 20"><defs><style>.cls-1{fill:#f7f8ff;}.cls-2{fill:#161824;}</style></defs><g id="Layer_2" data-name="Layer 2"><g id="bg"><g id="_" data-name="[ ]"><rect class="cls-1" x="0.06" y="0.06" width="19.88" height="19.88" rx="2.94"/><path class="cls-2" d="M17,.12A2.88,2.88,0,0,1,19.88,3V17A2.88,2.88,0,0,1,17,19.88H3A2.88,2.88,0,0,1,.12,17V3A2.88,2.88,0,0,1,3,.12H17M17,0H3A3,3,0,0,0,0,3V17a3,3,0,0,0,3,3H17a3,3,0,0,0,3-3V3a3,3,0,0,0-3-3Z"/></g></g><g id="Layer_8" data-name="Layer 8"><path class="cls-2" d="M11,12v3H7a2,2,0,0,1-2-2V5.5A.5.5,0,0,1,5.5,5H7v7a.28.28,0,0,0,0,.09,1,1,0,0,0,.9.9H9V11h1A1,1,0,0,1,11,12Z"/><path class="cls-2" d="M15,7v7.5a.5.5,0,0,1-.5.5H13V8a.28.28,0,0,0,0-.09,1,1,0,0,0-.9-.9H11V9H10A1,1,0,0,1,9,8V5h4A2,2,0,0,1,15,7Z"/></g></g></svg>