<svg xmlns="http://www.w3.org/2000/svg" viewBox="0 0 326 40"><path d="M326,10.5a10.4,10.4,0,0,1-2,6.15A10.08,10.08,0,0,1,321.65,19a10.4,10.4,0,0,1-6.15,2H292V40h-2V19h25.5a8.5,8.5,0,0,0,0-17H290V0h25.5a10.4,10.4,0,0,1,6.15,2A10.08,10.08,0,0,1,324,4.35,10.4,10.4,0,0,1,326,10.5Z"/><rect x="246" y="38" width="32" height="2"/><rect x="246" y="19" width="32" height="2"/><rect x="246" width="32" height="2"/><rect x="202" y="38" width="32" height="2"/><rect x="202" y="19" width="32" height="2"/><rect x="202" width="32" height="2"/><path d="M190,20a20,20,0,0,1-20,20H154V19h2V38h14a18,18,0,0,0,18-17h0V19h0A18,18,0,0,0,170,2H154V0h16a20,20,0,0,1,20,20Z"/><path d="M142,10.5a10.4,10.4,0,0,1-2,6.15A10.08,10.08,0,0,1,137.65,19a10.4,10.4,0,0,1-6.15,2H108V40h-2V19h25.5a8.5,8.5,0,0,0,0-17H106V0h25.5a10.4,10.4,0,0,1,6.15,2A10.08,10.08,0,0,1,140,4.35,10.4,10.4,0,0,1,142,10.5Z"/><rect x="62" y="38" width="32" height="2"/><rect x="62" y="19" width="32" height="2"/><rect x="62" width="32" height="2"/><rect x="48" width="2" height="40"/><polygon points="36 0 36 40 34 40 34 21 2 21 2 40 0 40 0 0 2 0 2 19 34 19 34 0 36 0"/></svg>