<svg xmlns="http://www.w3.org/2000/svg" viewBox="0 0 235 30"><defs><style>.cls-1{fill:#161823;}</style></defs><title>Logo | horizontal</title><g id="Layer_2" data-name="Layer 2"><g id="Layer_10" data-name="Layer 10"><g id="HIEPDEEP"><path id="P" class="cls-1" d="M234,7.18A4.73,4.73,0,0,0,232.82,6a5.17,5.17,0,0,0-3.07-1H215V25h1V15.5h13.75a5.17,5.17,0,0,0,3.07-1A4.73,4.73,0,0,0,234,13.32a5.21,5.21,0,0,0,0-6.14Zm-4.25,7.32H216V6h13.75a4.25,4.25,0,0,1,0,8.5Z"/><g id="E"><rect class="cls-1" x="187" y="14.5" width="20" height="1"/><rect class="cls-1" x="187" y="5" width="20" height="1"/><rect class="cls-1" x="187" y="24" width="20" height="1"/></g><g id="E-2" data-name="E"><rect class="cls-1" x="159" y="14.5" width="20" height="1"/><rect class="cls-1" x="159" y="5" width="20" height="1"/><rect class="cls-1" x="159" y="24" width="20" height="1"/></g><g id="D"><path class="cls-1" d="M151,10.25v9.5a5.17,5.17,0,0,1-1,3.07A4.73,4.73,0,0,1,148.82,24a5.17,5.17,0,0,1-3.07,1H131V14.5h1V24h13.75A4.25,4.25,0,0,0,150,19.75v-9.5A4.25,4.25,0,0,0,145.75,6H131V5h14.75a5.17,5.17,0,0,1,3.07,1A4.73,4.73,0,0,1,150,7.18,5.17,5.17,0,0,1,151,10.25Z"/></g><path id="P-2" data-name="P" class="cls-1" d="M122,7.18A4.73,4.73,0,0,0,120.82,6a5.17,5.17,0,0,0-3.07-1H103V25h1V15.5h13.75a5.17,5.17,0,0,0,3.07-1A4.73,4.73,0,0,0,122,13.32a5.21,5.21,0,0,0,0-6.14Zm-4.25,7.32H104V6h13.75a4.25,4.25,0,0,1,0,8.5Z"/><g id="E-3" data-name="E"><rect class="cls-1" x="75" y="14.5" width="20" height="1"/><rect class="cls-1" x="75" y="5" width="20" height="1"/><rect class="cls-1" x="75" y="24" width="20" height="1"/></g><rect id="I" class="cls-1" x="66" y="5" width="1" height="20"/><polygon id="H" class="cls-1" points="58 5 58 25 57 25 57 15.5 39 15.5 39 25 38 25 38 5 39 5 39 14.5 57 14.5 57 5 58 5"/></g><g id="HD"><path class="cls-1" d="M18,21v9H12V21a3,3,0,0,0-6,0v9H3a3,3,0,0,1-3-3V3A3,3,0,0,1,3,0H6V12.52a8.91,8.91,0,0,1,6,0,5.19,5.19,0,0,1,.89.36l.61.32A9.09,9.09,0,0,1,15,14.31a8.56,8.56,0,0,1,1.79,2.19c.12.2.22.4.32.61A8.92,8.92,0,0,1,18,21Z"/><path class="cls-1" d="M30,3V27a3,3,0,0,1-3,3H19.5V24h3.75a.74.74,0,0,0,.75-.75V6.75A.74.74,0,0,0,23.25,6H18v9.6a10.5,10.5,0,0,0-4.5-4.08,9.74,9.74,0,0,0-1.5-.59V0H27A3,3,0,0,1,30,3Z"/></g></g></g></svg>