<svg xmlns="http://www.w3.org/2000/svg" viewBox="0 0 167.34 50"><defs><style>.cls-1{fill:#161824;}.cls-2{fill:#5890FF;}</style></defs><g id="Layer_2" data-name="Layer 2"><g id="HIEPDEEP_002" data-name="HIEPDEEP 002"><path class="cls-1" d="M163.34,15.35a5.8,5.8,0,0,0-2-.35h-5.5a.5.5,0,0,0-.5.5v19a.5.5,0,0,0,.5.5h3a.5.5,0,0,0,.5-.5V27h2a5.8,5.8,0,0,0,2-.35,6,6,0,0,0,0-11.3Zm-2,7.65h-2V19h2a2,2,0,0,1,0,4Z"/><rect class="cls-1" x="139.34" y="15" width="12" height="4" rx="0.5"/><rect class="cls-1" x="139.34" y="23" width="12" height="4" rx="0.5"/><rect class="cls-1" x="139.34" y="31" width="12" height="4" rx="0.5"/><rect class="cls-1" x="123.34" y="31" width="12" height="4" rx="0.5"/><rect class="cls-1" x="123.34" y="23" width="12" height="4" rx="0.5"/><rect class="cls-1" x="123.34" y="15" width="12" height="4" rx="0.5"/><path class="cls-1" d="M115.34,15.35a5.8,5.8,0,0,0-2-.35h-5.5a.5.5,0,0,0-.5.5v19a.5.5,0,0,0,.5.5h5.5a5.8,5.8,0,0,0,2-.35,6,6,0,0,0,4-5.65V21A6,6,0,0,0,115.34,15.35Zm0,13.65a2,2,0,0,1-2,2h-2V19h2a2,2,0,0,1,2,2Z"/><path class="cls-1" d="M99.34,15.35a5.8,5.8,0,0,0-2-.35h-5.5a.5.5,0,0,0-.5.5v19a.5.5,0,0,0,.5.5h3a.5.5,0,0,0,.5-.5V27h2a5.8,5.8,0,0,0,2-.35,6,6,0,0,0,0-11.3Zm-2,7.65h-2V19h2a2,2,0,0,1,0,4Z"/><rect class="cls-1" x="75.34" y="23" width="12" height="4" rx="0.5"/><rect class="cls-1" x="75.34" y="15" width="12" height="4" rx="0.5"/><rect class="cls-1" x="75.34" y="31" width="12" height="4" rx="0.5"/><rect class="cls-1" x="67.34" y="15" width="4" height="20" rx="0.5"/><path class="cls-1" d="M63.34,15.5v19a.5.5,0,0,1-.5.5h-3a.5.5,0,0,1-.5-.5V27h-4v7.5a.5.5,0,0,1-.5.5h-3a.5.5,0,0,1-.5-.5v-19a.5.5,0,0,1,.5-.5h3a.5.5,0,0,1,.5.5V23h4V15.5a.5.5,0,0,1,.5-.5h3A.5.5,0,0,1,63.34,15.5Z"/><path class="cls-2" d="M40.09,31.25,21.34,50l-5-5,17.5-17.5a3.56,3.56,0,0,0,0-5L31.34,20l-5,5-2.5-2.5a3.54,3.54,0,0,1,0-5l7.5-7.5,8.75,8.75A8.84,8.84,0,0,1,40.09,31.25Z"/><path class="cls-2" d="M18.84,32.5,11.34,40,2.59,31.25a8.84,8.84,0,0,1,0-12.5L21.34,0l5,5L8.84,22.5a3.54,3.54,0,0,0,0,5l2.5,2.5,5-5,2.5,2.5A3.56,3.56,0,0,1,18.84,32.5Z"/></g></g></svg>