<svg xmlns="http://www.w3.org/2000/svg" viewBox="0 0 20 20"><defs><style>.cls-1{fill:#f7f8ff;}.cls-2{fill:#161824;}</style></defs><g id="Layer_2" data-name="Layer 2"><g id="Layer_7" data-name="Layer 7"><rect class="cls-1" width="20" height="20" rx="2"/></g><g id="Layer_8" data-name="Layer 8"><path class="cls-2" d="M16,12l-6,6L8.4,16.4,14,10.8a1.13,1.13,0,0,0,0-1.6l-.8-.8L11.6,10l-.8-.8a1.13,1.13,0,0,1,0-1.6l2.4-2.4L16,8A2.84,2.84,0,0,1,16,12Z"/><path class="cls-2" d="M9.2,12.4,6.8,14.8,4,12A2.84,2.84,0,0,1,4,8l6-6,1.6,1.6L6,9.2a1.13,1.13,0,0,0,0,1.6l.8.8L8.4,10l.8.8A1.13,1.13,0,0,1,9.2,12.4Z"/></g></g></svg>