<svg xmlns="http://www.w3.org/2000/svg" viewBox="0 0 160 40"><defs><style>.cls-1{fill:#1d2236;}.cls-2{fill:#f7f8ff;}.cls-3{fill:#161824;}</style></defs><g id="Layer_2" data-name="Layer 2"><g id="HIEPDEEP_002" data-name="HIEPDEEP 002"><path class="cls-1" d="M156,10.35a5.8,5.8,0,0,0-2-.35h-5.5a.5.5,0,0,0-.5.5v19a.5.5,0,0,0,.5.5h3a.5.5,0,0,0,.5-.5V22h2a5.8,5.8,0,0,0,2-.35,6,6,0,0,0,0-11.3ZM154,18h-2V14h2a2,2,0,0,1,0,4Z"/><rect class="cls-1" x="132" y="10" width="12" height="4" rx="0.5"/><rect class="cls-1" x="132" y="18" width="12" height="4" rx="0.5"/><rect class="cls-1" x="132" y="26" width="12" height="4" rx="0.5"/><rect class="cls-1" x="116" y="26" width="12" height="4" rx="0.5"/><rect class="cls-1" x="116" y="18" width="12" height="4" rx="0.5"/><rect class="cls-1" x="116" y="10" width="12" height="4" rx="0.5"/><path class="cls-1" d="M108,10.35a5.8,5.8,0,0,0-2-.35h-5.5a.5.5,0,0,0-.5.5v19a.5.5,0,0,0,.5.5H106a5.8,5.8,0,0,0,2-.35A6,6,0,0,0,112,24V16A6,6,0,0,0,108,10.35ZM108,24a2,2,0,0,1-2,2h-2V14h2a2,2,0,0,1,2,2Z"/><path class="cls-1" d="M92,10.35A5.8,5.8,0,0,0,90,10H84.5a.5.5,0,0,0-.5.5v19a.5.5,0,0,0,.5.5h3a.5.5,0,0,0,.5-.5V22h2a5.8,5.8,0,0,0,2-.35,6,6,0,0,0,0-11.3ZM90,18H88V14h2a2,2,0,0,1,0,4Z"/><rect class="cls-1" x="68" y="18" width="12" height="4" rx="0.5"/><rect class="cls-1" x="68" y="10" width="12" height="4" rx="0.5"/><rect class="cls-1" x="68" y="26" width="12" height="4" rx="0.5"/><rect class="cls-1" x="60" y="10" width="4" height="20" rx="0.5"/><path class="cls-1" d="M56,10.5v19a.5.5,0,0,1-.5.5h-3a.5.5,0,0,1-.5-.5V22H48v7.5a.5.5,0,0,1-.5.5h-3a.5.5,0,0,1-.5-.5v-19a.5.5,0,0,1,.5-.5h3a.5.5,0,0,1,.5.5V18h4V10.5a.5.5,0,0,1,.5-.5h3A.5.5,0,0,1,56,10.5Z"/><g id="Layer_2-2" data-name="Layer 2"><g id="bg"><g id="_" data-name=" "><rect class="cls-2" x="0.12" y="0.12" width="39.76" height="39.76" rx="5.88"/><path class="cls-3" d="M34,.24A5.76,5.76,0,0,1,39.76,6V34A5.76,5.76,0,0,1,34,39.76H6A5.76,5.76,0,0,1,.24,34V6A5.76,5.76,0,0,1,6,.24H34M34,0H6A6,6,0,0,0,0,6V34a6,6,0,0,0,6,6H34a6,6,0,0,0,6-6V6A6,6,0,0,0,34,0Z"/></g></g><g id="Layer_8" data-name="Layer 8"><path class="cls-3" d="M22,24v6H14a4,4,0,0,1-4-4V11a1,1,0,0,1,1-1h3V24a.54.54,0,0,0,0,.18A2,2,0,0,0,15.8,26H18V22h2A2,2,0,0,1,22,24Z"/><path class="cls-3" d="M30,14V29a1,1,0,0,1-1,1H26V16a.54.54,0,0,0,0-.18A2,2,0,0,0,24.2,14H22v4H20a2,2,0,0,1-2-2V10h8A4,4,0,0,1,30,14Z"/></g></g></g></g></svg>