<?xml version="1.0" encoding="utf-8"?>
<!-- Generator: Adobe Illustrator 24.3.0, SVG Export Plug-In . SVG Version: 6.00 Build 0)  -->
<svg version="1.1" id="Layer_1" xmlns="http://www.w3.org/2000/svg" xmlns:xlink="http://www.w3.org/1999/xlink" x="0px" y="0px"
	 viewBox="0 0 160 40" style="enable-background:new 0 0 160 40;" xml:space="preserve">
<style type="text/css">
	.st0{fill:#161824;}
	.st1{fill:#F7F8FF;}
</style>
<g id="Layer_2_1_">
	<g id="HIEPDEEP_002">
		<path class="st0" d="M156,10.4c-0.6-0.2-1.3-0.4-2-0.4h-5.5c-0.3,0-0.5,0.2-0.5,0.5v19c0,0.3,0.2,0.5,0.5,0.5h3
			c0.3,0,0.5-0.2,0.5-0.5V22h2c0.7,0,1.4-0.1,2-0.4c3.1-1.1,4.7-4.5,3.6-7.7C159,12.3,157.7,11,156,10.4z M154,18h-2v-4h2
			c1.1,0,2,0.9,2,2S155.1,18,154,18z"/>
		<path class="st0" d="M132.5,10h11c0.3,0,0.5,0.2,0.5,0.5v3c0,0.3-0.2,0.5-0.5,0.5h-11c-0.3,0-0.5-0.2-0.5-0.5v-3
			C132,10.2,132.2,10,132.5,10z"/>
		<path class="st0" d="M132.5,18h11c0.3,0,0.5,0.2,0.5,0.5v3c0,0.3-0.2,0.5-0.5,0.5h-11c-0.3,0-0.5-0.2-0.5-0.5v-3
			C132,18.2,132.2,18,132.5,18z"/>
		<path class="st0" d="M132.5,26h11c0.3,0,0.5,0.2,0.5,0.5v3c0,0.3-0.2,0.5-0.5,0.5h-11c-0.3,0-0.5-0.2-0.5-0.5v-3
			C132,26.2,132.2,26,132.5,26z"/>
		<path class="st0" d="M116.5,26h11c0.3,0,0.5,0.2,0.5,0.5v3c0,0.3-0.2,0.5-0.5,0.5h-11c-0.3,0-0.5-0.2-0.5-0.5v-3
			C116,26.2,116.2,26,116.5,26z"/>
		<path class="st0" d="M116.5,18h11c0.3,0,0.5,0.2,0.5,0.5v3c0,0.3-0.2,0.5-0.5,0.5h-11c-0.3,0-0.5-0.2-0.5-0.5v-3
			C116,18.2,116.2,18,116.5,18z"/>
		<path class="st0" d="M116.5,10h11c0.3,0,0.5,0.2,0.5,0.5v3c0,0.3-0.2,0.5-0.5,0.5h-11c-0.3,0-0.5-0.2-0.5-0.5v-3
			C116,10.2,116.2,10,116.5,10z"/>
		<path class="st0" d="M108,10.4c-0.6-0.2-1.3-0.4-2-0.4h-5.5c-0.3,0-0.5,0.2-0.5,0.5v19c0,0.3,0.2,0.5,0.5,0.5h5.5
			c0.7,0,1.4-0.1,2-0.4c2.4-0.8,4-3.1,4-5.6v-8C112,13.5,110.4,11.2,108,10.4z M108,24c0,1.1-0.9,2-2,2h-2V14h2c1.1,0,2,0.9,2,2V24z
			"/>
		<path class="st0" d="M92,10.4c-0.6-0.2-1.3-0.4-2-0.4h-5.5c-0.3,0-0.5,0.2-0.5,0.5v19c0,0.3,0.2,0.5,0.5,0.5h3
			c0.3,0,0.5-0.2,0.5-0.5V22h2c0.7,0,1.4-0.1,2-0.4c3.1-1.1,4.7-4.5,3.6-7.7C95,12.3,93.7,11,92,10.4z M90,18h-2v-4h2
			c1.1,0,2,0.9,2,2S91.1,18,90,18z"/>
		<path class="st0" d="M68.5,18h11c0.3,0,0.5,0.2,0.5,0.5v3c0,0.3-0.2,0.5-0.5,0.5h-11c-0.3,0-0.5-0.2-0.5-0.5v-3
			C68,18.2,68.2,18,68.5,18z"/>
		<path class="st0" d="M68.5,10h11c0.3,0,0.5,0.2,0.5,0.5v3c0,0.3-0.2,0.5-0.5,0.5h-11c-0.3,0-0.5-0.2-0.5-0.5v-3
			C68,10.2,68.2,10,68.5,10z"/>
		<path class="st0" d="M68.5,26h11c0.3,0,0.5,0.2,0.5,0.5v3c0,0.3-0.2,0.5-0.5,0.5h-11c-0.3,0-0.5-0.2-0.5-0.5v-3
			C68,26.2,68.2,26,68.5,26z"/>
		<path class="st0" d="M60.5,10h3c0.3,0,0.5,0.2,0.5,0.5v19c0,0.3-0.2,0.5-0.5,0.5h-3c-0.3,0-0.5-0.2-0.5-0.5v-19
			C60,10.2,60.2,10,60.5,10z"/>
		<path class="st0" d="M56,10.5v19c0,0.3-0.2,0.5-0.5,0.5h-3c-0.3,0-0.5-0.2-0.5-0.5V22h-4v7.5c0,0.3-0.2,0.5-0.5,0.5h-3
			c-0.3,0-0.5-0.2-0.5-0.5v-19c0-0.3,0.2-0.5,0.5-0.5h3c0.3,0,0.5,0.2,0.5,0.5V18h4v-7.5c0-0.3,0.2-0.5,0.5-0.5h3
			C55.8,10,56,10.2,56,10.5z"/>
		<g id="Layer_2-2">
			<g id="bg">
				<g id="_">
					<path class="st1" d="M6,0.1h28c3.2,0,5.9,2.6,5.9,5.9v28c0,3.2-2.6,5.9-5.9,5.9H6c-3.2,0-5.9-2.6-5.9-5.9V6
						C0.1,2.8,2.8,0.1,6,0.1z"/>
					<path class="st0" d="M34,0.2c3.2,0,5.8,2.6,5.8,5.8v28c0,3.2-2.6,5.8-5.8,5.8H6c-3.2,0-5.8-2.6-5.8-5.8V6
						c0-3.2,2.6-5.8,5.8-5.8H34 M34,0H6C2.7,0,0,2.7,0,6v28c0,3.3,2.7,6,6,6h28c3.3,0,6-2.7,6-6V6C40,2.7,37.3,0,34,0z"/>
				</g>
			</g>
			<g id="Layer_8">
				<path class="st0" d="M22,24v6h-8c-2.2,0-4-1.8-4-4V11c0-0.6,0.4-1,1-1h3v14c0,0.1,0,0.1,0,0.2c0.1,1,0.8,1.7,1.8,1.8H18v-4h2
					C21.1,22,22,22.9,22,24z"/>
				<path class="st0" d="M30,14v15c0,0.6-0.4,1-1,1h-3V16c0-0.1,0-0.1,0-0.2c-0.1-1-0.8-1.7-1.8-1.8H22v4h-2c-1.1,0-2-0.9-2-2v-6h8
					C28.2,10,30,11.8,30,14z"/>
			</g>
		</g>
	</g>
</g>
</svg>
