<?xml version="1.0" encoding="utf-8"?>
<!-- Generator: Adobe Illustrator 24.3.0, SVG Export Plug-In . SVG Version: 6.00 Build 0)  -->
<svg version="1.1" xmlns="http://www.w3.org/2000/svg" xmlns:xlink="http://www.w3.org/1999/xlink" x="0px" y="0px"
	 viewBox="0 0 24 24" style="enable-background:new 0 0 24 24;" xml:space="preserve">
<style type="text/css">
	.st0{fill:none;stroke:#F4F5F6;stroke-width:0.12;stroke-miterlimit:10;}
	.st1{fill:none;stroke:#DDDDDD;stroke-width:0.12;stroke-miterlimit:10;}
	.st2{fill:#F3F4F6;}
	.st3{fill:#161823;}
	.st4{fill:#5890FF;}
</style>
<g id="grid">
	<g id="y">
		<line class="st0" x1="1" y1="0" x2="1" y2="24"/>
		<line class="st0" x1="2" y1="0" x2="2" y2="24"/>
		<line class="st0" x1="3" y1="0" x2="3" y2="24"/>
		<line class="st0" x1="4" y1="0" x2="4" y2="24"/>
		<line class="st0" x1="5" y1="0" x2="5" y2="24"/>
		<line class="st0" x1="6" y1="0" x2="6" y2="24"/>
		<line class="st0" x1="7" y1="0" x2="7" y2="24"/>
		<line class="st0" x1="8" y1="0" x2="8" y2="24"/>
		<line class="st0" x1="9" y1="0" x2="9" y2="24"/>
		<line class="st0" x1="10" y1="0" x2="10" y2="24"/>
		<line class="st0" x1="11" y1="0" x2="11" y2="24"/>
		<line class="st0" x1="12" y1="0" x2="12" y2="24"/>
		<line class="st0" x1="13" y1="0" x2="13" y2="24"/>
		<line class="st0" x1="14" y1="0" x2="14" y2="24"/>
		<line class="st0" x1="15" y1="0" x2="15" y2="24"/>
		<line class="st0" x1="16" y1="0" x2="16" y2="24"/>
		<line class="st0" x1="17" y1="0" x2="17" y2="24"/>
		<line class="st0" x1="18" y1="0" x2="18" y2="24"/>
		<line class="st0" x1="19" y1="0" x2="19" y2="24"/>
		<line class="st0" x1="20" y1="0" x2="20" y2="24"/>
		<line class="st0" x1="21" y1="0" x2="21" y2="24"/>
		<line class="st0" x1="22" y1="0" x2="22" y2="24"/>
		<line class="st0" x1="23" y1="0" x2="23" y2="24"/>
	</g>
	<g id="x">
		<line class="st0" x1="24" y1="1" x2="0" y2="1"/>
		<line class="st0" x1="24" y1="2" x2="0" y2="2"/>
		<line class="st0" x1="24" y1="3" x2="0" y2="3"/>
		<line class="st0" x1="24" y1="4" x2="0" y2="4"/>
		<line class="st0" x1="24" y1="5" x2="0" y2="5"/>
		<line class="st0" x1="24" y1="6" x2="0" y2="6"/>
		<line class="st0" x1="24" y1="7" x2="0" y2="7"/>
		<line class="st0" x1="24" y1="8" x2="0" y2="8"/>
		<line class="st0" x1="24" y1="9" x2="0" y2="9"/>
		<line class="st0" x1="24" y1="10" x2="0" y2="10"/>
		<line class="st0" x1="24" y1="11" x2="0" y2="11"/>
		<line class="st0" x1="24" y1="12" x2="0" y2="12"/>
		<line class="st0" x1="24" y1="13" x2="0" y2="13"/>
		<line class="st0" x1="24" y1="14" x2="0" y2="14"/>
		<line class="st0" x1="24" y1="15" x2="0" y2="15"/>
		<line class="st0" x1="24" y1="16" x2="0" y2="16"/>
		<line class="st0" x1="24" y1="17" x2="0" y2="17"/>
		<line class="st0" x1="24" y1="18" x2="0" y2="18"/>
		<line class="st0" x1="24" y1="19" x2="0" y2="19"/>
		<line class="st0" x1="24" y1="20" x2="0" y2="20"/>
		<line class="st0" x1="24" y1="21" x2="0" y2="21"/>
		<line class="st0" x1="24" y1="22" x2="0" y2="22"/>
		<line class="st0" x1="24" y1="23" x2="0" y2="23"/>
	</g>
	<g id="key">
		<line class="st1" x1="2" y1="0" x2="2" y2="24"/>
		<line class="st1" x1="22" y1="0" x2="22" y2="24"/>
		<line class="st1" x1="24" y1="2" x2="0" y2="2"/>
		<line class="st1" x1="24" y1="22" x2="0" y2="22"/>
		<line class="st1" x1="12" y1="0" x2="12" y2="24"/>
		<line class="st1" x1="24" y1="12" x2="0" y2="12"/>
		<g id="form">
			<path class="st1" d="M21,5v14c0,1.1-0.9,2-2,2H5c-1.1,0-2-0.9-2-2V5c0-1.1,0.9-2,2-2h14C20.1,3,21,3.9,21,5z"/>
			<path class="st1" d="M20,4v16c0,1.1-0.9,2-2,2H6c-1.1,0-2-0.9-2-2V4c0-1.1,0.9-2,2-2h12C19.1,2,20,2.9,20,4z"/>
			<path class="st1" d="M20,20H4c-1.1,0-2-0.9-2-2V6c0-1.1,0.9-2,2-2h16c1.1,0,2,0.9,2,2v12C22,19.1,21.1,20,20,20z"/>
			<line class="st1" x1="22" y1="2" x2="2" y2="22"/>
			<line class="st1" x1="22" y1="22" x2="2" y2="2"/>
			<circle class="st1" cx="12" cy="12" r="5"/>
		</g>
	</g>
</g>
<g id="Layer_8">
	<rect class="st2" width="24" height="24"/>
</g>
<g id="Layer_7">
	<g>
		<path class="st3" d="M20,4.5V13h-5v-2h3V6h-5v14h-2V4h8.5C19.8,4,20,4.2,20,4.5z"/>
	</g>
	<g>
		<path class="st3" d="M9,11v2H6v7H4.5C4.2,20,4,19.8,4,19.5v-15C4,4.2,4.2,4,4.5,4H6v7H9z"/>
	</g>
	<g>
		<circle class="st4" cx="19" cy="19" r="1"/>
	</g>
</g>
</svg>
