<?xml version="1.0" encoding="utf-8"?>
<!-- Generator: Adobe Illustrator 24.3.0, SVG Export Plug-In . SVG Version: 6.00 Build 0)  -->
<svg version="1.1" id="Layer_1" xmlns="http://www.w3.org/2000/svg" xmlns:xlink="http://www.w3.org/1999/xlink" x="0px" y="0px"
	 viewBox="0 0 116 20" style="enable-background:new 0 0 116 20;" xml:space="preserve">
<style type="text/css">
	.st0{fill:#161824;}
</style>
<g id="Layer_2_1_">
	<g id="HIEPDEEP_002">
		<path class="st0" d="M112,0.3c-0.6-0.2-1.3-0.4-2-0.3h-5.5c-0.3,0-0.5,0.2-0.5,0.5v19c0,0.3,0.2,0.5,0.5,0.5h3
			c0.3,0,0.5-0.2,0.5-0.5V12h2c0.7,0,1.4-0.1,2-0.4c3.1-1.1,4.7-4.5,3.6-7.7C115,2.3,113.7,1,112,0.3z M110,8h-2V4h2
			c1.1,0,2,0.9,2,2S111.1,8,110,8z"/>
		<path class="st0" d="M88.5,0h11c0.3,0,0.5,0.2,0.5,0.5v3c0,0.3-0.2,0.5-0.5,0.5h-11C88.2,4,88,3.8,88,3.5v-3C88,0.2,88.2,0,88.5,0
			z"/>
		<path class="st0" d="M88.5,8h11c0.3,0,0.5,0.2,0.5,0.5v3c0,0.3-0.2,0.5-0.5,0.5h-11c-0.3,0-0.5-0.2-0.5-0.5v-3
			C88,8.2,88.2,8,88.5,8z"/>
		<path class="st0" d="M88.5,16h11c0.3,0,0.5,0.2,0.5,0.5v3c0,0.3-0.2,0.5-0.5,0.5h-11c-0.3,0-0.5-0.2-0.5-0.5v-3
			C88,16.2,88.2,16,88.5,16z"/>
		<path class="st0" d="M72.5,16h11c0.3,0,0.5,0.2,0.5,0.5v3c0,0.3-0.2,0.5-0.5,0.5h-11c-0.3,0-0.5-0.2-0.5-0.5v-3
			C72,16.2,72.2,16,72.5,16z"/>
		<path class="st0" d="M72.5,8h11C83.8,8,84,8.2,84,8.5v3c0,0.3-0.2,0.5-0.5,0.5h-11c-0.3,0-0.5-0.2-0.5-0.5v-3
			C72,8.2,72.2,8,72.5,8z"/>
		<path class="st0" d="M72.5,0h11C83.8,0,84,0.2,84,0.5v3C84,3.8,83.8,4,83.5,4h-11C72.2,4,72,3.8,72,3.5v-3C72,0.2,72.2,0,72.5,0z"
			/>
		<path class="st0" d="M64,0.3C63.4,0.1,62.7,0,62,0h-5.5C56.2,0,56,0.2,56,0.5v19c0,0.3,0.2,0.5,0.5,0.5H62c0.7,0,1.4-0.1,2-0.4
			c2.4-0.8,4-3.1,4-5.6V6C68,3.5,66.4,1.2,64,0.3z M64,14c0,1.1-0.9,2-2,2h-2V4h2c1.1,0,2,0.9,2,2V14z"/>
		<path class="st0" d="M48,0.3C47.4,0.1,46.7,0,46,0h-5.5C40.2,0,40,0.2,40,0.5v19c0,0.3,0.2,0.5,0.5,0.5h3c0.3,0,0.5-0.2,0.5-0.5
			V12h2c0.7,0,1.4-0.1,2-0.4c3.1-1.1,4.7-4.5,3.6-7.7C51,2.3,49.7,1,48,0.3z M46,8h-2V4h2c1.1,0,2,0.9,2,2S47.1,8,46,8z"/>
		<path class="st0" d="M24.5,8h11C35.8,8,36,8.2,36,8.5v3c0,0.3-0.2,0.5-0.5,0.5h-11c-0.3,0-0.5-0.2-0.5-0.5v-3
			C24,8.2,24.2,8,24.5,8z"/>
		<path class="st0" d="M24.5,0h11C35.8,0,36,0.2,36,0.5v3C36,3.8,35.8,4,35.5,4h-11C24.2,4,24,3.8,24,3.5v-3C24,0.2,24.2,0,24.5,0z"
			/>
		<path class="st0" d="M24.5,16h11c0.3,0,0.5,0.2,0.5,0.5v3c0,0.3-0.2,0.5-0.5,0.5h-11c-0.3,0-0.5-0.2-0.5-0.5v-3
			C24,16.2,24.2,16,24.5,16z"/>
		<path class="st0" d="M16.5,0h3C19.8,0,20,0.2,20,0.5v19c0,0.3-0.2,0.5-0.5,0.5h-3c-0.3,0-0.5-0.2-0.5-0.5v-19
			C16,0.2,16.2,0,16.5,0z"/>
		<path class="st0" d="M12,0.5v19c0,0.3-0.2,0.5-0.5,0.5h-3C8.2,20,8,19.8,8,19.5V12H4v7.5C4,19.8,3.8,20,3.5,20h-3
			C0.2,20,0,19.8,0,19.5v-19C0,0.2,0.2,0,0.5,0h3C3.8,0,4,0.2,4,0.5V8h4V0.5C8,0.2,8.2,0,8.5,0h3C11.8,0,12,0.2,12,0.5z"/>
	</g>
</g>
</svg>
