<svg xmlns="http://www.w3.org/2000/svg" viewBox="0 0 116 20"><defs><style>.cls-1{fill:#1d2236;}</style></defs><g id="Layer_2" data-name="Layer 2"><g id="HIEPDEEP_002" data-name="HIEPDEEP 002"><path class="cls-1" d="M112,.35A5.8,5.8,0,0,0,110,0h-5.5a.5.5,0,0,0-.5.5v19a.5.5,0,0,0,.5.5h3a.5.5,0,0,0,.5-.5V12h2a5.8,5.8,0,0,0,2-.35,6,6,0,0,0,0-11.3ZM110,8h-2V4h2a2,2,0,0,1,0,4Z"/><rect class="cls-1" x="88" width="12" height="4" rx="0.5"/><rect class="cls-1" x="88" y="8" width="12" height="4" rx="0.5"/><rect class="cls-1" x="88" y="16" width="12" height="4" rx="0.5"/><rect class="cls-1" x="72" y="16" width="12" height="4" rx="0.5"/><rect class="cls-1" x="72" y="8" width="12" height="4" rx="0.5"/><rect class="cls-1" x="72" width="12" height="4" rx="0.5"/><path class="cls-1" d="M64,.35A5.8,5.8,0,0,0,62,0H56.5a.5.5,0,0,0-.5.5v19a.5.5,0,0,0,.5.5H62a5.8,5.8,0,0,0,2-.35A6,6,0,0,0,68,14V6A6,6,0,0,0,64,.35ZM64,14a2,2,0,0,1-2,2H60V4h2a2,2,0,0,1,2,2Z"/><path class="cls-1" d="M48,.35A5.8,5.8,0,0,0,46,0H40.5a.5.5,0,0,0-.5.5v19a.5.5,0,0,0,.5.5h3a.5.5,0,0,0,.5-.5V12h2a5.8,5.8,0,0,0,2-.35A6,6,0,0,0,48,.35ZM46,8H44V4h2a2,2,0,0,1,0,4Z"/><rect class="cls-1" x="24" y="8" width="12" height="4" rx="0.5"/><rect class="cls-1" x="24" width="12" height="4" rx="0.5"/><rect class="cls-1" x="24" y="16" width="12" height="4" rx="0.5"/><rect class="cls-1" x="16" width="4" height="20" rx="0.5"/><path class="cls-1" d="M12,.5v19a.5.5,0,0,1-.5.5h-3a.5.5,0,0,1-.5-.5V12H4v7.5a.5.5,0,0,1-.5.5H.5a.5.5,0,0,1-.5-.5V.5A.5.5,0,0,1,.5,0h3A.5.5,0,0,1,4,.5V8H8V.5A.5.5,0,0,1,8.5,0h3A.5.5,0,0,1,12,.5Z"/></g></g></svg>