<svg xmlns="http://www.w3.org/2000/svg" xmlns:xlink="http://www.w3.org/1999/xlink" viewBox="0 0 806.89 655.11"><defs><style>.cls-1{fill:url(#linear-gradient);}.cls-2{fill:url(#linear-gradient-2);}.cls-3{fill:url(#linear-gradient-3);}</style><linearGradient id="linear-gradient" x1="1099.12" y1="339.84" x2="1165.88" y2="340.35" gradientTransform="matrix(11.97, 0, 0, -11.97, -13157.42, 4398.61)" gradientUnits="userSpaceOnUse"><stop offset="0" stop-color="#ffb900"/><stop offset="0.34" stop-color="#f38000"/><stop offset="0.57" stop-color="#f83c72"/><stop offset="0.78" stop-color="#fc1cbe"/><stop offset="0.93" stop-color="#fe08ed"/><stop offset="1" stop-color="#f0f"/></linearGradient><linearGradient id="linear-gradient-2" x1="1117.88" y1="317.98" x2="1185.94" y2="355.67" gradientTransform="matrix(11.97, 0, 0, -11.97, -13157.42, 4398.61)" gradientUnits="userSpaceOnUse"><stop offset="0" stop-color="#ee0a3f"/><stop offset="1" stop-color="#ee0a3f" stop-opacity="0"/></linearGradient><linearGradient id="linear-gradient-3" x1="1341.33" y1="329.34" x2="1374.57" y2="356.12" gradientTransform="translate(16200.8 4359.43) rotate(180) scale(11.85)" gradientUnits="userSpaceOnUse"><stop offset="0" stop-color="#ed6600"/><stop offset="1" stop-color="#f98200"/></linearGradient></defs><g id="Layer_2" data-name="Layer 2"><g id="Layer_1-2" data-name="Layer 1"><path class="cls-1" d="M403.62,655.11a32.83,32.83,0,0,1-16.35-4.25C344.59,626.16,28.48,428,16.54,421.91A28.61,28.61,0,0,1,.17,399V121A30.11,30.11,0,0,1,13.76,95.18L16,93.88C46.63,74.9,149,12.43,165.2,3.44A24.5,24.5,0,0,1,177.46,0a25.48,25.48,0,0,1,11.61,3S332.31,96.32,354.24,104.66A113,113,0,0,0,403.29,115a109.89,109.89,0,0,0,54.95-13.41C479.65,90.28,616.54,3.45,618,3.45A21.58,21.58,0,0,1,629.45.34a24,24,0,0,1,12.26,3.43c18.64,10.3,145.54,88,150.94,91.41a29.46,29.46,0,0,1,14.22,25.52v278a28.29,28.29,0,0,1-16.34,22.89c-11.94,6.54-327.07,204.74-370.56,229a32.84,32.84,0,0,1-16.36,4.57"/><path class="cls-2" d="M402,655.11h1.64A32.8,32.8,0,0,0,420,650.86C462.65,626.16,778.6,428,790.53,421.91A28.27,28.27,0,0,0,806.88,399V121a29.73,29.73,0,0,0-3.1-13.57L402,328.05Z"/><path class="cls-3" d="M400.59,651.19H399A32.31,32.31,0,0,1,382.8,647C340.57,622.55,28,426.46,16.18,420.48A28,28,0,0,1,0,397.83v-275a29.47,29.47,0,0,1,3.07-13.42L400.59,327.61Z"/></g></g></svg>