<svg xmlns="http://www.w3.org/2000/svg" viewBox="0 0 547.35 111">
	<defs>
		<style>
			.cls-1 {
				fill: #ff4b4b;
			}
			.cls-2 {
				stroke: #000;
				stroke-width: 2px;
				opacity: 0.5;
			}
		</style>
	</defs>
	<polygon id="Path" class="cls-1" points="521.98 17.6 524.57 0 547.35 0 544.89 17.6 521.98 17.6" />
	<path id="Shape" d="M26.66,89a68.26,68.26,0,0,1-15.72-1.43Q5.18,86.19,2.59,83C.86,80.8,0,77.86,0,74.15a31.15,31.15,0,0,1,.39-4.91l.39-2.85q1-7.24,4-11t9.32-5.31q6.33-1.55,18.11-1.55h2.59a59.09,59.09,0,0,1,14.37,1.36q5.18,1.35,7.5,4.46h.39l.65-6.08c.17-1.55.26-2.54.26-3a6.57,6.57,0,0,0-1.3-4.53,6.7,6.7,0,0,0-3.94-1.87,50.56,50.56,0,0,0-7.83-.45H42.32a55,55,0,0,0-9.26.58,8.44,8.44,0,0,0-4.4,1.81,6.3,6.3,0,0,0-1.61,3.43l-.13.39H5.44l.25-1.94q1-7.38,4.73-11.13t11.64-5.24q8-1.5,22.85-1.49H48q12.3,0,19.09,1.61t10,5.89q3.18,4.27,3.18,12.56a87.13,87.13,0,0,1-.91,10.22L74.67,88H52.28l1.17-7h-.26a26.14,26.14,0,0,1-5.31,4.79A18.74,18.74,0,0,1,41,88.26,68,68,0,0,1,29.38,89Zm12-13.85a67.83,67.83,0,0,0,10.36-.58q3.36-.58,4.66-2a7.26,7.26,0,0,0,1.68-4.07l.26-1a10.28,10.28,0,0,0,.13-1.81A3.41,3.41,0,0,0,54.61,63a8.7,8.7,0,0,0-4.33-1.36,83.43,83.43,0,0,0-9.39-.39H39.47a61.34,61.34,0,0,0-10.42.65c-2.28.43-3.86,1.1-4.72,2a7.33,7.33,0,0,0-1.68,4.08l-.13,1-.13,1.29a3.62,3.62,0,0,0,1.42,3,9.48,9.48,0,0,0,4.6,1.49,78.56,78.56,0,0,0,9,.39Z" />
	<path id="Path-2" data-name="Path" d="M91.69,25.88h22.77l-1.55,9.71h.26a24.91,24.91,0,0,1,6.28-6.34,23,23,0,0,1,8.15-3.37,55.14,55.14,0,0,1,11.58-1h1.17q10.1,0,16.17,1.94a15.74,15.74,0,0,1,9,6.6q2.91,4.65,2.91,12.68a81.71,81.71,0,0,1-.65,8.93L163,88H140.22l4.53-32.22a33.5,33.5,0,0,0,.38-4.66,9.25,9.25,0,0,0-1.42-5.63,7.23,7.23,0,0,0-4.4-2.53,41.19,41.19,0,0,0-8.28-.64h-1.42a30.62,30.62,0,0,0-10.75,1.55,12,12,0,0,0-6,4.72,21.78,21.78,0,0,0-2.79,8.48L105.66,88H82.89Z" />
	<polygon id="Shape-2" data-name="Shape" points="171.21 88 180.01 25.88 202.79 25.88 193.99 88 171.21 88" />
	<path id="Path-3" data-name="Path" d="M211.39,25.88h22.78l-1.55,9.71h.26a24,24,0,0,1,9.18-7.9q5.7-2.84,14.63-2.84h1.55q10.88,0,16.37,3.17t7.18,10.29h.13a23.64,23.64,0,0,1,10.16-10.1q6.54-3.36,16.63-3.36h1.42q9.19,0,14.56,1.81a13.63,13.63,0,0,1,7.83,6.08Q335,37,335,44.52a90,90,0,0,1-.9,10.48l-4.66,33H306.64l4.66-32.35a33.58,33.58,0,0,0,.39-4.66,9.79,9.79,0,0,0-1.23-5.37A6.29,6.29,0,0,0,306.9,43a21.7,21.7,0,0,0-6.21-.71h-1.3c-4.4,0-7.78.47-10.16,1.42a9.41,9.41,0,0,0-5.11,4.47,28.06,28.06,0,0,0-2.33,8.6L277.39,88H254.62l4.53-32.35a22.87,22.87,0,0,0,.38-4.53,10.46,10.46,0,0,0-1.23-5.57A6,6,0,0,0,254.81,43a22.74,22.74,0,0,0-6-.64H247.5q-6.74,0-10.22,1.42a9.81,9.81,0,0,0-5.12,4.4,26.45,26.45,0,0,0-2.39,8.8L225.37,88H202.59Z" />
	<path id="Shape-3" data-name="Shape" d="M374.61,89q-12.83,0-20.26-1.82t-11.06-6.6q-3.63-4.78-3.63-13.71a59.9,59.9,0,0,1,.65-9.19l.26-2.46q1.81-12.94,6.21-19.41A21.53,21.53,0,0,1,359,27.11q7.83-2.26,21.81-2.26h4a89.66,89.66,0,0,1,19.35,1.68q7.31,1.68,10.93,6.08c2.42,2.94,3.62,7,3.62,12.3a44.79,44.79,0,0,1-.51,7l-1.3,9.71H362.05l-.26,2.07a16.81,16.81,0,0,0-.38,3.24c0,2.24.53,3.9,1.61,5A8.34,8.34,0,0,0,367.68,74a56.14,56.14,0,0,0,8.87.52H379a49.4,49.4,0,0,0,9.64-.71,8.78,8.78,0,0,0,4.66-2.2,7.73,7.73,0,0,0,1.74-4.21v-.26h21.36l-.26,2q-1.17,8-5.37,12.29T399,87.35A95.59,95.59,0,0,1,379,89Zm22.51-39.22.26-2.33a10,10,0,0,0,.26-2.58A5.51,5.51,0,0,0,396.35,41,7.85,7.85,0,0,0,392.14,39a44.3,44.3,0,0,0-8.22-.58h-2.59a39.63,39.63,0,0,0-10.41,1,8.72,8.72,0,0,0-5.11,3.37,16.94,16.94,0,0,0-2.2,7Z" />
	<path id="Path-4" data-name="Path" class="cls-2" d="M413.72,110a34.5,34.5,0,0,1-4.66-.26l.39-2.2a37.14,37.14,0,0,0,4.53.26,8.32,8.32,0,0,0,4.85-1.23,8.71,8.71,0,0,0,2.85-4.33,52.88,52.88,0,0,0,2-9.19l9.45-67.17h2.72l-9.45,67.3a45.75,45.75,0,0,1-2.33,10,10.68,10.68,0,0,1-3.88,5.24A11.59,11.59,0,0,1,413.72,110Z" />
	<path id="Path-5" data-name="Path" class="cls-2" d="M472.15,88.91a153.82,153.82,0,0,1-20.06-1q-6.72-1-9.58-3.69c-1.89-1.81-2.84-4.62-2.84-8.41a25.54,25.54,0,0,1,.19-3.3c.13-1,.28-2.05.45-3.18H443a34.62,34.62,0,0,0-.64,6.22q0,4.65,2.52,6.92t8.67,3.11a149.76,149.76,0,0,0,18.57.84h4.53q11.38,0,17.34-1.43t8.41-4.4q2.46-3,3.24-8.54a35.51,35.51,0,0,0,.52-5.3,7.24,7.24,0,0,0-2.4-5.89q-2.39-2-8.54-2.78a175.1,175.1,0,0,0-18.44-.91A133,133,0,0,1,457.72,56q-6.54-1.09-9.06-3.43a8.53,8.53,0,0,1-2.52-6.6,40.27,40.27,0,0,1,.65-5.95q.76-6,3.55-9.13t9.26-4.52Q466.07,25,478.49,25h3.24a96.93,96.93,0,0,1,17.21,1.16q6.07,1.17,8.8,4t2.72,8.16a53,53,0,0,1-.52,6.08h-2.59a43.07,43.07,0,0,0,.52-6q0-4.41-2.4-6.73c-1.59-1.56-4.25-2.66-8-3.3a98.35,98.35,0,0,0-15.91-1h-3.24q-11.64,0-17.53,1.22t-8.29,3.89q-2.39,2.66-3.17,8a36.88,36.88,0,0,0-.51,5,6.72,6.72,0,0,0,2.26,5.5q2.26,1.88,8.22,2.66a163.46,163.46,0,0,0,17.73.9,147.8,147.8,0,0,1,19.6,1.17c4.45.69,7.57,1.85,9.39,3.49s2.71,4.06,2.71,7.25a46.25,46.25,0,0,1-.51,5.82q-.92,6.47-3.82,10t-9.45,5q-6.54,1.56-18.44,1.56Z" />
</svg>