<svg xmlns="http://www.w3.org/2000/svg" viewBox="0 0 24 24">
	<defs>
		<style>
			.cls-1 {
				fill: #f2f2f2;
			}

			.cls-2 {
				fill: #1a007f;
			}

			.cls-2,
			.cls-3,
			.cls-4,
			.cls-5,
			.cls-6 {
				fill-rule: evenodd;
			}

			.cls-3 {
				fill: #4e000a;
			}

			.cls-4 {
				fill: #ff9396;
			}

			.cls-5 {
				fill: #002dc8;
			}

			.cls-6 {
				fill: #ff536a;
			}
		</style>
	</defs>
	<title>Arc</title>
	<g id="Layer_2" data-name="Layer 2">
		<g id="Layer_1-2" data-name="Layer 1">
			<g id="Layer_2-2" data-name="Layer 2">
				<circle class="cls-1" cx="12" cy="12" r="12" />
			</g>
			<path class="cls-2" d="M8.5,17.3l1.9-4A6.05,6.05,0,0,1,6.7,11l-2,4.1a11.13,11.13,0,0,0,3.8,2.2" />
			<path class="cls-3" d="M16.4,10.9a6.68,6.68,0,0,1-3.7,2.4l1.9,4a13,13,0,0,0,3.8-2.2Z" />
			<path class="cls-2" d="M4.7,15.1l-1,2.1a2.24,2.24,0,0,0,.9,2.9,2,2,0,0,0,2.9-.9.1.1,0,0,1,.1-.1l.9-1.9a9.5,9.5,0,0,1-3.8-2.1" />
			<path class="cls-4" d="M20.3,6.4A2.18,2.18,0,0,0,17.7,8h0a6.19,6.19,0,0,1-1.4,2.8l2,4.2a10.67,10.67,0,0,0,3.6-6.1,2,2,0,0,0-1.6-2.5h0" />
			<path class="cls-5" d="M12.7,13.2a2.77,2.77,0,0,1-1.3.1,3.4,3.4,0,0,1-1-.1A5.52,5.52,0,0,1,6.7,11a3.51,3.51,0,0,1-.5-.8A2.2,2.2,0,0,0,3.4,8.8a2.19,2.19,0,0,0-1.3,2.8c0,.1,0,.1.1.2a9.4,9.4,0,0,0,2.5,3.4,10.89,10.89,0,0,0,3.8,2.1,9.29,9.29,0,0,0,2.9.5,11.85,11.85,0,0,0,3.2-.5Z" />
			<path class="cls-6" d="M19.4,17.2l-1-2.2-2-4.1h0l-2.9-6a2.16,2.16,0,0,0-2.9-1,2.41,2.41,0,0,0-1,1L6.7,11a6.34,6.34,0,0,0,3.7,2.3l.9-2c.1-.1.2-.2.3-.1a.1.1,0,0,1,.1.1l.9,1.9h0l1.9,4,.9,1.9a2,2,0,0,0,2,1.2,1.27,1.27,0,0,0,.6-.1,2.23,2.23,0,0,0,1.5-2.7,1,1,0,0,1-.1-.3" />
			<path class="cls-2" d="M8.5,17.3l1.9-4A6.05,6.05,0,0,1,6.7,11l-2,4.1a11.13,11.13,0,0,0,3.8,2.2" />
			<path class="cls-3" d="M16.4,10.9a6.68,6.68,0,0,1-3.7,2.4l1.9,4a13,13,0,0,0,3.8-2.2Z" />
			<path class="cls-2" d="M4.7,15.1l-1,2.1a2.24,2.24,0,0,0,.9,2.9,2,2,0,0,0,2.9-.9.1.1,0,0,1,.1-.1l.9-1.9a9.5,9.5,0,0,1-3.8-2.1" />
			<path class="cls-4" d="M20.3,6.4A2.18,2.18,0,0,0,17.7,8h0a6.19,6.19,0,0,1-1.4,2.8l2,4.2a10.67,10.67,0,0,0,3.6-6.1,2,2,0,0,0-1.6-2.5h0" />
			<path class="cls-5" d="M12.7,13.2a2.77,2.77,0,0,1-1.3.1,3.4,3.4,0,0,1-1-.1A5.52,5.52,0,0,1,6.7,11a3.51,3.51,0,0,1-.5-.8A2.2,2.2,0,0,0,3.4,8.8a2.19,2.19,0,0,0-1.3,2.8c0,.1,0,.1.1.2a9.4,9.4,0,0,0,2.5,3.4,10.89,10.89,0,0,0,3.8,2.1,9.29,9.29,0,0,0,2.9.5,11.85,11.85,0,0,0,3.2-.5Z" />
			<path class="cls-6" d="M19.4,17.2l-1-2.2-2-4.1h0l-2.9-6a2.16,2.16,0,0,0-2.9-1,2.41,2.41,0,0,0-1,1L6.7,11a6.34,6.34,0,0,0,3.7,2.3l.9-2c.1-.1.2-.2.3-.1a.1.1,0,0,1,.1.1l.9,1.9h0l1.9,4,.9,1.9a2,2,0,0,0,2,1.2,1.27,1.27,0,0,0,.6-.1,2.23,2.23,0,0,0,1.5-2.7,1,1,0,0,1-.1-.3" />
		</g>
	</g>
</svg>