<svg xmlns="http://www.w3.org/2000/svg" viewBox="0 0 24 24">
	<defs>
		<style>
			.cls-1 {
				fill: #fff;
			}

			.cls-2 {
				fill: #1a007f;
			}

			.cls-2,
			.cls-3,
			.cls-4,
			.cls-5,
			.cls-6 {
				fill-rule: evenodd;
			}

			.cls-3 {
				fill: #4e000a;
			}

			.cls-4 {
				fill: #ff9396;
			}

			.cls-5 {
				fill: #002dc8;
			}

			.cls-6 {
				fill: #ff536a;
			}
		</style>
	</defs>
	<title>Arc</title>
	<g id="Layer_2" data-name="Layer 2">
		<g id="Layer_6" data-name="Layer 6">
			<g id="Layer_7" data-name="Layer 7">
				<circle class="cls-1" cx="12" cy="12" r="12" />
			</g>
			<path class="cls-2" d="M8.48,17.25l1.89-4A6.63,6.63,0,0,1,6.66,11l-2,4.14a11.3,11.3,0,0,0,3.79,2.11" />
			<path class="cls-3" d="M16.35,10.88a7,7,0,0,1-3.67,2.36l1.88,4A11.26,11.26,0,0,0,18.32,15Z" />
			<path class="cls-2" d="M4.69,15.14l-1,2.08a2.21,2.21,0,0,0,.91,2.9,2.17,2.17,0,0,0,3-1l.9-1.89a11.22,11.22,0,0,1-3.79-2.11" />
			<path class="cls-4" d="M20.26,6.36a2.16,2.16,0,0,0-2.55,1.69h0a6.54,6.54,0,0,1-1.36,2.83l2,4.15A11.09,11.09,0,0,0,22,8.9a2.15,2.15,0,0,0-1.69-2.54" />
			<path class="cls-5" d="M12.68,13.24a5.53,5.53,0,0,1-1.28.15,5.15,5.15,0,0,1-1-.11A6.63,6.63,0,0,1,6.66,11a3.6,3.6,0,0,1-.49-.84,2.16,2.16,0,1,0-4,1.62,8.67,8.67,0,0,0,2.53,3.36,11.22,11.22,0,0,0,3.79,2.11,9.73,9.73,0,0,0,2.91.47,9.93,9.93,0,0,0,3.16-.53Z" />
			<path class="cls-6" d="M19.35,17.21l-1-2.19-2-4.14h0l-2.86-6a2.17,2.17,0,0,0-3.91,0L6.66,11a6.63,6.63,0,0,0,3.71,2.28l.94-2a.25.25,0,0,1,.45,0l.92,1.94h0l1.88,4,.92,1.94a2.16,2.16,0,0,0,2,1.24,2.32,2.32,0,0,0,.58-.08,2.2,2.2,0,0,0,1.33-3.08" />
			<path class="cls-2" d="M8.48,17.25l1.89-4A6.63,6.63,0,0,1,6.66,11l-2,4.14a11.3,11.3,0,0,0,3.79,2.11" />
			<path class="cls-3" d="M16.35,10.88a7,7,0,0,1-3.67,2.36l1.88,4A11.26,11.26,0,0,0,18.32,15Z" />
			<path class="cls-2" d="M4.69,15.14l-1,2.08a2.21,2.21,0,0,0,.91,2.9,2.17,2.17,0,0,0,3-1l.9-1.89a11.22,11.22,0,0,1-3.79-2.11" />
			<path class="cls-4" d="M20.26,6.36a2.16,2.16,0,0,0-2.55,1.69h0a6.54,6.54,0,0,1-1.36,2.83l2,4.15A11.09,11.09,0,0,0,22,8.9a2.15,2.15,0,0,0-1.69-2.54" />
			<path class="cls-5" d="M12.68,13.24a5.53,5.53,0,0,1-1.28.15,5.15,5.15,0,0,1-1-.11A6.63,6.63,0,0,1,6.66,11a3.6,3.6,0,0,1-.49-.84,2.16,2.16,0,1,0-4,1.62,8.67,8.67,0,0,0,2.53,3.36,11.22,11.22,0,0,0,3.79,2.11,9.73,9.73,0,0,0,2.91.47,9.93,9.93,0,0,0,3.16-.53Z" />
			<path class="cls-6" d="M19.35,17.21l-1-2.19-2-4.14h0l-2.86-6a2.17,2.17,0,0,0-3.91,0L6.66,11a6.63,6.63,0,0,0,3.71,2.28l.94-2a.25.25,0,0,1,.45,0l.92,1.94h0l1.88,4,.92,1.94a2.16,2.16,0,0,0,2,1.24,2.32,2.32,0,0,0,.58-.08,2.2,2.2,0,0,0,1.33-3.08" />
		</g>
	</g>
</svg>