<svg xmlns="http://www.w3.org/2000/svg" xmlns:xlink="http://www.w3.org/1999/xlink" viewBox="0 0 251.06 74.99"><defs><style>.cls-1{fill:url(#linear-gradient);}.cls-2{fill:url(#linear-gradient-2);}.cls-3{fill:url(#linear-gradient-3);}.cls-4{fill:url(#linear-gradient-4);}</style><linearGradient id="linear-gradient" x1="50.01" y1="74" x2="50.01" y2="24.01" gradientTransform="matrix(1, 0, 0, -1, 0, 74)" gradientUnits="userSpaceOnUse"><stop offset="0" stop-color="#2bdbdc"/><stop offset="1" stop-color="#0067f4"/></linearGradient><linearGradient id="linear-gradient-2" x1="25" y1="49.01" x2="25" y2="-0.99" xlink:href="#linear-gradient"/><linearGradient id="linear-gradient-3" x1="37.5" y1="24.01" x2="37.5" y2="-0.99" xlink:href="#linear-gradient"/><linearGradient id="linear-gradient-4" x1="12.5" y1="49.01" x2="12.5" y2="24.01" xlink:href="#linear-gradient"/></defs><title>Asset 1</title><g id="Layer_2" data-name="Layer 2"><g id="Layer_1-2" data-name="Layer 1"><path class="cls-1" d="M50,50V31.66A6.66,6.66,0,0,0,43.33,25H25A25,25,0,1,1,50,50Z"/><path class="cls-2" d="M43.33,25H6.67A6.66,6.66,0,0,0,0,31.66V68.32A6.67,6.67,0,0,0,6.67,75H43.33A6.67,6.67,0,0,0,50,68.32V31.66A6.66,6.66,0,0,0,43.33,25Z"/><path class="cls-3" d="M25,75A25,25,0,0,1,50,50V68.32A6.66,6.66,0,0,1,43.33,75Z"/><path class="cls-4" d="M0,50V31.66A6.66,6.66,0,0,1,6.67,25H25a25,25,0,0,1-7.32,17.68A25,25,0,0,1,0,50Z"/><path d="M107,61h8.69l-12.2-33.7H94L81.77,61h8.59l2-6H105Zm-4.13-12.29h-8.3l4.12-12.33ZM131.7,51l-6.19-16.75h-9.17l10.9,25.87-6.15,13.63h8.84l16.8-39.5h-8.88Zm26.2-2.4c0-4.61,2.26-6,6.15-6h2.25V33.93a10,10,0,0,0-8.4,4.75V34.22h-8.21V61h8.21Zm38.53-1c0-8.5-6-13.78-13.92-13.78s-13.92,5.28-13.92,13.78,6,13.77,13.83,13.77S196.43,56.1,196.43,47.61Zm-19.48,0c0-4.56,2.59-6.67,5.56-6.67s5.57,2.11,5.57,6.67-2.73,6.67-5.66,6.67S177,52.12,177,47.61Zm37.26,1c0,8.69,5.66,12.68,12.58,12.68s12.62-4,12.62-12.68V27.54H235V48.71c0,6.15-3.26,8.79-8.21,8.79s-8.25-2.64-8.25-8.79V27.54h-4.37ZM246.7,61h4.36V27.54H246.7Z"/></g></g></svg>