<?xml version="1.0" encoding="utf-8"?>
<svg version="1.1" id="Layer_1" xmlns="http://www.w3.org/2000/svg" xmlns:xlink="http://www.w3.org/1999/xlink" x="0px" y="0px" viewBox="0 0 512 512" style="enable-background:new 0 0 512 512;" xml:space="preserve">
	<style type="text/css">
		.st0 {
			fill: #F2780C;
		}
		.st1 {
			fill: #FFFFFF;
		}
	</style>
	<circle class="st0" cx="256" cy="256" r="256" />
	<path class="st1" d="M353.8,220.4V176c0-48-49.8-80-81.8-80h-80.9c-56,0-95.1,40-95.1,96v128c0,55.1,39.1,96,96,96h128.9 c56,0,95.1-40.7,95.1-96v-32C416,240,401.8,220.4,353.8,220.4z M198.2,176h71.1c12.3,0.3,22,10.4,21.8,22.7 c-0.3,11.9-9.8,21.5-21.8,21.8h-71.1c-12.3-0.3-22-10.4-21.8-22.7C176.7,185.8,186.3,176.3,198.2,176z M313.8,336H198.2 c-12.3-0.3-22-10.4-21.8-22.7c0.3-11.9,9.8-21.5,21.8-21.8h115.5c12.3,0.3,22,10.4,21.8,22.7C335.3,326.2,325.7,335.7,313.8,336z" />
</svg>
