<?xml version="1.0" encoding="utf-8"?>
<svg version="1.1" id="Layer_1" xmlns="http://www.w3.org/2000/svg" xmlns:xlink="http://www.w3.org/1999/xlink" x="0px" y="0px" viewBox="0 0 506 512" style="enable-background:new 0 0 506 512;" xml:space="preserve">
	<path d="M505.8,319.5c-0.2-38.1-0.3-65.6-19-89.8c-21.2-27.4-53.9-32-80.5-32.8c4.5-19.1,5.8-40.4,3.7-63.3 C409.4,57.1,352.6,2.2,273.7,0h-1.1L151.9,0.1h-1.3c-46.9,0-84,14-110.3,41.7C24,58.8,2.5,88.7,0.2,137L0.1,331.7c-0.2,3.7,0.1,7.4,0.1,11.2c0,55.4,8.9,95.3,36.5,124.7S105.3,512,158.3,512c1.1,0,2.3,0,3.5,0h184.8c47.3-0.4,87.2-16,115.5-45.1 s43.5-70.5,44-119.8C506,347.1,505.8,327.3,505.8,319.5L505.8,319.5z M161.6,103.8l103.1-0.1c24.3,0.4,43.7,22.2,43.3,46.5 c-0.4,24.1-20,41.6-44,41.6l-103.8,0.1c-24.3-0.4-43.7-20.4-43.3-44.7c0,0,0,0,0,0l0,0C117.3,122.9,137.3,103.5,161.6,103.8 L161.6,103.8z M355.5,393.5H149.2c-24.3,0-44-19.7-44-44s19.7-44,44-44h206.2c24.3,0,44,19.7,44,44S379.8,393.5,355.5,393.5z" />
</svg>