<svg xmlns="http://www.w3.org/2000/svg" viewBox="0 0 64 29.79">
	<defs><style>.cls-1 {fill: #e82b0c;}.cls-2 {fill: #88b3ba;}.cls-3 {fill: #6c959e;}</style></defs>
	<path class="cls-1" d="M4.86,3.36a1.77,1.77,0,0,0,.49-1.21,2,2,0,0,0-2-2H.3a.3.3,0,0,0-.3.3H0V6.75a.3.3,0,0,0,.3.3H3.39A2.2,2.2,0,0,0,5.57,4.89,2,2,0,0,0,4.86,3.36Zm-3,1H3.11a.46.46,0,0,1,.45.46.44.44,0,0,1-.44.46H1.89ZM3.06,2.57H1.89V1.94H3.06a.32.32,0,0,1,.33.31A.33.33,0,0,1,3.06,2.57ZM11.85.16H9.08a.3.3,0,0,0-.3.3h0V6.75a.29.29,0,0,0,.3.3h1.28a.29.29,0,0,0,.3-.3h0V5.2h.54a1.21,1.21,0,0,1,1.14,1.26v.29a.3.3,0,0,0,.3.3h1.28a.29.29,0,0,0,.3-.3h0V6.39a2.5,2.5,0,0,0-.8-1.9,2.85,2.85,0,0,0,.8-1.94A2.39,2.39,0,0,0,11.85.16ZM10.66,1.94h.85a.74.74,0,1,1,0,1.48h-.85Zm10.9,3.3H19.37V4.35h2a.3.3,0,0,0,.3-.3V2.87a.29.29,0,0,0-.3-.3h-2V2h2.14a.31.31,0,0,0,.3-.3h0V.46a.31.31,0,0,0-.3-.3H17.79a.3.3,0,0,0-.3.3h0V6.75a.3.3,0,0,0,.3.3h3.77a.3.3,0,0,0,.3-.3V5.54A.3.3,0,0,0,21.56,5.24ZM27.91.18A.31.31,0,0,0,27.63,0a.29.29,0,0,0-.27.18L24.51,6.63a.29.29,0,0,0,.15.39.27.27,0,0,0,.12,0h1.35a.29.29,0,0,0,.28-.19l.39-.92h1.68l.37.92a.3.3,0,0,0,.28.19h1.36a.3.3,0,0,0,.3-.3.34.34,0,0,0-.05-.17Zm-.28,3.58.19.44h-.38ZM37,3.26,38.93.64a.31.31,0,0,0-.07-.42.28.28,0,0,0-.18-.06H37.24A.31.31,0,0,0,37,.29L35.64,2.21V.46a.31.31,0,0,0-.3-.3H34.05a.31.31,0,0,0-.3.3h0V6.75a.3.3,0,0,0,.3.3h1.29a.3.3,0,0,0,.3-.3h0V5.07l.18-.24,1.44,2.09a.31.31,0,0,0,.25.13h1.62a.3.3,0,0,0,.3-.3.27.27,0,0,0-.06-.17ZM43.91.16H42.63a.3.3,0,0,0-.3.3V6.75a.29.29,0,0,0,.3.3h1.28a.29.29,0,0,0,.3-.3V.46A.3.3,0,0,0,43.91.16Zm9.35,0h-1.2a.31.31,0,0,0-.3.3h0v2.4L49.55.27a.3.3,0,0,0-.23-.11H48.2a.31.31,0,0,0-.31.3V6.75a.3.3,0,0,0,.31.3h1.2a.29.29,0,0,0,.3-.3V3.1L53,7.1a.28.28,0,0,0,.33.09.29.29,0,0,0,.2-.28V.46a.31.31,0,0,0-.3-.3ZM64,3.09a.3.3,0,0,0-.3-.25H60.28a.3.3,0,0,0-.31.29h0V4.31a.3.3,0,0,0,.31.3h1.48a1.62,1.62,0,0,1-1.41.78,1.69,1.69,0,0,1-1.67-1.76,1.7,1.7,0,0,1,1.67-1.77,1.62,1.62,0,0,1,1.36.7.39.39,0,0,0,.2.13.32.32,0,0,0,.23-.06l1.06-.78a.27.27,0,0,0,.11-.19.28.28,0,0,0-.05-.23A3.47,3.47,0,0,0,60.35,0,3.62,3.62,0,1,0,64,3.63,3.27,3.27,0,0,0,64,3.09Z" />
	<path class="cls-2" d="M14.37,10.71H12a.59.59,0,0,0-.59.59h0v9.42l-7.94-9.8A.64.64,0,0,0,3,10.71H.59A.58.58,0,0,0,0,11.3H0V28.9a.59.59,0,0,0,.59.59H3a.59.59,0,0,0,.59-.59V17.25L13.92,29.58a.6.6,0,0,0,.45.21.69.69,0,0,0,.2,0A.61.61,0,0,0,15,29.2V11.3A.59.59,0,0,0,14.37,10.71Z" />
	<path class="cls-3" d="M28.42,25.79H21.17V21h6.74a.59.59,0,0,0,.6-.59h0V18a.59.59,0,0,0-.6-.59H21.16V14.36h7.11a.59.59,0,0,0,.59-.6V11.3a.58.58,0,0,0-.59-.59H18a.58.58,0,0,0-.59.59V28.9a.6.6,0,0,0,.59.59H28.42A.6.6,0,0,0,29,28.9V26.39A.59.59,0,0,0,28.42,25.79ZM49.33,10.71H46.65a.6.6,0,0,0-.56.37l-4,9.84-4-9.84a.57.57,0,0,0-.54-.37h-2.7a.58.58,0,0,0-.49.26.57.57,0,0,0,0,.55L37.71,20l-.39.94-4-9.85a.57.57,0,0,0-.54-.37h-2.7a.59.59,0,0,0-.54.81l7.24,17.9a.57.57,0,0,0,.54.37.62.62,0,0,0,.56-.37l1.84-4.53,1.84,4.53a.57.57,0,0,0,.54.37.61.61,0,0,0,.56-.37l7.23-17.9a.58.58,0,0,0-.55-.81Zm9.1,7.52H55.84a2,2,0,0,1,0-4h5.31a.6.6,0,0,0,.59-.59V11.3a.59.59,0,0,0-.59-.59H55.54a5.48,5.48,0,0,0-5.46,5.49,5.61,5.61,0,0,0,5.46,5.62H58a2,2,0,1,1,0,4H51.62a.59.59,0,0,0-.59.59V28.9a.6.6,0,0,0,.59.59h6.81A5.64,5.64,0,0,0,64,23.8,5.57,5.57,0,0,0,58.43,18.23Z" />
	<path class="cls-2" d="M33.31,11.08a.57.57,0,0,0-.54-.37h-2.7a.56.56,0,0,0-.48.26.6.6,0,0,0-.06.55L31.73,17l2.83-2.83Zm4.24-.37h-2.7a.58.58,0,0,0-.49.26.57.57,0,0,0,0,.55l.82,2,2.74-2.74A.53.53,0,0,0,37.55,10.71Zm-9.64,6.71H21.17V14.36h7.1a.59.59,0,0,0,.59-.6V11.3a.58.58,0,0,0-.59-.59H18a.58.58,0,0,0-.59.59V28.9a.6.6,0,0,0,.59.59h1.18l3.7-3.7H21.17V21h6.49l.85-.85V18a.59.59,0,0,0-.6-.59Z" />
</svg>