<svg xmlns="http://www.w3.org/2000/svg" xmlns:xlink="http://www.w3.org/1999/xlink" viewBox="0 0 956 292"><defs><path id="a" d="M0 0h956v292H0z"/></defs><clipPath id="b"><use xlink:href="#a" overflow="visible"/></clipPath><path clip-path="url(#b)" fill="#EEE" d="M756.49 232.04c-27.43-2.92-55.19-1.71-82.65.32-13.75 1.02-27.46 2.33-41.28 3.4-5.83.45-13.53 2.28-17.05-1.54-.82-4.81 8.85-7.62 10.76-12.8 3.55-9.61-17.71-9.5-25.63-10.09-26.52-1.99-52.97-2.06-79.67-2.03-23.49.02-48.92.4-71.93 3.96-11.26 1.74-35.19 5.12-36.25 15.78-1.78 18.08 56.88 20.36 8.64 30.17-13.3 2.7-26.79 4.34-40.11 6.72-18.44 3.29-39.69 8.36-56.07 15.41-4.45 1.92-10.46 4.16-10.95 8.36-.72 6.11 7.95 7.25 14.13 8.58 20.62 4.42 43.13 5.94 64.48 7.69 51.98 4.25 103.62 1.46 155.84 1.65 24.39.09 49.34-.71 73.67-2.25 14.1-.89 43.04-1.35 52.16-11.21 2.5-2.69 2.12-6.29-.55-8.87-4.39-4.23-23.54-3.87-19.77-10.99 4.93-9.26 58.98-8.7 71.27-9.68 17.67-1.41 44.42-4.57 57.05-14.56 17.54-13.87-13.22-16.66-26.09-18.02zM242.81 101.56c4.39.51 8.76.95 13.06 1.41 31.94 3.4 63.67 1.17 95.76 1.32 14.99.07 30.32-.57 45.27-1.8 8.66-.71 26.45-1.08 32.05-8.97 1.53-2.16 1.3-5.04-.34-7.11-2.7-3.39-14.47-3.1-12.15-8.8 3.03-7.42 36.24-6.97 43.79-7.75 10.86-1.13 27.3-3.66 35.05-11.66 10.76-11.1-8.14-13.33-16.05-14.43-16.86-2.34-33.91-1.37-50.79.26-8.45.82-16.87 1.87-25.36 2.73-3.58.36-8.31 1.82-10.48-1.23-.5-3.85 5.44-6.1 6.61-10.25 2.18-7.7-10.88-7.6-15.75-8.08-16.3-1.59-32.55-1.65-48.96-1.63-14.44.02-30.06.32-44.2 3.17-6.92 1.4-21.63 4.1-22.27 12.63-1.09 14.48 34.95 16.31 5.31 24.16-8.17 2.17-16.46 3.48-24.64 5.38-11.33 2.64-24.39 6.69-34.45 12.34-2.73 1.53-6.42 3.34-6.73 6.7-.44 4.89 4.89 5.81 8.69 6.87 6.56 1.83 13.43 3.04 20.35 3.97l6.23.77z"/><g clip-path="url(#b)"><path fill="#DDD" d="M834.72 296.7c-1.41.63-3.3.34-3.33-1.37-.08-5.95-.43-95.74-.92-101.62-.3-3.57-.08-8.46.86-12.27-1.86-22.06-.78-44.53-.8-66.63-.01-5.95-.07-11.89-.14-17.84-.02-1.44-.03-2.87-.05-4.31-6.66-.05-13.32-.11-19.96-.2-6.98-.1-34.42.39-35.98.35-3.16-.09-2.37 4.44-2.46 7.01-.12 3.59-.18 7.19-.2 10.78-.03 7.2.1 14.4.2 21.6.06 4.17.11 8.34.11 12.51.02 15.49-.86 31.25.65 46.72-.76 2.67-.94 6.1-.7 8.6.41 4.13.69 92.17.75 96.34.02 1.19 1.56 1.4 2.71.96 4.81 1.5 11.49.61 16.53.68 11.7.15 23.39.5 35.12.59 4.82.04 9.06.28 13.83.03 2.71-.14 5.84.62 8.48-.13a5.17 5.17 0 0 0 1.58-.77c-5.43.22-11.58.68-16.28-1.03z"/><path fill="#CCC" d="M853.02 205.26c.04-.09.1-.16.14-.26.81-2.01.24-5.01.08-7.11-.96-12.98-.87-25.96-.88-38.99 0-11 .63-21.81.7-32.83.04-5.65.89-11.18.8-16.81-.05-2.71.05-6.04-.24-8.74-.27-2.6.18-4.54-.4-7.07-.14-.61-1.21-.58-2.6-.61-.24 0-1.17-.03-1.89-.03l-18.41-.15c.02 1.44.03 2.87.05 4.31.07 5.94.14 11.89.14 17.84.02 22.09-1.06 44.56.8 66.63-.93 3.81-1.16 8.69-.86 12.27.5 5.89.85 95.67.92 101.62.02 1.7 1.92 2 3.33 1.37 4.7 1.71 10.85 1.25 16.3 1.04 2.48-1.81 2.52-89.62 2.02-92.48z"/><path fill="#DDD" d="M926.41 207.09c-5.34-.12-12.4 1.54-17.48-1.27-1.21.83-2.85.44-2.87-1.8-.21-24.97-.85-49.94-.98-74.91-.07-17.4.24-34.84.23-52.1 0-7.82-.06-15.64-.12-23.46-.03-4.31-.07-8.62-.1-12.93-9.19-.08-18.38-.17-27.54-.32-8.56-.14-42.24.56-44.15.5-3.88-.12-2.91 6.33-3.02 9.99-.15 5.12-.22 10.25-.24 15.38-.04 8.83.08 17.66.19 26.49 6.13.05 12.27.09 18.41.15.71 0 1.64.02 1.89.03 1.39.03 2.46 0 2.6.61.58 2.53.12 4.47.4 7.07.28 2.69.19 6.03.24 8.74.1 5.64-.76 11.16-.8 16.81-.07 11.02-.7 21.83-.7 32.83.01 13.03-.08 26 .88 38.99.16 2.1.72 5.09-.08 7.11-.04.09-.1.17-.14.26.5 2.86.46 90.67-2.01 92.48 1.39-.05 2.73-.09 3.99-.07 14.36.22 28.71.71 43.09.84 5.92.05 11.12.4 16.98.04 3.33-.2 7.17.89 10.41-.18.08-.03.15-.07.23-.1 2.86-1.08 4.05-87.91 4.38-91.07-1.23-.03-2.46-.08-3.69-.11z"/><path fill="#CCC" d="M930.18 186.66c-.16-4.54-.21-9.09-.34-13.64-.34-12.55-.76-25.41-.76-37.96 0-2.03.04-4.05.06-6.08.15-13.6.72-27.06.79-40.74.04-8.06 1.1-15.94.98-23.98-.06-3.86.06-8.62-.29-12.46-.33-3.7.23-6.47-.49-10.08-.17-.87-1.48-.83-3.19-.87a86.6 86.6 0 0 0-2.32-.04c-6.52-.07-13.04-.12-19.55-.18.03 4.31.07 8.62.1 12.93.06 7.82.12 15.64.12 23.46.01 17.26-.3 34.7-.23 52.1.05 11.88-.79 24.32-.14 36.1.84 15.16.93 117.46 1.05 132.67 3.86.97 10.29.76 13.33.65 4.13-.15 5.96 0 10.17-.65 2.17-4.24 1.64-96.83 1.25-101.36-.26-3.29-.42-6.58-.54-9.87z"/><path fill="#DDD" d="M1034.4 198.24c-.04-7.79-.6-15.68-.94-21.66-1.85-32.77-.04-62.24-.7-95.02v-.08c-.09-4.4-3.93-7.94-8.69-7.98-5.17-.05-18.77-.09-23.94-.12-2.06-.01-4.29.02-6.6.06-6.35.11-13.26 84.69-18.64 83.92-1.75.31-4.11.17-4.14-.67-.09-2.93.93-5.79.31-8.69-.38-1.76 0-3.25-.4-6.07-.92-4.3-.12-8.57-.2-12.91-.13-6.63-.78-13.34-.8-19.91-.01-2.93-.08-5.86-.18-8.79-.16-5.06 3.33-9.6 3.38-14.66.2-19.73-3.99.09-3.38-8.09.13-1.81.78-4.39 5.61-4.32 1.04.01 8.09.06 18.35 0-.15-30.03 2.67-62.55-1.2-92.37-.15-1.15-1.28-1.09-2.75-1.15-.26-.01-1.24-.05-2-.05-13.55-.21-28.2-.33-41.68-.65-7.38-.18-36.39.73-38.04.65-3.34-.16-2.51 8.32-2.6 13.15-.13 6.74-.19 13.48-.21 20.23-.02 9.2.04 18.39.11 27.59 6.51.06 13.03.11 19.55.18.87 0 2.02.03 2.32.04 1.7.04 3.01 0 3.19.87.71 3.61.15 6.38.49 10.08.35 3.84.23 8.6.29 12.46.12 8.04-.94 15.91-.98 23.98-.07 13.68-.64 27.14-.79 40.74-.02 2.03-.06 4.05-.06 6.08 0 10.3-.02 20.57.15 30.84.14 8.26.4 16.51.93 24.76.19 3 .89 7.26-.1 10.14-.05.13-.12.24-.17.37.28 1.86.42 4.01.21 6.05-.33 3.17-1.52 89.99-4.38 91.07.74-.01 1.48-.01 2.18-.01 17.87.11 35.72.35 53.62.41 7.36.03 13.83.2 21.13.02 7.41-.18 21.13 1.05 29.42-.49 4.67-.89 2.36-94.52 2.33-100z"/><g fill="#B4B4B4"><path d="M852.44 58.95c-.07-.75-.12-1.4-.38-2.14-.22-.65-.61-.94-.93-1.52-.53-.95-2.33-.94-2.81.06-.38.77-.79 1.22-1 2.04-.2.76-.26 1.52-.33 2.3-.12 1.36-.21 2.71-.15 4.07.03.58.63 1.24 1.16 1.49.2.09.39.19.59.28 1.35.64 2.35-.39 3.24-1.07 1.36-1.03.74-4.04.61-5.51zM924.68-1.99c-.07-.75-.12-1.4-.38-2.14-.22-.65-.61-.94-.93-1.52-.53-.95-2.33-.94-2.81.06-.38.77-.79 1.22-1 2.04-.2.76-.26 1.52-.33 2.3-.12 1.36-.21 2.71-.15 4.07.03.58.63 1.24 1.16 1.49.2.09.39.19.59.28 1.35.64 2.35-.39 3.24-1.07 1.36-1.04.74-4.04.61-5.51zM869.54 75.08c-.21-1.67-.53-2.94-1.91-4.11-.4-.33-1.28-.31-1.63.07-2.08 2.3-2.44 5.95-1.59 8.8.69 2.31 4.51.97 4.98-.77.35-1.33.32-2.63.15-3.99zM898.37 121.75c-.16-1.67-.39-3.04-1.42-4.43-.6-.8-2.12-.44-2.56.3-.9 1.55-1.11 3.04-1.25 4.77-.15 1.87-.42 3.74.14 5.56.73 2.35 4.58.93 5.05-.82.45-1.72.2-3.63.04-5.38zM881.02 103.85c-.07-.59-.16-1.19-.35-1.76-.2-.57-.63-1.01-.84-1.56-.39-1.04-2.15-.73-2.46.18-.29.83-.79 1.47-.97 2.36-.11.51-.15 1.04-.2 1.56-.11 1.15-.47 2.43.1 3.5.81 1.52 3.75 1.64 4.5-.07.61-1.42.41-2.72.22-4.21zM884.91 61.4c-.08-.79-.14-1.57-.28-2.35-.2-1.14-.65-1.75-1.04-2.8-.51-1.39-2.7-.6-3.05.43-.21.62-.59 1.15-.75 1.8-.25 1.02-.32 2.08-.42 3.12-.2 2.04-.84 3.95 1.07 5.4.99.75 2.95.3 3.65-.59 1.32-1.66 1.01-3.08.82-5.01zM786.81 107.43c-.51-.32-1.31-.16-1.72.22-.18.17-.33.37-.36.61-.02.17.28.78.29.76-.35-.01-.5.13-.45.4-.03.22-.03.44.01.67.01.59.01 1.16-.02 1.75-.05.85-.18 1.7-.17 2.55.04 2.53 4.21 2.22 4.37-.07.17-2.35.41-5.43-1.95-6.89zM806.42 108.5c-.4-1.1-2.43-1.15-2.8.02-.61 1.91-.86 4.19-.72 6.18.15 2.12 4.05 1.45 4.19-.41.13-1.83-.05-4.06-.67-5.79zM814.57 131.98c0-.62 0-1.24-.05-1.86-.09-1.18-.58-2.13-1.23-3.13-.4-.62-1.54-.63-2.17-.41-.53.19-.9.55-1.1.99.04-.19 0-.12-.15.27l-.03.35c0 .02-.01.04-.01.06 0-.01.01-.02.01-.04-.01.14-.03.28-.03.42.02.4.15.78.23 1.17.2 1-.02 2-.08 3.01-.18 2.69 4.55 2.16 4.6-.24-.01.03-.02.05-.03.08.04-.22.04-.44.04-.67zM796.33 133.49c-1.04-.76-2.86-.02-2.9 1.22-.04 1.09.14 2.18.09 3.28-.04.93-.13 1.85-.18 2.78-.16 2.74 4.69 2.14 4.68-.3-.01-2.23.45-5.42-1.69-6.98zM950.41 88.83c-.01.03-.01.06-.02.09.01-.22.03-.44.02-.66 0-.64-.03-1.28-.07-1.91-.08-1.44-.16-2.82-.67-4.19-.61-1.62-3.63-.81-4.06.54-.16.43-.28.87-.36 1.31-.11.59-.14 1.19-.18 1.79-.09 1.4-.16 2.8-.16 4.2-.01 1.39 1.69 2.09 2.97 1.83 1.07-.22 1.89-.92 2.28-1.81-.03.21.04.03.22-.55.01-.11 0-.21.01-.32 0-.11.02-.21.02-.32zM950.77 49.9c.03-1.53-.11-2.7-1.11-3.97-1.11-1.41-4.01-.97-4.17.98-.06.73.16 1.27.27 1.96.1.71-.07 1.44-.12 2.15-.12 1.59-.5 3.5.84 4.7 1 .89 2.84.48 3.55-.54 1.16-1.66.71-3.4.74-5.28zM959.66 104.85c-.48-1.73-3.45-.73-3.75.59-.52 2.22-.41 4.63-.5 6.9-.07 1.24.87 1.8 1.95 1.82 1.38.04 2.97-.82 2.88-2.24-.11-2.33.04-4.81-.58-7.07zM943.95 149.56c-.27-1.2-.16-2.45-.43-3.66-.38-1.71-2.25-1.6-3.49-.75.18-.28.17-.35-.34.1-.28.25-.51.58-.66.92-.35.82-.3 1.89-.36 2.74-.12 1.66.43 3.23.36 4.88-.14 2.99 5.1 1.98 5.45-.5.18-1.35-.24-2.42-.53-3.73zM955.62 163.24c0-1.7-.35-2.97-1.91-3.69-1.27-.59-3.83.27-3.04 1.94.33.7-.24 2.45-.29 3.22-.09 1.33-.25 2.75-.08 4.07.37 2.86 5.03 2.14 5.35-.41.22-1.71-.03-3.42-.03-5.13zM940.51 116.07h.06c-.03-.3-.06-.6-.1-.9-.25-2.13-.43-4.42-1.1-6.47-.11-.35-.66-.76-1.04-.82-.64-.1-1.11-.16-1.68.17-1.54.89-1.33 2.6-1.31 4.09.02 1.77.13 3.54.09 5.31-.05 1.96 2.57 2.26 3.94 1.36.85-.57 1.4-1.79 1.14-2.74zM950.41 199.58c-.01.03-.01.06-.02.09.01-.22.03-.44.02-.66 0-.64-.03-1.28-.07-1.91-.08-1.44-.16-2.82-.67-4.19-.61-1.62-3.63-.81-4.06.54-.16.43-.28.87-.36 1.31-.11.59-.14 1.19-.18 1.79-.09 1.4-.16 2.8-.16 4.2-.01 1.39 1.69 2.09 2.97 1.83 1.07-.22 1.89-.92 2.28-1.81-.03.21.04.03.22-.55.01-.11 0-.21.01-.32 0-.11.02-.22.02-.32zM959.66 215.6c-.48-1.73-3.45-.73-3.75.59-.52 2.22-.41 4.63-.5 6.9-.07 1.24.87 1.8 1.95 1.82 1.38.04 2.97-.82 2.88-2.24-.11-2.33.04-4.81-.58-7.07zM943.95 260.31c-.27-1.2-.16-2.45-.43-3.66-.38-1.71-2.25-1.6-3.49-.75.18-.28.17-.35-.34.1-.28.25-.51.58-.66.92-.35.82-.3 1.89-.36 2.74-.12 1.66.43 3.23.36 4.88-.14 2.99 5.1 1.98 5.45-.5.18-1.36-.24-2.43-.53-3.73zM955.62 273.99c0-1.7-.35-2.97-1.91-3.69-1.27-.59-3.83.27-3.04 1.94.33.7-.24 2.45-.29 3.22-.09 1.33-.25 2.75-.08 4.07.37 2.86 5.03 2.14 5.35-.41.22-1.71-.03-3.42-.03-5.13zM940.51 226.82h.06c-.03-.3-.06-.6-.1-.9-.25-2.13-.43-4.42-1.1-6.47-.11-.35-.66-.76-1.04-.82-.64-.1-1.11-.16-1.68.17-1.54.89-1.33 2.6-1.31 4.09.02 1.77.13 3.54.09 5.31-.05 1.96 2.57 2.26 3.94 1.36.85-.57 1.4-1.79 1.14-2.74zM892.55 189.06c-.16-1.67-.39-3.04-1.42-4.43-.6-.8-2.12-.44-2.56.3-.9 1.55-1.11 3.04-1.25 4.77-.15 1.87-.42 3.74.14 5.56.73 2.35 4.58.93 5.05-.82.45-1.72.2-3.63.04-5.38zM866.93 138.74c-.09-.61-.17-1.23-.36-1.82-.08-.26-.17-.51-.32-.75a.788.788 0 0 0-.31-.39c-.24-.22-.25-.23-.02-.03-.49-1.69-3.16-1.25-3.54.27-.15.62-.64 1.2-.78 1.88-.14.71-.21 1.45-.31 2.16-.18 1.27-.28 2.43.25 3.64.89 2.04 4.54 1.2 5.23-.56.59-1.49.4-2.89.16-4.4zM885.98 149.31c-.09-.55-.19-1.13-.35-1.67-.18-.61-.52-1.1-.77-1.68-.43-1-2.44-.91-2.84.07-.89 2.16-1.56 4.55-1.32 6.91.28 2.75 5.21 1.98 5.46-.45.1-1.06-.01-2.14-.18-3.18zM869.45 173.39c-.65-2.45-4.63-2.18-5.16.25-.28 1.25-.15 2.44-.04 3.71.05.61.1 1.21.26 1.81.16.62.5 1.16.67 1.77.43 1.58 3.01 1.29 3.37-.19.18-.74.57-1.39.7-2.14.09-.5.14-1 .18-1.51.09-1.22.33-2.51.02-3.7zM878.78 203.57c-.16-1.67-.39-3.04-1.42-4.43-.6-.8-2.12-.44-2.56.3-.9 1.55-1.11 3.04-1.25 4.77-.15 1.87-.42 3.74.14 5.56.73 2.35 4.58.93 5.05-.82.46-1.72.21-3.63.04-5.38zM892.55 278.57c-.16-1.67-.39-3.04-1.42-4.43-.6-.8-2.12-.44-2.56.3-.9 1.55-1.11 3.04-1.25 4.77-.15 1.87-.42 3.74.14 5.56.73 2.35 4.58.93 5.05-.82.45-1.72.2-3.63.04-5.38zM866.93 228.24c-.09-.61-.17-1.23-.36-1.82-.08-.26-.17-.51-.32-.75a.788.788 0 0 0-.31-.39c-.24-.22-.25-.23-.02-.03-.49-1.69-3.16-1.25-3.54.27-.15.62-.64 1.2-.78 1.88-.14.71-.21 1.45-.31 2.16-.18 1.27-.28 2.43.25 3.64.89 2.04 4.54 1.2 5.23-.56.59-1.48.4-2.88.16-4.4zM885.98 238.81c-.09-.55-.19-1.13-.35-1.67-.18-.61-.52-1.1-.77-1.68-.43-1-2.44-.91-2.84.07-.89 2.16-1.56 4.55-1.32 6.91.28 2.75 5.21 1.98 5.46-.45.1-1.05-.01-2.13-.18-3.18zM869.45 262.89c-.65-2.45-4.63-2.18-5.16.25-.28 1.25-.15 2.44-.04 3.71.05.61.1 1.21.26 1.81.16.62.5 1.16.67 1.77.43 1.58 3.01 1.29 3.37-.19.18-.74.57-1.39.7-2.14.09-.5.14-1 .18-1.51.09-1.21.33-2.5.02-3.7zM806.96 150.66c-.2-1.51-.81-2.46-2.57-2.49-.91-.02-1.26 1.17-.36 1.48-.64-.22-.49.79-.54 1.11-.07.45-.16.9-.25 1.35-.15.72-.31 1.39-.23 2.12.22 1.98 3.69 1.52 3.95-.24a12.8 12.8 0 0 0 0-3.33zM821.5 195.09c-.2-1.51-.81-2.46-2.57-2.49-.91-.02-1.26 1.17-.36 1.48-.64-.22-.49.79-.54 1.11-.07.45-.16.9-.25 1.35-.15.72-.31 1.39-.23 2.12.22 1.98 3.69 1.52 3.95-.24a12.8 12.8 0 0 0 0-3.33zM797.29 167.03c-.06-.74-.11-1.7-.55-2.36-1.05-1.57-3.42-.41-3.64 1.09-.24 1.63.03 3.3-.31 4.93-.18.88-.3 1.79.52 2.33-.02.06.17.12.58.28.51.2 1.07.08 1.57-.16.07-.03.14-.07.2-.1.01-.01.03-.02.04-.03.13-.07.26-.13.37-.22.6-.47.93-.75.67-.77.89-1.37.67-3.53.55-4.99zM805.18 181.19c-.28-1.03-.02-2.54-.7-3.63-.61-.98-2.37-.91-2.87.18-.48 1.03-.59 2.36-.58 3.47 0 .32.06.63.1.94.02.18.04.36.07.54.03.19-.1.52.05.23-1.11 2.17 2.13 3.27 3.51 1.56.84-1.03.74-2.09.42-3.29zM784.99 151.51c-.06-.89-.1-1.77-.48-2.61-.63-1.43-2.93-.98-3.39.33-.36 1.03-.43 2.09-.49 3.17-.05.92-.13 1.86.59 2.59.99 1 2.73.5 3.39-.57.56-.92.45-1.89.38-2.91zM787.64 215.53c0-.62 0-1.24.05-1.86.09-1.18.58-2.13 1.23-3.13.4-.62 1.54-.63 2.17-.41.53.19.9.55 1.1.99-.04-.19 0-.12.15.27l.03.35c0 .02.01.04.01.06 0-.01-.01-.02-.01-.04.01.14.03.28.03.42-.02.4-.15.78-.23 1.17-.2 1 .02 2 .08 3.01.18 2.69-4.55 2.16-4.6-.24.01.03.02.05.03.08-.04-.22-.04-.44-.04-.67zM805.88 217.05c1.04-.76 2.86-.02 2.9 1.22.04 1.09-.14 2.18-.09 3.28.04.93.13 1.85.18 2.78.16 2.74-4.69 2.14-4.68-.3.01-2.24-.45-5.42 1.69-6.98zM795.25 234.21c.2-1.51.81-2.46 2.57-2.49.91-.02 1.26 1.17.36 1.48.64-.22.49.79.54 1.11.07.45.16.9.25 1.35.15.72.31 1.39.23 2.12-.22 1.98-3.69 1.52-3.95-.24a12.8 12.8 0 0 1 0-3.33zM780.71 278.64c.2-1.51.81-2.46 2.57-2.49.91-.02 1.26 1.17.36 1.48.64-.22.49.79.54 1.11.07.45.16.9.25 1.35.15.72.31 1.39.23 2.12-.22 1.98-3.69 1.52-3.95-.24a12.8 12.8 0 0 1 0-3.33zM804.92 250.58c.06-.74.11-1.7.55-2.36 1.05-1.57 3.42-.41 3.64 1.09.24 1.63-.03 3.3.31 4.93.18.88.3 1.79-.52 2.33.02.06-.17.12-.58.28-.51.2-1.07.08-1.57-.16-.07-.03-.14-.07-.2-.1-.01-.01-.03-.02-.04-.03-.13-.07-.26-.13-.37-.22-.6-.47-.93-.75-.67-.77-.89-1.37-.67-3.53-.55-4.99zM797.03 264.75c.28-1.03.02-2.54.7-3.63.61-.98 2.37-.91 2.87.18.48 1.03.59 2.36.58 3.47 0 .32-.06.63-.1.94-.02.18-.04.36-.07.54-.03.19.1.52-.05.23 1.11 2.17-2.13 3.27-3.51 1.56-.84-1.04-.74-2.1-.42-3.29zM817.22 235.06c.06-.89.1-1.77.48-2.61.63-1.43 2.93-.98 3.39.33.36 1.03.43 2.09.49 3.17.05.92.13 1.86-.59 2.59-.99 1-2.73.5-3.39-.57-.56-.92-.45-1.89-.38-2.91z"/></g></g><g clip-path="url(#b)"><path fill="#DDD" d="M578.63 350.74c-1.41.63-3.3.34-3.33-1.37-.08-5.95-.43-11.79-.92-17.68-.3-3.57-.08-8.46.86-12.27-1.86-22.06-.78-44.53-.8-66.63-.01-5.95-.07-11.89-.14-17.84-.02-1.44-.03-2.87-.05-4.31-6.66-.05-13.32-.11-19.96-.2-6.98-.1-34.42.39-35.98.35-3.16-.09-2.37 4.44-2.46 7.01-.12 3.59-.18 7.19-.2 10.78-.03 7.2.1 14.4.2 21.6.06 4.17.11 8.34.11 12.51.02 15.49-.86 31.25.65 46.72-.76 2.67-.94 6.1-.7 8.6.41 4.13.69 8.22.75 12.39.02 1.19 1.56 1.4 2.71.96 4.81 1.5 11.49.61 16.53.68 11.7.15 23.39.5 35.12.59 4.82.04 9.06.28 13.83.03 2.71-.14 5.84.62 8.48-.13a5.17 5.17 0 0 0 1.58-.77c-5.42.22-11.58.68-16.28-1.02z"/><path fill="#CCC" d="M596.93 343.24c.04-.09.1-.16.14-.26.81-2.01.24-5.01.08-7.11-.96-12.98-.87-25.96-.88-38.99 0-11 .63-21.81.7-32.83.04-5.65.89-11.18.8-16.81-.05-2.71.05-6.04-.24-8.74-.27-2.6.18-4.54-.4-7.07-.14-.61-1.21-.58-2.6-.61-.24 0-1.17-.03-1.89-.03l-18.41-.15c.02 1.44.03 2.87.05 4.31.07 5.94.14 11.89.14 17.84.02 22.09-1.06 44.56.8 66.63-.93 3.81-1.16 8.69-.86 12.27.5 5.89.85 11.73.92 17.68.02 1.7 1.92 2 3.33 1.37 4.7 1.71 10.85 1.25 16.3 1.04 2.48-1.82 2.52-5.68 2.02-8.54z"/><path fill="#DDD" d="M670.32 345.08c-5.34-.12-12.4 1.54-17.48-1.27-1.21.83-2.85.44-2.87-1.8-.21-24.97-.85-49.94-.98-74.91-.07-17.4.24-34.84.23-52.1 0-7.82-.06-15.64-.12-23.46-.03-4.31-.07-8.62-.1-12.93-9.19-.08-18.38-.17-27.54-.32-8.56-.14-42.24.56-44.15.5-3.88-.12-2.91 6.33-3.02 9.99-.15 5.12-.22 10.25-.24 15.38-.04 8.83.08 17.66.19 26.49 6.13.05 12.27.09 18.41.15.71 0 1.64.02 1.89.03 1.39.03 2.46 0 2.6.61.58 2.53.12 4.47.4 7.07.28 2.69.19 6.03.24 8.74.1 5.64-.76 11.16-.8 16.81-.07 11.02-.7 21.83-.7 32.83.01 13.03-.08 26 .88 38.99.16 2.1.72 5.09-.08 7.11-.04.09-.1.17-.14.26.5 2.86.46 6.72-2.01 8.53 1.39-.05 2.73-.09 3.99-.07 14.36.22 28.71.71 43.09.84 5.92.05 11.12.4 16.98.04 3.33-.2 7.17.89 10.41-.18.08-.03.15-.07.23-.1 2.86-1.08 4.05-3.96 4.38-7.12-1.23-.04-2.46-.08-3.69-.11z"/><path fill="#CCC" d="M674.1 324.64c-.16-4.54-.21-9.09-.34-13.64-.34-12.55-.76-25.41-.76-37.96 0-2.03.04-4.05.06-6.08.15-13.6.72-27.06.79-40.74.04-8.06 1.1-15.94.98-23.98-.06-3.86.06-8.62-.29-12.46-.33-3.7.23-6.47-.49-10.08-.17-.87-1.48-.83-3.19-.87a86.6 86.6 0 0 0-2.32-.04c-6.52-.07-13.04-.12-19.55-.18.03 4.31.07 8.62.1 12.93.06 7.82.12 15.64.12 23.46.01 17.26-.3 34.7-.23 52.1.05 11.88-.79 24.32-.14 36.1.84 15.16.93 33.52 1.05 48.73 3.86.97 10.29.76 13.33.65 4.13-.15 5.96 0 10.17-.65 2.17-4.24 1.64-12.89 1.25-17.41-.26-3.3-.43-6.59-.54-9.88z"/><path fill="#DDD" d="M778.32 336.23c-.04-7.79-.6-15.68-.94-21.66-1.85-32.77-.04-62.24-.7-95.02v-.08c-.09-4.4-3.93-7.94-8.69-7.98-5.17-.05-18.77-.09-23.94-.12-2.06-.01-4.29.02-6.6.06-6.35.11-13.26 84.69-18.64 83.92-1.75.31-4.11.17-4.14-.67-.09-2.93.93-5.79.31-8.69-.38-1.76 0-3.25-.4-6.07-.92-4.3-.12-8.57-.2-12.91-.13-6.63-.78-13.34-.8-19.91-.01-2.93-.08-5.86-.18-8.79-.16-5.06 3.33-9.6 3.38-14.66.2-19.73-3.99.09-3.38-8.09.13-1.81.78-4.39 5.61-4.32 1.04.01 8.09.06 18.35 0-.15-30.03 2.67-62.55-1.2-92.37-.15-1.15-1.28-1.09-2.75-1.15-.26-.01-1.24-.05-2-.05-13.55-.21-28.2-.33-41.68-.65-7.38-.18-36.39.73-38.04.65-3.34-.16-2.51 8.32-2.6 13.15-.13 6.74-.19 13.48-.21 20.23-.02 9.2.04 18.39.11 27.59 6.51.06 13.03.11 19.55.18.87 0 2.02.03 2.32.04 1.7.04 3.01 0 3.19.87.71 3.61.15 6.38.49 10.08.35 3.84.23 8.6.29 12.46.12 8.04-.94 15.91-.98 23.98-.07 13.68-.64 27.14-.79 40.74-.02 2.03-.06 4.05-.06 6.08 0 10.3-.02 20.57.15 30.84.14 8.26.4 16.51.93 24.76.19 3 .89 7.26-.1 10.14-.05.13-.12.24-.17.37.28 1.86.42 4.01.21 6.05-.33 3.17-1.52 6.05-4.38 7.12.74-.01 1.48-.01 2.18-.01 17.87.11 35.72.35 53.62.41 7.36.03 13.83.2 21.13.02 7.41-.18 21.13 1.05 29.42-.49 4.67-.89 2.36-10.57 2.33-16.05z"/><g fill="#B4B4B4"><path d="M596.35 196.93c-.07-.75-.12-1.4-.38-2.14-.22-.65-.61-.94-.93-1.52-.53-.95-2.33-.94-2.81.06-.38.77-.79 1.22-1 2.04-.2.76-.26 1.52-.33 2.3-.12 1.36-.21 2.71-.15 4.07.03.58.63 1.24 1.16 1.49.2.09.39.19.59.28 1.35.64 2.35-.39 3.24-1.07 1.36-1.03.75-4.04.61-5.51zM668.6 135.99c-.07-.75-.12-1.4-.38-2.14-.22-.65-.61-.94-.93-1.52-.53-.95-2.33-.94-2.81.06-.38.77-.79 1.22-1 2.04-.2.76-.26 1.52-.33 2.3-.12 1.36-.21 2.71-.15 4.07.03.58.63 1.24 1.16 1.49.2.09.39.19.59.28 1.35.64 2.35-.39 3.24-1.07 1.36-1.03.74-4.04.61-5.51zM709.3 135.99c-.07-.75-.12-1.4-.38-2.14-.22-.65-.61-.94-.93-1.52-.53-.95-2.33-.94-2.81.06-.38.77-.79 1.22-1 2.04-.2.76-.26 1.52-.33 2.3-.12 1.36-.21 2.71-.15 4.07.03.58.63 1.24 1.16 1.49.2.09.39.19.59.28 1.35.64 2.35-.39 3.24-1.07 1.36-1.03.74-4.04.61-5.51zM613.46 213.06c-.21-1.67-.53-2.94-1.91-4.11-.4-.33-1.28-.31-1.63.07-2.08 2.3-2.44 5.95-1.59 8.8.69 2.31 4.51.97 4.98-.77.35-1.33.31-2.63.15-3.99zM642.28 259.73c-.16-1.67-.39-3.04-1.42-4.43-.6-.8-2.12-.44-2.56.3-.9 1.55-1.11 3.04-1.25 4.77-.15 1.87-.42 3.74.14 5.56.73 2.35 4.58.93 5.05-.82.45-1.72.21-3.63.04-5.38zM624.94 241.83c-.07-.59-.16-1.19-.35-1.76-.2-.57-.63-1.01-.84-1.56-.39-1.04-2.15-.73-2.46.18-.29.83-.79 1.47-.97 2.36-.11.51-.15 1.04-.2 1.56-.11 1.15-.47 2.43.1 3.5.81 1.52 3.75 1.64 4.5-.07.6-1.42.4-2.72.22-4.21zM628.83 199.38c-.08-.79-.14-1.57-.28-2.35-.2-1.14-.65-1.75-1.04-2.8-.51-1.39-2.7-.6-3.05.43-.21.62-.59 1.15-.75 1.8-.25 1.02-.32 2.08-.42 3.12-.2 2.04-.84 3.95 1.07 5.4.99.75 2.95.3 3.65-.59 1.31-1.66 1-3.07.82-5.01zM768.79 251.65c-.16-1.67-.39-3.04-1.42-4.43-.6-.8-2.12-.44-2.56.3-.9 1.55-1.11 3.04-1.25 4.77-.15 1.87-.42 3.74.14 5.56.73 2.35 4.58.93 5.05-.82.45-1.72.2-3.63.04-5.38zM751.44 233.75c-.07-.59-.16-1.19-.35-1.76-.2-.57-.63-1.01-.84-1.56-.39-1.04-2.15-.73-2.46.18-.29.83-.79 1.47-.97 2.36-.11.51-.15 1.04-.2 1.56-.11 1.15-.47 2.43.1 3.5.81 1.52 3.75 1.64 4.5-.07.61-1.42.41-2.72.22-4.21zM767.89 295.57c-.09-.61-.17-1.23-.36-1.82-.08-.26-.17-.51-.32-.75a.788.788 0 0 0-.31-.39c-.24-.22-.25-.23-.02-.03-.49-1.69-3.16-1.25-3.54.27-.15.62-.64 1.2-.78 1.88-.14.71-.21 1.45-.31 2.16-.18 1.27-.28 2.43.25 3.64.89 2.04 4.54 1.2 5.23-.56.59-1.49.39-2.89.16-4.4zM756.41 279.21c-.09-.55-.19-1.13-.35-1.67-.18-.61-.52-1.1-.77-1.68-.43-1-2.44-.91-2.84.07-.89 2.16-1.56 4.55-1.32 6.91.28 2.75 5.21 1.98 5.46-.45.1-1.06-.02-2.13-.18-3.18zM530.72 245.42c-.51-.32-1.31-.16-1.72.22-.18.17-.33.37-.36.61-.02.17.28.78.29.76-.35-.01-.5.13-.45.4-.03.22-.03.44.01.67.01.59.01 1.16-.02 1.75-.05.85-.18 1.7-.17 2.55.04 2.53 4.21 2.22 4.37-.07.17-2.36.42-5.44-1.95-6.89zM550.33 246.48c-.4-1.1-2.43-1.15-2.8.02-.61 1.91-.86 4.19-.72 6.18.15 2.12 4.05 1.45 4.19-.41.13-1.83-.04-4.05-.67-5.79zM558.49 269.96c0-.62 0-1.24-.05-1.86-.09-1.18-.58-2.13-1.23-3.13-.4-.62-1.54-.63-2.17-.41-.53.19-.9.55-1.1.99.04-.19 0-.12-.15.27l-.03.35c0 .02-.01.04-.01.06 0-.01.01-.02.01-.04-.01.14-.03.28-.03.42.02.4.15.78.23 1.17.2 1-.02 2-.08 3.01-.18 2.69 4.55 2.16 4.6-.24-.01.03-.02.05-.03.08.03-.22.04-.44.04-.67zM540.24 271.48c-1.04-.76-2.86-.02-2.9 1.22-.04 1.09.14 2.18.09 3.28-.04.93-.13 1.85-.18 2.78-.16 2.74 4.69 2.14 4.68-.3 0-2.24.46-5.42-1.69-6.98zM694.32 226.81c-.01.03-.01.06-.02.09.01-.22.03-.44.02-.66 0-.64-.04-1.28-.07-1.91-.08-1.44-.16-2.82-.67-4.19-.61-1.62-3.63-.81-4.06.54-.16.43-.28.87-.36 1.31-.11.59-.14 1.19-.18 1.79-.09 1.4-.16 2.8-.16 4.2-.01 1.39 1.69 2.09 2.97 1.83 1.07-.22 1.89-.92 2.28-1.81-.03.21.04.03.22-.55.01-.11 0-.21.01-.32.01-.11.02-.21.02-.32zM694.68 187.88c.03-1.53-.11-2.7-1.11-3.97-1.11-1.41-4.01-.97-4.17.98-.06.73.16 1.27.27 1.96.1.71-.07 1.44-.12 2.15-.12 1.59-.5 3.5.84 4.7 1 .89 2.84.48 3.55-.54 1.17-1.65.71-3.4.74-5.28zM703.57 242.84c-.48-1.73-3.45-.73-3.75.59-.52 2.22-.41 4.63-.5 6.9-.07 1.24.87 1.8 1.95 1.82 1.38.04 2.97-.82 2.88-2.24-.1-2.33.04-4.82-.58-7.07zM687.86 287.54c-.27-1.2-.16-2.45-.43-3.66-.38-1.71-2.25-1.6-3.49-.75.18-.28.17-.35-.34.1-.28.25-.51.58-.66.92-.35.82-.3 1.89-.36 2.74-.12 1.66.43 3.23.36 4.88-.14 2.99 5.1 1.98 5.45-.5.18-1.35-.23-2.42-.53-3.73zM728 269.18c-.2-1.14-.28-2.31-.78-3.38-.63-1.34-3.21-1.08-3.7.26-.97 2.64-.29 5.76-.39 8.51-.12 3.15 5.75 1.9 5.5-1.15-.12-1.42-.39-2.83-.63-4.24zM684.42 254.06h.06c-.03-.3-.06-.6-.1-.9-.25-2.13-.43-4.42-1.1-6.47-.11-.35-.66-.76-1.04-.82-.64-.1-1.11-.16-1.68.17-1.54.89-1.33 2.6-1.31 4.09.02 1.77.13 3.54.09 5.31-.05 1.96 2.57 2.26 3.94 1.36.86-.58 1.4-1.8 1.14-2.74zM722.07 158.17c-.23-1.78-.03-3.76-1.13-5.3-.67-.93-2.77-.64-3.17.4-.67 1.75-.94 3.37-.88 5.21.02.64.17 1.44.1 2.15-1.07 1.47-1.03 3.69 1.78 3.86 1.12.07 2.6-.74 2.99-1.76.57-1.54.52-2.96.31-4.56zM610.85 276.72c-.09-.61-.17-1.23-.36-1.82-.08-.26-.17-.51-.32-.75a.788.788 0 0 0-.31-.39c-.24-.22-.25-.23-.02-.03-.49-1.69-3.16-1.25-3.54.27-.15.62-.64 1.2-.78 1.88-.14.71-.21 1.45-.31 2.16-.18 1.27-.28 2.43.25 3.64.89 2.04 4.54 1.2 5.23-.56.59-1.48.39-2.88.16-4.4zM629.9 287.29c-.09-.55-.19-1.13-.35-1.67-.18-.61-.52-1.1-.77-1.68-.43-1-2.44-.91-2.84.07-.89 2.16-1.56 4.55-1.32 6.91.28 2.75 5.21 1.98 5.46-.45.1-1.06-.02-2.14-.18-3.18zM550.87 288.64c-.2-1.51-.81-2.46-2.57-2.49-.91-.02-1.26 1.17-.36 1.48-.64-.22-.49.79-.54 1.11-.07.45-.16.9-.25 1.35-.15.72-.31 1.39-.23 2.12.22 1.98 3.69 1.52 3.95-.24a12.8 12.8 0 0 0 0-3.33zM528.91 289.49c-.06-.89-.1-1.77-.48-2.61-.63-1.43-2.93-.98-3.39.33-.36 1.03-.43 2.09-.49 3.17-.05.92-.13 1.86.59 2.59.99 1 2.73.5 3.39-.57.55-.92.45-1.89.38-2.91z"/></g></g><path clip-path="url(#b)" fill="#CCC" d="M737.29 300.58c-.04-9.93-.07-20.26-.08-32.32 0-19.41-.08-38.56-.14-57.74-10.25.11-18.87.2-19.91.18-4.83-.1-3.62 5.19-3.76 8.19-.19 4.2-.28 8.4-.3 12.61-.05 8.42.15 16.83.3 25.25.09 4.87.17 9.75.18 14.62.01 9.18-.28 18.35-.25 27.53.05 17.16 1.03 34.31 1.34 51.46.03 1.51 2.39 1.77 4.14 1.21 5.38 1.39 12.29 1.16 18.64.97 0-20.06-.07-35.72-.16-51.96z"/><path clip-path="url(#b)" fill="#EEE" d="M282.93 227.22c-4.37-13.31-16.9-16.83-28.81-19.65-6.48-1.54-13.66-.73-20.26-.76-4.85-.02-14.64 2.34-19 .04-1.46-.76-2.78-4.28-3.93-5.58-1.02-1.14-2.18-2.2-3.44-3.16a27.763 27.763 0 0 0-5.09-3.07c-5.06-2.37-10.86-3.29-16-1.95-15.11 3.92-18.38 18.39-30.92 24.5-14.91 7.26-33.31-1.67-46.91 12.38-17.37 17.96 34.05 15.2 41.25 14.76 23.5-1.43 47.07.32 70.62 1.01 3.11.09 6.22.16 9.33.21 13.3.19 26.59-.13 39.85-1.74 8.36-1.02 16.38-7.62 13.31-16.99zM653 12.33c5.43 16.54 21 20.91 35.78 24.41 8.04 1.91 16.97.9 25.17.94 6.03.03 18.18-2.9 23.6-.06 1.81.95 3.45 5.32 4.88 6.93 1.26 1.42 2.71 2.73 4.27 3.92 1.94 1.48 4.07 2.76 6.32 3.81 6.29 2.94 13.49 4.08 19.88 2.43 18.77-4.87 22.83-22.84 38.4-30.43 18.52-9.02 41.38 2.08 58.26-15.38 21.58-22.31-42.29-18.88-51.24-18.34-29.19 1.78-58.47-.39-87.71-1.25-3.86-.11-7.73-.2-11.59-.26-16.52-.24-33.03.16-49.5 2.17C659.15-7.51 649.18.69 653 12.33z"/><path clip-path="url(#b)" fill="#CCC" d="M26.22 146.63c-1.28.07-3.13.31-4.32 1.15-1.03.53-1.98 2.26-2.11 3.19-.24 1.81-1.02 3.42-3.03 2.55-1.52-.66-2.81-1.89-4.48-2.2-2.27-.42-3.82.71-5.35 2.17-.72.69.25.78.72.79 1.3.02 1.84-1.1 3.15-1.21 3.35-.29 5.01 4.5 8.49 3.26 1.79-.64 1.92-1.6 2.4-4.6.17-1.05.81-2.3 1.71-2.89.84-.55 2.2-.7 2.92-1.27.39-.3.77-.99-.1-.94zM69.47 160.09c-1.28.07-3.13.31-4.32 1.15-1.03.53-1.98 2.26-2.11 3.19-.24 1.81-1.02 3.42-3.03 2.55-1.52-.66-2.81-1.89-4.48-2.2-2.27-.42-3.82.71-5.35 2.17-.72.69.25.78.72.79 1.3.02 1.84-1.1 3.15-1.21 3.35-.29 5.01 4.5 8.49 3.26 1.79-.64 1.92-1.6 2.4-4.6.17-1.05.81-2.3 1.71-2.89.84-.55 2.2-.7 2.92-1.27.39-.31.77-.99-.1-.94z"/><path clip-path="url(#b)" fill="#EEE" d="M137 94.11c-14.36 0-26 11.64-26 26 0 2.74.43 5.38 1.21 7.87 2.57.86 3.58-1.33 3.91-3.77.18-1.33 1.54-3.78 2.99-4.53 1.69-1.19 4.32-1.53 6.13-1.63 1.24-.07.69.9.14 1.34-1.02.81-2.95 1.03-4.14 1.81-1.27.83-2.18 2.61-2.42 4.1-.69 4.27-.88 5.63-3.41 6.53-.52.19-1.01.26-1.48.28 4.33 8.33 13.04 14.02 23.07 14.02 14.36 0 26-11.64 26-26s-11.64-26.02-26-26.02zM111.82 127.83c-2.16-.93-3.99-2.68-6.36-3.12-3.22-.59-5.42 1.01-7.6 3.08-1.03.98.35 1.11 1.02 1.12 1.85.03 2.61-1.56 4.47-1.72 4.25-.37 6.59 5.01 10.57 4.9-.68-1.31-1.26-2.68-1.71-4.11-.12-.05-.25-.09-.39-.15z"/><path clip-path="url(#b)" fill="#CCC" d="M118.82 125.28c.24-1.49 1.15-3.27 2.42-4.1 1.19-.77 3.12-1 4.14-1.81.56-.44 1.1-1.41-.14-1.34-1.81.1-4.44.44-6.13 1.63-1.46.75-2.81 3.21-2.99 4.53-.33 2.44-1.34 4.63-3.91 3.77.45 1.43 1.03 2.8 1.71 4.11.47-.01.96-.09 1.48-.28 2.54-.88 2.74-2.24 3.42-6.51z"/><path clip-path="url(#b)" fill="#BD79FF" d="M534.98 123.49h21.39s2.2-5.86 7.47-11.89c7.38-8.45 42.61-16.87 45.72-49.95 3.34-35.55-22.64-48.37-48.49-48.37-26.66 0-66.59 4.7-76.11 42.43-7.61 30.16 21.28 50.83 26.04 56.09 4.25 4.7 2.59 11.69 2.59 11.69h21.39z"/><path clip-path="url(#b)" fill="#FFC100" d="M512.08 136.6s-1.73 9.97 0 12.21 32.03.76 34.52 0c2.48-.76 6.36-12.21 6.36-12.21h-40.88z"/><path clip-path="url(#b)" fill="#9A4DFF" d="M512.05 68.38c-1.94-17.86 2.98-38.35 34.37-54.54-24.8 2.02-53.57 10.6-61.46 41.87-7.61 30.16 21.28 50.83 26.04 56.09 4.25 4.7 2.59 11.69 2.59 11.69h13.85c6.36-24.4-13.56-38.34-15.39-55.11z"/><path clip-path="url(#b)" fill="#E69F1E" d="M525.13 136.6s-2.07 9.62-1.95 10.74c.13 1.13 0 2.66 2.59 2.66 1.55 0-14.09.72-15.04-1.95-1.06-2.97.57-11.45.57-11.45h13.83z"/><path clip-path="url(#b)" fill="#6F38D4" d="M502.89 74.01c-1.59-13.08-7.26-23.88-14.19-28.64-1.52 3.14-2.78 6.57-3.74 10.34-4.86 19.25 5.15 34.63 14.27 44.6 3.38-6.64 4.89-16.09 3.66-26.3z"/><path clip-path="url(#b)" fill="none" stroke="#DDD" stroke-width="2" stroke-linecap="round" stroke-miterlimit="10" d="M515 134.66s6.41-8.74 8.24-8.74 6.15 9.22 8.84 8.74c2.69-.48 7.68-8.45 9.99-8.74 2.31-.29 5.76 9.32 7.2 9.32"/><g clip-path="url(#b)"><path fill="#CC26A1" d="M424.44 161.7c11.89-5.26 23.59-11.36 35.02-17.55 3.53-1.91 7.08-4.28 11-5.31.36-.1.71-.11 1.04-.03.85.19 1.44.91 1.53 1.89.1 1.07-.39 2.4-1.52 2.9-4.08 1.78-8.11 4.08-12 6.3-3.68 2.1-7.48 4.27-11.39 6.04-7.07 3.2-13.54 7.23-21.2 9.73-7.29 2.37-11.4-.02-2.48-3.97z"/><path fill="#F949B4" d="M477.42 137.82s-.56-.38-.75-1.02c-.22-.74-.02-1.58.53-2.15 1.54-1.61 3.53-2.68 5.44-3.71 1.01-.54.43-.07 1.31-.65.64-.42 1.29-.92 1.96-1.42 1.71-1.29 3.48-2.63 5.46-3.23.41-.12.81-.14 1.19-.06.87.19 1.53.9 1.7 1.82.18.96-.22 1.9-1.04 2.44-1.21.8-2.35 1.68-3.55 2.62-1.34 1.05-1.2 1.14-2.7 2.08l-.7.44c-2.31 1.47-4.93 3.14-7.83 3.11-.14 0-.29-.02-.42-.05l-.6-.22z"/><path fill="#CC26A1" d="M498.48 124.75c-1.4-.1-2.46-.99-1.99-3.11.38-1.68 3.22-3.46 4.92-3.09 2.16.47 2.44 3.32 1.04 4.72-.95.96-2.62 1.58-3.97 1.48zM468.96 117.44c-.8-.18-1.4-.83-1.61-1.76-.21-.93-.02-2.2.91-2.93 3.34-2.64 3.66-2.87 7.33-5 4.3-2.5 4.27-3.26 8.94-5.03.45-.17.93-.21 1.38-.11.74.16 1.37.69 1.7 1.41.34.75.3 1.58-.1 2.29-1.61 2.89-5.15 4.03-7.75 5.61-5.38 3.25-3.58 2.25-9.24 5.27-.67.34-1.22.33-1.56.25z"/><path fill="#F949B4" d="M459.79 123.05a2.25 2.25 0 0 1-1.01-.44c-1.1-.92-.78-2.84.34-3.62 1.56-1.08 5.6-3.93 6.72-.81l.13.37c.86 2.41-2.25 4.04-4.14 4.42-.6.12-1.36.21-2.04.08z"/><path fill="#CC26A1" d="M432.94 134.03c6.02-2.57 11.58-6.03 17.35-9.13 1.06-.57 2.11-1.13 3.17-1.69.59-.31 1.09-.3 1.4-.23.82.17 1.43.86 1.6 1.81.2 1.08-.23 2.16-1.07 2.69-4.41 2.76-14.55 8.12-19 9.38-7.32 2.05-7.09-1.27-3.45-2.83z"/><path fill="#FFC100" d="M491.73 111.08c-7.53 6.15-16.6 10.18-24.61 15.57-10.42 7.02-22.46 12.72-33.83 18.17-53.05 25.43-106.84 9.4-88.8-2.39 2.38-1.56 3.92-5.61-2.37-2.59-4.75 2.28-7.27 4.86-8.12 8.73-1.58 7.18 9.89 14.22 27.07 15.9 13.77 1.35 35.5 3.01 70.56-11.35 15.01-6.15 16.84-9.85 31.11-17.53 11.23-6.04 23.28-12.48 33.16-20.55 3.21-2.63-1.32-6.29-4.17-3.96z"/></g></svg>