<svg xmlns="http://www.w3.org/2000/svg" xmlns:xlink="http://www.w3.org/1999/xlink" viewBox="0 0 155 160.91">
	<defs>
		<style>
			.cls-1,
			.cls-9 {
				fill: none;
			}
			.cls-2 {
				clip-path: url(#clip-path);
			}
			.cls-3 {
				fill: #1f1f1f;
			}
			.cls-11,
			.cls-3,
			.cls-4,
			.cls-5,
			.cls-6,
			.cls-7,
			.cls-9 {
				stroke: #1f1f1f;
			}
			.cls-10,
			.cls-11,
			.cls-3,
			.cls-4,
			.cls-5,
			.cls-6,
			.cls-7,
			.cls-9 {
				stroke-linecap: round;
				stroke-linejoin: round;
			}
			.cls-4 {
				fill: #824f2b;
			}
			.cls-5,
			.cls-8 {
				fill: #fff;
			}
			.cls-6 {
				fill: #c99069;
			}
			.cls-7 {
				fill: #ffdddb;
			}
			.cls-10 {
				fill: #c2e7ff;
				stroke: #c2e7ff;
			}
			.cls-11 {
				fill: #f7b804;
			}
		</style>
		<clipPath id="clip-path" transform="translate(0.08 0.08)">
			<rect class="cls-1" width="154.84" height="160.75" />
		</clipPath>
	</defs>
	<path class="cls-3" d="M126.72,51c-2.42-1.7-6.24-1.22-9.58-.91a22.34,22.34,0,0,0-6.44,1.63l7.51,3c4.29-.59,8.1-1.93,8.53-3.06a.72.72,0,0,0,.07-.33A.9.9,0,0,0,126.72,51Z" transform="translate(0.08 0.08)" />
	<path class="cls-4" d="M106.16,9a10,10,0,0,1,8.15-4.58,7.93,7.93,0,0,1,7.87,5.43,9.82,9.82,0,0,1-2.79,10c-3.89,3.61-9.51,3.36-12.22.85S103.05,14.21,106.16,9Z" transform="translate(0.08 0.08)" />
	<path class="cls-5" d="M124.55,72.14c0-.48-8-21.55-11.11-28.64S100.25,29,79.65,29h-.16c-20.6,0-30.74,7.41-33.8,14.48S34.58,71.65,34.58,72.14L36.67,100h85.79Z" transform="translate(0.08 0.08)" />
	<path class="cls-6" d="M75.3,43.17c-5.31,2.1-30,10.52-36.85,13-6.6,2.41-9.5-.64-9.82-7.41-.36-7.56,1.77-29.93,3.06-33.95s3.22-6,6.6-6.28,7.88.8,12.39,1.29c1.32.14,1,1.61-.32,1.77s-11.59,1.93-11.59,1.93l1,29.78s18.67-12.23,23-13.52S75.3,43.17,75.3,43.17Z" transform="translate(0.08 0.08)" />
	<path class="cls-7" d="M81.9,22.58c5.53-1.18,17.86-1.77,22.85-.65a16.08,16.08,0,0,1,10.94,7.73c2.58,4.18,11.11,21.4,11.11,21.4-2.4-1.77-6.27-1.29-9.65-1a21.35,21.35,0,0,0-7.46,2.11L112,69.9l-28.11-.17s.43-7.51-1-10.3c-1.77-3.54-5.63-7.24-6.6-10a15.57,15.57,0,0,1-.8-4.83l-8.85,2.09L57.28,32.39C64,28.85,72.08,24.67,81.9,22.58Z" transform="translate(0.08 0.08)" />
	<path class="cls-5" d="M131.84,65.49c-3.86-1.3-8.37.64-12.66,6.87-3.45,5-17.81,24.78-17.81,24.78H57.6S43.24,77.36,39.79,72.36c-4.29-6.23-8.8-8.15-12.66-6.87-3.29,1.09-5.79,4.4-5.79,11.37v80.89c0,2.06.78,2.34,2.36,2.36l9.22-26.6h92.16s10.46,26.61,10.62,26.61c1.72,0,1.93-.22,1.93-2.37V76.86C137.63,69.89,135.13,66.58,131.84,65.49Z" transform="translate(0.08 0.08)" />
	<path class="cls-8" d="M21.34,133.43v24.32c0,2.06.78,2.34,2.36,2.36l9.22-26.6" transform="translate(0.08 0.08)" />
	<path class="cls-9" d="M21.34,133.43v24.32c0,2.06.78,2.34,2.36,2.36l9.22-26.6" transform="translate(0.08 0.08)" />
	<path class="cls-5" d="M125.08,133.52s10.46,26.6,10.62,26.6c1.72,0,1.93-.22,1.93-2.37V133.52Z" transform="translate(0.08 0.08)" />
	<path class="cls-3" d="M21.34,133.43v.07l10.11,4.27,1.48-4.26Z" transform="translate(0.08 0.08)" />
	<path class="cls-3" d="M37.75,95c-4.54-2.91-10.06-2.27-11.74-.44l-.22.28c-1.59,2.27-.21,7.44,1.63,10.71A21.16,21.16,0,0,0,34,112.69L44.44,99.35C42.71,98.21,40.3,96.63,37.75,95Z" transform="translate(0.08 0.08)" />
	<path class="cls-6" d="M123,49.83a35.44,35.44,0,0,0-5.89.26,21.35,21.35,0,0,0-7.45,2.11l1,8.35h-15c-4,0-13.84-1.77-17.38-1.93s-7.08,2.09-7.56,2.9,2.58.48,4.67.64,16.58,7.73,21.4,7.73h22.52c6.44,0,7.54-4,6.28-10.46A94.33,94.33,0,0,0,123,49.83Z" transform="translate(0.08 0.08)" />
	<path class="cls-10" d="M25.79,94.83S47.51,62.91,51,59.05s7.36-4.73,13.73-2.57C71.33,58.73,99,69.88,99,69.88h12.87s2.2,9.17-3.43,16.9c-4.28,5.87-14.8,10.3-30.68,10.3H69.34l.49,43H38.4l8.69-39s-4.4-2.95-9.34-6.11C33,91.93,27.13,92.79,25.79,94.83Z" transform="translate(0.08 0.08)" />
	<path class="cls-10" d="M52.88,160.17H36.78s1.51-5.15,5.58-7.08S51,154.8,52.88,160.17Z" transform="translate(0.08 0.08)" />
	<path class="cls-6" d="M104.75,21.93a24.91,24.91,0,0,0-3-.45l-1.36-10.17-4.67,1.3-2.17,8.68a52.75,52.75,0,0,0-6.15.51c.12.81.07,1.93.15,5.22.06,2.92.43,5.72,2.57,7.44,2.45,2,7.53,2.78,11.87-2.22a48.83,48.83,0,0,0,6-9.3A20,20,0,0,0,104.75,21.93Z" transform="translate(0.08 0.08)" />
	<path class="cls-3" d="M101,15.63l-5.8-.81-.74,3A46.57,46.57,0,0,0,101,15.65Z" transform="translate(0.08 0.08)" />
	<path class="cls-6" d="M103.33,1.19a7.63,7.63,0,0,0-7.82.71,7.53,7.53,0,0,0-2.66,6.3c.18,4.28,1.84,8,4.75,8.27,2.75.29,5.88-2.27,7.52-5.47C107.21,6.92,106.11,2.63,103.33,1.19Z" transform="translate(0.08 0.08)" />
	<path class="cls-4" d="M103.33,1.19a7.63,7.63,0,0,0-7.82.71,7.53,7.53,0,0,0-2.66,6.3,1.77,1.77,0,0,0,0,.23,5.73,5.73,0,0,0,3.67-2.07A3.17,3.17,0,0,1,99.6,5c.81.15,1.63.77,2.09,2.3A5.26,5.26,0,0,0,104.51,11a1,1,0,0,0,.59.09l0,0C107.21,6.92,106.11,2.63,103.33,1.19Z" transform="translate(0.08 0.08)" />
	<path class="cls-4" d="M119.39,19.79a12,12,0,0,1,12.38-3c4.75,1.5,7.86,7.37,6.94,12-1.13,5.56-4.94,9.08-9.45,9.65-5.73.73-10.23-1.71-12.09-6.08S115.78,23.48,119.39,19.79Z" transform="translate(0.08 0.08)" />
	<path class="cls-4" d="M132.84,37.17c4.58-2.72,9.51-2.79,13.8,0s5.65,8.44,4.15,13.3c-1.79,5.82-7.44,7.8-11.51,7.94-5.81.2-9.12-2.06-11.23-6.87A11.51,11.51,0,0,1,132.84,37.17Z" transform="translate(0.08 0.08)" />
	<path class="cls-9" d="M110.65,60.18l-3-22.48" transform="translate(0.08 0.08)" />
	<path class="cls-6" d="M40,96.71s-7.51,12.34-11.15,17.7c-2.81,4.13-6.44,7.08-10.73,8.15C12.43,124,5.67,125.13,1.6,125.78c-1.5.23-1.72,2.14.21,2.79s37.12,9.22,37.12,9.22l8.15-36.69Z" transform="translate(0.08 0.08)" />
	<path class="cls-5" d="M43.17,118.1l-13-5.74c-.49.76-.95,1.45-1.36,2.06-2.81,4.12-6.44,7.08-10.73,8.15C12.43,124,5.67,125.14,1.6,125.78c-1.5.24-1.72,2.15.21,2.79s37.12,9.23,37.12,9.23l4.23-19Z" transform="translate(0.08 0.08)" />
	<path class="cls-3" d="M66.29,77.14,83.52,97.08H66.62Z" transform="translate(0.08 0.08)" />
	<path class="cls-10" d="M50.62,85.23c1.5-6.54,6.1-10.51,10.3-10.51,4.5,0,8,4.12,8.26,10.94.32,8,.64,54.44.64,54.44H38.4S49.1,91.88,50.62,85.23Z" transform="translate(0.08 0.08)" />
	<path class="cls-9" d="M110.7,60.55h1.68" transform="translate(0.08 0.08)" />
	<path class="cls-9" d="M47.08,101.11s-4.4-3-9.33-6.11c-4.77-3.06-10.62-2.2-12-.16,0,0,21.72-31.92,25.16-35.78s7.36-4.73,13.73-2.58c0,0,16.15,5.81,34.33,13.41" transform="translate(0.08 0.08)" />
	<path class="cls-9" d="M38.4,140.11S49.1,91.88,50.62,85.23s6.1-10.51,10.3-10.51c4.5,0,8,4.12,8.26,10.94.32,8,.64,24.56.64,24.56" transform="translate(0.08 0.08)" />
	<path class="cls-11" d="M130.12,116.45c.21,3.86,5.52,33.74,5.84,35.67a61.44,61.44,0,0,1,.48,7.08c0,1.07-.48,1.13-1.23,1.13H121.48a3.9,3.9,0,0,1,1.18-2.52c1.18-1.18,6.43-5,6.43-5a36.25,36.25,0,0,0-3.27-9.08c-2.79-5.37-6.22-10.08-7-16.3S130.12,116.45,130.12,116.45Z" transform="translate(0.08 0.08)" />
	<path class="cls-5" d="M80.52,11.47h-42a5.09,5.09,0,0,0-5.08,5.08V42.92A5.09,5.09,0,0,0,38.54,48H65.19l6.33,8.12a1.26,1.26,0,0,0,.65.46,1.4,1.4,0,0,0,.81,0,1.29,1.29,0,0,0,.64-.49,1.23,1.23,0,0,0,.23-.77V48h6.67a5.12,5.12,0,0,0,1.94-.38,5.1,5.1,0,0,0,3.14-4.7V16.55a5.09,5.09,0,0,0-5.08-5.08Z" transform="translate(0.08 0.08)" />
	<path class="cls-11" d="M152.76,77.18c-1.61-4-4.4-5-6.33-3.54s-2.31,4.3-2.25,7a99.32,99.32,0,0,1,0,13.57c-.5,5.37-2.74,10-5.58,12.5a35.49,35.49,0,0,1-6.92,4.4,32.77,32.77,0,0,0-3.49-3.65,34.7,34.7,0,0,0-3.64-2.83c-1.28-.93-2.59-1.8-3.84-2.61-2.28-1.52-4.53-3-6-4.21-3.44-2.74-9.5-9.82-9.5-9.82s.16-4.93.22-6.86a6.75,6.75,0,0,0-.07-1.62,4.92,4.92,0,0,0-1.06-2.73,11.82,11.82,0,0,0-6.17-3.7c-2-.54-5.42-1.24-6.65-1.67s-7.14-4.93-7.62-5.31c-1-.81-1.66-1.07-2.63-.65A3.44,3.44,0,0,0,79.43,68a4,4,0,0,0,0,.6,3.8,3.8,0,0,0,.09,1s0,.1,0,.15a9.6,9.6,0,0,0,1.2,2.86c1.07,1.77,5.15,6,6.33,8.2s1.77,5.21,1.87,9.87v.3c-6.62.39-16.53,1.4-18.12,1.79a3.43,3.43,0,0,0-1.07.43c-.25.16-.17.81-.17.81l.06,3.11H89.55A25.32,25.32,0,0,0,95.48,108a41.63,41.63,0,0,0,17.27,10.89s-2.58,3-2.15,10.73,2,22.42,2,22.42-5.31,1.45-7.67,2.31-4,2.52-5.33,5.95H118s1.58-6.43,2.22-10.94,4.72-11.37,9-17.17a23.13,23.13,0,0,0,3.92-16.86,46.56,46.56,0,0,0,8.79-4.11c6-3.86,10.6-8.41,11.86-16.42C155,87.7,154.39,81.19,152.76,77.18Z" transform="translate(0.08 0.08)" />
	<path class="cls-9" d="M88.85,91l1.94-.11" transform="translate(0.08 0.08)" />
	<path class="cls-9" d="M97.08,77.45s1,7,1.88,10.25c.78,3,2.62,3.43,4,3.27s2.18-1.08,2.34-3.55" transform="translate(0.08 0.08)" />
	<path class="cls-3" d="M92.52,75.3c-.59.06-.8-.59,0-.75S93.59,75.2,92.52,75.3Z" transform="translate(0.08 0.08)" />
	<path class="cls-8" d="M44.37,152.6l3.26-12.49H61l-.27,20.06h-24s1.51-5.15,5.58-7.08c3-1.44,6.3.21,8.58,3.36" transform="translate(0.08 0.08)" />
	<path class="cls-9" d="M44.37,152.6l3.26-12.49H61l-.27,20.06h-24s1.51-5.15,5.58-7.08c3-1.44,6.3.21,8.58,3.36" transform="translate(0.08 0.08)" />
	<path class="cls-9" d="M15.43,160.33H146.75" transform="translate(0.08 0.08)" />
	<path class="cls-3" d="M47.63,140.11,61,143.06v-2.95Z" transform="translate(0.08 0.08)" />
</svg>