<svg xmlns="http://www.w3.org/2000/svg" viewBox="0 0 22 19.3"><defs><style>.cls-1{fill:#262626;}</style></defs><title>Asset 1heart</title><g id="Layer_2" data-name="Layer 2"><g id="Layer_1-2" data-name="Layer 1"><path class="cls-1" d="M21.91.37a.73.73,0,0,0-.6-.37H.69A.85.85,0,0,0,.05.46a.81.81,0,0,0,.13.78l6.05,6A.71.71,0,0,0,7,7.33l7.61-3.66a.76.76,0,0,1,.92.23.66.66,0,0,1-.23.91L8.16,9.35a.74.74,0,0,0-.32.73L10,18.79a.63.63,0,0,0,.55.51h.09a.75.75,0,0,0,.59-.33L21.82,1.1A.56.56,0,0,0,21.91.37Z"/></g></g></svg>