<svg xmlns="http://www.w3.org/2000/svg" viewBox="0 0 200 200" fill="none">
	<g clip-path="url(#clip0_714_1712)">
		<path d="M149.309 70.6336C146.89 68.9317 143.075 69.4058 139.733 69.7243C137.516 69.9406 135.345 70.49 133.292 71.3539L140.803 74.3373C145.094 73.7465 148.903 72.4058 149.331 71.2799C149.381 71.1786 149.404 71.0667 149.401 70.9539C149.397 70.8412 149.365 70.7312 149.309 70.6336Z" fill="#1F1F1F" stroke="#1F1F1F" stroke-linecap="round" stroke-linejoin="round" />
		<path d="M128.755 28.6169C129.726 26.9872 132.474 24.1724 136.904 24.0391C139.918 23.9409 143.624 25.6835 144.77 29.4743C145.279 31.2267 145.287 33.0865 144.794 34.8435C144.302 36.6005 143.327 38.1846 141.981 39.4169C138.092 43.0317 132.468 42.778 129.759 40.2743C127.05 37.7706 125.644 33.8391 128.755 28.6169Z" fill="#824F2B" stroke="#1F1F1F" stroke-linecap="round" stroke-linejoin="round" />
		<path d="M147.139 91.7708C147.139 91.2893 139.092 70.2152 136.028 63.1337C132.963 56.0522 122.84 48.6504 102.241 48.6504H102.079C81.4812 48.6504 71.3386 56.0578 68.2849 63.1337C65.2312 70.2097 57.1738 91.2819 57.1738 91.7708L59.2664 119.612H145.048L147.139 91.7708Z" fill="white" stroke="#1F1F1F" stroke-linecap="round" stroke-linejoin="round" />
		<path d="M97.8925 62.8038C92.5832 64.8964 67.9239 73.3205 61.0406 75.839C54.4425 78.2464 51.5462 75.1964 51.2258 68.4316C50.8665 60.8686 52.9962 38.4983 54.2832 34.476C55.5702 30.4538 57.5017 28.5205 60.8814 28.2001C64.261 27.8797 68.7665 29.0038 73.2721 29.4871C74.5925 29.6279 74.2388 31.0964 72.9517 31.2575C71.6647 31.4186 61.3591 33.1945 61.3591 33.1945L62.3239 62.9649C62.3239 62.9649 80.9925 50.7427 85.3369 49.4464C89.6814 48.1501 97.8925 62.8038 97.8925 62.8038Z" fill="#C99069" stroke="#1F1F1F" stroke-linecap="round" stroke-linejoin="round" />
		<path d="M104.49 42.2054C110.025 41.0257 122.353 40.435 127.342 41.5609C132.331 42.6868 135.71 45.1017 138.284 49.2868C140.858 53.472 149.395 70.6887 149.395 70.6887C146.988 68.9183 143.12 69.4016 139.74 69.7239C137.146 69.9612 134.619 70.675 132.284 71.8294L134.538 89.5313L106.429 89.3572C106.429 89.3572 106.86 81.8517 105.464 79.0572C103.694 75.5165 99.8307 71.8165 98.8658 69.0794C98.3437 67.5229 98.0718 65.8934 98.0603 64.2516L89.2103 66.3442L79.877 52.022C86.627 48.4813 94.6732 44.2979 104.49 42.2054Z" fill="#FFDDDB" stroke="#1F1F1F" stroke-linecap="round" stroke-linejoin="round" />
		<path d="M154.431 85.1186C150.569 83.8223 146.062 85.7631 141.771 91.9853C138.321 96.9853 123.962 116.77 123.962 116.77H80.1898C80.1898 116.77 65.8306 96.9872 62.3806 91.9853C58.0898 85.7631 53.5843 83.8372 49.7213 85.1186C46.4324 86.2149 43.9287 89.5186 43.9287 96.4909V177.383C43.9287 179.441 44.7157 179.722 46.2917 179.743L55.5139 153.137H147.673C147.673 153.137 158.136 179.745 158.295 179.745C160.012 179.745 160.225 179.53 160.225 177.383V96.4909C160.225 89.5186 157.719 86.2149 154.431 85.1186Z" fill="white" stroke="#1F1F1F" stroke-linecap="round" stroke-linejoin="round" />
		<path d="M43.9287 153.062V177.384C43.9287 179.441 44.7157 179.723 46.2917 179.743L55.5139 153.137" fill="white" />
		<path d="M43.9287 153.062V177.384C43.9287 179.441 44.7157 179.723 46.2917 179.743L55.5139 153.137" stroke="#1F1F1F" stroke-linecap="round" stroke-linejoin="round" />
		<path d="M147.672 153.15C147.672 153.15 158.137 179.745 158.296 179.745C160.013 179.745 160.226 179.53 160.226 177.384V153.15H147.672Z" fill="white" stroke="#1F1F1F" stroke-linecap="round" stroke-linejoin="round" />
		<path d="M43.9287 153.062V153.128L54.038 157.4L55.5195 153.141L43.9287 153.062Z" fill="#1F1F1F" stroke="#1F1F1F" stroke-linecap="round" stroke-linejoin="round" />
		<path d="M60.3422 114.623C55.7996 111.71 50.2811 112.35 48.607 114.18C48.5237 114.28 48.4459 114.376 48.3811 114.462C46.7904 116.732 48.1718 121.899 50.0089 125.173C51.624 128.03 53.8753 130.477 56.5885 132.324L67.0348 118.982C65.3033 117.843 62.8959 116.26 60.3422 114.623Z" fill="#1F1F1F" stroke="#1F1F1F" stroke-linecap="round" stroke-linejoin="round" />
		<path d="M145.618 69.4628C143.739 69.3054 141.661 69.5406 139.737 69.724C137.144 69.9618 134.618 70.6756 132.285 71.8295L133.303 80.1832H118.331C114.307 80.1832 104.49 78.4147 100.95 78.2536C97.409 78.0925 93.8701 80.3443 93.396 81.1499C92.9219 81.9554 95.9701 81.6332 98.0627 81.7925C100.155 81.9517 114.639 89.5184 119.466 89.5184H141.987C148.424 89.5184 149.522 85.5721 148.263 79.0573C147.761 76.461 146.5 72.1166 145.618 69.4628Z" fill="#C99069" stroke="#1F1F1F" stroke-linecap="round" stroke-linejoin="round" />
		<path d="M48.3809 114.461C48.3809 114.461 70.1049 82.5444 73.5383 78.6814C76.9716 74.8185 80.9068 73.9518 87.2716 76.1074C93.9235 78.3611 121.603 89.5092 121.603 89.5092H134.477C134.477 89.5092 136.675 98.6833 131.044 106.407C126.766 112.276 116.238 116.707 100.36 116.707H91.9364L92.4198 159.728H60.9883L69.679 120.73C69.679 120.73 65.279 117.78 60.3438 114.618C55.5716 111.563 49.7216 112.422 48.3809 114.461Z" fill="#C2E7FF" stroke="#C2E7FF" stroke-linecap="round" stroke-linejoin="round" />
		<path d="M75.4696 179.798H59.377C59.377 179.798 60.8788 174.648 64.9566 172.717C69.0344 170.785 73.5381 174.434 75.4696 179.798Z" fill="#C2E7FF" stroke="#C2E7FF" stroke-linecap="round" stroke-linejoin="round" />
		<path d="M127.343 41.5618C126.359 41.3518 125.363 41.2009 124.361 41.1099L122.998 30.9414L118.331 32.2377L116.161 40.9173C114.105 40.9689 112.053 41.1395 110.017 41.4284C110.128 42.2433 110.087 43.3599 110.159 46.6507C110.222 49.5655 110.589 52.371 112.733 54.0877C115.183 56.047 120.261 56.8655 124.607 51.8655C127.165 48.9284 129.422 44.8284 130.563 42.5655C129.519 42.1414 128.442 41.8056 127.343 41.5618Z" fill="#C99069" stroke="#1F1F1F" stroke-linecap="round" stroke-linejoin="round" />
		<path d="M123.581 35.2632L117.779 34.4502L117.038 37.4354C118.658 36.9946 122.54 35.9039 123.588 35.2817L123.581 35.2632Z" fill="#1F1F1F" stroke="#1F1F1F" stroke-linecap="round" stroke-linejoin="round" />
		<path d="M125.922 20.8186C123.059 19.3371 119.833 20.2223 118.1 21.5334C116.003 23.1186 115.359 25.7927 115.44 27.8297C115.618 32.1149 117.285 35.8057 120.196 36.1038C122.946 36.3927 126.074 33.8279 127.711 30.6334C129.807 26.5464 128.703 22.2575 125.922 20.8186Z" fill="#C99069" stroke="#1F1F1F" stroke-linecap="round" stroke-linejoin="round" />
		<path d="M125.922 20.8186C123.059 19.3371 119.833 20.2223 118.1 21.5334C116.003 23.1186 115.359 25.7927 115.44 27.8297C115.44 27.9057 115.44 27.9816 115.453 28.0575C116.992 27.9371 118.251 26.9612 119.122 25.989C120.353 24.6131 121.435 24.5186 122.188 24.6594C123.007 24.8131 123.826 25.426 124.285 26.9594C124.655 28.1723 125.307 29.8223 127.098 30.589C127.28 30.6827 127.488 30.7139 127.69 30.6779L127.711 30.6408C129.807 26.5464 128.703 22.2575 125.922 20.8186Z" fill="#824F2B" stroke="#1F1F1F" stroke-linecap="round" stroke-linejoin="round" />
		<path d="M141.987 39.4167C144.848 36.4833 149.353 34.8389 154.361 36.413C159.113 37.9055 162.227 43.7796 161.298 48.3555C160.168 53.9222 156.363 57.4407 151.853 58.0111C146.124 58.7389 141.626 56.2963 139.766 51.9333C137.907 47.5704 138.377 43.1148 141.987 39.4167Z" fill="#824F2B" stroke="#1F1F1F" stroke-linecap="round" stroke-linejoin="round" />
		<path d="M155.433 56.7968C160.011 54.0783 164.946 54.0079 169.237 56.7968C173.413 59.5116 174.887 65.2357 173.385 70.1005C171.589 75.919 165.946 77.8968 161.87 78.0394C156.059 78.2431 152.748 75.9783 150.64 71.1727C148.853 67.1024 149.474 60.3357 155.433 56.7968Z" fill="#824F2B" stroke="#1F1F1F" stroke-linecap="round" stroke-linejoin="round" />
		<path d="M133.242 79.808L130.238 57.332" stroke="#1F1F1F" stroke-linecap="round" stroke-linejoin="round" />
		<path d="M62.5959 116.339C62.5959 116.339 55.0866 128.676 51.4385 134.041C48.6329 138.168 45.0014 141.122 40.7107 142.189C35.0274 143.609 28.2644 144.763 24.1885 145.407C22.6903 145.644 22.4718 147.554 24.4033 148.196C26.3348 148.839 61.5237 157.424 61.5237 157.424L69.6718 120.731L62.5959 116.339Z" fill="#C99069" stroke="#1F1F1F" stroke-linecap="round" stroke-linejoin="round" />
		<path d="M65.7607 137.73L52.807 131.989C52.3125 132.745 51.8514 133.441 51.4385 134.047C48.6329 138.174 45.0014 141.128 40.7107 142.195C35.0274 143.615 28.2644 144.769 24.1885 145.413C22.6903 145.65 22.4718 147.56 24.4033 148.202C26.3348 148.845 61.5237 157.43 61.5237 157.43L65.7514 138.399L65.7607 137.73Z" fill="white" stroke="#1F1F1F" stroke-linecap="round" stroke-linejoin="round" />
		<path d="M88.8809 96.7725L106.112 116.713H89.2123L88.8809 96.7725Z" fill="#1F1F1F" stroke="#1F1F1F" stroke-linecap="round" stroke-linejoin="round" />
		<path d="M73.2105 104.86C74.7124 98.3152 79.3124 94.3467 83.5086 94.3467C88.0142 94.3467 91.4975 98.4671 91.7698 105.289C92.092 113.336 92.4124 159.734 92.4124 159.734H60.9883C60.9883 159.734 71.692 111.506 73.2105 104.86Z" fill="#C2E7FF" stroke="#C2E7FF" stroke-linecap="round" stroke-linejoin="round" />
		<path d="M133.296 80.1836H134.977" stroke="#1F1F1F" stroke-linecap="round" stroke-linejoin="round" />
		<path d="M69.6772 120.737C69.6772 120.737 65.2772 117.787 60.342 114.626C55.5716 111.567 49.7216 112.426 48.3809 114.465C48.3809 114.465 70.1049 82.5483 73.5383 78.6853C76.9716 74.8224 80.9068 73.9557 87.2716 76.1113C87.2716 76.1113 103.422 81.9168 121.603 89.5205" stroke="#1F1F1F" stroke-linecap="round" stroke-linejoin="round" />
		<path d="M60.9883 159.736C60.9883 159.736 71.692 111.506 73.2105 104.86C74.7124 98.3152 79.3124 94.3467 83.5086 94.3467C88.0142 94.3467 91.4975 98.4671 91.7698 105.289C92.092 113.336 92.4124 129.854 92.4124 129.854" stroke="#1F1F1F" stroke-linecap="round" stroke-linejoin="round" />
		<path d="M152.708 136.08C152.922 139.941 158.234 169.823 158.556 171.752C158.878 173.682 159.037 177.76 159.037 178.832C159.037 179.904 158.556 179.96 157.806 179.96H144.072C144.14 179.003 144.559 178.106 145.248 177.439C146.43 176.26 151.685 172.397 151.685 172.397C151 169.241 149.9 166.19 148.413 163.323C145.624 157.952 142.191 153.237 141.439 147.015C140.687 140.793 152.708 136.08 152.708 136.08Z" fill="#F7B804" stroke="#1F1F1F" stroke-linecap="round" stroke-linejoin="round" />
		<path d="M103.111 31.1025H61.1332C59.7868 31.1025 58.4955 31.6369 57.5427 32.5883C56.59 33.5396 56.0537 34.8302 56.0518 36.1766V62.5507C56.0518 63.8984 56.5871 65.1909 57.5401 66.1438C58.4931 67.0968 59.7855 67.6322 61.1332 67.6322H87.7814L94.111 75.747C94.2756 75.9665 94.5055 76.1282 94.7678 76.2087C95.03 76.2893 95.3111 76.2845 95.5705 76.1952C95.8299 76.1058 96.0542 75.9365 96.2113 75.7115C96.3683 75.4866 96.4499 75.2176 96.4444 74.9433V67.6322H103.111C103.778 67.6322 104.439 67.5007 105.056 67.2454C105.672 66.99 106.232 66.6157 106.704 66.1438C107.176 65.672 107.55 65.1118 107.806 64.4953C108.061 63.8788 108.193 63.218 108.193 62.5507V36.1766C108.191 34.8302 107.654 33.5396 106.702 32.5883C105.749 31.6369 104.457 31.1025 103.111 31.1025Z" fill="white" stroke="#1F1F1F" stroke-linecap="round" stroke-linejoin="round" />
		<path d="M175.352 96.8136C173.743 92.845 170.954 91.8247 169.023 93.2728C167.091 94.721 166.717 97.5654 166.771 100.301C166.824 103.036 167.36 108.078 166.824 113.873C166.326 119.243 164.087 123.902 161.245 126.371C158.402 128.839 154.323 130.769 154.323 130.769C154.323 130.769 153.439 129.577 150.837 127.121C149.962 126.295 148.667 125.323 147.197 124.289C145.917 123.364 144.604 122.489 143.352 121.682C141.071 120.16 138.826 118.667 137.319 117.465C133.886 114.73 127.824 107.651 127.824 107.651C127.824 107.651 127.986 102.715 128.039 100.786C128.081 100.246 128.06 99.7026 127.976 99.1673C127.843 98.0339 127.502 97.1302 126.911 96.4395C125.087 94.295 122.782 93.2747 120.743 92.7358C118.704 92.1969 115.324 91.5006 114.091 91.0691C112.858 90.6376 106.954 86.1376 106.474 85.758C105.456 84.9525 104.808 84.6858 103.847 85.1136C103.37 85.3522 102.956 85.7002 102.639 86.1292C102.322 86.5582 102.111 87.056 102.023 87.5821C101.993 87.7807 101.979 87.9813 101.98 88.1821C101.967 88.5213 101.999 88.8608 102.076 89.1913C102.087 89.2413 102.102 89.2932 102.115 89.3432C102.355 90.3525 102.759 91.3158 103.31 92.195C104.382 93.9654 108.46 98.2025 109.639 100.402C110.819 102.602 111.41 105.606 111.517 110.273C111.517 110.327 111.517 110.378 111.517 110.432V110.565C104.897 110.96 94.9782 111.965 93.3911 112.364C93.0111 112.441 92.648 112.586 92.3189 112.791C92.0726 112.945 92.1578 113.597 92.1578 113.597L92.2115 116.708H112.143C112.98 120.13 114.736 123.93 118.069 127.651C123.004 133.177 130.674 137.145 135.341 138.539C135.341 138.539 132.767 141.543 133.195 149.269C133.623 156.995 135.232 171.691 135.232 171.691C135.232 171.691 129.921 173.139 127.562 173.997C125.202 174.854 123.519 176.519 122.232 179.952H140.619C140.619 179.952 142.2 173.515 142.841 169.008C143.482 164.501 147.563 157.638 151.854 151.843C155.406 147.047 156.75 140.047 155.771 134.978C157.221 134.473 161.326 132.941 164.567 130.869C170.574 127.006 175.158 122.46 176.419 114.454C177.552 107.328 176.978 100.823 175.352 96.8136Z" fill="#F7B804" stroke="#1F1F1F" stroke-linecap="round" stroke-linejoin="round" />
		<path d="M111.446 110.595C112.913 110.522 113.378 110.487 113.378 110.487" stroke="#1F1F1F" stroke-linecap="round" stroke-linejoin="round" />
		<path d="M119.672 97.082C119.672 97.082 120.69 104.056 121.55 107.328C122.329 110.306 124.177 110.762 125.518 110.601C126.859 110.439 127.7 109.523 127.861 107.054" stroke="#1F1F1F" stroke-linecap="round" stroke-linejoin="round" />
		<path d="M115.113 94.9339C114.523 94.9932 114.308 94.3432 115.167 94.1839C116.026 94.0247 116.186 94.8265 115.113 94.9339Z" fill="#1F1F1F" stroke="#1F1F1F" stroke-linecap="round" stroke-linejoin="round" />
		<path d="M66.9584 172.234L70.2195 159.735H83.6251L83.3547 179.798H59.377C59.377 179.798 60.8788 174.648 64.9566 172.717C67.9881 171.28 71.2529 172.932 73.5307 176.078" fill="white" />
		<path d="M66.9584 172.234L70.2195 159.735H83.6251L83.3547 179.798H59.377C59.377 179.798 60.8788 174.648 64.9566 172.717C67.9881 171.28 71.2529 172.932 73.5307 176.078" stroke="#1F1F1F" stroke-linecap="round" stroke-linejoin="round" />
		<path d="M38.0273 179.959H169.344" stroke="#1F1F1F" stroke-linecap="round" stroke-linejoin="round" />
		<path d="M70.2197 159.735L83.5845 162.687V159.735H70.2197Z" fill="#1F1F1F" stroke="#1F1F1F" stroke-linecap="round" stroke-linejoin="round" />
	</g>
	<defs>
		<clipPath id="clip0_714_1712">
			<rect width="154.835" height="160.746" fill="white" transform="translate(22.5928 19.6299)" />
		</clipPath>
	</defs>
</svg>