<svg xmlns="http://www.w3.org/2000/svg" viewBox="0 0 88 22">
	<defs>
		<style>
			.cls-1 {
				fill: #0af;
			}
		</style>
	</defs>
	<title>codepen-</title>
	<g id="Layer_1" data-name="Layer 1">
		<path id="n" d="M88,5V18.5a.5.5,0,0,1-.5.5.48.48,0,0,1-.46-.3.45.45,0,0,1,0-.2V5a1,1,0,0,0-1-1H81V18.5a.45.45,0,0,1,0,.2.48.48,0,0,1-.46.3.5.5,0,0,1-.5-.5V3.5a.5.5,0,0,1,.5-.5H86a2,2,0,0,1,.78.16,1,1,0,0,1,.23.12,1.1,1.1,0,0,1,.21.14,1,1,0,0,1,.19.17l.13.14.09.11.1.16A2,2,0,0,1,88,5Z" />
		<path id="e-2" d="M70,11v6a1,1,0,0,0,1,1h5.5a.5.5,0,0,1,0,1H71a2,2,0,0,1-1-.27,2,2,0,0,1-.73-.73A2,2,0,0,1,69,17V5a2,2,0,0,1,2-2h5.5a.5.5,0,0,1,0,1H71a1,1,0,0,0-1,1v5h6.5a.5.5,0,0,1,0,1Z" />
		<path id="p" d="M65.73,4l-.1-.16-.09-.11-.13-.14a1,1,0,0,0-.19-.17A1.1,1.1,0,0,0,65,3.28h0l-.22-.11A2,2,0,0,0,64,3H58.5a.5.5,0,0,0-.5.5v15a.5.5,0,0,0,1,0V11h5a2,2,0,0,0,.78-.16l.22-.11h0a1.1,1.1,0,0,0,.21-.14,1,1,0,0,0,.19-.17l.13-.14.09-.11L65.7,10l0,0A2,2,0,0,0,66,9V5A2,2,0,0,0,65.73,4ZM59,10V4h5a1,1,0,0,1,1,1V9a1,1,0,0,1-1,1Z" />
		<path id="e" data-name="e" d="M48,11v6a1,1,0,0,0,1,1h5.5a.5.5,0,0,1,0,1H49a2,2,0,0,1-1-.27,2,2,0,0,1-.73-.73A2,2,0,0,1,47,17V5a2,2,0,0,1,2-2h5.5a.5.5,0,0,1,0,1H49a1,1,0,0,0-1,1v5h6.5a.5.5,0,0,1,0,1Z" />
		<path id="d" d="M43.73,4l-.1-.16-.09-.11-.13-.14a1,1,0,0,0-.19-.17A1.1,1.1,0,0,0,43,3.28a1,1,0,0,0-.23-.12A2,2,0,0,0,42,3H36.5a.5.5,0,0,0-.5.5v15a.5.5,0,0,0,.5.5H42a2,2,0,0,0,.78-.16,1,1,0,0,0,.23-.12,1.1,1.1,0,0,0,.21-.14,1,1,0,0,0,.19-.17l.13-.14.09-.11.1-.16A2,2,0,0,0,44,17V5A2,2,0,0,0,43.73,4ZM43,17a1,1,0,0,1-1,1H37V4h5a1,1,0,0,1,1,1Z" />
		<g id="icon">
			<polygon points="20.56 9.54 20.56 9.55 16.35 5.34 20.56 9.54" />
			<rect x="20.35" y="15" width="7.65" height="1" />
			<polygon points="22.01 11 19.48 13.54 16 17.02 16 15.6 18.77 12.83 20.59 11 19.85 10.25 16 6.4 16 4.98 16.35 5.34 22.01 11" />
			<path class="cls-1" d="M31,0H13a2,2,0,0,0-2,2V20a2,2,0,0,0,2,2H31a2,2,0,0,0,2-2V2A2,2,0,0,0,31,0Zm0,19.5a.5.5,0,0,1-.5.5h-17a.5.5,0,0,1-.5-.5V2.5a.5.5,0,0,1,.5-.5h17a.5.5,0,0,1,.5.5Z" />
		</g>
		<path id="c" d="M8,18.5a.5.5,0,0,1-.5.5H2a2,2,0,0,1-2-2V5A2,2,0,0,1,2,3H7.5a.5.5,0,0,1,0,1H2A1,1,0,0,0,1,5V17a1,1,0,0,0,1,1H7.5A.5.5,0,0,1,8,18.5Z" />
	</g>
</svg>