<svg xmlns="http://www.w3.org/2000/svg" viewBox="0 0 88 22">
	<defs>
		<style>
			.cls-1 {
				fill: #0af;
			}
		</style>
	</defs>
	<title>codepen-</title>
	<g id="Layer_6" data-name="Layer 6">
		<path id="n" d="M88,4V18a1,1,0,0,1-2,0V5H82V18a1,1,0,0,1-2,0V4a1,1,0,0,1,1-1h6A1,1,0,0,1,88,4Z" />
		<path id="e" d="M71,17h5a1,1,0,0,1,0,2H70a1,1,0,0,1-1-1V4a1,1,0,0,1,1-1h6a1,1,0,0,1,0,2H71v5h5a1,1,0,0,1,0,2H71Z" />
		<path id="p" d="M64,3H59a1,1,0,0,0-1,1V18a1,1,0,0,0,2,0V12h4a2,2,0,0,0,2-2V5A2,2,0,0,0,64,3Zm0,6.5a.5.5,0,0,1-.5.5H60V5h3.5a.5.5,0,0,1,.5.5Z" />
		<path id="e-2" data-name="e" d="M49,17h5a1,1,0,0,1,0,2H48a1,1,0,0,1-1-1V4a1,1,0,0,1,1-1h6a1,1,0,0,1,0,2H49v5h5a1,1,0,0,1,0,2H49Z" />
		<path id="d" d="M42,3H37a1,1,0,0,0-1,1V18a1,1,0,0,0,1,1h5a2,2,0,0,0,2-2V5A2,2,0,0,0,42,3Zm0,13.5a.5.5,0,0,1-.5.5H38V5h3.5a.5.5,0,0,1,.5.5Z" />
		<g id="icon">
			<polygon points="20.56 9.54 20.56 9.55 16.35 5.34 20.56 9.54" />
			<rect x="20.35" y="15" width="7.65" height="1" />
			<polygon points="22.01 11 19.48 13.54 16 17.02 16 15.6 18.77 12.83 20.59 11 19.85 10.25 16 6.4 16 4.98 16.35 5.34 22.01 11" />
			<path class="cls-1" d="M31,0H13a2,2,0,0,0-2,2V20a2,2,0,0,0,2,2H31a2,2,0,0,0,2-2V2A2,2,0,0,0,31,0Zm0,19.5a.5.5,0,0,1-.5.5h-17a.5.5,0,0,1-.5-.5V2.5a.5.5,0,0,1,.5-.5h17a.5.5,0,0,1,.5.5Z" />
		</g>
		<path id="c" d="M8,18a1,1,0,0,1-1,1H2a2,2,0,0,1-2-2V5A2,2,0,0,1,2,3H7A1,1,0,0,1,7,5H2.5a.5.5,0,0,0-.5.5v11a.5.5,0,0,0,.5.5H7A1,1,0,0,1,8,18Z" />
	</g>
</svg>