<svg xmlns="http://www.w3.org/2000/svg" viewBox="0 0 59 20">
	<defs>
		<style>
			.cls-1 {
				fill: #0af;
			}
		</style>
	</defs>
	<title>code-lo</title>
	<g id="Layer_6" data-name="Layer 6">
		<circle cx="58.5" cy="15.5" r="0.5" />
		<path d="M56,4.5v1a.5.5,0,0,1-.5.5H55V5H53.5a.5.5,0,0,1,0-1h2A.5.5,0,0,1,56,4.5Z" />
		<path d="M55,6V7.5a.5.5,0,0,1-1,0v-1a.5.5,0,0,1,.5-.5Z" />
		<path d="M56.5,9h-4a.5.5,0,0,0-.5.5v6a.5.5,0,0,0,.5.5h4a.5.5,0,0,0,.5-.5v-6A.5.5,0,0,0,56.5,9ZM56,15H53V10h3Z" />
		<path d="M51,15.5a.5.5,0,0,1-.5.5h-3a.5.5,0,0,1-.5-.5V4.5a.5.5,0,0,1,1,0V15h2.5A.5.5,0,0,1,51,15.5Z" />
		<path d="M41,13v2h2.5a.5.5,0,0,1,0,1h-3a.5.5,0,0,1-.5-.5v-6a.5.5,0,0,1,.5-.5h3a.5.5,0,0,1,0,1H41v2h2.5a.5.5,0,0,1,0,1Z" />
		<path d="M38.5,4a.5.5,0,0,0-.5.5V9H34.5a.5.5,0,0,0-.5.5v6a.5.5,0,0,0,.5.5h4a.5.5,0,0,0,.5-.5V4.5A.5.5,0,0,0,38.5,4ZM38,15H35V10h3Z" />
		<path d="M32.5,9h-4a.5.5,0,0,0-.5.5v6a.5.5,0,0,0,.5.5h4a.5.5,0,0,0,.5-.5v-6A.5.5,0,0,0,32.5,9ZM29,15V10h3v5Z" />
		<path d="M27,15.5a.5.5,0,0,1-.5.5h-3a.5.5,0,0,1-.5-.5V4.5a.5.5,0,0,1,.5-.5h3a.5.5,0,0,1,0,1H24V15h2.5A.5.5,0,0,1,27,15.5Z" />
		<rect class="cls-1" x="8.35" y="14" width="8" height="1" />
		<polygon class="cls-1" points="10.01 10 9.3 10.71 4.35 15.66 3.65 14.95 8.59 10 3.65 5.05 4.35 4.34 10.01 10" />
		<path class="cls-1" d="M19.5,0H.5A.5.5,0,0,0,0,.5v19a.5.5,0,0,0,.5.5h19a.5.5,0,0,0,.5-.5V.5A.5.5,0,0,0,19.5,0ZM18,18H2V2H18Z" />
	</g>
</svg>