<svg xmlns="http://www.w3.org/2000/svg" viewBox="0 0 74 20">
	<defs>
		<style>
			.cls-1 {
				fill: #0af;
			}
		</style>
	</defs>
	<title>codepen-</title>
	<g id="Layer_6" data-name="Layer 6">
		<polygon class="cls-1" points="17.56 8.54 17.56 8.55 13.35 4.34 17.56 8.54" />
		<path class="cls-1" d="M9,0V20H29V0ZM28,19H10V1H28Z" />
		<rect class="cls-1" x="17.35" y="14" width="7.65" height="1" />
		<polygon class="cls-1" points="19.01 10 16.48 12.54 13 16.02 13 14.6 15.77 11.83 17.59 10 16.85 9.25 13 5.4 13 3.98 13.35 4.34 19.01 10" />
		<polygon points="1 4 1 16 6 16 6 17 0 17 0 3 6 3 6 4 1 4" />
		<path d="M32,3V17h6V3Zm5,13H33V4h4Z" />
		<path d="M50,3V17h1V10h5V3Zm5,6H51V4h4Z" />
		<polygon points="74 3 74 17 73 17 73 9.2 69 5.2 69 17 68 17 68 3 69 3 69 3.8 73 7.8 73 3 74 3" />
		<polygon points="42 4 42 9 46 9 46 10 42 10 42 16 47 16 47 17 41 17 41 3 47 3 47 4 42 4" />
		<polygon points="60 4 60 9 64 9 64 10 60 10 60 16 65 16 65 17 59 17 59 3 65 3 65 4 60 4" />
	</g>
</svg>