<?xml version="1.0" encoding="iso-8859-1"?>
<!-- Generator: Adobe Illustrator 19.0.0, SVG Export Plug-In . SVG Version: 6.00 Build 0)  -->
<svg version="1.1" id="Layer_1" xmlns="http://www.w3.org/2000/svg" xmlns:xlink="http://www.w3.org/1999/xlink" x="0px" y="0px"
	 viewBox="0 0 512 512" style="enable-background:new 0 0 512 512;" xml:space="preserve">
<circle style="fill:#E16B5A;" cx="256" cy="256" r="256"/>
<path style="fill:#CCCCCC;" d="M100,396c-15.436,0-28-12.564-28-28V140c0-15.436,8.564-24,24-24h316c15.436,0,28,12.564,28,28v224
	c0,15.436-12.564,28-28,28H100z"/>
<circle style="fill:#CC584C;" cx="95.812" cy="140" r="8"/>
<circle style="fill:#FFD464;" cx="119.812" cy="140" r="8"/>
<circle style="fill:#198058;" cx="143.812" cy="140" r="8"/>
<g>
	<path style="fill:#F5F5F5;" d="M403.812,144c0,2.2-1.8,4-4,4h-232c-2.2,0-4-1.8-4-4v-8c0-2.2,1.8-4,4-4h232c2.2,0,4,1.8,4,4V144z"
		/>
	<path style="fill:#F5F5F5;" d="M424,372c0,4.4-3.6,8-8,8H96c-4.4,0-8-3.6-8-8V172c0-4.4,3.6-8,8-8h320c4.4,0,8,3.6,8,8V372z"/>
</g>
<g>
	<path style="fill:#E16B5A;" d="M213.324,293.332V281.52h-24.02v-9.848l25.464-37.272h9.448v37.236h7.288v9.888h-7.288v11.812
		L213.324,293.332L213.324,293.332z M213.324,271.632v-20.06l-13.496,20.06H213.324z"/>
	<path style="fill:#E16B5A;" d="M255.88,234.4c5.68,0,10.128,2.028,13.332,6.084c3.816,4.804,5.728,12.772,5.728,23.9
		c0,11.104-1.92,19.084-5.764,23.944c-3.176,4-7.6,6.004-13.292,6.004c-5.712,0-10.316-2.196-13.812-6.584
		c-3.5-4.396-5.248-12.22-5.248-23.484c0-11.048,1.92-19,5.764-23.86C245.764,236.4,250.196,234.4,255.88,234.4z M255.88,243.728
		c-1.36,0-2.576,0.432-3.644,1.3s-1.896,2.42-2.484,4.664c-0.772,2.912-1.16,7.808-1.16,14.692s0.348,11.62,1.04,14.196
		c0.692,2.576,1.568,4.288,2.62,5.14c1.056,0.86,2.264,1.28,3.624,1.28s2.576-0.428,3.644-1.3c1.068-0.868,1.896-2.416,2.484-4.664
		c0.776-2.884,1.164-7.768,1.164-14.652c0-6.892-0.348-11.62-1.044-14.196s-1.572-4.296-2.62-5.164
		C258.444,244.16,257.244,243.728,255.88,243.728z"/>
	<path style="fill:#E16B5A;" d="M304.524,293.332V281.52h-24.02v-9.848l25.464-37.272h9.444v37.236h7.288v9.888h-7.288v11.812
		L304.524,293.332L304.524,293.332z M304.524,271.632v-20.06l-13.492,20.06H304.524z"/>
</g>
<g>
</g>
<g>
</g>
<g>
</g>
<g>
</g>
<g>
</g>
<g>
</g>
<g>
</g>
<g>
</g>
<g>
</g>
<g>
</g>
<g>
</g>
<g>
</g>
<g>
</g>
<g>
</g>
<g>
</g>
</svg>
