<svg xmlns="http://www.w3.org/2000/svg" xmlns:xlink="http://www.w3.org/1999/xlink" viewBox="0 0 3135 2105.4"><defs><style>.cls-1,.cls-15{fill:none;}.cls-2{fill:#b0d8ff;}.cls-3{fill:#fff;}.cls-4{fill:url(#linear-gradient);}.cls-5{fill:#d5e1f7;}.cls-6{fill:#ebf5ff;}.cls-7{fill:#00d967;}.cls-8{fill:#daebff;}.cls-9{fill:#e2eefa;}.cls-10{fill:#d3e2f9;}.cls-11,.cls-14{fill:#d1e3ff;}.cls-12{fill:#e3eeff;}.cls-13{fill:#f5fcff;}.cls-14,.cls-15{stroke:#b6d4ff;stroke-miterlimit:10;}.cls-15{stroke-width:2.32px;}.cls-16{opacity:0.45;fill:url(#linear-gradient-2);}.cls-16,.cls-20{isolation:isolate;}.cls-17{fill:url(#linear-gradient-3);}.cls-18{fill:#006dfe;}.cls-19{clip-path:url(#clip-path);}.cls-20{opacity:0.34;}.cls-21{fill:#191e56;}.cls-22{fill:#0542bf;}.cls-23{clip-path:url(#clip-path-2);}.cls-24{fill:#004efc;}.cls-25{fill:#ffab00;}.cls-26{clip-path:url(#clip-path-3);}.cls-27{fill:#fe8e00;}.cls-28{fill:#1e2889;}.cls-29{clip-path:url(#clip-path-4);}.cls-30{fill:#1a1a7c;}.cls-31{clip-path:url(#clip-path-5);}.cls-32{fill:#de4d30;}.cls-33{fill:#9bb4c9;}.cls-34{fill:#4143c5;}.cls-35{fill:#859ad0;}.cls-36{fill:#ffaca6;}.cls-37{clip-path:url(#clip-path-6);}.cls-38{fill:#ea756c;}.cls-39{clip-path:url(#clip-path-7);}.cls-40{fill:#172272;}.cls-41{clip-path:url(#clip-path-8);}.cls-42{fill:#78c2ff;}</style><linearGradient id="linear-gradient" x1="566.36" y1="-2517.27" x2="580.11" y2="-1094.72" gradientTransform="translate(0 2328)" gradientUnits="userSpaceOnUse"><stop offset="0" stop-color="#b0d8ff"/><stop offset="0.02" stop-color="#b3d9ff"/><stop offset="0.15" stop-color="#c4e1ff"/><stop offset="0.3" stop-color="#d1e7ff"/><stop offset="0.51" stop-color="#d8eaff"/><stop offset="1" stop-color="#daebff"/></linearGradient><linearGradient id="linear-gradient-2" x1="761.18" y1="-914.75" x2="761.18" y2="-614.16" gradientTransform="translate(-275.78 2382.84) rotate(-2.27)" gradientUnits="userSpaceOnUse"><stop offset="0.37" stop-color="#86cf94"/><stop offset="0.99" stop-color="#008166"/></linearGradient><linearGradient id="linear-gradient-3" x1="1755.2" y1="-2345.85" x2="1755.2" y2="-1209.4" xlink:href="#linear-gradient"/><clipPath id="clip-path"><path class="cls-1" d="M1392.5,1571.8v133.7h44.1V1585.2A66,66,0,0,0,1392.5,1571.8Z"/></clipPath><clipPath id="clip-path-2"><path class="cls-1" d="M1494.8,915s50.3-17.8,125.2,0,119.6,92.4,122.1,152.7-24.5,430.7-123.6,524.3-349.1,47.5-400.2,28-88.8-96.4-88.8-96.4l256.1-182.2,13.6-390.9Z"/></clipPath><clipPath id="clip-path-3"><path class="cls-1" d="M1327.8,895.9l-6.1-.5s-62.4,1.9-82,26.1-33,137.9-33,137.9l38.7,291.2s23.3,41,141.6,41,164.9-48.4,164.9-48.4l-11-136.3s19.8-30.9,23.1-64-29.4-209.7-64.8-235.3-113.7-14.5-113.7-14.5Z"/></clipPath><clipPath id="clip-path-4"><path class="cls-1" d="M1252.5,1345.3l-7.2,5.3s-212.8,68.7-232.6,133.3,11.8,435.2,11.8,435.2,57.8,45.6,109-4.7l4.2-346.2,215-79.7,62.2,1.9s74.6-53.1,79.2-56.8,63.4-45.7,63.4-45.7l-36.3-59.6Z"/></clipPath><clipPath id="clip-path-5"><path class="cls-1" d="M1403.7,1379.5s-112.5,96-121.9,166.8,0,383,0,383,72.5,48.4,121.9,0c0,0-20.5-285.1,23.3-333.6s121.1-92.3,130.5-164-5.6-88.5-5.6-88.5l-74.7-12.1Z"/></clipPath><clipPath id="clip-path-6"><path class="cls-1" d="M1320,833s10.2,21.4,1.8,62.4c0,0,6.5,20,29.4,19.6s34.5-22,34.5-22-10.9-17.5-6.4-54.6l.3-13.8L1350.7,805Z"/></clipPath><clipPath id="clip-path-7"><path class="cls-1" d="M1254.3,720.4s-59.3-2.1-26.1-121.7c0,0,30.4,22.9,84.5,26s114.3,1.9,121.8,98.2c3.1,62.1-55.3,115.5-55.3,115.5l-52.8-33.5Z"/></clipPath><clipPath id="clip-path-8"><path class="cls-1" d="M1251.9,705.2s-16.2,135.4,33.5,143.2,82.6-49.1,82.6-49.1,24.9-3.1,22.4-29.5-22-16.5-22-16.5-22.1-9.6-21.7-32.9c0,0-26.7,6.2-38.8-18.3,0,0-20.2,14-40.7-7.5C1267.1,694.6,1261.8,707.4,1251.9,705.2Z"/></clipPath></defs><title>Asset 1</title><g id="Layer_2" data-name="Layer 2"><g id="Layer_1-2" data-name="Layer 1"><g id="Layer_1-2-2" data-name="Layer 1-2"><rect class="cls-2" x="2503" y="325.7" width="164.4" height="210.5"/><rect class="cls-3" x="2512.9" y="335.4" width="144.5" height="191.1"/><rect class="cls-2" x="2678.4" y="143.6" width="276.4" height="342.4"/><rect class="cls-3" x="2694.4" y="159" width="244.4" height="311.5"/><path class="cls-2" d="M97,0h972.8a58,58,0,0,1,58,58V1073.7a58,58,0,0,1-58,58H97a58,58,0,0,1-58-58V58A58,58,0,0,1,97,0Z"/><path class="cls-4" d="M93.4,19.4h960.7a54.39,54.39,0,0,1,54.4,54.4V1077.2a54.39,54.39,0,0,1-54.4,54.4H93.4A54.39,54.39,0,0,1,39,1077.2V73.8A54.39,54.39,0,0,1,93.4,19.4Z"/><path class="cls-5" d="M104.1,66.8h946.3a18.78,18.78,0,0,1,18.8,18.8V256.4a18.78,18.78,0,0,1-18.8,18.8H104.1a18.78,18.78,0,0,1-18.8-18.8V85.6A18.91,18.91,0,0,1,104.1,66.8Z"/><path class="cls-3" d="M98.7,61.4H1045a18.78,18.78,0,0,1,18.8,18.8V251a18.78,18.78,0,0,1-18.8,18.8H98.7A18.78,18.78,0,0,1,79.9,251V80.1A18.76,18.76,0,0,1,98.7,61.4Z"/><path class="cls-5" d="M104.6,888.1h946.3a18.78,18.78,0,0,1,18.8,18.8v170.8a18.78,18.78,0,0,1-18.8,18.8H104.6a18.78,18.78,0,0,1-18.8-18.8V906.9A18.78,18.78,0,0,1,104.6,888.1Z"/><path class="cls-3" d="M98.7,880.6H1045a18.78,18.78,0,0,1,18.8,18.8v170.8A18.78,18.78,0,0,1,1045,1089H98.7a18.78,18.78,0,0,1-18.8-18.8V899.4A18.78,18.78,0,0,1,98.7,880.6Z"/><path class="cls-5" d="M128.3,909.6H408.9A14.4,14.4,0,0,1,423.3,924h0a14.4,14.4,0,0,1-14.4,14.4H128.3A14.49,14.49,0,0,1,113.8,924h0A14.62,14.62,0,0,1,128.3,909.6Z"/><path class="cls-5" d="M128.3,977.8h898.8a14.4,14.4,0,0,1,14.4,14.4h0a14.4,14.4,0,0,1-14.4,14.4H128.3a14.49,14.49,0,0,1-14.5-14.4h0A14.62,14.62,0,0,1,128.3,977.8Z"/><path class="cls-6" d="M128.3,1031h898.8a14.4,14.4,0,0,1,14.4,14.4h0a14.4,14.4,0,0,1-14.4,14.4H128.3a14.49,14.49,0,0,1-14.5-14.4h0A14.62,14.62,0,0,1,128.3,1031Z"/><path class="cls-5" d="M293.7,323.9V841.5a14,14,0,0,1-14,14H99.3a14,14,0,0,1-14-14V323.9a14,14,0,0,1,14-14H279.7A14,14,0,0,1,293.7,323.9Z"/><path class="cls-3" d="M289.5,316.7V834.3a14,14,0,0,1-14,14H95.1a14,14,0,0,1-14-14V316.7a14,14,0,0,1,14-14H275.5A14,14,0,0,1,289.5,316.7Z"/><path class="cls-5" d="M1071.8,336.1V829.2a26.16,26.16,0,0,1-26.2,26.2H365.4a26.16,26.16,0,0,1-26.2-26.2V336.1a26.16,26.16,0,0,1,26.2-26.2h680.2A26.23,26.23,0,0,1,1071.8,336.1Z"/><path class="cls-3" d="M1063.7,328.9V822a26.16,26.16,0,0,1-26.2,26.2H357.3A26.16,26.16,0,0,1,331.1,822V328.9a26.16,26.16,0,0,1,26.2-26.2h680.2A26.23,26.23,0,0,1,1063.7,328.9Z"/><path class="cls-7" d="M373.1,325.4H569.8A13.61,13.61,0,0,1,583.4,339v1.8a13.61,13.61,0,0,1-13.6,13.6H373.1a13.61,13.61,0,0,1-13.6-13.6V339A13.61,13.61,0,0,1,373.1,325.4Z"/><path class="cls-5" d="M373.5,393.7h642.9a14,14,0,0,1,14,14v1a14,14,0,0,1-14,14H373.5a14,14,0,0,1-14-14v-1A14,14,0,0,1,373.5,393.7Z"/><path class="cls-6" d="M373.5,446.8h642.9a14,14,0,0,1,14,14v1a14,14,0,0,1-14,14H373.5a14,14,0,0,1-14-14v-1A14,14,0,0,1,373.5,446.8Z"/><path class="cls-7" d="M373.1,500H569.8a13.61,13.61,0,0,1,13.6,13.6v1.8A13.61,13.61,0,0,1,569.8,529H373.1a13.61,13.61,0,0,1-13.6-13.6v-1.8A13.61,13.61,0,0,1,373.1,500Z"/><path class="cls-5" d="M373.5,568.2h642.9a14,14,0,0,1,14,14v1a14,14,0,0,1-14,14H373.5a14,14,0,0,1-14-14v-1A14,14,0,0,1,373.5,568.2Z"/><path class="cls-6" d="M373.5,621.4h642.9a14,14,0,0,1,14,14v1a14,14,0,0,1-14,14H373.5a14,14,0,0,1-14-14v-1A14,14,0,0,1,373.5,621.4Z"/><path class="cls-7" d="M373.1,674.6H569.8a13.61,13.61,0,0,1,13.6,13.6V690a13.61,13.61,0,0,1-13.6,13.6H373.1A13.61,13.61,0,0,1,359.5,690v-1.8A13.55,13.55,0,0,1,373.1,674.6Z"/><path class="cls-5" d="M373.5,742.8h642.9a14,14,0,0,1,14,14v1a14,14,0,0,1-14,14H373.5a14,14,0,0,1-14-14v-1A14,14,0,0,1,373.5,742.8Z"/><path class="cls-6" d="M373.5,796h642.9a14,14,0,0,1,14,14v1a14,14,0,0,1-14,14H373.5a14,14,0,0,1-14-14v-1A14,14,0,0,1,373.5,796Z"/><path class="cls-8" d="M114.6,325.4H254.2a19.89,19.89,0,0,1,19.9,19.9V471.7a19.89,19.89,0,0,1-19.9,19.9H114.6a19.89,19.89,0,0,1-19.9-19.9V345.3A20,20,0,0,1,114.6,325.4Z"/><path class="cls-8" d="M114.6,522.1H254.2A19.89,19.89,0,0,1,274.1,542V668.4a19.89,19.89,0,0,1-19.9,19.9H114.6a19.89,19.89,0,0,1-19.9-19.9V542A19.89,19.89,0,0,1,114.6,522.1Z"/><path class="cls-8" d="M361.3,188H537.4a19.78,19.78,0,0,1,19.8,19.8v21.8a19.78,19.78,0,0,1-19.8,19.8H361.3a19.78,19.78,0,0,1-19.8-19.8V207.8A19.78,19.78,0,0,1,361.3,188Z"/><path class="cls-8" d="M121.2,188H297.3a19.78,19.78,0,0,1,19.8,19.8v21.8a19.78,19.78,0,0,1-19.8,19.8H121.2a19.78,19.78,0,0,1-19.8-19.8V207.8A19.78,19.78,0,0,1,121.2,188Z"/><path class="cls-8" d="M603.5,188H779.6a19.78,19.78,0,0,1,19.8,19.8v21.8a19.78,19.78,0,0,1-19.8,19.8H603.5a19.78,19.78,0,0,1-19.8-19.8V207.8A19.85,19.85,0,0,1,603.5,188Z"/><path class="cls-8" d="M845.7,188h176.1a19.78,19.78,0,0,1,19.8,19.8v21.8a19.78,19.78,0,0,1-19.8,19.8H845.7a19.78,19.78,0,0,1-19.8-19.8V207.8A19.91,19.91,0,0,1,845.7,188Z"/><path class="cls-8" d="M117.1,81.7h902.7a21.79,21.79,0,0,1,21.8,21.8v41.9a21.79,21.79,0,0,1-21.8,21.8H117.1a21.79,21.79,0,0,1-21.8-21.8V103.6A21.81,21.81,0,0,1,117.1,81.7Z"/><ellipse class="cls-9" cx="1145.4" cy="2027.4" rx="290" ry="78"/><ellipse class="cls-9" cx="429.9" cy="1905.8" rx="139" ry="43.6"/><ellipse class="cls-9" cx="1412.1" cy="1935.3" rx="238.6" ry="58.7"/><ellipse class="cls-9" cx="2759" cy="1837" rx="376" ry="40.9"/><ellipse class="cls-9" cx="2020.7" cy="2043.6" rx="108.6" ry="33.8"/><rect class="cls-10" y="1709.3" width="2967.8" height="19.8"/><path class="cls-11" d="M2436.3,635.4h655.8a37.3,37.3,0,0,1,37.3,37.3V1801.1a37.3,37.3,0,0,1-37.3,37.3H2436.3a37.3,37.3,0,0,1-37.3-37.3V672.7A37.36,37.36,0,0,1,2436.3,635.4Z"/><rect class="cls-12" x="2465.8" y="1517.6" width="298.4" height="251.6"/><rect class="cls-12" x="2764.2" y="1517.6" width="296.1" height="251.6"/><rect class="cls-13" x="2465.8" y="699.7" width="594.5" height="217.5"/><rect class="cls-13" x="2465.8" y="972.3" width="594.5" height="217.5"/><rect class="cls-13" x="2465.8" y="1245" width="594.5" height="217.5"/><ellipse class="cls-11" cx="2699.5" cy="1592.5" rx="21.1" ry="20"/><ellipse class="cls-11" cx="2832.7" cy="1592.5" rx="21.1" ry="20"/><rect class="cls-14" x="2481" y="748.2" width="49.7" height="165.9"/><rect class="cls-14" x="2530.7" y="748.2" width="49.7" height="165.9"/><rect class="cls-14" x="2580.5" y="748.2" width="49.7" height="165.9"/><rect class="cls-14" x="2630.2" y="748.2" width="49.7" height="165.9"/><rect class="cls-14" x="2680" y="748.2" width="49.7" height="165.9"/><rect class="cls-14" x="2774.9" y="1023" width="49.7" height="165.9"/><rect class="cls-14" x="2824.6" y="1023" width="49.7" height="165.9"/><rect class="cls-14" x="2526.1" y="1094.3" width="174.4" height="47.3"/><rect class="cls-14" x="2543" y="1047" width="174.4" height="47.3"/><rect class="cls-14" x="2545.6" y="1141.6" width="174.4" height="47.3"/><rect class="cls-14" x="2874.4" y="1023" width="49.7" height="165.9"/><rect class="cls-14" x="2924.1" y="1023" width="49.7" height="165.9"/><rect class="cls-14" x="2973.8" y="1023" width="49.7" height="165.9"/><rect class="cls-14" x="2516.4" y="1296.6" width="49.7" height="165.9"/><rect class="cls-14" x="2566.1" y="1296.6" width="49.7" height="165.9"/><rect class="cls-14" x="2615.9" y="1296.6" width="49.7" height="165.9"/><rect class="cls-14" x="2665.6" y="1296.6" width="49.7" height="165.9"/><rect class="cls-14" x="2715.4" y="1296.6" width="49.7" height="165.9"/><polygon class="cls-14" points="2838 900.8 2791.3 917.2 2730.9 761.6 2777.5 745.2 2838 900.8"/><polygon class="cls-14" points="2891.5 900.8 2844.8 917.2 2784.4 761.6 2831.1 745.2 2891.5 900.8"/><polygon class="cls-14" points="2990 885.6 2950.3 914.2 2845.2 781.7 2884.9 753.2 2990 885.6"/><ellipse class="cls-14" cx="2918.3" cy="1344.7" rx="74.6" ry="71"/><path class="cls-15" d="M2918.3,1430c-49.6,0-89.7-38.2-89.7-85.4s40.2-85.4,89.7-85.4"/><rect class="cls-14" x="2861.6" y="1448.3" width="107.9" height="14.2"/><rect class="cls-14" x="2911.3" y="1410.7" width="7" height="40.6"/><path class="cls-7" d="M506.4,1726.3s107.8-5.8,107.9-27.7c.1-17-65.8-2.6-65.8-2.6s72.1-20.9,105.4-38c7.3-3.8,14.8-7.8,19.9-14.2s7.3-15.9,3.2-23c-5.6-9.6-19.1-10.4-30.1-9.1-44.4,5.4-75.6,29.1-115.5,49.2,29.3-14.7,55.3-33.5,79.6-55.3,22.4-20,48.5-38.8,63.4-65.6,9.4-16.8,13.1-41.6-3.5-55.3-16.1-13.4-39.1-7.1-56.8-.9a232,232,0,0,0-116.3,91.8,406.41,406.41,0,0,0,16.4-60.5c1.6-8.3,2.1-18.5-4.7-23.4-8.9-6.3-20.7,2.2-27.6,10.6a209,209,0,0,0-37.4,69.5c5.4-56.6,10.8-114.3-1.5-169.7-2.8-12.7-6.7-25.5-14.6-35.8s-20.6-17.7-33.5-16.3c-12.2,1.3-22.3,10-30.5,19.2a168.62,168.62,0,0,0-5.3,218.6,235.08,235.08,0,0,0-44.1-36.1c-3.6-2.3-8.9-4.2-11.6-.9-1.4,1.7-1.4,4.1-1.2,6.3,2.5,26.9,20.5,49.4,37.8,70.2-35-40.9-90.1-63.7-143.8-59.5-6.5.5-13.8,1.9-17.1,7.6-1.9,3.3-2,7.2-1.6,11,2.9,27,26.7,46.5,50.1,60.3,19.7,11.5,40.4,21.2,61.1,30.8a171.2,171.2,0,0,0-35.8-1.3c-2.7.2-5.8.6-7.4,2.8-3.1,4.1,1.3,9.6,5.5,12.6a158.64,158.64,0,0,0,104.3,29.3"/><path class="cls-16" d="M628.7,1525.1c1.3-1,2.6,1.2,1.3,2.1a613.38,613.38,0,0,0-94,87.5c-28.3,32.8-50.9,68.6-73,105.7a1.25,1.25,0,0,1-1.7.4,1.28,1.28,0,0,1-.5-1.5c36.8-76.9,99.3-144.6,167.9-194.2Zm-155.1,27.8c-19.7,50.4-31.5,114-27.6,168.3a1.05,1.05,0,1,0,2.1-.1c.9-54.6,9-115.8,28.3-167.1C477.1,1552.4,474.3,1551.3,473.6,1552.9Zm-68.2-111.4c-9.3,92.6-1.8,191.3,23,281.1.4,1.5,2.6.7,2.3-.7-9.4-47.1-17.9-94.1-21.8-142-3.8-46.1-3.4-92-1.8-138.2-.1-1-1.6-1.1-1.7-.2Zm-83.7,138.3c27.8,39.5,58.6,112.6,95.2,144.5a1.6,1.6,0,0,0,2.1-.5,1.51,1.51,0,0,0-.1-1.7c-33-36.3-65.4-104.4-95-143.7-1-1.3-3.3,0-2.2,1.4Zm299.8,61.3c-55.2,24.9-112,54.1-158.8,93-1.4,1.2,0,3.7,1.6,2.6,51.5-34.2,101.3-67.8,157.9-93.3,1.4-.7.7-3-.7-2.3Zm-343.1-6.8c40.2,24,83.1,75.2,126.9,92,1.4.5,2.5-1.4,1.1-2.1-42.4-20.8-85.8-68.5-126.9-92-1.3-.8-2.5,1.3-1.1,2.1Z"/><rect class="cls-2" x="329.1" y="1719.9" width="235.1" height="196.6"/><rect class="cls-8" x="518" y="1719.9" width="46.2" height="196.6"/><path class="cls-2" d="M1261.4,132H2268.7a51.55,51.55,0,0,1,51.5,51.5V956.4a51.55,51.55,0,0,1-51.5,51.5H1261.4a51.55,51.55,0,0,1-51.5-51.5V183.5A51.55,51.55,0,0,1,1261.4,132Z"/><path class="cls-17" d="M1260.4,153.1H2250a50.45,50.45,0,0,1,50.4,50.4v754a50.45,50.45,0,0,1-50.4,50.4H1260.4a50.45,50.45,0,0,1-50.4-50.4v-754A50.32,50.32,0,0,1,1260.4,153.1Z"/><path class="cls-7" d="M1522.5,241.4H1400c-4.2,0-7.6-4-7.6-9h0c0-5,3.4-9,7.6-9h122.5c4.2,0,7.6,4,7.6,9h0C1530.2,237.4,1526.8,241.4,1522.5,241.4Z"/><path class="cls-18" d="M1641.9,322H1434.3c-4.2,0-7.6-4-7.6-9h0c0-5,3.4-9,7.6-9h207.6c4.2,0,7.6,4,7.6,9h0C1649.6,318,1646.1,322,1641.9,322Z"/><path class="cls-7" d="M1725.7,322h316.9c4.2,0,7.6-4,7.6-9h0c0-5-3.4-9-7.6-9H1725.7c-4.2,0-7.6,4-7.6,9h0C1718,318,1721.4,322,1725.7,322Z"/><path class="cls-18" d="M1641.9,402.6H1434.3c-4.2,0-7.6-4-7.6-9h0c0-5,3.4-9,7.6-9h207.6c4.2,0,7.6,4,7.6,9h0C1649.6,398.6,1646.1,402.6,1641.9,402.6Z"/><path class="cls-7" d="M1607.7,483.2H1400c-4.2,0-7.6-4-7.6-9h0c0-5,3.4-9,7.6-9h207.7c4.2,0,7.6,4,7.6,9h0C1615.3,479.2,1611.9,483.2,1607.7,483.2Z"/><path class="cls-18" d="M2048,483.2H1691.4c-4.2,0-7.6-4-7.6-9h0c0-5,3.4-9,7.6-9H2048c4.2,0,7.6,4,7.6,9h0C2055.6,479.2,2052.2,483.2,2048,483.2Z"/><path class="cls-18" d="M1821.4,402.6H1716.5c-4.2,0-7.6-4-7.6-9h0c0-5,3.4-9,7.6-9h104.9c4.2,0,7.6,4,7.6,9h0C1829.1,398.6,1825.7,402.6,1821.4,402.6Z"/><path class="cls-18" d="M2005.7,402.6h-105c-4.2,0-7.6-4-7.6-9h0c0-5,3.4-9,7.6-9h105c4.2,0,7.6,4,7.6,9h0C2013.3,398.6,2009.9,402.6,2005.7,402.6Z"/><path class="cls-18" d="M1539,563.8H1402.6c-4.2,0-7.6-4-7.6-9h0c0-5,3.4-9,7.6-9H1539c4.2,0,7.6,4,7.6,9h0C1546.6,559.8,1543.2,563.8,1539,563.8Z"/><path class="cls-7" d="M1821.8,563.8H1614.2c-4.2,0-7.6-4-7.6-9h0c0-5,3.4-9,7.6-9h207.6c4.2,0,7.6,4,7.6,9h0C1829.5,559.8,1826.1,563.8,1821.8,563.8Z"/><path class="cls-18" d="M1973.3,563.8h-77.6c-4.2,0-7.6-4-7.6-9h0c0-5,3.4-9,7.6-9h77.5c4.2,0,7.6,4,7.6,9h0C1980.9,559.8,1977.5,563.8,1973.3,563.8Z"/><path class="cls-18" d="M1667.4,644.4H1545.7c-4.2,0-7.6-4-7.6-9h0c0-5,3.4-9,7.6-9h121.6c4.2,0,7.6,4,7.6,9h0C1675,640.4,1671.6,644.4,1667.4,644.4Z"/><path class="cls-18" d="M1958.4,644.4H1750.7c-4.2,0-7.6-4-7.6-9h0c0-5,3.4-9,7.6-9h207.6c4.2,0,7.6,4,7.6,9h0C1966,640.4,1962.6,644.4,1958.4,644.4Z"/><path class="cls-18" d="M1891.8,725H1502.7c-4.2,0-7.6-4-7.6-9h0c0-5,3.4-9,7.6-9h389.1c4.2,0,7.6,4,7.6,9h0C1899.5,721,1896,725,1891.8,725Z"/><path class="cls-18" d="M2182.8,725h-235c-4.2,0-7.6-4-7.6-9h0c0-5,3.4-9,7.6-9h235c4.2,0,7.6,4,7.6,9h0C2190.5,721,2187,725,2182.8,725Z"/><path class="cls-18" d="M1607.7,805.6H1400c-4.2,0-7.6-4-7.6-9h0c0-5,3.4-9,7.6-9h207.7c4.2,0,7.6,4,7.6,9h0C1615.3,801.5,1611.9,805.6,1607.7,805.6Z"/><path class="cls-7" d="M1858.9,805.6H1651.3c-4.2,0-7.6-4-7.6-9h0c0-5,3.4-9,7.6-9h207.6c4.2,0,7.6,4,7.6,9h0C1866.6,801.5,1863.2,805.6,1858.9,805.6Z"/><path class="cls-18" d="M1878.9,886.2H1563.5c-4.2,0-7.6-4-7.6-9h0c0-5,3.4-9,7.6-9h315.4c4.2,0,7.6,4,7.6,9h0C1886.6,882.1,1883.1,886.2,1878.9,886.2Z"/><rect class="cls-18" x="1290.9" y="223.5" width="15.3" height="18"/><rect class="cls-18" x="1290.9" y="304.1" width="15.3" height="18"/><rect class="cls-18" x="1290.9" y="384.6" width="15.3" height="18"/><rect class="cls-18" x="1290.9" y="465.2" width="15.3" height="18"/><rect class="cls-18" x="1290.9" y="545.8" width="15.3" height="18"/><rect class="cls-18" x="1290.9" y="626.4" width="15.3" height="18"/><rect class="cls-18" x="1290.9" y="666.7" width="15.3" height="18"/><rect class="cls-18" x="1290.9" y="707" width="15.3" height="18"/><rect class="cls-18" x="1290.9" y="747.3" width="15.3" height="18"/><rect class="cls-18" x="1290.9" y="787.6" width="15.3" height="18"/><rect class="cls-18" x="1290.9" y="827.9" width="15.3" height="18"/><rect class="cls-18" x="1290.9" y="868.2" width="15.3" height="18"/><rect class="cls-18" x="1290.9" y="908.5" width="15.3" height="18"/><path class="cls-18" d="M2102.5,922.8,2046.8,895a5.84,5.84,0,0,1-2.9-5.1v-6a5.56,5.56,0,0,1,2.9-5.1l55.7-27.8c3.1-1.5,6.5,1.1,6.5,5.1v2.1a5.45,5.45,0,0,1-2.9,5.1l-38.2,18.5c-3.9,1.9-3.9,8.3,0,10.2l38.2,18.5a5.64,5.64,0,0,1,2.9,5.1v2.1C2109,921.7,2105.6,924.4,2102.5,922.8Z"/><path class="cls-18" d="M2153,835.3,2127.3,940a4.8,4.8,0,0,1-4.5,4h0c-3.1,0-5.4-3.5-4.5-7L2144,832.3a4.8,4.8,0,0,1,4.5-4h0C2151.6,828.3,2153.9,831.8,2153,835.3Z"/><path class="cls-18" d="M2224.5,895l-55.7,27.8c-3.1,1.5-6.5-1.1-6.5-5.1v-2.1a5.45,5.45,0,0,1,2.9-5.1l38.3-18.5c3.9-1.9,3.9-8.3,0-10.2l-38.3-18.5a5.64,5.64,0,0,1-2.9-5.1v-2.1c0-3.9,3.4-6.6,6.5-5.1l55.7,27.8a5.55,5.55,0,0,1,2.8,5.1v6A5.55,5.55,0,0,1,2224.5,895Z"/><path class="cls-2" d="M1392.5,1571.8v133.7h44.1V1585.2A66,66,0,0,0,1392.5,1571.8Z"/><g class="cls-19"><path class="cls-20" d="M1382.3,1597s38,6.7,59.7,47.1,39.8-4.7,35.6-23.2-2-37.4-13.2-51.6-32.6-34.4-61.7-26.7-33,3.4-31.4,20.9,4.4,36.1,4.4,36.1"/></g><ellipse class="cls-21" cx="1254.1" cy="1915.6" rx="34.1" ry="37.6"/><path class="cls-21" d="M1450.7,1949.4c0,20.8-15.3,37.6-34.1,37.6s-34.1-16.9-34.1-37.6,15.3-37.6,34.1-37.6S1450.7,1928.6,1450.7,1949.4Z"/><path class="cls-21" d="M1611.6,1915.6c0,20.8-15.3,37.6-34.1,37.6s-34.1-16.9-34.1-37.6,15.3-37.6,34.1-37.6S1611.6,1894.8,1611.6,1915.6Z"/><path class="cls-22" d="M1384.5,1704.8s29.7-12.1,61.3,0l.9,42.6L1601.4,1875v30.3h-45.7l-.6-23.3-118.4-92.6.7,115.9-5.9,27.2h-30.8l-5.7-26.9-1.3-112.9-117.8,88.4-.5,22.6-42.3.3v-32.1L1384.8,1748v-25.6Z"/><path class="cls-18" d="M1494.8,915s50.3-17.8,125.2,0,119.6,92.4,122.1,152.7-24.5,430.7-123.6,524.3-349.1,47.5-400.2,28-88.8-96.4-88.8-96.4l256.1-182.2,13.6-390.9Z"/><g class="cls-23"><path class="cls-24" d="M1504.4,896.8s47.5,8.1,72.7,66.9,19.8,146.4,13.2,260.1,26,116.5,29.7,195.7-14.9,153.8-119.3,189.2-192,51.3-326.1,29.9l-99.7-113.7,48.5-221.8s90.2-90.5,101.5-158.5,98.8-237.4,134.3-262.1S1504.4,896.8,1504.4,896.8Z"/></g><path class="cls-25" d="M1327.8,895.9l-6.1-.5s-62.4,1.9-82,26.1-33,137.9-33,137.9l38.7,291.2s23.3,41,141.6,41,164.9-48.4,164.9-48.4l-11-136.3s19.8-30.9,23.1-64-29.4-209.7-64.8-235.3-113.7-14.5-113.7-14.5Z"/><g class="cls-26"><path class="cls-27" d="M1464.3,950.9s-16.3,19.1-10.3,54,31.7,83.9,21.9,102.5-28.6,49.7-24.5,57,12.3,11.3,12.3,11.3l53.4,33.8s14.1,3.9,23.8-2.8h0l6.6,1.9-157,84.6-18-26.1s57.1-61.7,62.2-82.7,1.4-22.5,13.1-43.4,23.3-34.4,15.8-57.5-21.2-60.6-18.4-82.7S1449.6,965.1,1464.3,950.9Z"/><path class="cls-27" d="M1257.5,953.5s-9.8,41.2.6,91.4l37.2,180,6.4-3.3C1301.6,1221.7,1257.5,1000.3,1257.5,953.5Z"/></g><path class="cls-25" d="M1115.7,1902.3s-3.7,30-3.7,54.1,16.5,43.3,8.1,65.9-77.2,23.3-126.3,29.1-92.4-4.7-86.2-41.6,85.9-22.3,117.1-68.1,21.8-53.3,21.8-53.3Z"/><path class="cls-25" d="M1378.5,1925.5s-3.7,30-3.6,54.1,16.5,43.3,8.1,65.9-77.3,23.3-126.3,29.1-92.4-4.7-86.2-41.5,85.9-22.4,117.1-68.1,21.8-53.3,21.8-53.3Z"/><path class="cls-28" d="M1252.5,1345.3l-7.2,5.3s-212.8,68.7-232.6,133.3,11.8,435.2,11.8,435.2,57.8,45.6,109-4.7l4.2-346.2,215-79.7,62.2,1.9s74.6-53.1,79.2-56.8,63.4-45.7,63.4-45.7l-36.3-59.6Z"/><g class="cls-29"><path class="cls-30" d="M1006.1,1445.3s86.4,19.5,102.2,126.4,34.5,185.8,34.5,185.8l44-157.2,153.6-82.4,95.4-75,48.2-110.7-76.4-40.2-232,19.6L1053.5,1375Z"/></g><path class="cls-28" d="M1403.7,1379.5s-112.5,96-121.9,166.8,0,383,0,383,72.5,48.4,121.9,0c0,0-20.5-285.1,23.3-333.6s121.1-92.3,130.5-164-5.6-88.5-5.6-88.5l-74.7-12.1Z"/><g class="cls-31"><path class="cls-30" d="M1262.1,1689.8c2.8-8.4,41.9-167.6,204.1-130.6h0l50.9-24.4s66.7-55.3,71.6-62.1.7-63.4,1.6-70.8,0-90.1,0-90.1l-321-7.5,4.3,114.9-11.5,175.1v95.5Z"/></g><path class="cls-21" d="M546.5,1346.6v745.1a5.34,5.34,0,0,1-5.3,5.3H526.7a5.34,5.34,0,0,1-5.3-5.3V1346.6a5.34,5.34,0,0,1,5.3-5.3h14.5A5.34,5.34,0,0,1,546.5,1346.6Z"/><path class="cls-21" d="M1784,1346.6v745.1a5.34,5.34,0,0,1-5.3,5.3h-14.5a5.34,5.34,0,0,1-5.3-5.3V1346.6a5.34,5.34,0,0,1,5.3-5.3h14.5A5.34,5.34,0,0,1,1784,1346.6Z"/><path class="cls-21" d="M809.8,1334.9l45.9,663.5a5,5,0,0,1-4.7,5.4l-15.1,1a5,5,0,0,1-5.4-4.7l-45.9-663.5a5,5,0,0,1,4.7-5.4l15.1-1A5,5,0,0,1,809.8,1334.9Z"/><path class="cls-21" d="M2007.4,1334.9l45.9,663.5a5,5,0,0,1-4.7,5.4l-15.1,1a5,5,0,0,1-5.4-4.7l-45.9-663.5a5,5,0,0,1,4.7-5.4l15.1-1A5,5,0,0,1,2007.4,1334.9Z"/><path class="cls-22" d="M481.9,1316.1H2042.4a10.93,10.93,0,0,1,10.9,10.9v28.6a10.93,10.93,0,0,1-10.9,10.9H481.9a10.93,10.93,0,0,1-10.9-10.9V1327A10.93,10.93,0,0,1,481.9,1316.1Z"/><rect class="cls-25" x="1611.3" y="1197.3" width="326.6" height="39.6"/><rect class="cls-7" x="1619.9" y="1236.9" width="326.6" height="39.6"/><rect class="cls-32" x="1604.1" y="1276.5" width="326.6" height="39.6"/><path class="cls-33" d="M833.7,826.4l17.8,24.2c8.1-17.3,25.2-25,35.9-28.3l-24.6-18.7a28.87,28.87,0,0,0-9.6,1.6c-6.6,2.2-15,7.3-19.1,19.5C834,825.3,833.8,825.8,833.7,826.4Z"/><path class="cls-34" d="M590.4,1032.2a24,24,0,0,0,18.6,23.4,23.49,23.49,0,0,0,10.1.1,24,24,0,1,0-28.7-23.5Z"/><path class="cls-34" d="M805.7,801.2a24.21,24.21,0,0,0,28.6,23.6c4.1-12.2,12.5-17.3,19.1-19.5a26.93,26.93,0,0,0,.3-4,24,24,0,0,0-48-.1Z"/><path class="cls-33" d="M628.6,1012.9a24.61,24.61,0,0,1,6.6,7.4L738.2,907l21.5-23.7,31.7-34.9L816.3,821a24.21,24.21,0,0,1-6.8-7.1l-29.8,32.7-21,23.1-22,24.2Z"/><path class="cls-34" d="M577.8,1296.2v-.5c79.6-29.4,146.9-2.4,152.4-.2C714.1,1299.9,654.7,1312.9,577.8,1296.2Z"/><path class="cls-33" d="M609,1055.6l35.8,205.1,4.8,27.3.5,2.9,9.7-1.8-.2-1.1-4.9-28L619,1055.7a24.16,24.16,0,0,1-4.7.5A23.28,23.28,0,0,1,609,1055.6Z"/><path class="cls-34" d="M848,862.9l24.3,54.5,4.2,9.4,36.7-31.1L946.3,865l19.9-18.4-6.7-5.8h0l-.2-.1-.2-.1-61.1-26a62.29,62.29,0,0,0-9.5,2.2c-10.8,3.3-27.8,11-35.9,28.3a64.35,64.35,0,0,0-2.4,6.1A51.44,51.44,0,0,0,848,862.9Z"/><path class="cls-35" d="M940.6,907c24.3-22.8,34.9-50.9,23.8-62.8s-39.8-2.9-64.1,19.9-34.9,50.9-23.8,62.8S916.3,929.8,940.6,907Z"/><rect class="cls-35" x="577.8" y="1296.2" width="152.4" height="19.9"/><path class="cls-21" d="M2138.1,1797.2a13.37,13.37,0,0,1-1,5.2c-7.7,19.5-58.2,34.6-119.4,34.6-61.9,0-112.9-15.4-119.6-35.3l-.8-4.5c0-22,53.9-39.8,120.4-39.8S2138.1,1775.3,2138.1,1797.2Z"/><path class="cls-22" d="M2137.1,1802.4l-41.5,244.5c-75.7,43.1-155.8,0-155.8,0L1898,1801.7c6.7,19.9,57.7,35.3,119.6,35.3,61.3,0,111.8-15.1,119.5-34.6Z"/><path class="cls-36" d="M1320,833s10.2,21.4,1.8,62.4c0,0,6.5,20,29.4,19.6s34.5-22,34.5-22-10.9-17.5-6.4-54.6l.3-13.8L1350.7,805Z"/><g class="cls-37"><path class="cls-38" d="M1318.6,860s40.1-7.9,74.9,19.4c0,0,2.3-59,3.9-61s-64.5-31.5-64.5-31.5-23.3,13.9-23.9,25S1318.6,860,1318.6,860Z"/></g><path class="cls-28" d="M1254.3,720.4s-59.3-2.1-26.1-121.7c0,0,30.4,22.9,84.5,26s114.3,1.9,121.8,98.2c3.1,62.1-55.3,115.5-55.3,115.5l-52.8-33.5Z"/><g class="cls-39"><path class="cls-40" d="M1211.3,679.2s.9,6.9,27,0,59.2-17.8,102.5,10.2,59.4,86.3,93.8,79.3l-25.8,55L1352.7,860s-89.4-25.9-92.9-35.6-29-69.8-32.7-79.1-9-32.1-9-32.1Z"/></g><path class="cls-36" d="M1251.9,705.2s-16.2,135.4,33.5,143.2,82.6-49.1,82.6-49.1,24.9-3.1,22.4-29.5-22-16.5-22-16.5-22.1-9.6-21.7-32.9c0,0-26.7,6.2-38.8-18.3,0,0-20.2,14-40.7-7.5C1267.1,694.6,1261.8,707.4,1251.9,705.2Z"/><g class="cls-41"><path class="cls-38" d="M1242.5,722.8a552.44,552.44,0,0,1,61.3,9.1c30.1,6.5,45.9,50.3,77.8,45s18.2-22.7,18.2-22.7L1370,713.8l-69.7-22.6-42.2-7-17.2,14Z"/></g><path class="cls-36" d="M1463.7,1175.7s-51,53.7-89.8,67.4-57.4-.2-72.9,31.3l-3.1,6.6s55.9,18,96.3-1.9l123-69.6Z"/><rect class="cls-42" x="1006.1" y="1282.6" width="460" height="33.6"/><polygon class="cls-2" points="1344 1316.1 943.3 1316.1 885.3 1035.3 1286 1035.3 1344 1316.1"/><polygon class="cls-42" points="1314 1316.1 913.3 1316.1 855.3 1035.3 1256 1035.3 1314 1316.1"/><rect class="cls-8" x="2048.4" y="1168.4" width="199.7" height="88.3"/><rect class="cls-6" x="2129.1" y="1256.7" width="199.7" height="88.3"/><ellipse class="cls-3" cx="1068.74" cy="1152.28" rx="37.7" ry="41.5" transform="translate(-151.19 161.46) rotate(-8.07)"/></g></g></g></svg>