<svg xmlns="http://www.w3.org/2000/svg" viewBox="0 0 24.51 21.96"><defs><style>.cls-1,.cls-3{fill:#e83434;}.cls-1,.cls-2{fill-rule:evenodd;}.cls-2{fill:#fff;}</style></defs><title>Asset 1a</title><g id="Layer_2" data-name="Layer 2"><g id="Layer_1-2" data-name="Layer 1"><path class="cls-1" d="M12.2,1.82v6h-4v-6H.05L0,22H8.1V15.88h4l.05,6h8.1V1.82Zm6,18.08h-4V15.84a2,2,0,0,0-.61-1.34,2,2,0,0,0-1.35-.58H8.15a2,2,0,0,0-1.39.56,2.09,2.09,0,0,0-.65,1.36V20H2.06V3.83H6.11v6h9.05A3.44,3.44,0,0,1,18.21,13Z"/><path class="cls-2" d="M18.21,13V19.9h-4V15.84a2,2,0,0,0-2-1.92H8.15a2.07,2.07,0,0,0-2,1.92V20H2.06V3.83H6.11v6h9.05A3.44,3.44,0,0,1,18.21,13Z"/><path class="cls-3" d="M21,1.74a1.73,1.73,0,1,1,3.46,0A1.72,1.72,0,0,1,24,3a1.82,1.82,0,0,1-1.23.51A1.78,1.78,0,0,1,21.55,3,1.73,1.73,0,0,1,21,1.74Zm.13,0a1.55,1.55,0,0,0,.47,1.14,1.61,1.61,0,0,0,2.21.06h-.34a.24.24,0,0,1,0-.08,1.23,1.23,0,0,1,0-.19l0-.4a.34.34,0,0,0,0-.18A.32.32,0,0,0,23.27,2a.7.7,0,0,0-.29,0h-.73v1h-.33V.54H23a1,1,0,0,1,.46.08.64.64,0,0,1,.26.23.57.57,0,0,1,.08.34.7.7,0,0,1-.09.35.68.68,0,0,1-.26.22.54.54,0,0,1,.22.15.64.64,0,0,1,.08.3v.33a1.5,1.5,0,0,0,0,.2l0,.08a.13.13,0,0,0,.07.06,1.54,1.54,0,0,0,.35-.52,1.67,1.67,0,0,0,.12-.62,1.61,1.61,0,1,0-3.21,0Zm1.08-.1H23a.77.77,0,0,0,.36-.09.42.42,0,0,0,.11-.15.37.37,0,0,0,0-.18.38.38,0,0,0,0-.21A.36.36,0,0,0,23.3.86a.57.57,0,0,0-.26,0h-.79Z"/></g></g></svg>