<?xml version="1.0" encoding="utf-8"?>
<!-- Generator: Adobe Illustrator 22.0.0, SVG Export Plug-In . SVG Version: 6.00 Build 0)  -->
<svg version="1.1" xmlns="http://www.w3.org/2000/svg" xmlns:xlink="http://www.w3.org/1999/xlink" x="0px" y="0px"
	 viewBox="0 0 24 24" style="enable-background:new 0 0 24 24;" xml:space="preserve">
<style type="text/css">
	.st0{display:none;}
	.st1{opacity:0.1;}
	.st2{display:inline;}
	.st3{fill:none;stroke:#999999;stroke-width:0.12;stroke-miterlimit:10;}
	.st4{display:inline;opacity:0.1;}
	.st5{fill:none;stroke:#000000;stroke-width:0.14;stroke-miterlimit:10;}
	.st6{fill:none;stroke:#000000;stroke-width:0.12;stroke-miterlimit:10;}
	.st7{display:none;opacity:0.25;}
	.st8{display:inline;fill:none;stroke:#000000;stroke-width:0.14;stroke-miterlimit:10;}
	.st9{display:inline;fill:none;stroke:#000000;stroke-width:0.12;stroke-miterlimit:10;}
	.st10{fill:#FFA500;}
</style>
<g id="grid_2_" class="st0">
	<g id="grid_1_" class="st1">
		<g id="line_3_" class="st2">
			<line class="st3" x1="16.9" y1="-8.5" x2="-8.5" y2="16.9"/>
			<line class="st3" x1="16.2" y1="-9.2" x2="-9.2" y2="16.2"/>
			<line class="st3" x1="15.5" y1="-9.9" x2="-9.9" y2="15.5"/>
			<line class="st3" x1="14.8" y1="-10.6" x2="-10.6" y2="14.8"/>
			<line class="st3" x1="14.1" y1="-11.3" x2="-11.3" y2="14.1"/>
			<line class="st3" x1="13.4" y1="-12" x2="-12" y2="13.4"/>
			<line class="st3" x1="12.7" y1="-12.7" x2="-12.7" y2="12.7"/>
			<line class="st3" x1="12" y1="-13.5" x2="-13.5" y2="12"/>
			<path class="st3" d="M17.7-7.8L-7.8,17.7L17.7-7.8z"/>
			<path class="st3" d="M18.4-7.1L-7.1,18.4L18.4-7.1z"/>
			<path class="st3" d="M19.1-6.4L-6.4,19.1L19.1-6.4z"/>
			<path class="st3" d="M19.8-5.7L-5.7,19.8L19.8-5.7z"/>
			<path class="st3" d="M20.5-5L-5,20.5L20.5-5z"/>
			<path class="st3" d="M21.2-4.3L-4.3,21.2L21.2-4.3z"/>
			<path class="st3" d="M21.9-3.6L-3.6,21.9L21.9-3.6z"/>
			<path class="st3" d="M22.6-2.8L-2.8,22.6L22.6-2.8z"/>
			<path class="st3" d="M23.3-2.1L-2.1,23.3L23.3-2.1z"/>
			<path class="st3" d="M24-1.4L-1.4,24L24-1.4z"/>
			<path class="st3" d="M24.7-0.7L-0.7,24.7L24.7-0.7z"/>
			<path class="st3" d="M25.4,0L0,25.4L25.4,0z"/>
			<path class="st3" d="M26.1,0.7L0.7,26.1L26.1,0.7z"/>
			<path class="st3" d="M26.8,1.4L1.4,26.8L26.8,1.4z"/>
			<path class="st3" d="M27.6,2.1L2.1,27.6L27.6,2.1z"/>
			<path class="st3" d="M28.3,2.8L2.8,28.3L28.3,2.8z"/>
			<path class="st3" d="M29,3.5L3.5,29L29,3.5z"/>
			<path class="st3" d="M29.7,4.2L4.2,29.7L29.7,4.2z"/>
			<path class="st3" d="M30.4,4.9L4.9,30.4L30.4,4.9z"/>
			<path class="st3" d="M31.1,5.6L5.6,31.1L31.1,5.6z"/>
			<path class="st3" d="M31.8,6.3L6.3,31.8L31.8,6.3z"/>
			<path class="st3" d="M32.5,7.1L7.1,32.5L32.5,7.1z"/>
			<path class="st3" d="M33.2,7.8L7.8,33.2L33.2,7.8z"/>
			<path class="st3" d="M33.9,8.5L8.5,33.9L33.9,8.5z"/>
			<path class="st3" d="M34.6,9.2L9.2,34.6L34.6,9.2z"/>
			<path class="st3" d="M35.3,9.9L9.9,35.3L35.3,9.9z"/>
			<path class="st3" d="M35.3,9.9L9.9,35.3L35.3,9.9z"/>
			<path class="st3" d="M36,10.6L10.6,36L36,10.6z"/>
			<path class="st3" d="M36.7,11.3L11.3,36.7L36.7,11.3z"/>
			<path class="st3" d="M37.5,12L12,37.5L37.5,12z"/>
		</g>
		<g id="line_2_" class="st2">
			<line class="st3" x1="7.8" y1="-9.2" x2="33.2" y2="16.2"/>
			<line class="st3" x1="8.5" y1="-9.9" x2="33.9" y2="15.5"/>
			<line class="st3" x1="9.2" y1="-10.6" x2="34.6" y2="14.8"/>
			<line class="st3" x1="9.9" y1="-11.3" x2="35.3" y2="14.1"/>
			<line class="st3" x1="10.6" y1="-12" x2="36" y2="13.4"/>
			<line class="st3" x1="11.3" y1="-12.7" x2="36.7" y2="12.7"/>
			<line class="st3" x1="12" y1="-13.5" x2="37.5" y2="12"/>
			<line class="st3" x1="7.1" y1="-8.5" x2="32.5" y2="16.9"/>
			<line class="st3" x1="6.3" y1="-7.8" x2="31.8" y2="17.7"/>
			<line class="st3" x1="5.6" y1="-7.1" x2="31.1" y2="18.4"/>
			<line class="st3" x1="4.9" y1="-6.4" x2="30.4" y2="19.1"/>
			<line class="st3" x1="4.2" y1="-5.7" x2="29.7" y2="19.8"/>
			<line class="st3" x1="3.5" y1="-5" x2="29" y2="20.5"/>
			<line class="st3" x1="2.8" y1="-4.3" x2="28.3" y2="21.2"/>
			<line class="st3" x1="2.1" y1="-3.6" x2="27.6" y2="21.9"/>
			<line class="st3" x1="1.4" y1="-2.8" x2="26.8" y2="22.6"/>
			<line class="st3" x1="0.7" y1="-2.1" x2="26.1" y2="23.3"/>
			<line class="st3" x1="0" y1="-1.4" x2="25.4" y2="24"/>
			<line class="st3" x1="-0.7" y1="-0.7" x2="24.7" y2="24.7"/>
			<line class="st3" x1="-1.4" y1="0" x2="24" y2="25.4"/>
			<line class="st3" x1="-2.1" y1="0.7" x2="23.3" y2="26.1"/>
			<line class="st3" x1="-2.8" y1="1.4" x2="22.6" y2="26.8"/>
			<line class="st3" x1="-3.6" y1="2.1" x2="21.9" y2="27.6"/>
			<line class="st3" x1="-4.3" y1="2.8" x2="21.2" y2="28.3"/>
			<line class="st3" x1="-5" y1="3.5" x2="20.5" y2="29"/>
			<line class="st3" x1="-5.7" y1="4.2" x2="19.8" y2="29.7"/>
			<line class="st3" x1="-6.4" y1="4.9" x2="19.1" y2="30.4"/>
			<line class="st3" x1="-7.1" y1="5.6" x2="18.4" y2="31.1"/>
			<line class="st3" x1="-7.8" y1="6.3" x2="17.7" y2="31.8"/>
			<line class="st3" x1="-8.5" y1="7.1" x2="16.9" y2="32.5"/>
			<line class="st3" x1="-9.2" y1="7.8" x2="16.2" y2="33.2"/>
			<line class="st3" x1="-9.9" y1="8.5" x2="15.5" y2="33.9"/>
			<line class="st3" x1="-10.6" y1="9.2" x2="14.8" y2="34.6"/>
			<line class="st3" x1="-11.3" y1="9.9" x2="14.1" y2="35.3"/>
			<line class="st3" x1="-12" y1="10.6" x2="13.4" y2="36"/>
			<line class="st3" x1="-12.7" y1="11.3" x2="12.7" y2="36.7"/>
			<line class="st3" x1="-13.5" y1="12" x2="12" y2="37.5"/>
		</g>
	</g>
	<g id="grid" class="st4">
		<g id="line_1_">
			<line class="st3" x1="1" y1="0" x2="1" y2="24"/>
			<line class="st3" x1="0" y1="0" x2="0" y2="24"/>
			<path class="st5" d="M2,0v24V0z"/>
			<path class="st3" d="M3,0v24V0z"/>
			<path class="st5" d="M4,0v24V0z"/>
			<path class="st3" d="M5,0v24V0z"/>
			<path class="st3" d="M6,0v24V0z"/>
			<path class="st3" d="M7,0v24V0z"/>
			<path class="st5" d="M8,0v24V0z"/>
			<path class="st3" d="M9,0v24V0z"/>
			<path class="st3" d="M10,0v24V0z"/>
			<path class="st3" d="M11,0v24V0z"/>
			<path class="st5" d="M12,0v24V0z"/>
			<path class="st3" d="M13,0v24V0z"/>
			<path class="st3" d="M14,0v24V0z"/>
			<path class="st3" d="M15,0v24V0z"/>
			<path class="st5" d="M16,0v24V0z"/>
			<path class="st3" d="M17,0v24V0z"/>
			<path class="st3" d="M18,0v24V0z"/>
			<path class="st3" d="M19,0v24V0z"/>
			<path class="st5" d="M20,0v24V0z"/>
			<path class="st3" d="M21,0v24V0z"/>
			<path class="st5" d="M22,0v24V0z"/>
			<path class="st3" d="M23,0v24V0z"/>
			<path class="st3" d="M24,0v24V0z"/>
		</g>
		<g id="line">
			<line class="st3" x1="0" y1="0" x2="24" y2="0"/>
			<line class="st3" x1="0" y1="1" x2="24" y2="1"/>
			<line class="st5" x1="0" y1="2" x2="24" y2="2"/>
			<line class="st3" x1="0" y1="3" x2="24" y2="3"/>
			<line class="st5" x1="0" y1="4" x2="24" y2="4"/>
			<line class="st3" x1="0" y1="5" x2="24" y2="5"/>
			<line class="st3" x1="0" y1="6" x2="24" y2="6"/>
			<line class="st3" x1="0" y1="7" x2="24" y2="7"/>
			<line class="st5" x1="0" y1="8" x2="24" y2="8"/>
			<line class="st3" x1="0" y1="9" x2="24" y2="9"/>
			<line class="st3" x1="0" y1="10" x2="24" y2="10"/>
			<line class="st3" x1="0" y1="11" x2="24" y2="11"/>
			<line class="st5" x1="0" y1="12" x2="24" y2="12"/>
			<line class="st3" x1="0" y1="13" x2="24" y2="13"/>
			<line class="st3" x1="0" y1="14" x2="24" y2="14"/>
			<line class="st3" x1="0" y1="15" x2="24" y2="15"/>
			<line class="st3" x1="0" y1="16" x2="24" y2="16"/>
			<line class="st6" x1="0" y1="17" x2="24" y2="17"/>
			<line class="st3" x1="0" y1="18" x2="24" y2="18"/>
			<line class="st3" x1="0" y1="19" x2="24" y2="19"/>
			<line class="st5" x1="0" y1="20" x2="24" y2="20"/>
			<line class="st3" x1="0" y1="21" x2="24" y2="21"/>
			<line class="st5" x1="0" y1="22" x2="24" y2="22"/>
			<line class="st3" x1="0" y1="23" x2="24" y2="23"/>
			<line class="st3" x1="0" y1="24" x2="24" y2="24"/>
		</g>
	</g>
</g>
<g id="key_x5F_line" class="st7">
	<path class="st8" d="M18,22H6c-1.1,0-2-0.9-2-2V4c0-1.1,0.9-2,2-2h12c1.1,0,2,0.9,2,2v16C20,21.1,19.1,22,18,22z"/>
	<path class="st8" d="M22,6v12c0,1.1-0.9,2-2,2H4c-1.1,0-2-0.9-2-2V6c0-1.1,0.9-2,2-2h16C21.1,4,22,4.9,22,6z"/>
	<path class="st8" d="M21,5v14c0,1.1-0.9,2-2,2H5c-1.1,0-2-0.9-2-2V5c0-1.1,0.9-2,2-2h14C20.1,3,21,3.9,21,5z"/>
	<circle class="st8" cx="12" cy="12" r="5"/>
	<circle class="st8" cx="12" cy="12" r="10"/>
	<line class="st8" x1="0" y1="0" x2="24" y2="24"/>
	<line class="st8" x1="24" y1="0" x2="0" y2="24"/>
</g>
<g id="golden_x5F_ratio" class="st0">
	<rect x="-14" class="st9" width="3" height="3"/>
	<rect x="-11" y="2" class="st9" width="1" height="1"/>
	<rect x="-10" y="2" class="st9" width="1" height="1"/>
	<rect x="-11" y="0" class="st9" width="2" height="2"/>
	<rect x="-14" y="3" class="st9" width="5" height="5"/>
	<rect x="-9" class="st9" width="8" height="8"/>
	<rect x="-14" y="8" class="st9" width="13" height="13"/>
	<circle class="st9" cx="-5" cy="4" r="4"/>
	<circle class="st9" cx="-7.5" cy="14.5" r="6.5"/>
	<circle class="st9" cx="-11.5" cy="5.5" r="2.5"/>
	<circle class="st9" cx="-12.5" cy="1.5" r="1.5"/>
	<circle class="st9" cx="-10" cy="1" r="1"/>
	<circle class="st9" cx="-10.5" cy="2.5" r="0.5"/>
	<circle class="st9" cx="-9.5" cy="2.5" r="0.5"/>
</g>
<g id="Layer_10" class="st0">
	<rect x="2" y="4" class="st2" width="4" height="2"/>
	<rect x="18" y="11" class="st2" width="4" height="2"/>
	<rect x="2" y="18" class="st2" width="4" height="2"/>
	<polygon class="st2" points="22,4 22,6 10,6 10,8 8,8 8,2 10,2 10,4 	"/>
	<polygon class="st2" points="16,9 16,15 14,15 14,13 2,13 2,11 14,11 14,9 	"/>
	<polygon class="st2" points="22,18 22,20 10,20 10,22 8,22 8,16 10,16 10,18 	"/>
</g>
<g id="Layer_11">
	<path class="st10" d="M22,4c0,1.1-0.9,2-2,2h0c-1.1,0-2-0.9-2-2v0c0-1.1,0.9-2,2-2S22,2.9,22,4z"/>
	<path class="st10" d="M22,10.5V12c0,3.3-1.6,6.2-4,8v0c-1.7,1.3-3.8,2-6,2C6.5,22,2,17.5,2,12V2.5C2,2.2,2.2,2,2.5,2h11
		C13.8,2,14,2.2,14,2.5V12c0,1.1-0.9,2-2,2s-2-0.9-2-2V6H6v6c0,3.3,2.7,6,6,6s6-2.7,6-6v-1.5c0-0.3,0.2-0.5,0.5-0.5h3
		C21.8,10,22,10.2,22,10.5z"/>
</g>
</svg>
