<svg xmlns="http://www.w3.org/2000/svg" viewBox="0 0 162.28 53.31">
	<defs>
		<style>
			.cls-1 {
				fill: #369;
				fill-rule: evenodd;
			}
		</style>
	</defs>
	<title>Kong</title>
	<g id="Layer_2" data-name="Layer 2">
		<g id="Layer_1-2" data-name="Layer 1">
			<path class="cls-1" d="M148.87,35.08h7.6V23.42h-7.6Zm7.58-16.24h5.83V40.53c0,3.6-.38,4.21-1.33,5.19-.76.79-2,1.17-4.09,1.17h-8.54L145.69,44V42.73h10.77v-3h-7.35c-2.24,0-3.36-.42-4.31-1.33-1.21-1.25-1.7-4-1.7-9.1s.6-7.95,1.85-9.24c.95-.91,2.16-1.29,4.24-1.29l4.36,0,2.92,2.63Zm-23.56,6.59V23.5h-7.12V39.66H120V18.84h5.77v2.65l2.92-2.64h1.69a8,8,0,0,1,.86,0h2.54A4.91,4.91,0,0,1,137.47,20c.87.83,1.22,1.93,1.22,5V39.68h-5.8V25.43ZM102.57,39.66c-2.12,0-3.22-.34-4.13-1.28-1.36-1.37-1.89-3.26-1.89-9.13s.53-7.76,1.89-9.16c.87-.91,2-1.25,4.13-1.25h7.08c2.12,0,3.22.34,4.13,1.25,1.36,1.4,1.89,3.26,1.89,9.16s-.53,7.76-1.89,9.13c-.91.94-2,1.28-4.13,1.28Zm-.26-4.58h7.59V23.42h-7.59Zm-14.81-22h6.89l-9.9,12.53L94.81,39.74H87.5l-7.85-11.1H77.78V39.74h-6.2V13.08h6.2V23.4h1.86Zm-68,30.81H30.36l5.63,7-1,2.39H21l.34-2.39-3.3-5.16ZM27.17,12.5h5.89L59.5,43.78l-2,9.51H46.11l.71-2.68L22.11,21.37ZM37.67,0,49.91,9.69l-1.56,1.62,2.12,3v3.18l-6.1,5L34.1,10.27h-6l2.4-4.44ZM12.14,30.54l8.6-7.37L32.17,36.73l-3.25,5H18.39L11.1,51.12,9.44,53.29H0V41.72L8.8,30.55Z" />
		</g>
	</g>
</svg>