<svg xmlns="http://www.w3.org/2000/svg" viewBox="0 0 28 28"><defs><style>.cls-1,.cls-2{fill:#0e141b;}.cls-1{fill-rule:evenodd;}</style></defs><title>Asset 1</title><g id="Layer_2" data-name="Layer 2"><g id="Layer_1-2" data-name="Layer 1"><path class="cls-1" d="M14,8.91a3.82,3.82,0,1,0-3.82-3.82A3.82,3.82,0,0,0,14,8.91Zm0,1.27A5.09,5.09,0,1,0,8.91,5.09,5.09,5.09,0,0,0,14,10.18Z"/><path class="cls-1" d="M14,19.09a3.82,3.82,0,1,1-3.82,3.82A3.82,3.82,0,0,1,14,19.09Zm0-1.27a5.09,5.09,0,1,1-5.09,5.09A5.09,5.09,0,0,1,14,17.82Z"/><path class="cls-2" d="M5.09,8.91A5.09,5.09,0,1,1,0,14,5.09,5.09,0,0,1,5.09,8.91Z"/><path class="cls-1" d="M19.09,14a3.82,3.82,0,1,1,3.82,3.82A3.82,3.82,0,0,1,19.09,14Zm-1.27,0a5.09,5.09,0,1,1,5.09,5.09A5.09,5.09,0,0,1,17.82,14Z"/></g></g></svg>