<svg xmlns="http://www.w3.org/2000/svg" viewBox="0 0 413.38 416.59"><defs><style>.cls-1{fill:#d34242;}.cls-2{fill:#c60034;}.cls-3{fill:#ef880a;}.cls-4{fill:#f4d44e;}</style></defs><g id="Layer_2" data-name="Layer 2"><g id="OBJECTS"><path class="cls-1" d="M63.29,350.16V15.37c0-4.52.08-9,0-13.57,0-.2,0-.39,0-.59a1.25,1.25,0,0,0-2.5,0V336c0,4.52-.09,9.05,0,13.57v.59a1.25,1.25,0,0,0,2.5,0Z"/><path class="cls-2" d="M48.67,352.24H43.35a1.09,1.09,0,0,0-1.11,1v43.27a1.12,1.12,0,0,0,2.22,0V354.31h3.1v28.75a1.12,1.12,0,0,0,2.22,0V353.27A1.09,1.09,0,0,0,48.67,352.24Z"/><path class="cls-2" d="M58.64,351.47H54.18a1.09,1.09,0,0,0-1.11,1v53.06a1.12,1.12,0,0,0,2.22,0v-52h2.24V377.8a1.12,1.12,0,0,0,2.22,0V352.51A1.09,1.09,0,0,0,58.64,351.47Z"/><path class="cls-2" d="M71.58,352.24H66.26a1.09,1.09,0,0,0-1.11,1v43.27a1.12,1.12,0,0,0,2.22,0V354.31h3.1v28.75a1.12,1.12,0,0,0,2.22,0V353.27A1.09,1.09,0,0,0,71.58,352.24Z"/><path class="cls-2" d="M81.55,351.47H77.09a1.09,1.09,0,0,0-1.1,1v53.06a1.11,1.11,0,0,0,2.21,0v-52h2.24V377.8a1.12,1.12,0,0,0,2.22,0V352.51A1.09,1.09,0,0,0,81.55,351.47Z"/><rect class="cls-3" x="38.03" y="324.02" width="48.01" height="29.44" rx="8.3"/><rect class="cls-3" x="39.85" y="227.86" width="44.38" height="33.05" rx="8.3"/><path class="cls-2" d="M40.66,232.29a8,8,0,0,0-.73,2.38H84.14a7.73,7.73,0,0,0-.72-2.38H40.66Z"/><path class="cls-2" d="M41.27,239.52H39.85v2.37H84.22v-2.37H41.27Z"/><rect class="cls-1" y="245.1" width="124.07" height="93.97" rx="45.81"/><path class="cls-4" d="M12.8,304.28a3.11,3.11,0,0,1,1.82,0,69.16,69.16,0,0,1-1.73-13.72C12.37,271.9,20,257.69,28.4,247.78c-1.17.43-2.32.91-3.44,1.44-7.75,10-14.34,23.76-13.84,41.35A70.63,70.63,0,0,0,12.8,304.28Z"/><path class="cls-4" d="M29.81,331.94a55,55,0,0,1-10.15-13.87,9.63,9.63,0,0,1-.91,2,57.72,57.72,0,0,0,15.58,18q1.91.4,3.87.63A55.56,55.56,0,0,1,29.81,331.94Z"/><path class="cls-4" d="M94.56,247.4c7.26,7.72,17.27,21.91,16.3,40.79-1.16,22.63-8.94,39.92-22.2,50.13,1.32-.25,2.62-.56,3.89-.92,12-10.72,19-27.56,20.08-49.12.9-17.52-7.33-31.11-14.44-39.47A37.87,37.87,0,0,0,94.56,247.4Z"/><path class="cls-4" d="M88.91,293c-.5,22.37-13.52,38-22.25,46h2.58c8.89-8.58,21-24.17,21.44-46a69.16,69.16,0,0,0-17.93-48h-2.4A67.49,67.49,0,0,1,88.91,293Z"/><rect class="cls-4" x="61.15" y="245.1" width="1.77" height="93.97"/><path class="cls-4" d="M42.85,319.22a112.86,112.86,0,0,1-6.13-14.33c-9-25.69,6-50.09,13.2-59.79H47.73C40.07,255.7,26,279.93,35,305.47a116.9,116.9,0,0,0,6.28,14.69Z"/><path class="cls-4" d="M54.2,335.91l-1.55,1c.68.75,1.35,1.47,2,2.12h2.66C56.33,338.15,55.28,337.1,54.2,335.91Z"/><path class="cls-4" d="M58.41,321.23a4.94,4.94,0,0,0-7.65-2.42h0l-.18.15-.09.07-1,.83.47-1.23a.3.3,0,0,0,0-.1l.09-.22v0a5,5,0,0,0,.27-1.6h0a4.94,4.94,0,1,0-9.6,1.6v0l.09.22a.3.3,0,0,0,0,.1l.47,1.23-1-.83-.09-.07-.18-.15h0a5,5,0,0,0-1.43-.74h0a4.93,4.93,0,1,0-3,9.38,4.68,4.68,0,0,0,1.6.24h.36l1.31-.07-1.1.71-.09.06-.2.13h0a4.82,4.82,0,0,0-1.16,1.14h0a4.94,4.94,0,0,0,8,5.8A5.17,5.17,0,0,0,45,334v0l.06-.23,0-.1.33-1.27.34,1.27,0,.1.06.23v0a5.17,5.17,0,0,0,.72,1.45h0a4.94,4.94,0,0,0,8-5.8,4.82,4.82,0,0,0-1.16-1.14h0l-.2-.13-.09-.06-1.1-.71,1.31.07h.36a4.68,4.68,0,0,0,1.6-.24h0A4.93,4.93,0,0,0,58.41,321.23Zm-13-5.74a.83.83,0,0,1,.83.83.84.84,0,0,1-.66.82v3.15a.17.17,0,1,1-.34,0v-3.15a.84.84,0,0,1-.66-.82A.83.83,0,0,1,45.39,315.49Zm-8.08,7.66h0a.85.85,0,0,1-1,.38.84.84,0,0,1,.52-1.59.85.85,0,0,1,.57.89h0l3,1a.17.17,0,0,1,.12.22.19.19,0,0,1-.17.12h-.05Zm5.1,6.83-1.84,2.53h0a.84.84,0,0,1,0,1.06.83.83,0,0,1-1.35-1,.85.85,0,0,1,1-.28h0l1.84-2.53a.17.17,0,0,1,.28.2Zm4.92-2h0l-.07,0,0,0-.37-.3.18.44s0,0,0,0l0,.08h0a1.61,1.61,0,0,1,.1.58,1.78,1.78,0,0,1-3.55,0h0a1.81,1.81,0,0,1,.09-.58h0l0-.08,0,0,.17-.44-.37.3,0,0-.07.05h0a1.83,1.83,0,0,1-.52.27A1.77,1.77,0,0,1,41.83,325h0a1.62,1.62,0,0,1,.57-.09h.14l.47,0-.4-.26,0,0-.07-.05h0a1.81,1.81,0,0,1-.42-.41,1.78,1.78,0,0,1,2.87-2.1h0a1.81,1.81,0,0,1,.26.52h0l0,.08v0l.13.45.12-.46v0l0-.08h0a1.81,1.81,0,0,1,.26-.52,1.77,1.77,0,1,1,2.88,2.07h0a1.6,1.6,0,0,1-.41.41h0l-.07,0,0,0-.39.26.47,0h.13a1.69,1.69,0,0,1,.58.08,1.78,1.78,0,0,1-1.09,3.39h0A2.06,2.06,0,0,1,47.33,328Zm4,5.73a.83.83,0,0,1-1.16-.18.84.84,0,0,1,.05-1.06h0L48.36,330a.18.18,0,0,1,0-.24.19.19,0,0,1,.25,0l1.83,2.54h0a.85.85,0,0,1,1,.28A.82.82,0,0,1,51.32,333.76Zm3.14-10.24a.85.85,0,0,1-1-.38h0l-3,1h0a.18.18,0,0,1-.17-.12.18.18,0,0,1,.11-.22l3-1h0a.85.85,0,0,1,.57-.89.84.84,0,0,1,.52,1.59Z"/><path class="cls-4" d="M44.27,324.24a.21.21,0,0,1-.14-.07l-.85-1.2a.18.18,0,0,1,0-.25.18.18,0,0,1,.24,0l.86,1.2a.2.2,0,0,1,0,.25A.23.23,0,0,1,44.27,324.24Z"/><path class="cls-4" d="M42.19,326.79a.17.17,0,0,1-.06-.34l1.41-.44a.18.18,0,0,1,.22.11.17.17,0,0,1-.12.22l-1.4.44Z"/><path class="cls-4" d="M45.37,329.12h0a.17.17,0,0,1-.17-.17v-1.48a.18.18,0,0,1,.18-.17.17.17,0,0,1,.17.18V329A.17.17,0,0,1,45.37,329.12Z"/><path class="cls-4" d="M48.58,326.81h-.06l-1.4-.47a.17.17,0,0,1,.11-.33l1.4.47a.18.18,0,0,1,.11.22A.16.16,0,0,1,48.58,326.81Z"/><path class="cls-4" d="M46.49,324.24a.13.13,0,0,1-.1,0,.17.17,0,0,1,0-.24l.88-1.19a.17.17,0,0,1,.24,0,.17.17,0,0,1,0,.24l-.88,1.19A.19.19,0,0,1,46.49,324.24Z"/><circle class="cls-4" cx="45.39" cy="325.57" r="0.83"/><path class="cls-4" d="M32.89,306.33a4.45,4.45,0,0,0-5.61-2.85,4.28,4.28,0,0,0-1.29.67h0l-.17.13-.07.06-.92.75.42-1.11a.63.63,0,0,1,0-.09l.07-.19v0a4.58,4.58,0,0,0,.24-1.44h0a4.45,4.45,0,1,0-8.89,0,4.31,4.31,0,0,0,.24,1.44v0l.08.19a.94.94,0,0,0,0,.09l.43,1.11-.92-.75-.08-.06-.16-.13h0a4.17,4.17,0,0,0-1.29-.67h0a4.44,4.44,0,0,0-2.75,8.45,4.54,4.54,0,0,0,1.44.22H14l1.18-.06-1,.64-.08.06-.18.11h0a4.57,4.57,0,0,0-1,1h0a4.45,4.45,0,1,0,7.84,3.93v0l.05-.21,0-.09.3-1.14.31,1.14a.29.29,0,0,0,0,.09l.06.21v0a4.62,4.62,0,0,0,.64,1.3h0a4.45,4.45,0,0,0,7.2-5.23,4.78,4.78,0,0,0-1-1h0l-.18-.11-.08-.06-1-.64,1.18.06h.33a4.5,4.5,0,0,0,1.44-.22h0A4.44,4.44,0,0,0,32.89,306.33Zm-11.74-5.18a.75.75,0,0,1,.75.76.74.74,0,0,1-.59.73v2.84a.15.15,0,0,1-.15.15.15.15,0,0,1-.16-.15v-2.84a.75.75,0,0,1-.6-.73A.76.76,0,0,1,21.15,301.15Zm-7.27,6.9h0a.77.77,0,0,1-.89.34.75.75,0,1,1,1-.64h0l2.68.87a.17.17,0,0,1,.1.2.16.16,0,0,1-.15.11h-.05Zm4.59,6.16-1.66,2.28h0a.74.74,0,0,1,.05.95.75.75,0,1,1-.3-1.13v0L18.22,314a.16.16,0,0,1,.22,0A.15.15,0,0,1,18.47,314.21Zm4.43-1.76h0l-.06-.05,0,0-.33-.27.15.4v0l0,.07h0a1.44,1.44,0,0,1,.09.51,1.6,1.6,0,0,1-3.2,0h0a1.5,1.5,0,0,1,.09-.52h0l0-.08,0,0,.15-.4-.33.27,0,0-.06,0h0a1.89,1.89,0,0,1-.47.24,1.6,1.6,0,0,1-1-3h0a1.88,1.88,0,0,1,.52-.08h.12l.42,0-.36-.23,0,0-.06,0h0a1.41,1.41,0,0,1-.37-.36,1.6,1.6,0,0,1,2.58-1.9h0a1.86,1.86,0,0,1,.23.47h0l0,.07v0l.12.41.1-.41v0l0-.07h0a1.59,1.59,0,0,1,2.46-.83,1.6,1.6,0,0,1,.37,2.23h0a1.66,1.66,0,0,1-.38.37h0l-.07,0,0,0-.35.24.42,0h.12a1.55,1.55,0,0,1,.52.07,1.6,1.6,0,1,1-1,3.05h0A1.73,1.73,0,0,1,22.9,312.45Zm3.6,5.16a.75.75,0,0,1-1.05-.16.77.77,0,0,1,.05-.95h0l-1.65-2.28a.16.16,0,0,1,.25-.19l1.65,2.28v0a.77.77,0,0,1,.92.24A.75.75,0,0,1,26.5,317.61Zm2.82-9.22a.75.75,0,0,1-.88-.34h0l-2.68.87h0a.17.17,0,0,1-.15-.11.17.17,0,0,1,.11-.2l2.68-.86h0a.74.74,0,0,1,.52-.79.75.75,0,1,1,.46,1.43Z"/><path class="cls-4" d="M20.15,309A.17.17,0,0,1,20,309l-.77-1.08a.16.16,0,1,1,.26-.18l.77,1.08a.16.16,0,0,1,0,.22Z"/><path class="cls-4" d="M18.27,311.33a.15.15,0,0,1-.15-.11.15.15,0,0,1,.1-.19l1.27-.4a.16.16,0,1,1,.09.3l-1.26.4Z"/><path class="cls-4" d="M21.14,313.44h0a.17.17,0,0,1-.16-.16L21,312a.16.16,0,0,1,.16-.16.16.16,0,0,1,.15.16v1.33A.16.16,0,0,1,21.14,313.44Z"/><path class="cls-4" d="M24,311.35H24l-1.26-.43a.15.15,0,0,1-.1-.2.16.16,0,0,1,.2-.09l1.26.42a.17.17,0,0,1,.1.2A.18.18,0,0,1,24,311.35Z"/><path class="cls-4" d="M22.15,309a.19.19,0,0,1-.1,0,.17.17,0,0,1,0-.22l.79-1.06a.16.16,0,0,1,.26.18l-.8,1.07A.14.14,0,0,1,22.15,309Z"/><path class="cls-4" d="M21.9,310.23a.75.75,0,1,1-.75-.75A.75.75,0,0,1,21.9,310.23Z"/><path class="cls-4" d="M54.52,290.54a3.37,3.37,0,0,0-5.23-1.66h0l-.13.1s0,0,0,.05l-.7.56.32-.84,0-.06,0-.15v0a3.56,3.56,0,0,0,.18-1.09h0a3.38,3.38,0,0,0-6.75,0,3.29,3.29,0,0,0,.19,1.09v0l.06.15a.14.14,0,0,1,0,.06l.33.84-.7-.56-.06-.05-.12-.1h0a3.32,3.32,0,0,0-1-.51h0a3.37,3.37,0,0,0-2.08,6.42A3.74,3.74,0,0,0,40,295h.25l.9-.05-.75.49-.07,0-.13.09h0a3,3,0,0,0-.79.77h0a3.38,3.38,0,0,0,5.46,4,3.66,3.66,0,0,0,.49-1v0l0-.15a.14.14,0,0,1,0-.07l.23-.87.23.87a.25.25,0,0,0,0,.07l0,.15v0a3.16,3.16,0,0,0,.49,1h0a3.38,3.38,0,1,0,4.67-4.74h0l-.14-.09-.06,0-.75-.49.89.05h.25a3.85,3.85,0,0,0,1.1-.16h0A3.37,3.37,0,0,0,54.52,290.54Zm-8.9-3.93a.57.57,0,0,1,.57.57.59.59,0,0,1-.46.56h0v2.14a.12.12,0,0,1-.12.12.12.12,0,0,1-.11-.12v-2.14h0a.58.58,0,0,1-.45-.56A.56.56,0,0,1,45.62,286.61Zm-5.52,5.23h0a.58.58,0,1,1,.07-.22h0l2,.66a.12.12,0,0,1,.07.15.11.11,0,0,1-.11.08h0Zm3.49,4.68-1.26,1.72h0a.57.57,0,1,1-.89.05.58.58,0,0,1,.7-.18v0l1.26-1.72a.12.12,0,0,1,.17,0A.14.14,0,0,1,43.59,296.52Zm3.35-1.34h0l0,0,0,0-.25-.2.12.3v0l0,.05h0a1.21,1.21,0,1,1-2.36.4h0a1,1,0,0,1,.07-.39h0l0-.05v0l.11-.3-.25.21h0l0,0h0a1.31,1.31,0,0,1-.35.19,1.22,1.22,0,1,1-.76-2.31h0a1.32,1.32,0,0,1,.39-.06H44l-.27-.17,0,0-.05,0h0a1.28,1.28,0,0,1-.29-.28,1.22,1.22,0,1,1,2-1.44h0a1.22,1.22,0,0,1,.18.36h0v.08l.09.32.08-.32v0l0-.06h0a1.22,1.22,0,1,1,2.15,1.06h0a1.48,1.48,0,0,1-.28.28h0l0,0,0,0-.27.17h.41a1.39,1.39,0,0,1,.4.06,1.21,1.21,0,0,1-.74,2.31h0A1.22,1.22,0,0,1,46.94,295.18Zm2.74,3.92a.57.57,0,0,1-.76-.85h0l-1.26-1.73a.12.12,0,0,1,0-.16.12.12,0,0,1,.17,0l1.25,1.73v0a.56.56,0,0,1,.69.18A.57.57,0,0,1,49.68,299.1Zm2.14-7a.58.58,0,0,1-.67-.26h0l-2,.66h0a.12.12,0,0,1-.11-.08.11.11,0,0,1,.08-.15l2-.66h0a.59.59,0,0,1,.39-.61.57.57,0,0,1,.36,1.09Z"/><path class="cls-4" d="M44.86,292.59a.12.12,0,0,1-.1,0l-.58-.82a.12.12,0,0,1,0-.17.11.11,0,0,1,.16,0l.59.82a.14.14,0,0,1,0,.17Z"/><path class="cls-4" d="M43.43,294.33a.11.11,0,0,1-.11-.08.12.12,0,0,1,.08-.15l1-.3a.12.12,0,0,1,.15.08.12.12,0,0,1-.08.15l-1,.3Z"/><path class="cls-4" d="M45.61,295.93h0a.12.12,0,0,1-.12-.12v-1a.12.12,0,0,1,.24,0v1A.13.13,0,0,1,45.61,295.93Z"/><path class="cls-4" d="M47.8,294.35h0l-.95-.32a.12.12,0,0,1-.08-.15.11.11,0,0,1,.15-.07l1,.32a.12.12,0,0,1,.07.15A.12.12,0,0,1,47.8,294.35Z"/><path class="cls-4" d="M46.37,292.59a.11.11,0,0,1-.07,0,.11.11,0,0,1,0-.16l.6-.81a.12.12,0,1,1,.19.14l-.6.81A.12.12,0,0,1,46.37,292.59Z"/><path class="cls-4" d="M46.19,293.5a.58.58,0,0,1-.57.57.57.57,0,0,1-.57-.57.56.56,0,0,1,.57-.57A.57.57,0,0,1,46.19,293.5Z"/><path class="cls-1" d="M363.55,368.09V16.1c0-4.75.08-9.52,0-14.27,0-.21,0-.41,0-.62a1.25,1.25,0,0,0-2.5,0v352c0,4.75-.09,9.51,0,14.27v.62a1.25,1.25,0,0,0,2.5,0Z"/><path class="cls-2" d="M351.29,369.87h-4.38a.92.92,0,0,0-.91.89V408a.91.91,0,0,0,1.82,0V371.65h2.56v24.73a.91.91,0,0,0,1.82,0V370.76A.91.91,0,0,0,351.29,369.87Z"/><path class="cls-2" d="M359.5,369.22h-3.67a.91.91,0,0,0-.91.89v45.63a.91.91,0,0,0,1.82,0V371h1.85v20.86a.91.91,0,0,0,1.82,0V370.11A.92.92,0,0,0,359.5,369.22Z"/><path class="cls-2" d="M370.16,369.87h-4.38a.92.92,0,0,0-.92.89V408a.92.92,0,0,0,1.83,0V371.65h2.55v24.73a.92.92,0,0,0,1.83,0V370.76A.92.92,0,0,0,370.16,369.87Z"/><path class="cls-2" d="M378.36,369.22H374.7a.91.91,0,0,0-.92.89v45.63a.92.92,0,0,0,1.83,0V371h1.84v20.86a.92.92,0,0,0,1.83,0V370.11A.92.92,0,0,0,378.36,369.22Z"/><rect class="cls-3" x="342.53" y="348.63" width="39.53" height="24.24" rx="8.3"/><rect class="cls-3" x="344.03" y="269.46" width="36.54" height="27.22" rx="6.63"/><path class="cls-2" d="M344.69,273.11a6.4,6.4,0,0,0-.59,1.95h36.4a6.42,6.42,0,0,0-.6-1.95H344.69Z"/><path class="cls-2" d="M345.2,279.05H344v2h36.54v-2H345.2Z"/><rect class="cls-1" x="311.22" y="283.65" width="102.16" height="77.37" rx="34.84"/><path class="cls-4" d="M335.77,355.15c-6.09-6-13.45-16.82-13.94-34.1-.43-15.33,5.87-27,12.77-35.2-1,.36-1.9.76-2.83,1.19a52.4,52.4,0,0,0-11.4,34c.59,21.09,11.13,33.06,19.12,39.14,1,.22,2.1.39,3.18.52A44.92,44.92,0,0,1,335.77,355.15Z"/><path class="cls-4" d="M389.08,285.54c6,6.36,14.22,18,13.42,33.59-1,18.63-7.36,32.87-18.28,41.27,1.08-.2,2.15-.45,3.2-.75,9.86-8.83,15.63-22.7,16.54-40.45.74-14.42-6-25.61-11.9-32.5C391.09,286.27,390.1,285.88,389.08,285.54Z"/><path class="cls-4" d="M381.56,300.14a59,59,0,0,0-10.44-16.49h-2a65.27,65.27,0,0,1,11.43,17.89C381.17,301.41,381.3,300.18,381.56,300.14Z"/><path class="cls-4" d="M383.84,313.67a55.1,55.1,0,0,1,.58,9.44c-.41,18.42-11.13,31.31-18.31,37.91h2.12c7.32-7.06,17.25-19.9,17.65-37.88a66.28,66.28,0,0,0-.42-9.79Z"/><rect class="cls-4" x="361.57" y="283.65" width="1.46" height="77.37"/><path class="cls-4" d="M350.52,283.65c-6.31,8.73-17.86,28.68-10.45,49.71,5,14.21,11.2,22.7,16.15,27.66h2.19c-5-4.64-11.68-13.15-17-28.15-7.45-21.14,4.92-41.24,10.87-49.22Z"/><path class="cls-4" d="M398.09,302.48a4.92,4.92,0,0,0-6.21-3.17,4.7,4.7,0,0,0-1.44.75h0l-.18.15-.08.06-1,.83.48-1.22a.3.3,0,0,1,0-.1l.08-.22v0A4.91,4.91,0,0,0,390,298h0a4.94,4.94,0,1,0-9.6,1.59v0l.09.22,0,.1.47,1.22-1-.83-.08-.06-.19-.15h0a4.76,4.76,0,0,0-1.43-.75h0a4.94,4.94,0,1,0-1.45,9.62h0l.24,0h.1l1.31-.07-1.1.71-.09.06-.2.13h0a5.22,5.22,0,0,0-1.16,1.14h0a4.94,4.94,0,1,0,8.71,4.35v0l.06-.23,0-.1.34-1.27.34,1.27a.36.36,0,0,0,0,.1l.06.23v0a5.17,5.17,0,0,0,.72,1.45h0a4.94,4.94,0,0,0,8-5.8,5,5,0,0,0-1.16-1.14h0l-.2-.13-.09-.06-1.1-.71,1.31.07h.11l.23,0h0a5,5,0,0,0,1.61-.23h0A4.93,4.93,0,0,0,398.09,302.48Zm-13-5.75a.83.83,0,0,1,.17,1.65v3.15a.17.17,0,0,1-.18.17.16.16,0,0,1-.17-.17v-3.15a.83.83,0,0,1,.17-1.65ZM377,304.39h0a.82.82,0,0,1-1,.38.83.83,0,1,1,1.08-.7h0l3,1a.18.18,0,0,1,.11.22.17.17,0,0,1-.17.12h0Zm5.1,6.84-1.84,2.53h0a.83.83,0,0,1-1.11,1.23.83.83,0,0,1,.83-1.43v0l1.84-2.53a.18.18,0,1,1,.28.21Zm4.92-2h0l-.06-.06,0,0-.36-.3.17.44s0,0,0,0l0,.08h0a1.56,1.56,0,0,1,.1.57,1.78,1.78,0,1,1-3.55,0h0a1.61,1.61,0,0,1,.1-.58h0l0-.08v0l.17-.44-.37.3,0,0-.06.06h0a1.51,1.51,0,0,1-.52.27,1.77,1.77,0,0,1-1.11-3.37h0a2,2,0,0,1,.58-.09h.13l.47,0-.4-.26,0,0-.07,0h0a2,2,0,0,1-.42-.4,1.78,1.78,0,0,1,2.87-2.11h0a1.81,1.81,0,0,1,.26.52h0l0,.08v0l.12.46.12-.46v0l0-.08h0a1.81,1.81,0,0,1,.26-.52,1.78,1.78,0,1,1,2.89,2.07h0a1.63,1.63,0,0,1-.42.41h0l-.07,0,0,0-.39.25.47,0H388a1.93,1.93,0,0,1,.58.08,1.78,1.78,0,0,1-1.08,3.39h0A1.71,1.71,0,0,1,387,309.27Zm4,5.73a.83.83,0,0,1-1.1-1.23h0l-1.83-2.54a.16.16,0,0,1,0-.24.17.17,0,0,1,.24,0l1.83,2.53v0a.83.83,0,0,1,1,.27A.82.82,0,0,1,391,315Zm3.14-10.24a.82.82,0,0,1-1-.38h0l-3,1h-.05a.18.18,0,0,1-.17-.12.17.17,0,0,1,.12-.22l3-1h0a.85.85,0,0,1,.57-.89.83.83,0,0,1,1.05.54A.82.82,0,0,1,394.14,304.76Z"/><path class="cls-4" d="M384,305.48a.18.18,0,0,1-.15-.07l-.85-1.2a.17.17,0,0,1,.28-.2l.86,1.2a.17.17,0,0,1,0,.24A.19.19,0,0,1,384,305.48Z"/><path class="cls-4" d="M381.87,308a.17.17,0,0,1-.17-.12.17.17,0,0,1,.12-.22l1.4-.44a.17.17,0,0,1,.22.12.16.16,0,0,1-.11.21l-1.41.44Z"/><path class="cls-4" d="M385.05,310.37h0a.18.18,0,0,1-.17-.18l0-1.47a.18.18,0,0,1,.17-.18.17.17,0,0,1,.17.18v1.47A.18.18,0,0,1,385.05,310.37Z"/><path class="cls-4" d="M388.26,308.06h-.06l-1.39-.47a.17.17,0,0,1-.11-.22.18.18,0,0,1,.22-.11l1.39.47a.18.18,0,0,1,.11.22A.17.17,0,0,1,388.26,308.06Z"/><path class="cls-4" d="M386.17,305.48a.14.14,0,0,1-.1,0,.17.17,0,0,1,0-.24l.88-1.18a.18.18,0,0,1,.25,0,.19.19,0,0,1,0,.25l-.88,1.18A.17.17,0,0,1,386.17,305.48Z"/><path class="cls-4" d="M385.9,306.81a.84.84,0,0,1-.83.84.85.85,0,0,1-.84-.84.84.84,0,0,1,.84-.83A.83.83,0,0,1,385.9,306.81Z"/><path class="cls-1" d="M127.13,208.47V9.63c0-2.69.06-5.39,0-8.08,0-.11,0-.23,0-.34a1.25,1.25,0,0,0-2.5,0V200.05c0,2.69-.07,5.39,0,8.08v.34a1.25,1.25,0,0,0,2.5,0Z"/><path class="cls-2" d="M116.67,209.86H113a.74.74,0,0,0-.76.69V239.5c0,.89,1.52.89,1.52,0V211.24h2.14v19.24c0,.89,1.53.9,1.53,0V210.55A.74.74,0,0,0,116.67,209.86Z"/><path class="cls-2" d="M123.54,209.35h-3.07a.73.73,0,0,0-.76.69v35.51c0,.89,1.52.89,1.52,0V210.73h1.54V227c0,.89,1.53.89,1.53,0V210A.74.74,0,0,0,123.54,209.35Z"/><path class="cls-2" d="M132.45,209.86h-3.66a.74.74,0,0,0-.77.69V239.5c0,.89,1.53.89,1.53,0V211.24h2.13v19.24c0,.89,1.53.9,1.53,0V210.55A.74.74,0,0,0,132.45,209.86Z"/><path class="cls-2" d="M139.31,209.35h-3.07a.73.73,0,0,0-.76.69v35.51c0,.89,1.53.89,1.53,0V210.73h1.54V227c0,.89,1.52.89,1.52,0V210A.74.74,0,0,0,139.31,209.35Z"/><rect class="cls-3" x="109.35" y="189.39" width="33.05" height="20.27" rx="8.3"/><rect class="cls-3" x="110.6" y="123.18" width="30.55" height="22.76" rx="6.63"/><path class="cls-2" d="M111.16,126.23a5.39,5.39,0,0,0-.5,1.64h30.43a5.67,5.67,0,0,0-.49-1.64H111.16Z"/><path class="cls-2" d="M111.58,131.21h-1v1.63h30.55v-1.63H111.58Z"/><rect class="cls-1" x="83.17" y="135.05" width="85.42" height="64.69" rx="29.61"/><path class="cls-4" d="M103.69,194.84c-5.09-5-11.24-14.07-11.65-28.52a43,43,0,0,1,10.68-29.43c-.81.3-1.59.64-2.37,1a43.79,43.79,0,0,0-9.53,28.47c.49,17.63,9.3,27.64,16,32.72.88.19,1.76.33,2.66.44A37.9,37.9,0,0,1,103.69,194.84Z"/><path class="cls-4" d="M148.27,136.63c5,5.32,11.89,15.09,11.22,28.09-.8,15.58-6.15,27.48-15.28,34.51.9-.17,1.8-.38,2.67-.63,8.24-7.38,13.07-19,13.83-33.82.62-12.06-5.05-21.42-9.94-27.18C150,137.24,149.12,136.92,148.27,136.63Z"/><path class="cls-4" d="M144.38,168.05c-.35,15.4-9.31,26.18-15.32,31.7h1.78c6.12-5.91,14.42-16.65,14.76-31.67a47.63,47.63,0,0,0-12.35-33H131.6A46.46,46.46,0,0,1,144.38,168.05Z"/><rect class="cls-4" x="125.27" y="135.05" width="1.22" height="64.69"/><path class="cls-4" d="M116,135.05c-5.28,7.3-14.93,24-8.74,41.57,4.19,11.88,9.36,19,13.5,23.13h1.84c-4.17-3.89-9.77-11-14.19-23.54-6.22-17.68,4.12-34.48,9.1-41.16Z"/></g></g></svg>