<svg xmlns="http://www.w3.org/2000/svg" viewBox="0 0 512 424.99">
	<defs>
		<style>
			.cls-1 {
				fill: #1f1f1f;
			}
		</style>
	</defs>
	<title>M</title>
	<g id="Layer_2" data-name="Layer 2">
		<g id="Layer_1-2" data-name="Layer 1">
			<path class="cls-1" d="M451.57,425c-25.87,0-51.08-8-74.95-23.79-25.65-17-38.49-42.94-38.17-77.19.23-28.87,8.53-58,25.38-88.95,5.95-11,12.24-21.93,18.33-32.54,6.86-12,14-24.35,20.55-36.67a137.38,137.38,0,0,0,12.3-30.7c2.12-8.36-3-15.77-8.9-18.5a13.74,13.74,0,0,0-5.73-1.23,16.91,16.91,0,0,0-13.42,7.1c-6.72,8.93-15.21,20.8-21.31,33.51-12.58,26.19-25,53-37,79-7.8,16.88-15.87,34.34-24,51.55-10.33,22-22.13,39.31-36.07,52.91-8.49,8.29-18.87,12.67-30,12.67a48.91,48.91,0,0,1-13.57-2c-16.7-4.84-25.4-18.18-22.18-34,3.39-16.64,9-32.74,14-46.28s10.42-27.33,15.62-40.58c6.4-16.32,13-33.19,19-49.93,3-8.29,3.48-17.94,3.77-27.93.23-7.77-3.93-13.52-11.4-15.75a23.22,23.22,0,0,0-6.72-1.13c-8.06,0-11.54,5.69-12.85,7.84-5,8.2-8.9,17.49-12.47,26.3q-4.18,10.37-8.4,20.72l-.49,1.22c-14,34.42-28.4,70-41.78,105.26-3.93,10.38-6.51,21.1-9.23,32.45-1.32,5.5-2.69,11.19-4.22,16.79-1.36,5-3.06,9.65-4.55,13.59-8,21.16-22.23,33.21-43.56,36.85a158.54,158.54,0,0,1-26.39,2.57,84.87,84.87,0,0,1-34.16-6.65C14.49,381,1.4,362.22.19,335.83a181.5,181.5,0,0,1,6.82-58c2.35-8.31,4.67-16.72,6.91-24.85,6.35-23.09,12.91-46.94,20.83-70,14.11-41.08,29.91-80.61,43.5-113.85,5-12.26,13.35-23.18,20.84-32.25C114.37,18.37,133.78,8.6,155.24,8.6a83.89,83.89,0,0,1,25.65,4.25c14.85,4.78,29,11.85,40.91,18.14,7.26,3.83,15.1,7.39,23.27,7.39,10.17,0,18.08-5.22,26.83-13.05q2.36-2.13,4.68-4.3l.17-.16c2.72-2.54,5.51-5.14,8.45-7.59C295.79,4.47,307.16,0,319,0c9.93,0,19.83,3.17,29.42,9.44,5.23,3.4,10.19,7.22,15,10.91q2,1.53,4,3a21.9,21.9,0,0,0,13.71,5,27.83,27.83,0,0,0,9.58-1.89,124.39,124.39,0,0,1,42.79-7.95,110.42,110.42,0,0,1,30.19,4.22c24.68,7,38.58,24.59,40.19,50.78,1.43,23.22-3.56,47.26-15.71,75.64-8.14,19-16.93,38-25.43,56.45-6.32,13.68-12.85,27.83-19.06,41.86C434.58,268,426,290.2,424.11,314.27a64.52,64.52,0,0,0,1.1,18.37c2.45,11.31,10.13,17.91,23.49,20.19,3.06.52,6.12.92,9.36,1.34,6.95.89,13.52,1.74,20.15,3.8s16.13,6,23.89,12.88c6.91,6.15,10.41,13.73,9.84,21.34s-5.07,14.42-12.71,19.41c-7.24,4.73-18.51,10.71-31.07,12.32A129.57,129.57,0,0,1,451.57,425Z" />
		</g>
	</g>
</svg>