<svg xmlns="http://www.w3.org/2000/svg" viewBox="0 0 15 15">
	<defs>
		<style>
			.cls-1 {
				fill: hsl(210deg 10% 10%);
			}
		</style>
	</defs>
	<title>Messenger</title>
	<g id="Layer_1" data-name="Layer 1">
		<path class="cls-1" d="M0,7.5a7.5,7.5,0,1,1,4,6.64.3.3,0,0,0-.24,0l-2.19.53a1,1,0,0,1-1.21-.74.94.94,0,0,1,0-.47L.9,11.23a.29.29,0,0,0,0-.24A7.54,7.54,0,0,1,0,7.5Zm11.39-.91a.55.55,0,0,0-.11-.78.56.56,0,0,0-.68,0L8.75,7.25l-2-1.42A1,1,0,0,0,5.41,6L3.61,8.4a.56.56,0,0,0,.79.79L6.25,7.75l2,1.42A1,1,0,0,0,9.59,9Z" />
	</g>
</svg>