<svg xmlns="http://www.w3.org/2000/svg" xmlns:xlink="http://www.w3.org/1999/xlink" viewBox="0 0 3641.35 2004.8"><defs><style>.cls-1,.cls-10,.cls-21{fill:none;}.cls-2{fill:#d3e2f9;}.cls-3{fill:#2263d6;}.cls-4{fill:url(#linear-gradient);}.cls-5{fill:#fff;}.cls-6{fill:#daebff;}.cls-7{fill:#00b77b;}.cls-8{fill:#0ace68;}.cls-9{fill:#00d967;}.cls-10{stroke:#fff;}.cls-10,.cls-21{stroke-linecap:round;stroke-linejoin:round;stroke-width:2px;}.cls-11{fill:#d1e3ff;}.cls-12{fill:#e3eeff;}.cls-13{fill:#f5fcff;}.cls-14{fill:#e2eeff;}.cls-15{fill:#80c3ff;}.cls-16{fill:#006dfe;}.cls-17{fill:#2636b2;}.cls-18{fill:#ebf5ff;}.cls-19{fill:#7bbdff;}.cls-20{fill:#054aa9;}.cls-21{stroke:#de4d30;}.cls-22{fill:#ffab00;}.cls-23{fill:#ea756c;}.cls-24{fill:#0e2354;}.cls-25{clip-path:url(#clip-path);}.cls-26{fill:#07183a;}.cls-27{fill:#062f51;}.cls-28{fill:#153077;}.cls-29{fill:#06437f;}.cls-30{fill:#ffaca6;}.cls-31{clip-path:url(#clip-path-2);}.cls-32{fill:#fe8e00;}.cls-33{clip-path:url(#clip-path-3);}.cls-34{fill:#1e2889;}.cls-35{clip-path:url(#clip-path-4);}.cls-36{clip-path:url(#clip-path-5);}.cls-37{fill:#0041f9;}.cls-38{clip-path:url(#clip-path-6);}.cls-39{fill:#0054fc;}.cls-40{clip-path:url(#clip-path-7);}.cls-41{fill:#202d70;}.cls-42{clip-path:url(#clip-path-8);}.cls-43{fill:#88c9ff;}.cls-44{fill:url(#linear-gradient-2);}</style><linearGradient id="linear-gradient" x1="925.85" y1="-1557.75" x2="2768.85" y2="-1557.75" gradientTransform="translate(0 2328)" gradientUnits="userSpaceOnUse"><stop offset="0" stop-color="#b0d8ff"/><stop offset="0.02" stop-color="#b3d9ff"/><stop offset="0.15" stop-color="#c4e1ff"/><stop offset="0.3" stop-color="#d1e7ff"/><stop offset="0.51" stop-color="#d8eaff"/><stop offset="1" stop-color="#daebff"/></linearGradient><clipPath id="clip-path"><path class="cls-1" d="M615.05,400.4s-58-9-62.2-72.8c0,0,27.1,7.8,57,3.3s115.3-66.1,168.1,34.6-62.3,145.2-62.3,145.2l-33.4-23.8Z"/></clipPath><clipPath id="clip-path-2"><path class="cls-1" d="M737.45,554.4l5.7-5.6s22.9-6.5,45.3,37.2,72.8,170.9,46.7,291.3-74.9,170.5-74.9,170.5-149.5,0-149.5-141.4c0,0,81.2-31.1,75.1-135.5s-13.6-111.2,11.7-205.9Z"/></clipPath><clipPath id="clip-path-3"><path class="cls-1" d="M609.05,396.1s-14,155.1,32.6,153,53.4-53.2,53.4-53.2,16.6-4.8,13-28.1S688,452.2,686.25,455C686.35,455.1,655.45,380.6,609.05,396.1Z"/></clipPath><clipPath id="clip-path-4"><path class="cls-1" d="M2093.35,448.3s2.5,86.5-11.1,109.9-34,15.4-42.6-10.5V463.1Z"/></clipPath><clipPath id="clip-path-5"><path class="cls-1" d="M2041.45,1257.8v182.8s-30.9,135.8-75.3,233.4-53.1,105-53.1,105-58,4.9-87.7-37.1c0,0,91.4-232.2,92.6-318.6s-19.8-219.8,0-289a78.69,78.69,0,0,1,8.6-23.9l88.9,9.1Z"/></clipPath><clipPath id="clip-path-6"><path class="cls-1" d="M2128.75,1119.5l16.5,5.8s17.3,149.8,23.5,259.8-8.6,404.4-8.6,404.4-51.9,34.6-97.6,0c0,0,6.2-183.4-8.6-264.1s-102.9-364.7-98.8-400.1Z"/></clipPath><clipPath id="clip-path-7"><path class="cls-1" d="M2053.85,629.7s74,28.3,81.4,66.6,10,429,10,429-51.9,40.4-135.8,31.3-88.9-40.3-88.9-40.3-.8-262.6,4.1-283.2c0,0-42.8,0-65-39.1,0,0,46.8-111.3,63.8-142,21.2-38.3,73.9-27.8,73.9-27.8S2014.65,656.4,2053.85,629.7Z"/></clipPath><clipPath id="clip-path-8"><path class="cls-1" d="M2163.75,828.1s6.6,54.9,18.8,71.4,111.3-61.1,111.3-61.1-1.9-66.3,39.5-92.6,11.2,77.4-5.9,105.2c0,0-62.8,87.2-122.8,113s-67.1-2.9-76.9-18-26.9-103.3-26.9-103.3Z"/></clipPath><linearGradient id="linear-gradient-2" x1="2451.65" y1="-1591.05" x2="3388.15" y2="-1591.05" xlink:href="#linear-gradient"/></defs><title>Asset 1</title><g id="Layer_2" data-name="Layer 2"><g id="Layer_1-2" data-name="Layer 1"><g id="Layer_1-2-2" data-name="Layer 1-2"><ellipse class="cls-2" cx="2037.05" cy="1920.5" rx="237.6" ry="84.3"/><ellipse class="cls-2" cx="753.05" cy="1817.1" rx="466.5" ry="51.2"/><rect class="cls-2" x="222.85" y="1681.8" width="3260" height="20.4"/><path class="cls-3" d="M2768.85,94.8A94.81,94.81,0,0,0,2674.05,0H1020.65a94.81,94.81,0,0,0-94.8,94.8v49.8h1842.9V94.8Z"/><path class="cls-4" d="M925.85,144.6V1301.1a94.81,94.81,0,0,0,94.8,94.8h1653.4a94.81,94.81,0,0,0,94.8-94.8h0V144.6Z"/><rect class="cls-5" x="1060.15" y="879.8" width="86.9" height="326.4"/><rect class="cls-5" x="1212.75" y="922.2" width="86.9" height="284"/><rect class="cls-5" x="1365.35" y="1006.9" width="86.9" height="199.3"/><rect class="cls-5" x="1517.95" y="943.4" width="86.9" height="262.8"/><rect class="cls-5" x="1670.65" y="1006.9" width="86.9" height="199.3"/><rect class="cls-5" x="1823.25" y="943.4" width="86.9" height="262.8"/><rect class="cls-5" x="1028.35" y="1233.7" width="915.7" height="12.7"/><path class="cls-5" d="M1761.15,243.3H2676a18.2,18.2,0,0,1,18.2,18.2V631.3a18.2,18.2,0,0,1-18.2,18.2h-914.8a18.2,18.2,0,0,1-18.2-18.2V261.5a18.27,18.27,0,0,1,18.2-18.2Z"/><path class="cls-6" d="M2668.65,460.8V615.2a12.5,12.5,0,0,1-12.5,12.5h-878.6a12.5,12.5,0,0,1-12.5-12.5V276.1c81.1,0,121.6,30.3,145.2,70.2a73.67,73.67,0,0,1,4.3,7.8c40.1,75.8,28,179.8,116.1,179.8a36.51,36.51,0,0,0,9.3-1.2,24.48,24.48,0,0,0,5.4-1.8c59.3-25,50-202.1,155.5-200.9,22.5.3,39.4,8.9,52.6,22.7,1.3,1.4,2.6,2.8,3.8,4.3,47.2,55.4,47.9,178.9,120.4,201.3,26.1,8.1,49.2-2.9,72-21,1.4-1.2,2.9-2.3,4.4-3.6,48.2-40,96.1-108.4,170.5-91.7,2.1.5,4.3,1,6.5,1.7A152.07,152.07,0,0,1,2668.65,460.8Z"/><path class="cls-7" d="M2668.65,429.6c-15.8.2-27.9,5.5-37.5,14.1-17.9,15.9-27.6,43-37,69.5-14.1,39.7-28.7,80.7-71.2,80.7-2.3,0-4.6-.1-7.1-.3-27.7-2.7-48.2-25.3-66.1-56.2-11.2-19.2-21.4-41.6-31.8-64.5-29.4-64.6-59.9-131.4-116.1-133H2300c-17,0-30.9,6.5-42.6,17.2-23.7,21.6-38.9,60.7-53.6,98.8-21.9,56.5-44.4,115-95.4,116.1-36.6.8-53.3-13.1-68.2-39.3-5.8-10.2-11.3-22.3-17.6-36-11.5-25.2-25.9-56.6-49.7-93.2-16-24.5-36.3-40-58.1-49.4-58.8-25.6-128-6.9-149.6.2v-5.8c23.1-7.3,87.8-23.9,145.2-2.2,25.1,9.5,48.8,26.2,67,54.2,24.1,36.8,38.5,68.4,50.2,93.8,6.5,14.3,12.1,26.5,18,36.6,14.1,24.3,29.5,36.3,62.7,35.5,47.3-1.1,68.2-55.2,90.4-112.6,15.1-38.9,30.4-78.7,55-101.1,13.1-11.9,28.7-19,48.4-18.4,59.7,1.6,90.8,70,121,136.2,10.3,22.5,20.3,44.4,31.2,63.2,17.3,30,36.6,51.8,62.3,54.3,43.8,4.3,57.8-35,72.6-76.7,9.2-26,18.6-52.4,35.6-69.3,10.8-10.8,24.9-17.7,43.9-18Z"/><path class="cls-5" d="M1033.35,248.8h557.4a22.11,22.11,0,0,1,22.1,22.1h0a22.11,22.11,0,0,1-22.1,22.1h-557.4a22.11,22.11,0,0,1-22.1-22.1h0A22.11,22.11,0,0,1,1033.35,248.8Z"/><path class="cls-5" d="M1033.35,344.6h557.4a22.11,22.11,0,0,1,22.1,22.1h0a22.11,22.11,0,0,1-22.1,22.1h-557.4a22.11,22.11,0,0,1-22.1-22.1h0A22.11,22.11,0,0,1,1033.35,344.6Z"/><path class="cls-5" d="M1033.35,440.4h557.4a22.11,22.11,0,0,1,22.1,22.1h0a22.11,22.11,0,0,1-22.1,22.1h-557.4a22.11,22.11,0,0,1-22.1-22.1h0A22.11,22.11,0,0,1,1033.35,440.4Z"/><path class="cls-5" d="M1033.35,536.2h557.4a22.11,22.11,0,0,1,22.1,22.1h0a22.11,22.11,0,0,1-22.1,22.1h-557.4a22.11,22.11,0,0,1-22.1-22.1h0A22.11,22.11,0,0,1,1033.35,536.2Z"/><path class="cls-5" d="M1033.35,632h557.4a22.11,22.11,0,0,1,22.1,22.1h0a22.11,22.11,0,0,1-22.1,22.1h-557.4a22.11,22.11,0,0,1-22.1-22.1h0A22.11,22.11,0,0,1,1033.35,632Z"/><path class="cls-8" d="M2556.05,1005.6c-22.6-100.1-112-174.9-219-174.9v224.6Z"/><path class="cls-5" d="M2337.05,1055.3V830.7c-124,0-224.6,100.5-224.6,224.6s100.5,224.5,224.6,224.5,224.6-100.5,224.6-224.5a223.19,223.19,0,0,0-5.6-49.6Z"/><circle class="cls-6" cx="2337.05" cy="1059" r="171.6"/><circle class="cls-5" cx="2391.15" cy="72.3" r="24.7"/><circle class="cls-5" cx="2509.05" cy="72.3" r="24.7"/><circle class="cls-5" cx="2626.95" cy="72.3" r="24.7"/><path class="cls-7" d="M509.45,1698.2s-38.9,77.5-108.1,106.3-166.3-7.5-220.7-50.3-107.2-103.6-112.5-148.9,86-27.5,86-27.5-40.3-55.1-57.1-94.4,2.9-80.4,58-56l55.2,24.4s-42.3-85.7-41.5-139.1,32.3-133.7,91.7-77.1S326,1411,326,1411s13.2-50.6,32-87.7,57.9-32.2,75.9,19.4,24.9,125.5,24.9,125.5,17.2-57,45.4-48,44.5,75.9,39.8,141.5S509.45,1698.2,509.45,1698.2Z"/><path class="cls-9" d="M497.15,1559.5s-2.1-282.1-218.2-382.6c0,0-98.9,237,51.3,440.1s119.5,156,119.5,156Z"/><line class="cls-10" x1="332.35" y1="1308.9" x2="455.25" y2="1727.9"/><rect class="cls-11" x="2852.65" y="141.2" width="703" height="898.9"/><rect class="cls-12" x="2867.75" y="141.2" width="720.1" height="898.9"/><rect class="cls-11" x="2852.65" y="1040.2" width="703" height="64.1"/><rect class="cls-12" x="2921.25" y="1040.2" width="720.1" height="64.1"/><rect class="cls-13" x="2912.75" y="189.5" width="630.1" height="802.4"/><polygon class="cls-5" points="2990.05 991.9 3254.35 189.5 3379.15 189.5 3114.85 991.9 2990.05 991.9"/><path class="cls-14" d="M2933.55,719.7a3.33,3.33,0,0,1-3.2-3.4V220.9a3.21,3.21,0,0,1,6.4-.4V716.2a3.29,3.29,0,0,1-3.2,3.5Z"/><polygon class="cls-5" points="3141.65 991.9 3405.95 189.5 3454.55 189.5 3190.25 991.9 3141.65 991.9"/><rect class="cls-11" x="3537.05" y="189.5" width="5.7" height="802.4"/><polygon class="cls-11" points="3598.45 251.2 2895.55 251.2 2891.35 208.3 3594.35 208.3 3598.45 251.2"/><polygon class="cls-11" points="3598.45 282.7 2895.55 282.7 2891.35 239.7 3594.35 239.7 3598.45 282.7"/><polygon class="cls-11" points="3598.45 320.4 2895.55 320.4 2891.35 277.5 3594.35 277.5 3598.45 320.4"/><polygon class="cls-11" points="3598.45 362.4 2895.55 362.4 2891.35 319.5 3594.35 319.5 3598.45 362.4"/><polygon class="cls-11" points="3598.45 412.8 2895.55 412.8 2891.35 369.8 3594.35 369.8 3598.45 412.8"/><polygon class="cls-11" points="3598.45 469.4 2895.55 469.4 2891.35 426.4 3594.35 426.4 3598.45 469.4"/><path class="cls-15" d="M387.45,1075.7h821.8a10.29,10.29,0,0,1,10.3,10.3v135.7a10.29,10.29,0,0,1-10.3,10.3H387.45a10.29,10.29,0,0,1-10.3-10.3V1086A10.35,10.35,0,0,1,387.45,1075.7Z"/><ellipse class="cls-5" cx="461.55" cy="1153.9" rx="17.8" ry="20.9"/><ellipse class="cls-5" cx="536.45" cy="1153.9" rx="17.8" ry="20.9"/><ellipse class="cls-16" cx="611.25" cy="1153.9" rx="17.8" ry="20.9"/><path class="cls-6" d="M1002.55,1114.4h16.9a1.79,1.79,0,0,1,1.8,1.8v76.1a1.79,1.79,0,0,1-1.8,1.8h-16.9a1.79,1.79,0,0,1-1.8-1.8v-76.1A1.73,1.73,0,0,1,1002.55,1114.4Z"/><path class="cls-6" d="M1036.45,1114.4h16.9a1.79,1.79,0,0,1,1.8,1.8v76.1a1.79,1.79,0,0,1-1.8,1.8h-16.9a1.79,1.79,0,0,1-1.8-1.8v-76.1A1.68,1.68,0,0,1,1036.45,1114.4Z"/><path class="cls-6" d="M1070.25,1114.4h16.9a1.79,1.79,0,0,1,1.8,1.8v76.1a1.79,1.79,0,0,1-1.8,1.8h-16.9a1.79,1.79,0,0,1-1.8-1.8v-76.1A1.79,1.79,0,0,1,1070.25,1114.4Z"/><path class="cls-6" d="M1104.15,1114.4h16.9a1.79,1.79,0,0,1,1.8,1.8v76.1a1.79,1.79,0,0,1-1.8,1.8h-16.9a1.79,1.79,0,0,1-1.8-1.8v-76.1A1.79,1.79,0,0,1,1104.15,1114.4Z"/><rect class="cls-17" x="410.25" y="1232.1" width="774.8" height="28.2"/><path class="cls-15" d="M387.45,1260.3h821.8a10.29,10.29,0,0,1,10.3,10.3v135.7a10.29,10.29,0,0,1-10.3,10.3H387.45a10.29,10.29,0,0,1-10.3-10.3V1270.6A10.29,10.29,0,0,1,387.45,1260.3Z"/><ellipse class="cls-5" cx="461.55" cy="1338.4" rx="17.8" ry="20.9"/><ellipse class="cls-16" cx="536.45" cy="1338.4" rx="17.8" ry="20.9"/><ellipse class="cls-16" cx="611.25" cy="1338.4" rx="17.8" ry="20.9"/><path class="cls-6" d="M1003.05,1298.4H1020a1.79,1.79,0,0,1,1.8,1.8v76.1a1.79,1.79,0,0,1-1.8,1.8h-16.9a1.79,1.79,0,0,1-1.8-1.8v-76.1A1.79,1.79,0,0,1,1003.05,1298.4Z"/><path class="cls-6" d="M1037,1298.4h16.9a1.79,1.79,0,0,1,1.8,1.8v76.1a1.79,1.79,0,0,1-1.8,1.8H1037a1.79,1.79,0,0,1-1.8-1.8v-76.1A1.73,1.73,0,0,1,1037,1298.4Z"/><path class="cls-6" d="M1070.85,1298.4h16.9a1.79,1.79,0,0,1,1.8,1.8v76.1a1.79,1.79,0,0,1-1.8,1.8h-16.9a1.79,1.79,0,0,1-1.8-1.8v-76.1A1.68,1.68,0,0,1,1070.85,1298.4Z"/><path class="cls-6" d="M1104.15,1298.9h16.9a1.79,1.79,0,0,1,1.8,1.8v76.1a1.79,1.79,0,0,1-1.8,1.8h-16.9a1.79,1.79,0,0,1-1.8-1.8v-76.1A1.79,1.79,0,0,1,1104.15,1298.9Z"/><rect class="cls-17" x="410.25" y="1416.6" width="774.8" height="28.2"/><path class="cls-15" d="M387.45,1444.8h821.8a10.29,10.29,0,0,1,10.3,10.3v135.7a10.29,10.29,0,0,1-10.3,10.3H387.45a10.29,10.29,0,0,1-10.3-10.3V1455.1A10.29,10.29,0,0,1,387.45,1444.8Z"/><ellipse class="cls-5" cx="461.55" cy="1522.9" rx="17.8" ry="20.9"/><ellipse class="cls-5" cx="536.45" cy="1522.9" rx="17.8" ry="20.9"/><ellipse class="cls-16" cx="611.25" cy="1522.9" rx="17.8" ry="20.9"/><path class="cls-6" d="M1003.05,1482.9H1020a1.79,1.79,0,0,1,1.8,1.8v76.1a1.88,1.88,0,0,1-1.8,1.9h-16.9a1.82,1.82,0,0,1-1.8-1.9v-76.1A1.79,1.79,0,0,1,1003.05,1482.9Z"/><path class="cls-6" d="M1037,1482.9h16.9a1.79,1.79,0,0,1,1.8,1.8v76.1a1.88,1.88,0,0,1-1.8,1.9H1037a1.82,1.82,0,0,1-1.8-1.9v-76.1A1.73,1.73,0,0,1,1037,1482.9Z"/><path class="cls-6" d="M1070.85,1482.9h16.9a1.79,1.79,0,0,1,1.8,1.8v76.1a1.88,1.88,0,0,1-1.8,1.9h-16.9a1.82,1.82,0,0,1-1.8-1.9v-76.1A1.68,1.68,0,0,1,1070.85,1482.9Z"/><path class="cls-6" d="M1104.65,1482.9h16.9a1.79,1.79,0,0,1,1.8,1.8v76.1a1.88,1.88,0,0,1-1.8,1.9h-16.9a1.82,1.82,0,0,1-1.8-1.9v-76.1A1.79,1.79,0,0,1,1104.65,1482.9Z"/><rect class="cls-17" x="410.25" y="1601.1" width="774.8" height="28.2"/><path class="cls-15" d="M387.45,1629.3h821.8a10.29,10.29,0,0,1,10.3,10.3v135.7a10.29,10.29,0,0,1-10.3,10.3H387.45a10.29,10.29,0,0,1-10.3-10.3V1639.6A10.29,10.29,0,0,1,387.45,1629.3Z"/><ellipse class="cls-5" cx="461.55" cy="1707.4" rx="17.8" ry="20.9"/><ellipse class="cls-5" cx="536.45" cy="1707.4" rx="17.8" ry="20.9"/><ellipse class="cls-16" cx="611.25" cy="1707.4" rx="17.8" ry="20.9"/><path class="cls-6" d="M1003.05,1667.4H1020a1.82,1.82,0,0,1,1.8,1.9v76.1a1.88,1.88,0,0,1-1.8,1.9h-16.9a1.82,1.82,0,0,1-1.8-1.9v-76.1A1.82,1.82,0,0,1,1003.05,1667.4Z"/><path class="cls-6" d="M1037,1667.4h16.9a1.82,1.82,0,0,1,1.8,1.9v76.1a1.88,1.88,0,0,1-1.8,1.9H1037a1.82,1.82,0,0,1-1.8-1.9v-76.1A1.76,1.76,0,0,1,1037,1667.4Z"/><path class="cls-6" d="M1070.85,1667.4h16.9a1.82,1.82,0,0,1,1.8,1.9v76.1a1.88,1.88,0,0,1-1.8,1.9h-16.9a1.82,1.82,0,0,1-1.8-1.9v-76.1A1.71,1.71,0,0,1,1070.85,1667.4Z"/><path class="cls-6" d="M1104.65,1667.4h16.9a1.82,1.82,0,0,1,1.8,1.9v76.1a1.88,1.88,0,0,1-1.8,1.9h-16.9a1.82,1.82,0,0,1-1.8-1.9v-76.1A1.82,1.82,0,0,1,1104.65,1667.4Z"/><rect class="cls-17" x="410.25" y="1785.6" width="774.8" height="28.2"/><rect class="cls-6" x="3113.65" y="1299.8" width="217.3" height="96.1"/><rect class="cls-18" x="3201.55" y="1395.9" width="217.3" height="96.1"/><circle class="cls-19" cx="479.35" cy="324.2" r="266.9"/><circle class="cls-6" cx="479.35" cy="324.2" r="244.6"/><path class="cls-20" d="M479.35,331.8a7.88,7.88,0,0,1-5.2-2L341.45,209.1a7.66,7.66,0,1,1,9.9-11.7,1.38,1.38,0,0,0,.4.3l127.7,116.1,98.2-85.8a7.65,7.65,0,0,1,10.1,11.5l-103.4,90.3A6.63,6.63,0,0,1,479.35,331.8Z"/><rect class="cls-20" x="471.05" y="511.4" width="16" height="42.1"/><rect class="cls-20" x="471.05" y="94.9" width="16" height="42.1"/><rect class="cls-20" x="249.75" y="316.2" width="42.1" height="16"/><rect class="cls-20" x="666.25" y="316.1" width="42.1" height="16"/><line class="cls-21" x1="479.35" y1="329" x2="544.15" y2="523.9"/><circle class="cls-19" cx="479.35" cy="324.2" r="28.2"/><circle class="cls-22" cx="479.35" cy="324.2" r="16.6"/><path class="cls-23" d="M735.15,592.8h0a31.23,31.23,0,0,1,20.1,39.5l-65.4,201.4a31.32,31.32,0,0,1-39.4,20.1h0a31.32,31.32,0,0,1-20.1-39.4L695.75,613A31.26,31.26,0,0,1,735.15,592.8Z"/><path class="cls-23" d="M646.35,796.3s-168.8,46.8-183,41.6-59.5-19.3-86.3,7.3-19.1,44.6,22.8,35.2,40.2,5.4,69.8-11.1c0,0,106.1,7.6,199.9-15.5Z"/><path class="cls-23" d="M690.55,486.1l34.7,11a72.63,72.63,0,0,0,2.2,22.3c-9,2.6-22.5,10.3-31.8,32.9-2.2-10-7.2-24.2-18.6-36.2Z"/><path class="cls-24" d="M615.05,400.4s-58-9-62.2-72.8c0,0,27.1,7.8,57,3.3s115.3-66.1,168.1,34.6-62.3,145.2-62.3,145.2l-33.4-23.8Z"/><g class="cls-25"><path class="cls-26" d="M597.05,400s-12.6-32.6,23.3-29.6,60.7,33.6,72.5,56.7,47.4,59.2,77.3,50.9l-30.1,36.4-92.6,4.8-40.3-87.1Z"/></g><path class="cls-27" d="M378.45,916.2l-17-4.2s-10.7,23.6-9,61.8,21.1,69.3,21.1,69.3,24.3-31.6,24.8-52.3S378.45,916.2,378.45,916.2Z"/><path class="cls-23" d="M126.75,1185.2c8.2-4.5,15.6-13.1,24.5-21.6,48.7-46.2,109.1-205.6,138.2-226.2s89.8-16.1,89.8-16.1l25.1,52.2s-64.8,60.3-115.9,125.4c-53.5,68.3-110.9,126.6-110.9,126.6C164.25,1224,140,1218.9,126.75,1185.2Z"/><path class="cls-28" d="M6,1202.4c8.5-17.1,22.6-18.6,44.2-14.6,17.2,3.2,44.6,14.7,76.7-2.6,13.2,33.7,37.5,38.8,50.8,40.4h0l-33.6,59.1c-6,11.9-21.1,18.1-32.7,11.6-26.4-14.6-62.3-32.6-84.7-42.8C-6.55,1238.5-2.55,1219.5,6,1202.4Z"/><path class="cls-29" d="M645.45,934.8,610.65,907l-249.2,5s46.2,30.7,12,131.1c0,0,91.8,26.2,157.3,28.8s196.7-3,223.4-41.5Z"/><path class="cls-28" d="M418.65,932.5l-9.1-3.1s-12,18.8-11.7,51.4,8.6,68.6,23.8,79.7l32.5-56.9-17.8-57.5Z"/><path class="cls-30" d="M217.45,1276.5a23.92,23.92,0,0,0,2.1-1.3c25.4-16.1,45.5-194,56.2-246.2s44.2-79.6,87-85.7a539.52,539.52,0,0,1,82.3-4.7V1055s-81-16.1-83.6,4c-7.4,48.8-92.2,239.5-92.2,239.5l-2.5,7.8C253.05,1305.2,233.75,1298.9,217.45,1276.5Z"/><path class="cls-28" d="M95.15,1313.4c10.7-27.4,27.4-28.8,51.5-23.4,23.4,5.2,46.2,1.5,70.9-13.5,16.2,22.4,35.6,28.6,49.3,30l-21.2,67.5a18.13,18.13,0,0,1-22.7,11.8c-.4-.1-.8-.3-1.1-.4-20.4-7.9-53-19.9-69.7-22.5C126.55,1358.9,84.35,1340.9,95.15,1313.4Z"/><path class="cls-20" d="M651.45,952.2l-34.8-27.8-207.1,5s46.2,30.8,12.1,131.2c0,0,93,19.4,158.6,22.1s153.3,3.7,180-34.8Z"/><path class="cls-22" d="M737.45,554.4l5.7-5.6s22.9-6.5,45.3,37.2,72.8,170.9,46.7,291.3-74.9,170.5-74.9,170.5-149.5,0-149.5-141.4c0,0,81.2-31.1,75.1-135.5s-13.6-111.2,11.7-205.9Z"/><g class="cls-31"><path class="cls-32" d="M646.75,733.7l52.2-7.6,64.6-86.4s28.3,146.5-20.3,245.5S610.65,995,610.65,995l-25.8-117Z"/></g><path class="cls-30" d="M742.35,608.4h0a31.23,31.23,0,0,1,20.1,39.5l-65.4,201.4a31.32,31.32,0,0,1-39.4,20.1h0a31.32,31.32,0,0,1-20.1-39.4L703,628.6A31.14,31.14,0,0,1,742.35,608.4Z"/><path class="cls-30" d="M661.25,809.8s-168.8,46.8-183,41.6-59.5-19.3-86.3,7.3-19.1,44.6,22.8,35.2,40.2,5.5,69.8-11.1c0,0,98.2,9.6,191.9-13.4Z"/><path class="cls-24" d="M589.35,926.1H367.45a7.7,7.7,0,0,1-7.7-7.7v-10a7.7,7.7,0,0,1,7.7-7.7h221.9a7.7,7.7,0,0,1,7.7,7.7v10A7.7,7.7,0,0,1,589.35,926.1Z"/><path class="cls-24" d="M264.75,694l98.4,200.9a6.71,6.71,0,0,1-3.1,9.1l-2.7,1.3a6.71,6.71,0,0,1-9.1-3.1l-98.4-201a6.71,6.71,0,0,1,3.1-9.1l2.7-1.3A6.83,6.83,0,0,1,264.75,694Z"/><path class="cls-30" d="M727.35,519.5a64.48,64.48,0,0,0,15.8,29.4s2,17.9-16.8,21.9-29-5.7-29-5.7a68.19,68.19,0,0,0-1.8-12.7C704.85,529.8,718.45,522.1,727.35,519.5Z"/><path class="cls-30" d="M609.05,396.1s-14,155.1,32.6,153,53.4-53.2,53.4-53.2,16.6-4.8,13-28.1S688,452.2,686.25,455C686.35,455.1,655.45,380.6,609.05,396.1Z"/><g class="cls-33"><path class="cls-23" d="M707,495.5s4.3-21.9-14.9-19.9S671.15,457,656,438.5s-26.9-37.5-51.5-27.6l-.5-23.3,57.4,4.5,50,59,.5,36.3Z"/></g><path class="cls-34" d="M1948.85,1887.5s-7.6,20.4-18.8,30.8c-62.6-25.7-119.8-66.1-141.3-82a58.42,58.42,0,0,1,7.2-15.8c6.5-10.7,24.7-41.8,37.1-63.2,5.2,10.6,18.8,28.2,54.4,38.9-11.6,26.9,25,53.8,45.3,67C1953.55,1876.6,1948.85,1887.5,1948.85,1887.5Z"/><path class="cls-23" d="M1903.85,1765.1s-1,1.4-15.4,28.9a20,20,0,0,0-1,2.1c-35.5-10.7-49.2-28.3-54.4-38.9,7.2-12.4,12.5-21.5,12.5-21.5Z"/><path class="cls-24" d="M1930.05,1918.2a22.35,22.35,0,0,1-8.8,5.4c-15.8,4.6-109.2-53.4-123.2-63.4-9.2-6.6-11.6-14.5-9.3-24C1810.15,1852.2,1867.45,1892.5,1930.05,1918.2Z"/><path class="cls-34" d="M2241.45,1882.7s2.1,21.6-3.3,35.9c-67.5,4.6-136.7-6.3-163-11.1a59.66,59.66,0,0,1-.5-17.4c1.1-12.5,3.6-48.4,5.3-73.1,9.3,7.2,29.3,16.9,65.9,10.8,1.5,29.2,46.2,37.2,70.3,40C2240.85,1870.9,2241.45,1882.7,2241.45,1882.7Z"/><path class="cls-30" d="M2147,1792.9s-.3,1.7-1,32.7a17.7,17.7,0,0,0,.1,2.3c-36.6,6.1-56.6-3.6-65.9-10.8,1-14.3,1.7-24.8,1.7-24.8Z"/><path class="cls-24" d="M2238.25,1918.6a21.53,21.53,0,0,1-5.5,8.7c-12.1,11.1-121.6.4-138.5-2.4-11.2-1.9-16.9-7.9-18.9-17.4C2101.55,1912.4,2170.75,1923.2,2238.25,1918.6Z"/><polygon class="cls-22" points="2348.75 655.6 2206.35 601.3 2135.05 861.5 2264.75 921.5 2348.75 655.6"/><path class="cls-30" d="M2093.35,448.3s2.5,86.5-11.1,109.9-34,15.4-42.6-10.5V463.1Z"/><g class="cls-35"><path class="cls-23" d="M2097.15,456.7s-31.2,22.7-42.4,40.6c-8.4,13.3-4.6,69.6-4.6,69.6l-20.7-9.7s-.7-38.9,0-58.8,14.4-47.5,14.4-47.5,19-20.7,28.9-23.8,17.1,0,17.1,0Z"/></g><path class="cls-23" d="M2050.35,557.6s-7.7,41.6,3.5,72c0,0-9.1,16.6-28,17.6s-28.6-13.9-28.6-13.9,5.1-19.8,0-52Z"/><path class="cls-23" d="M1911.85,820.6s-35,37-20.2,60.5,30.5,52.7,30.5,52.7l-2.9,64.6s-79.9-86.4-85.2-115.3,13.2-64.6,30.9-91.8Z"/><path class="cls-16" d="M2041.45,1257.8v182.8s-30.9,135.8-75.3,233.4-53.1,105-53.1,105-58,4.9-87.7-37.1c0,0,91.4-232.2,92.6-318.6s-19.8-219.8,0-289a78.69,78.69,0,0,1,8.6-23.9l88.9,9.1Z"/><g class="cls-36"><path class="cls-37" d="M1899.75,1141.4s54.1,139.6,60.3,228,13.7,229.7-14.8,362.2l117.3-269.5V1229.4l-47-110-102.5-19.3Z"/></g><path class="cls-16" d="M2128.75,1119.5l16.5,5.8s17.3,149.8,23.5,259.8-8.6,404.4-8.6,404.4-51.9,34.6-97.6,0c0,0,6.2-183.4-8.6-264.1s-102.9-364.7-98.8-400.1Z"/><g class="cls-38"><path class="cls-39" d="M2052.55,1129s-11.1,47.8,14.8,153.7,38.3,184.7,39.5,271.6-14.8,277.8-14.8,277.8l-39.5-6.4-130.4-671,53.9-97.4Z"/></g><path class="cls-34" d="M2053.85,629.7s74,28.3,81.4,66.6,10,429,10,429-51.9,40.4-135.8,31.3-88.9-40.3-88.9-40.3-.8-262.6,4.1-283.2c0,0-42.8,0-65-39.1,0,0,46.8-111.3,63.8-142,21.2-38.3,73.9-27.8,73.9-27.8S2014.65,656.4,2053.85,629.7Z"/><g class="cls-40"><path class="cls-41" d="M2093.55,694s-21.1-11.9-25.6,8.2-32.2,172.9,18.3,235.9,65.3,42.4,78.2,7S2128.25,714.1,2093.55,694Z"/><path class="cls-41" d="M2008.55,622.7s-23.9-4.5-27.2,65,4.1,487.1,11.5,498.1-89.1-40.9-89.1-40.9-147.2-380.3-139.8-391,228.9-155.6,228.9-155.6Z"/></g><path class="cls-30" d="M2163.75,828.1s6.6,54.9,18.8,71.4,111.3-61.1,111.3-61.1-1.9-66.3,39.5-92.6,11.2,77.4-5.9,105.2c0,0-62.8,87.2-122.8,113s-67.1-2.9-76.9-18-26.9-103.3-26.9-103.3Z"/><g class="cls-42"><path class="cls-23" d="M2170.15,852.3s-45.1,3.8-39.2,32.1,2.6,68.5,48.3,68.6,77.6-24.2,77.6-24.2l-41.2,51.4h-62L2112,961.3s-27.2-66.8-27.2-71,8.9-55.4,8.9-55.4l67.6-15.1,10.7,22.9Z"/></g><path class="cls-34" d="M2166.85,825.1s-12.5-104.1-28.4-136.7-54-30-65.6,0-9.7,160.6-9.7,160.6S2126.65,880.5,2166.85,825.1Z"/><path class="cls-24" d="M2091.15,452.4s14.8-13.3,18-38.3,8.3-69.5-28.2-75.3-39.3,11.3-55.5,13.7-97.8-1.2-122.1,71.4c-16.8,50.3,19.7,99.7,49.1,129.7s31.8,30.9,31.8,30.9,21,7,47.1-3.2l14-21.2s5-6.3-.5-22-6.6-30.4.3-39.4,14.6-25.1,15-38C2060.05,460.4,2073.85,465.9,2091.15,452.4Z"/><path class="cls-43" d="M2495.25,366.8h835a57.83,57.83,0,0,1,57.8,57.8V971.4a57.83,57.83,0,0,1-57.8,57.8h-835a57.83,57.83,0,0,1-57.8-57.8V424.5A57.74,57.74,0,0,1,2495.25,366.8Z"/><path class="cls-3" d="M3388.05,423.5a56.83,56.83,0,0,0-56.8-56.8h-822.9a56.74,56.74,0,0,0-56.7,56.8v34.2h936.4Z"/><path class="cls-44" d="M2451.65,457.7V959.4a56.83,56.83,0,0,0,56.8,56.8h822.9a56.83,56.83,0,0,0,56.8-56.8V457.7Z"/><circle class="cls-5" cx="3109.05" cy="412.2" r="19.1"/><circle class="cls-5" cx="3199.65" cy="412.2" r="19.1"/><circle class="cls-5" cx="3290.25" cy="412.2" r="19.1"/><path class="cls-16" d="M2817.05,527.6h-177.9c-3.6,0-6.6-3.4-6.6-7.7h0c0-4.3,2.9-7.7,6.6-7.7h177.9c3.6,0,6.5,3.4,6.5,7.7h0C2823.55,524.2,2820.65,527.6,2817.05,527.6Z"/><path class="cls-9" d="M2787.65,596.7h-177.9c-3.6,0-6.6-3.4-6.6-7.7h0c0-4.3,2.9-7.7,6.6-7.7h177.9c3.6,0,6.6,3.4,6.6,7.7h0C2794.25,593.2,2791.25,596.7,2787.65,596.7Z"/><path class="cls-16" d="M3165,596.7h-305.5c-3.6,0-6.6-3.4-6.6-7.7h0c0-4.3,2.9-7.7,6.6-7.7H3165c3.6,0,6.6,3.4,6.6,7.7h0C3171.45,593.2,3168.55,596.7,3165,596.7Z"/><path class="cls-16" d="M2970.85,527.6H2881c-3.6,0-6.6-3.4-6.6-7.7h0c0-4.3,2.9-7.7,6.6-7.7h89.9c3.6,0,6.6,3.4,6.6,7.7h0C2977.35,524.2,2974.45,527.6,2970.85,527.6Z"/><path class="cls-16" d="M3128.65,527.6h-89.9c-3.6,0-6.5-3.4-6.5-7.7h0c0-4.3,2.9-7.7,6.5-7.7h89.9c3.6,0,6.5,3.4,6.5,7.7h0C3135.15,524.2,3132.25,527.6,3128.65,527.6Z"/><path class="cls-16" d="M2728.75,665.7h-116.9c-3.6,0-6.5-3.4-6.5-7.7h0c0-4.3,2.9-7.7,6.5-7.7h116.9c3.6,0,6.5,3.4,6.5,7.7h0C2735.35,662.3,2732.45,665.7,2728.75,665.7Z"/><path class="cls-9" d="M2971.15,665.7h-177.9c-3.6,0-6.6-3.4-6.6-7.7h0c0-4.3,2.9-7.7,6.6-7.7h177.9c3.6,0,6.6,3.4,6.6,7.7h0C2977.75,662.3,2974.75,665.7,2971.15,665.7Z"/><path class="cls-16" d="M3100.85,665.7h-66.4c-3.6,0-6.6-3.4-6.6-7.7h0c0-4.3,2.9-7.7,6.6-7.7h66.4c3.6,0,6.6,3.4,6.6,7.7h0C3107.45,662.3,3104.45,665.7,3100.85,665.7Z"/><path class="cls-16" d="M2838.85,734.8h-104.2c-3.6,0-6.6-3.4-6.6-7.7h0c0-4.3,2.9-7.7,6.6-7.7h104.2c3.6,0,6.5,3.4,6.5,7.7h0C2845.35,731.3,2842.45,734.8,2838.85,734.8Z"/><path class="cls-16" d="M3088.15,734.8h-177.9c-3.6,0-6.6-3.4-6.6-7.7h0c0-4.3,2.9-7.7,6.6-7.7h177.9c3.6,0,6.6,3.4,6.6,7.7h0C3094.65,731.3,3091.75,734.8,3088.15,734.8Z"/><path class="cls-16" d="M3031.15,803.8h-333.3c-3.6,0-6.6-3.4-6.6-7.7h0c0-4.3,2.9-7.7,6.6-7.7h333.3c3.6,0,6.5,3.4,6.5,7.7h0C3037.65,800.4,3034.75,803.8,3031.15,803.8Z"/><path class="cls-16" d="M3280.45,803.8h-201.4c-3.6,0-6.5-3.4-6.5-7.7h0c0-4.3,2.9-7.7,6.5-7.7h201.4c3.6,0,6.6,3.4,6.6,7.7h0C3287,800.4,3284.05,803.8,3280.45,803.8Z"/><path class="cls-16" d="M2787.65,872.9h-177.9c-3.6,0-6.6-3.4-6.6-7.7h0c0-4.3,2.9-7.7,6.6-7.7h177.9c3.6,0,6.6,3.4,6.6,7.7h0C2794.25,869.4,2791.25,872.9,2787.65,872.9Z"/><path class="cls-9" d="M3003,872.9h-177.9c-3.6,0-6.6-3.4-6.6-7.7h0c0-4.3,2.9-7.7,6.6-7.7H3003c3.6,0,6.6,3.4,6.6,7.7h0C3009.45,869.4,3006.55,872.9,3003,872.9Z"/><path class="cls-16" d="M3020.05,941.9h-270.2c-3.6,0-6.6-3.4-6.6-7.7h0c0-4.3,2.9-7.7,6.6-7.7h270.2c3.6,0,6.5,3.4,6.5,7.7h0C3026.65,938.4,3023.65,941.9,3020.05,941.9Z"/><rect class="cls-16" x="2516.25" y="512.2" width="13.1" height="15.4"/><rect class="cls-16" x="2516.25" y="581.3" width="13.1" height="15.4"/><rect class="cls-16" x="2516.25" y="650.3" width="13.1" height="15.4"/><rect class="cls-16" x="2516.25" y="719.4" width="13.1" height="15.4"/><rect class="cls-16" x="2516.25" y="788.4" width="13.1" height="15.4"/><rect class="cls-16" x="2516.25" y="857.4" width="13.1" height="15.4"/><rect class="cls-16" x="2516.25" y="926.5" width="13.1" height="15.4"/><path class="cls-16" d="M3211.65,973.3,3164,949.4a4.56,4.56,0,0,1-2.4-4.3V940a4.64,4.64,0,0,1,2.4-4.3l47.7-23.8c2.6-1.3,5.6,1,5.6,4.3V918a4.8,4.8,0,0,1-2.5,4.4L3182,938.3c-3.3,1.6-3.3,7.1,0,8.7l32.8,15.9a4.84,4.84,0,0,1,2.5,4.3V969C3217.25,972.4,3214.25,974.7,3211.65,973.3Z"/><path class="cls-16" d="M3254.85,898.4l-22,89.7a4.05,4.05,0,0,1-3.8,3.4h0c-2.7,0-4.6-3-3.9-6l22-89.7a4.07,4.07,0,0,1,3.9-3.4h0C3253.75,892.4,3255.65,895.4,3254.85,898.4Z"/><path class="cls-16" d="M3316.15,949.5l-47.7,23.9c-2.6,1.3-5.6-1-5.6-4.3v-1.8a4.55,4.55,0,0,1,2.5-4.3l32.8-15.9c3.3-1.6,3.3-7.1,0-8.7l-32.8-15.9a5,5,0,0,1-2.5-4.4v-1.8c0-3.4,2.9-5.7,5.6-4.3l47.7,23.8a4.75,4.75,0,0,1,2.4,4.3v5.1A4.86,4.86,0,0,1,3316.15,949.5Z"/></g></g></g></svg>