<svg xmlns="http://www.w3.org/2000/svg" viewBox="0 0 5729 4972.85">
	<title>sharkfin</title>
	<g id="shark-fin">
		<path id="Vector_1" data-name="Vector 1" d="M-6789.2,1574.06c-550.74-11-1371.5-325-1371.5-325s1017.5-69,1520.5-741c286.44-382.68,177-975.5,177-975.5s330-50,330-353.5c0-301.77-407.5-300.5-407.5-300.5s-50.87-350.77-115.5-567.5c-90.79-304.47-328-744.5-328-744.5s1020.5-149.5,2296.5,1214.5c598,639.2,949,2030.5,949,2030.5s-747.45,160.06-1223.5,275C-5680,1259.87-6050.9,1588.8-6789.2,1574.06Z" transform="translate(8160.7 2438.28)" />
		<path id="Vector_2" data-name="Vector 2" d="M-6090.2,1773.06c-794.5,212.82-1501,76-1501,76s526.21,354.4,1154,347c959.75-11.31,1804.89-640.7,2744-839,537.5-113.5,1261.5-113.5,1261.5-113.5s-444.81-217.9-944.5-223.5C-4356.28,1009.08-5143.44,1519.45-6090.2,1773.06Z" transform="translate(8160.7 2438.28)" />
		<path id="Vector_3" data-name="Vector 3" d="M-5234.7,2255.06c-418.08,112-747,139-747,139s259.9,144.33,590.25,140.44c505-5.95,1016.08-380.09,1510.25-484.44,282.84-59.73,597.5-16.8,597.5-16.8s-244.06-148.76-507-151.7C-4306.43,1875.78-4736.5,2121.6-5234.7,2255.06Z" transform="translate(8160.7 2438.28)" />
	</g>
</svg>