<?xml version="1.0" encoding="utf-8"?>
<!-- Generator: Adobe Illustrator 24.0.0, SVG Export Plug-In . SVG Version: 6.00 Build 0)  -->
<svg version="1.1" id="Layer_1" xmlns="http://www.w3.org/2000/svg" xmlns:xlink="http://www.w3.org/1999/xlink" x="0px" y="0px"
	 viewBox="0 0 5729 4972.9" style="enable-background:new 0 0 5729 4972.9;" xml:space="preserve">
<style type="text/css">
	.st0{fill:#87C7FB;}
</style>
<title>sharkfin</title>
<g id="shark-fin">
	<path id="Vector_1" class="st0" d="M1371.5,4012.3C820.8,4001.3,0,3687.3,0,3687.3s1017.5-69,1520.5-741
		c286.4-382.7,177-975.5,177-975.5s330-50,330-353.5c0-301.8-407.5-300.5-407.5-300.5s-50.9-350.8-115.5-567.5
		c-90.8-304.5-328-744.5-328-744.5S2197-144.7,3473,1219.3c598,639.2,949,2030.5,949,2030.5s-747.5,160.1-1223.5,275
		C2480.7,3698.1,2109.8,4027.1,1371.5,4012.3z"/>
	<path id="Vector_2" class="st0" d="M2070.5,4211.3c-794.5,212.8-1501,76-1501,76s526.2,354.4,1154,347
		c959.8-11.3,1804.9-640.7,2744-839C5005,3681.8,5729,3681.8,5729,3681.8s-444.8-217.9-944.5-223.5
		C3804.4,3447.4,3017.3,3957.7,2070.5,4211.3z"/>
	<path id="Vector_3" class="st0" d="M2926,4693.3c-418.1,112-747,139-747,139s259.9,144.3,590.3,140.4
		c505-6,1016.1-380.1,1510.3-484.4c282.8-59.7,597.5-16.8,597.5-16.8s-244.1-148.8-507-151.7
		C3854.3,4314.1,3424.2,4559.9,2926,4693.3z"/>
</g>
</svg>
