<svg xmlns="http://www.w3.org/2000/svg" xmlns:xlink="http://www.w3.org/1999/xlink" viewBox="0 0 300 78"><defs><style>.cls-1{fill:#190b5a;}.cls-2{fill:url(#linear-gradient);}.cls-3{fill:url(#linear-gradient-2);}.cls-4{fill:url(#linear-gradient-3);}.cls-5{fill:url(#linear-gradient-4);}.cls-6{fill:url(#linear-gradient-5);}</style><linearGradient id="linear-gradient" x1="58.72" y1="10.49" x2="13.38" y2="87.84" gradientTransform="matrix(1, 0, 0, -1, 0, 80)" gradientUnits="userSpaceOnUse"><stop offset="0" stop-color="#c5259a"/><stop offset="0.17" stop-color="#55369b"/><stop offset="0.58" stop-color="#4779c6"/><stop offset="1" stop-color="#70d0e4"/></linearGradient><linearGradient id="linear-gradient-2" x1="90.81" y1="80" x2="90.81" y2="3.49" gradientTransform="matrix(1, 0, 0, -1, 0, 80)" gradientUnits="userSpaceOnUse"><stop offset="0" stop-color="#7a2393"/><stop offset="0.47" stop-color="#951e93"/><stop offset="1" stop-color="#ee197f"/></linearGradient><linearGradient id="linear-gradient-3" x1="46" y1="80" x2="46" y2="2.72" gradientTransform="matrix(1, 0, 0, -1, 0, 80)" gradientUnits="userSpaceOnUse"><stop offset="0" stop-color="#7a2393"/><stop offset="0.47" stop-color="#951e93"/><stop offset="0.89" stop-color="#ee197f"/><stop offset="1" stop-color="#ee1a98"/></linearGradient><linearGradient id="linear-gradient-4" x1="6.39" y1="66.94" x2="17.1" y2="80.34" gradientTransform="matrix(1, 0, 0, -1, 0, 80)" gradientUnits="userSpaceOnUse"><stop offset="0" stop-color="#423a9c"/><stop offset="0.33" stop-color="#4779c6"/><stop offset="1" stop-color="#70d0e4"/></linearGradient><linearGradient id="linear-gradient-5" x1="91.36" y1="15.6" x2="81.01" y2="3.29" gradientTransform="matrix(1, 0, 0, -1, 0, 80)" gradientUnits="userSpaceOnUse"><stop offset="0" stop-color="#3f2d92"/><stop offset="0.19" stop-color="#951e93"/><stop offset="1" stop-color="#ee197f"/></linearGradient></defs><title>Asset 1</title><g id="Layer_2" data-name="Layer 2"><g id="Layer_1-2" data-name="Layer 1"><path class="cls-1" d="M276.14,47.63,299.85,19H288.21L267,44.67v-.16l-9.63,11.68-2.1,2.54c-.06.1-.11.2-.18.3l-3.61,4.36a20,20,0,0,1-2.12,1.68,19.5,19.5,0,0,1-11.08,3.44v.15a19.6,19.6,0,0,1-7.68-1.58,20,20,0,0,1-8.73-7.3,20.3,20.3,0,0,1,5.36-27.93,19.6,19.6,0,0,1,22.69.38l5.23-7.32a28.42,28.42,0,0,0-28-3.24,29,29,0,0,0-12.64,10.56,29.34,29.34,0,0,0-4.9,16.31v.3h-.15a20.2,20.2,0,0,1-8.74,16.68,19.58,19.58,0,0,1-18.79,1.86,20.15,20.15,0,0,1-11.1-12.2c-.37-.19-.77-.39-1.19-.62a28.59,28.59,0,0,1-6.66-4.83c-.87-.89-1.65-1.76-2.36-2.61,0,.56.08,1.14.08,1.72a20.2,20.2,0,0,1-8.74,16.68,19.58,19.58,0,0,1-18.79,1.86,19.94,19.94,0,0,1-8.72-7.3,20.27,20.27,0,0,1,5.36-27.93,19.59,19.59,0,0,1,18.78-1.85,20,20,0,0,1,8.73,7.29,1.64,1.64,0,0,0,.14.22h0v.06l.24.39c.2.46.6,1.32,1.23,2.45l.2.35c0,.13.11.25.15.37a35.54,35.54,0,0,0,2.25,3.27l.15.2a31,31,0,0,0,2.83,3.21l0,0,0,0,.53.5.21.2a26.85,26.85,0,0,0,3.84,3,23.73,23.73,0,0,0,5.47,2.55,23.09,23.09,0,0,0,6.6,1.06h.61A30.15,30.15,0,0,0,192,53.75a25.65,25.65,0,0,0,6-3.11,26.79,26.79,0,0,0,6.37-6.39,32.11,32.11,0,0,0,3.66-6.81,13.41,13.41,0,0,0,1-4.88,10.54,10.54,0,0,0-.32-2.61A10,10,0,0,0,207,26.34a11.65,11.65,0,0,0-3.21-2.94,11.16,11.16,0,0,0-1.86-.93l0,.05A28.42,28.42,0,0,0,178.39,22a28.83,28.83,0,0,0-9,6.08V.05h-8.9V24.44c.54.53,1.11,1.1,1.7,1.73a38.27,38.27,0,0,1,5,6.86,37.52,37.52,0,0,0,3.95,5.86c.23.27.48.54.74.8a20.32,20.32,0,0,1,6.59-7.54,19.6,19.6,0,0,1,20.95-.76l0-.06a2.27,2.27,0,0,1,.46.48,1.05,1.05,0,0,1,.15.3,1.51,1.51,0,0,1,.06.45,4.14,4.14,0,0,1-.35,1.53,23.91,23.91,0,0,1-2.24,4.34,19.68,19.68,0,0,1-2.49,3,16.25,16.25,0,0,1-5.3,3.49,20.81,20.81,0,0,1-8,1.45h-.46a14.16,14.16,0,0,1-3.69-.53,15.28,15.28,0,0,1-5.17-2.66A18.37,18.37,0,0,1,171,41.91h0c-.22-.21-.44-.42-.64-.64a24.38,24.38,0,0,1-3-3.82c-.56-.9-1.14-1.64-1.41-2.17-.13-.27-.39-.68-.39-.68a36.78,36.78,0,0,0-4.93-6.86l-.08-.09h0a29,29,0,0,0-3.66-3A28.41,28.41,0,0,0,129.63,22,28.9,28.9,0,0,0,117,32.53,29.41,29.41,0,0,0,124.75,73,28.41,28.41,0,0,0,152,75.71a29,29,0,0,0,12.64-10.56c.19-.3.38-.59.56-.89A29.23,29.23,0,0,0,173.51,73a28.41,28.41,0,0,0,27.24,2.69,28.9,28.9,0,0,0,12.63-10.56c.22-.33.43-.65.63-1a28.92,28.92,0,0,0,8.19,8.55,28.33,28.33,0,0,0,27.24,2.69,28.8,28.8,0,0,0,8.61-5.73v8.14H267V58.71l3.35-4,18.28,23.13H300ZM267,.05h-8.9V48.4a20,20,0,0,1-.37,3.82L267,41Z"/><path class="cls-2" d="M51,20.79v23.7c0,11-6.68,17.7-16.8,17.7S17,55.52,17,44.49V0H0V44.49C0,64.71,13.35,77.28,34.23,77.28S68,64.71,68,44.49V0h-.3A24.58,24.58,0,0,0,51,20.79Z"/><path class="cls-3" d="M82.6,0h-.29V76.51h17V20.81C99.16,12.3,91.57,2.93,82.6,0Z"/><path class="cls-4" d="M51,20.79V44.53c0,.24,0,.47,0,.71A30.93,30.93,0,0,1,24,76.13a44.62,44.62,0,0,0,10.27,1.15C55,77.28,68,64.71,68,44.49V0h-.3A24.58,24.58,0,0,0,51,20.79Z"/><path class="cls-5" d="M17,20.83V0H0A25,25,0,0,1,17,20.83Z"/><path class="cls-6" d="M82.31,53.84V76.51h16.8A25.58,25.58,0,0,1,82.31,53.84Z"/></g></g></svg>