<svg viewBox="0 0 24 24" fill="none" xmlns="http://www.w3.org/2000/svg">
<path d="M4.3956 20.3004L0.39619 17.3004C0.271493 17.2078 0.170302 17.087 0.100804 16.9481C0.031306 16.8091 -0.00455955 16.6559 -0.00389724 16.5005V7.50055C-0.00455955 7.34519 0.031306 7.19185 0.100804 7.05291C0.170302 6.91397 0.271493 6.79331 0.39619 6.70068L4.3956 3.70068C4.28816 3.80158 4.20697 3.92717 4.15907 4.06656C4.11117 4.20596 4.09802 4.35493 4.12074 4.50056V19.5005C4.09802 19.6462 4.11117 19.7951 4.15907 19.9345C4.20697 20.0739 4.28816 20.1995 4.3956 20.3004Z" fill="#5E438F" style="fill:#5E438F;fill:color(display-p3 0.3686 0.2627 0.5608);fill-opacity:1;"/>
<path d="M23.555 4.16511C23.3903 4.05686 23.1974 3.99948 23.0002 4.00011C22.8725 3.99908 22.7457 4.02326 22.6272 4.07128C22.5089 4.11927 22.4012 4.19016 22.3102 4.27986L22.2405 4.34999L17.9905 8.42509L14.2612 11.9999L9.84628 16.2349L5.76175 20.1498L5.69164 20.2199C5.60077 20.3097 5.49303 20.3807 5.37463 20.4289C5.25622 20.4769 5.12948 20.5011 5.00169 20.5C4.78537 20.4996 4.57497 20.4294 4.40175 20.2998L0.402344 17.2998C0.605526 17.4524 0.859258 17.5219 1.11186 17.494C1.36447 17.4662 1.59694 17.3431 1.76198 17.1498L4.00204 14.55L6.2016 11.9951L9.84628 7.76509L16.2308 0.349874C16.3236 0.24006 16.4392 0.151846 16.5696 0.0914092C16.6999 0.0309719 16.842 -0.000224618 16.9856 5.23866e-06C17.1828 -0.000631287 17.3758 0.0567512 17.5406 0.165005L23.555 4.16511Z" fill="url(#paint0_linear_1014_4546)" style=""/>
<path d="M23.555 19.8349L17.5556 23.8351C17.3516 23.9684 17.1062 24.0235 16.8647 23.9904C16.6232 23.9574 16.4018 23.8384 16.241 23.655L9.84628 16.235L6.2016 11.9952L4.00204 9.44525L1.76198 6.84502C1.59547 6.65369 1.36277 6.53245 1.11058 6.50559C0.858402 6.47874 0.60539 6.5483 0.402344 6.70026L4.40175 3.70028C4.57497 3.57069 4.78537 3.50046 5.00169 3.50004C5.12948 3.49895 5.25622 3.52314 5.37463 3.57122C5.49303 3.61929 5.60077 3.6903 5.69164 3.78016L5.76175 3.85027L9.84628 7.76526L14.2612 12.0001L17.9958 15.5803L22.2405 19.6501L22.3102 19.7203C22.4012 19.8099 22.5089 19.8808 22.6272 19.9288C22.7457 19.9768 22.8725 20.001 23.0002 19.9999C23.1974 20.0006 23.3903 19.9432 23.555 19.8349Z" fill="url(#paint1_linear_1014_4546)" style=""/>
<path d="M23.9987 4.9994V18.9995C23.9989 19.1647 23.9583 19.3271 23.8807 19.4727C23.803 19.6182 23.6907 19.7426 23.5536 19.8344L17.554 23.8344C17.6912 23.7426 17.8036 23.6183 17.8811 23.4726C17.9588 23.327 17.9993 23.1644 17.9991 22.9993V0.999667C17.997 0.833395 17.9539 0.67021 17.8736 0.524558C17.7934 0.378905 17.6785 0.255258 17.5391 0.164551L23.5536 4.16465C23.6903 4.25683 23.8023 4.38111 23.88 4.52664C23.9575 4.67216 23.9983 4.83449 23.9987 4.9994Z" fill="url(#paint2_linear_1014_4546)" style=""/>
<defs>
<linearGradient id="paint0_linear_1014_4546" x1="19.5005" y1="8.25921e-07" x2="1.67943" y2="17.935" gradientUnits="userSpaceOnUse">
<stop stop-color="#7252AA" style="stop-color:#7252AA;stop-color:color(display-p3 0.4471 0.3216 0.6667);stop-opacity:1;"/>
<stop offset="1" stop-color="#7252AA" style="stop-color:#7252AA;stop-color:color(display-p3 0.4471 0.3216 0.6667);stop-opacity:1;"/>
</linearGradient>
<linearGradient id="paint1_linear_1014_4546" x1="2.25214" y1="4.37499" x2="19.0021" y2="23.1234" gradientUnits="userSpaceOnUse">
<stop stop-color="#AE7FE2" style="stop-color:#AE7FE2;stop-color:color(display-p3 0.6824 0.4980 0.8863);stop-opacity:1;"/>
<stop offset="1" stop-color="#9A70D4" style="stop-color:#9A70D4;stop-color:color(display-p3 0.6039 0.4392 0.8314);stop-opacity:1;"/>
</linearGradient>
<linearGradient id="paint2_linear_1014_4546" x1="20.6978" y1="-0.318078" x2="20.6978" y2="23.8143" gradientUnits="userSpaceOnUse">
<stop stop-color="#D59DFF" style="stop-color:#D59DFF;stop-color:color(display-p3 0.8353 0.6157 1.0000);stop-opacity:1;"/>
<stop offset="1" stop-color="#C18EF1" style="stop-color:#C18EF1;stop-color:color(display-p3 0.7569 0.5569 0.9451);stop-opacity:1;"/>
</linearGradient>
</defs>
</svg>
