<?xml version="1.0" encoding="utf-8"?>
<!-- Generator: Adobe Illustrator 25.0.1, SVG Export Plug-In . SVG Version: 6.00 Build 0)  -->
<svg version="1.1" id="Layer_1" xmlns="http://www.w3.org/2000/svg" xmlns:xlink="http://www.w3.org/1999/xlink" x="0px" y="0px"
	 viewBox="0 0 377 218" style="enable-background:new 0 0 377 218;" xml:space="preserve">
<polygon points="4.5,33.7 4.7,32.4 10.6,29.5 10.6,28.8 8.9,28.4 8.9,26.8 10.7,23.2 13.4,23.1 18.3,21.6 19.8,17.5 25.8,14.4 
	30.1,14.2 37.5,12.3 38.7,12.3 44.6,15.6 52.9,17.3 61.6,17 66.7,21.2 68.8,21.4 70.9,20.6 72.6,20.5 80.1,23.4 84.4,21.9 84.4,21 
	83.7,19.1 85.6,17.8 86.7,17.8 87.2,18.3 87.4,21 91.5,21.9 91.8,20.9 92.8,20.7 93.9,21.9 93.8,22.9 91.7,25.2 85.5,25.6 
	81.6,28.3 75.8,30 73.9,32.5 72,35.9 71.6,38.3 74.2,40.1 76.5,42.4 78.3,42.6 78.3,44.1 77.2,46.5 77.1,48.3 79.7,48 82.4,43 
	85.4,41 85.8,38.6 90.6,32 94.5,31.9 96.7,35.2 96.4,36.2 96,37.3 98.8,37.6 100.7,35.2 101.5,35.2 102,40.3 104.6,46.2 104.9,47.8 
	104,49.5 98.4,52.1 96.3,52.3 95.7,51.6 91.3,51.7 85.2,55.4 85.2,56.3 85.9,56.3 89.8,54.1 93.3,53.9 93,54.5 91.9,55.7 92.1,57.8 
	94.5,59 94.4,60.3 90.8,61.1 89.8,61.8 89.8,62.5 89.1,62.4 88.9,61.5 90.6,60.6 90.6,59.1 87.6,59.9 83.2,62.4 81.7,64.9 
	78.5,65.3 75.4,69.8 74.3,71.4 73.2,71.6 73.7,69.5 72.7,69.5 71.1,74.5 66.9,77.6 63.8,81 63.3,84.7 62.6,89 62.4,90.6 61.4,90.7 
	60.3,87.7 60.2,83.2 58.4,82.3 55.6,82.2 53.6,82.7 53.5,84.3 51.6,84.4 49.4,83.5 45.5,83.4 41.9,86.9 39.5,91.2 38.8,96.2 
	39.9,99.4 40.9,101.1 45.3,101.1 47.3,97.9 52,97.2 52,98.9 48.5,105 48.3,106.1 54.8,106.3 54,112.1 54,114.8 55.2,115.4 
	55.9,116.8 57.3,117.6 58.7,117.1 59.8,116.4 60.8,116.8 61.6,117.8 61.7,118.3 62.9,118.3 64.2,114.6 66.1,114.1 68.3,112.9 
	69.8,111.8 70.5,112 70.4,112.9 69.5,113.6 69.3,114.6 68.8,115.2 68.7,116.6 69.5,117.3 70.7,116.9 70.7,114.2 71.6,112.3 
	72.7,112.4 75.9,115.1 78.4,115.6 80,114.9 81.2,114.7 81.8,114.9 82.8,116.8 84.7,118.6 86.1,119.8 88.1,122 92.9,123.1 
	94.6,124.9 96.1,126.7 97,129.3 96.4,131.2 95.6,132.4 94.8,133.6 94.9,134.3 95.7,134.3 95.7,133.6 97.5,132.6 98.2,132.2 
	99.4,132.3 99.5,132.9 99.6,133.5 99.2,134.4 98.3,134.7 97.5,134.7 97.5,135.2 97.5,135.8 99.2,135.7 100.3,134.8 100.8,133.2 
	101.8,133 103.1,134.4 104.4,135.2 108.2,136.7 111.1,137 115.3,139.5 116.9,139.6 117.8,145.2 112.8,152.1 113.5,155.2 
	113.5,158.8 111.8,164.1 111,167.7 106.6,169.4 102.9,171.7 102.4,177.4 101,181.5 99.6,185.3 98,187.5 96.8,187.6 93.7,185.7 
	92.4,185.6 95.8,189.9 94.5,191.9 93.4,193.5 91.4,193.6 90,194.2 90,195 90.7,195.4 90.1,196.9 88.4,197.5 88,197.7 88,198.7 
	89.4,200.1 88.9,203 87.5,205.3 90.6,207.5 90.5,208.8 89.8,210.2 89.7,213.1 90.6,215.2 89.5,216.9 89.5,217.9 88.5,218 
	86.9,216.7 86.5,215.1 85.3,214.9 81,207.6 80.2,207.2 79.7,207.1 79.7,206.2 80.8,205.4 80.9,204.2 79.1,199.2 76.5,197.7 
	76.3,196.3 76,194.3 75.5,192.8 75.8,189.1 76.1,188.9 76.1,184.4 75,182.7 75,177.9 74.7,175.6 74.3,173.3 74,170.5 73.8,167.8 
	73.6,165.4 72.9,163 72.3,161.9 69.4,159.4 67.7,158 64.6,154.6 62.8,152.1 61.6,150 60.1,147.2 59.5,145.8 58.7,143.8 56.3,142.3 
	56.2,138.8 57.6,137.4 57.6,136.4 56.5,136.4 56.5,134.3 57.3,130.5 60.7,127.1 60.8,122.3 60.7,120.4 60.2,118.9 59.7,118.4 
	59.1,118.3 58.4,118.9 58.2,120.3 56.7,120.5 54.1,118.1 51.8,116.5 50.8,115.2 50.6,113.6 49.7,111.9 48.9,110.4 47.2,110.4 
	44.8,108.6 43.7,108 42.7,107.2 41.7,105.8 40.6,105.1 39.9,105.6 38.5,106.2 33.4,103.4 30.8,101.7 28.7,100.1 27.7,98.3 28,96.9 
	27.8,93.1 25.6,88.5 24.1,84.7 23.3,81.8 23.3,77.7 23.2,75.6 22.7,75.6 22.2,77.1 21.5,79.9 21.2,81.8 21.8,83.7 23.1,88 
	24.1,91.9 24.2,92.9 22.9,92.8 22.2,90.5 21,88.5 19.8,86.2 19.6,84.6 20.5,82.3 19.9,80.8 19.5,78.4 19.3,77 19.1,74.9 17.1,72.9 
	17,69.7 17.5,66.2 18.9,62.7 22.7,56.4 25,52.2 26.9,49.9 28.1,49.9 28.4,50.8 29,50.8 29,49.6 29.6,46.5 28.8,44.6 28.9,42.3 
	30.2,38.1 31.5,34.7 32.2,33 32.1,32 31.5,32.1 30.7,32.6 29.6,32.6 29.2,31.9 29,31 28.5,29.9 27.1,29.5 25.3,28.3 24.5,27.6 
	23.7,27.6 22.9,28.5 21.5,29.2 20.6,29.5 19.7,29.6 18.5,29.5 18.2,29 19,28.3 19.9,27.9 20.9,27.1 21.8,26.5 21.9,25.9 21.1,25.9 
	18.8,26.9 10.2,31.3 6.6,33.1 5.3,33.7 "/>
<polygon points="0,34.4 0,33.2 1.6,32.8 2.8,33.4 2.8,34.1 1.9,34.4 "/>
<polygon points="26.1,46.2 26,44.9 27.5,45 27.8,46 28.6,47 28.6,49.1 28.1,49.2 27,47.9 27,46.5 "/>
<polygon points="69.4,61.2 70.2,61.2 71.4,59.1 71.9,59 72.7,59.8 73.3,59.7 73.3,58.4 72.1,56.5 70.1,56.3 69.6,55.6 69.4,53.4 
	68,52 65.8,52.5 62.4,54.1 62.5,54.9 63.6,55.3 65.6,54.8 67.3,55.4 68.8,55.9 68.8,57 65.6,57.2 64.3,58.1 63.6,60 62.5,62.2 
	62.8,63.4 64.7,61.9 65.1,60.1 66.6,58.7 68,58.2 69.3,58.7 "/>
<polygon points="67.3,64.1 67.3,63.2 69.3,62.9 71,62.5 72.9,62 74.9,61.6 76,60.9 77.3,60.7 77.2,61.5 75.6,62.4 72.8,62.7 
	71.9,63.6 69,64.3 "/>
<polygon points="99.2,54 103.8,50.6 104.9,50.3 105.1,51 104.4,52.9 105.1,53.8 105.4,56.1 105.1,58.1 103.2,57.1 101.8,56.3 
	99.7,56.3 99.2,54.7 "/>
<polygon points="123.7,1.6 123.8,2.4 120.3,4.6 116.8,4.8 113,6 109.2,9.9 107.4,10.2 104.8,10.4 103.7,9.2 103.6,8.2 105.5,6.5 
	108.7,5.1 111.6,4.2 111.7,3.5 109.2,3 105.8,3.4 104.1,3.1 104.1,2.2 106.7,1.6 109.4,0.7 112.8,0.7 114.4,1.8 116.9,1.8 
	119.5,1.8 122.7,1.6 "/>
<polygon points="84.9,29.9 84,29 84,28.2 86.7,26.5 88.1,26.5 88.8,27 88.8,28.5 89.3,29.3 89.4,30.3 88.5,30.4 87.9,29.3 86.7,29 
	86,29.4 85.8,30 "/>
<polygon points="64,15.6 66.8,15.5 68.5,13.8 72.8,12.5 72.7,11.9 70.1,10.4 67.7,11.1 65.5,13.1 63.3,14.8 "/>
<polygon points="76.5,10.2 76.5,12.1 81,12 82.9,11.6 84.2,10.1 83.6,8.6 82.5,8.5 81.4,10.1 81,10.1 80.7,9.9 79.7,8.7 78.4,8.9 
	"/>
<polyline points="68.5,16.7 68.5,15.8 71.8,13.9 73.7,13.7 76.8,15 78.8,15.6 78.8,16.7 77.7,17.7 78.1,18.3 78.4,19.1 78,19.5 
	76.5,19.7 75.5,20.5 74.2,20.2 73,19.6 70.3,19.6 67.5,19.8 66,18.6 66.1,17.8 68.5,17.5 70.2,17.9 70.2,17.1 68.8,16.7 "/>
<polygon points="81.8,14.6 84.4,13 87.2,13.6 86.9,14.7 86.2,16 84.9,17.3 83,17.3 81.8,16.1 "/>
<polygon points="87.7,15.3 87.9,16.5 88.9,16.6 90.7,15.8 92.9,14.6 92.9,13.6 90.6,13.7 89.1,14.1 "/>
<polygon points="87.8,10.4 88.1,12.6 89,12.4 90.8,11.2 90.8,10.3 90,9.6 88.9,9.3 88,9.7 "/>
<polygon points="93.4,9.8 94.3,12.2 97.7,13.1 103.8,13.1 103.2,11.7 97.2,11.6 95.5,9.4 "/>
<polygon points="91.9,18.8 91.6,16.9 95.5,14.3 97.8,14.4 99.1,14.4 99.3,15.1 99,15.7 99.7,16.7 102.8,16.1 103.9,17.5 106.4,18.8 
	107.8,20.5 107.5,21.6 106.5,22.5 106.5,23.1 110.3,25.4 110.1,26.5 106.3,28.8 105.1,28.1 104.3,26.6 103.8,26.8 103.7,29 
	101.6,32.9 100.9,33.2 99.5,32.1 96.4,29.1 92.8,29.1 92.1,28.4 93.9,26.6 94.8,26.6 96.9,26.6 100.7,22.7 101.9,21.6 101.3,20.5 
	97.5,20.1 94.4,19.6 "/>
<polygon points="55.5,95.9 55.5,95.3 57,94.5 62.4,94.7 68.4,98.9 68.4,99.7 68.2,100.1 63.8,100.1 64.3,99 63.5,98.4 62.1,97.4 
	61,95.9 "/>
<polygon points="62.2,101.9 64.4,101.8 64.3,103.1 62.9,103.1 62.1,102.7 "/>
<polyline points="67.2,102.1 67.3,102.6 69.2,102.7 70.8,103 71.3,103.2 72.7,102.5 75.4,102.2 75.4,101.4 73.9,101.3 72.3,100 
	70.2,100.4 69.3,100.5 69.5,101.8 67.3,101.8 "/>
<polygon points="77.6,102.3 78.9,102.2 79.5,103.1 77.6,103.3 76.8,102.8 "/>
<polyline points="82.7,105 83.3,106.6 84.4,106.3 84.4,105.4 83.9,104.9 82.6,104.7 "/>
<polygon points="83.2,107.2 84.2,107.2 84.3,109.7 83.4,109.6 83.2,108.5 "/>
<polygon points="141.6,0 151.9,0.3 151.9,1.1 150.9,1.7 148.7,2.1 148.7,2.7 149.9,3.3 151.6,4.1 152.9,5.1 154.6,4.7 156.2,3.8 
	158.8,3.9 160.6,4.1 160.7,5 159.5,5.2 156.7,6.3 156.3,7.2 153.4,8.8 150.8,10.9 150.9,12.9 153.1,14.2 153.1,14.9 151.6,17 
	150.4,18.3 149.1,18.3 148.6,17.7 147.4,18.3 147.4,19.5 148.8,20.7 148.8,21.4 147.4,21.5 146.6,21 146,21 146,22 147.7,22.7 
	148.9,22.8 148.4,24.1 145.3,24.4 140.4,25.1 134.9,27.2 130.3,28.7 123.9,36.6 122.6,37.3 120.7,35.4 118.5,34.1 118.5,28.3 
	121.5,24.1 123.6,20.5 122.2,17.5 121.4,13.3 118.9,11.4 116.9,11.4 115.2,11.4 115,9.6 116.5,8.5 117.3,8.7 119.4,8.7 120.4,7.9 
	120.4,6.5 132,1.6 133.9,1.5 135.7,2.6 140.2,2.4 "/>
<polygon points="145.1,28.5 146.1,27.6 147.2,27.5 148,28.9 149.1,28.9 150.5,28.3 153.2,27.8 154.1,29.1 153.7,31 151.6,32.4 
	148.3,32.3 146.2,31.6 146.2,30.6 145.4,30.3 "/>
<polygon points="155.1,51.6 155.7,50.4 155.1,50 155.6,48.6 156.9,46.5 158.5,45.7 160,45.7 160.8,46 159.9,47.8 159.2,49.7 
	157.5,51.8 156.8,51.8 156.3,51.3 155.7,51.6 "/>
<polygon points="164.2,40 164.2,40.6 163.8,41.1 164.9,41.6 165.4,42.6 164.2,43.3 164.4,44.3 165.3,45.8 166.1,47.7 166.9,49.4 
	168.5,49.6 168.4,50.6 167.4,52 165.1,52.6 162.3,53.1 160,53.5 160.2,52.7 161.8,52.2 161.8,51.5 161.3,50.8 162,49.2 163.6,48.1 
	163.7,46.4 162.6,46.1 161,44.3 161,42 162,40.1 "/>
<polygon points="154.8,73.7 154.8,65.9 155.1,64.3 156.7,63.8 159.2,63.8 161.6,64.3 162.8,64.6 164.2,63.8 163.9,62.7 164.6,61.5 
	164.4,59.1 162.9,58.1 161.4,57.4 160.9,57 160.8,56 163.4,56 163.6,54.8 163.1,54.2 164.3,54.1 164.9,55 166.3,55 169,52.2 
	170,51.7 170.7,50.6 171.5,50.1 171.8,51.1 172.3,51.1 172.2,48.9 173.7,48.4 175.6,47.9 176.1,46.2 175.9,43.8 175.8,42.5 
	176.9,41.8 178,41.5 178.3,42.8 178.3,44.4 177.6,45.2 177.6,46.5 178.6,47 180.6,47.2 181.9,47.1 183.5,46.5 184.9,46.4 
	186.6,46.3 187.6,46.7 188.4,46.5 188.9,44.7 189.6,42.8 190.3,41.8 191.2,41.9 191.6,42.3 192.6,41.8 192.6,40.9 192.2,39.3 
	194.8,39 196,39 197.5,38.2 196.9,37.3 196.5,37.2 195.2,37.2 194.1,37.6 192.8,38.2 191.1,38.1 189.3,34.5 189.3,33.4 190.8,31.9 
	192.1,30.5 192.1,28.7 191.3,28.7 190.4,28.3 189.1,29.6 187.9,31.1 187.8,32.1 186.4,33 185.2,35.4 185.9,37.2 185.9,38.6 
	184.8,40.5 184,42.4 184,43.3 183.3,44 182.5,44.5 182,45.3 180.8,45.4 180.4,43.9 180,42.5 179.1,41.8 179.1,40.2 178.6,40.3 
	178.6,39.3 177.4,40 176.6,40.1 176.1,40.8 174.6,40.9 173.7,39.8 173.7,35.7 175.6,34.4 177.4,32.7 180.8,29.5 183.3,27.1 
	186.5,23.9 192,20.2 194.4,20.2 196.7,21.3 198,22 201.7,23.4 204.9,25.6 205.8,25.6 206.5,26.6 207,26.9 207,28 206.5,28.8 
	205,28.8 203.3,28 201.7,27.4 200.1,26.9 200,28.3 201.1,29.2 202.4,29.9 204.3,31.9 205.6,31.9 208,29.4 208.7,29.2 210,28 
	210.3,28.5 211.4,28.6 211.4,27.3 210.7,26.6 210.7,25.6 209.9,25.1 209.9,23.9 210.7,23.9 212.3,24.9 212.4,26.4 213,26.4 
	215.4,25.8 218.3,24.6 220.5,23.9 224.1,22.9 227.6,22.7 229.5,23.8 231,23.6 231,22.7 229.8,21.2 228.9,21 228.8,19.6 231,17.5 
	231.3,16.8 233.1,16.7 233.5,17.3 233.3,19 236.7,23.6 236.7,25.2 235.4,25.9 235,26.7 236.8,26.7 238,25.6 238.1,23.6 239.9,23.6 
	240.7,23.4 240.6,22.6 237.9,21.8 236,20.5 235.1,18.5 239.4,16 241.1,14.6 243.5,12.6 249.6,10.6 252,10.2 261.3,10.1 262.7,10.5 
	262.4,11.9 260.4,14.6 260.5,14.9 261.2,15 264.6,13.4 268.6,13.1 282.2,15.5 283.8,15.8 287.1,15.5 287.6,14.1 288.4,13 
	290.5,13.1 296.2,14.5 301.6,14.3 305.4,14.1 309.6,15.4 313.1,15.3 317,13.6 320.4,13.6 328.6,14.6 334.2,16.1 337.3,16.8 
	338.9,18.3 338.9,19 337.6,19 335.9,18.5 334.5,18.5 333.7,18.6 332.9,18.3 332.2,18.5 332.1,20.4 334.4,21.3 336.4,21.8 
	337.2,22.5 337,23.5 334.7,26.9 334.7,27.6 331.6,27.8 330,28.8 330.8,30.2 333.5,32.8 336,36.7 337.2,40.3 337.2,42.5 336.3,42.5 
	334.9,40.8 332.5,38.3 329.3,35.6 326.9,34 326.9,32 327.9,30.5 327.5,28.2 326.4,26.3 325.7,26.2 324.9,27.3 324.4,27.3 
	323.7,26.7 322.5,26.9 322.2,28.8 323.1,30.6 321.6,31.8 319,32.3 316.6,32.4 314.1,32.5 311.9,33.2 311.3,33.8 311.4,38.8 
	313.2,40.8 314.1,40.8 314.5,40.3 315.9,40.3 317.5,41.7 319.9,44.5 321.7,47.7 322.8,50.6 323.6,54.5 323.7,58.2 320.3,59.4 
	319.6,62.4 319.3,64.9 320.8,67.3 322.8,70 323.2,70.7 323.2,71.9 321.9,72.9 320.7,73.6 320.6,72.3 319.3,70.1 318.3,68.2 
	316.7,67.1 314.5,64.8 313.9,64.8 312.6,66.3 311.4,65.8 311.4,64.5 311.7,63.9 310.3,63.8 308.1,66.1 308,67.3 309.5,68.6 
	312.4,68.8 313.9,69.3 313.7,70.2 312.9,70.6 313.1,72.3 315.9,76.9 317.3,79.9 316.5,80.4 317.4,81.2 318.3,82.2 318.3,87.5 
	316.8,89.5 313,93.3 309.7,95.5 308.5,97.4 307.5,97.4 307,96.2 306,95.4 304.7,96 303.1,99.8 303.5,101.3 306.7,104.2 308.9,106.7 
	309,111.4 308,113.2 307,114.6 305.5,115.8 304.8,117 303.9,117.1 303.9,115.8 303.3,114.7 302.2,114.1 300.9,112.9 300.8,111.4 
	299.6,111 298.6,110.3 298.2,109.4 296.7,109.4 297.3,113.1 297.3,116 298.7,118.9 299.9,120.9 301.5,123.2 302.6,125.6 
	303.4,127.2 303.1,128.3 302.1,128.3 300.9,127 300.2,127 298,122 296.8,120.5 294.8,118.4 294.8,113.3 294.5,109.8 293.4,106.6 
	292.1,103.5 291.4,103.7 290.4,104.9 289.2,105.3 288.1,104.8 288.6,101.7 286,98.9 284.7,97.7 284.5,96.5 284.4,94.5 282.8,94.5 
	281.4,96.4 280.3,96.3 279.8,95.6 278.4,96.2 277.1,99 275.4,101.3 273.7,103.4 271.3,106.9 270.4,111.6 269.9,114.8 269,119 
	268,118.8 266.9,118.3 265.6,115 264,111.9 261.2,105.5 260.1,101.2 259.8,96.7 258.6,96.7 258.4,98.8 257.6,99.1 256.3,98.4 
	254.2,96.2 253.5,94.9 252.8,93.7 251.1,92.1 242.6,92.1 241,91.6 239.1,90.8 239.1,89.4 238.1,88.6 236.5,88.8 235.7,89.6 
	233.4,89.6 232.3,88.6 229.8,86.2 228.5,84.8 226.9,84.9 226.1,85.9 226.3,86.7 228,88.1 228.8,89.8 229.7,90.1 229.9,91.2 
	230.6,91.4 231.7,90.8 232.3,91.5 232.3,93.4 233.3,93.6 235.2,93.8 236,92.8 236.9,91.3 238.3,91.3 238.2,93 238.5,94.2 
	239.6,94.7 241.1,95 241.9,95.4 242.4,96.2 241.1,100.4 239.1,102.8 237.1,104.7 235.7,105.5 233.2,107.3 231.3,109.1 229.6,110.3 
	224.6,111.4 223.1,111.8 221.6,109.4 221,108.1 220.3,103.6 216.7,98.7 211.3,90.1 209.8,86.2 209.1,87 208.7,86.9 208.6,86.4 
	207.2,86.4 207.5,87.7 208.3,90 211,95.2 213.3,98.8 213.4,101.3 216.3,104.3 217.1,107.5 217.9,108 220,110.2 221.9,112.2 
	221.8,115.2 223,115.3 225.8,114.6 230.3,113.1 232.6,112.8 232.8,113.9 228.6,124.2 224.9,129 220.6,133.5 217.3,137.6 217,142.6 
	218.5,152.3 218.7,154.9 215.8,158 212.6,160.7 210,162.9 210.7,166.3 210.7,169.8 207.4,171.9 207.4,173.1 205,177.7 201.6,181.6 
	198.9,183.7 196.2,184 192.8,184.9 191.1,186.2 190.1,186.1 189.7,185.3 187.7,183.9 187.4,180.3 184.1,174.3 183.3,168.9 
	182.8,166.3 180.1,160.1 180.1,154.3 182.7,149.4 181.5,142.4 179.6,138.2 175.9,132.8 176.6,129.9 177.4,127.5 177.6,125.7 
	175.6,125.4 173.4,125.4 171,122.1 168.6,122.4 163.2,123.8 156.5,125.9 153.8,125.4 147.9,119.1 143.7,113.8 142.3,110.7 
	142.3,107.3 143.2,103.8 143.1,100.2 143.5,97.2 146.9,90.3 148.8,88.1 150,88.1 152.9,84.7 153.3,82.4 153.8,81.2 156.1,79.6 
	157,78.4 158.4,76.1 159.3,76.1 160.7,76.8 162.3,76.8 166.3,75.3 169.5,74.6 171.5,74.2 173.4,73.7 176.1,73.7 179.3,73.9 
	179.2,75.6 178.4,77.6 178.7,78.5 180.1,79.7 181.6,80.3 184,80.5 184.7,80.8 185.2,82.5 186.9,83.5 189.7,84 190.8,84 190.9,83 
	190.4,83 190.5,81.8 192,80.9 194.2,80.4 195.4,81.3 196.9,82.5 199.1,83.8 201,83.8 202.3,83.1 204.4,82.7 205.4,82.7 206.7,82.9 
	207.3,83.3 208.1,82 208.6,80.5 209.2,78.3 209.2,77.1 209.2,75.4 209.7,75.1 209.7,74.4 207,74.7 205,74.6 202.7,74.9 200.3,74.9 
	199.3,73.9 198.7,71.6 198,69.3 199.3,69.3 200.1,68.5 200.7,68 201.7,68 203.3,67.8 204.1,67.1 204.9,66.6 205.8,65.8 207.6,65.8 
	208.7,66.5 210.4,66.8 211.7,67.1 213,67.3 215.3,67.2 215.2,65.8 215.6,65.1 214.8,64.3 213.9,64.3 212.9,63.5 212.1,62.8 
	210.6,61.9 209.9,61.2 210.2,60.1 211.2,59.1 211.9,58.7 211.9,58 211,57.8 210.4,58.1 207.4,59.6 208.3,60.4 208.3,61.4 
	206.8,62.2 205.9,62.2 205,61.3 204.3,59.2 204,58.7 203.1,59 201.4,59.7 200.4,62.4 199.4,64.2 199.4,66.1 200,67.2 198.4,68.7 
	197.4,68.7 196.5,68 194.5,68.5 194.2,69.5 194,71.2 194,72 194,74.7 192.3,75 191.3,74 191.3,72 192.1,71.8 190.9,71.2 190.1,70 
	189.2,67.8 188,66.2 186.4,65.2 184.2,63.1 182.9,62.6 182.1,61.7 181.7,61 180.9,61 180.6,62.2 181.3,62.9 182.1,64.3 182.3,65.1 
	183.9,65.8 185.2,66.3 185.2,67.3 186.9,68.4 187.8,69.3 188.3,70.4 187.8,70.4 187.1,69.8 186.6,69.8 186.4,72.2 186.1,72.8 
	185.4,72.8 185.3,70.8 184.4,69.7 183.3,68.5 182,67.6 180.6,67.4 179.6,66.8 178.2,64.6 177.7,63.5 176.7,62.7 175.7,63.1 
	174.1,64.8 172.8,65.1 172.1,64.3 170.3,65.1 170,66.6 166.3,69.6 164.9,72.7 163.3,75.4 162.3,75.3 161,74.7 159.9,75 158.2,75.3 
	156.8,74.6 155.8,74.4 "/>
<polygon points="176.8,64.1 175.8,65.2 175.9,66.6 175.9,67.1 177,67.1 177.3,66.7 177.3,65.3 "/>
<polygon points="175.6,68.6 176.1,68.1 177.1,67.9 177.2,68.5 176.9,69.5 177.1,69.8 176.7,70.7 176.1,70.9 175.8,70.5 175.5,69.4 
	"/>
<polygon points="181,72.6 181.1,73 182.5,73.9 183.5,74.9 184.8,74.7 184.9,73.2 184.2,72.4 183.1,72.4 "/>
<polygon points="194.3,76.8 194.3,76.3 195.5,76.8 198,76.7 198.2,77.2 196.9,77.8 196.2,77.3 195.3,77.1 "/>
<polygon points="205.4,77.5 206.2,76.3 208.3,75.6 208.5,76.4 207.8,77.3 206.6,78.1 205.9,78.1 "/>
<polygon points="215.9,16.8 215.3,19.8 218.2,20.2 218.9,20.7 221.4,20.7 221.4,20.1 219.5,19.7 219.1,19.1 218.5,16.6 "/>
<polygon points="216.8,16 219,15.9 220.1,14.9 220.5,14.9 221.8,13.9 223,13.9 225.5,12 225.6,10.2 224.9,10.1 222.5,12.4 
	221.2,12.4 219.4,12.2 218.5,13.2 217.9,14.2 217,14.4 "/>
<polygon points="318.5,40.3 318.7,39.6 319.6,39.7 320.3,40.4 321.6,42.3 323,43.8 323.7,43.8 326.2,46.5 327.3,47 327.1,47.6 
	326.8,48.4 327.8,50.1 328.6,50.9 329.6,51.6 329.6,52.6 328.9,52.6 328.9,53 328.1,53 327.2,50.8 325.9,50 324.9,48.6 323.2,46.5 
	321.4,44.5 319.7,41.6 "/>
<polygon points="329.1,55.4 329.3,54.7 330.4,54.2 331.3,54.6 332.3,54.6 333.8,54.9 334.4,55.2 335.4,56 335.4,57.3 334.5,58.2 
	334.2,58.9 333.3,59 332.6,58.5 331.9,58.5 331.8,60 330.7,60 330,59 329.6,58.2 329.8,57.3 330.2,56.7 330,56.2 "/>
<polygon points="331.5,60.9 332.6,60.8 333.9,61.9 335.3,64.2 336.2,67 336.8,68.8 336.5,71.4 334.6,71.7 333.5,70.6 331.5,70.6 
	329.6,71.7 329.6,73.7 328.3,74.2 327,74 326.9,73.1 328.1,71.5 331.1,69.3 331.2,67.6 331.8,67.6 332.9,68 333.5,65.8 332.5,65 
	331.8,62.5 "/>
<polyline points="326.5,76.2 327.6,76.3 327.7,76.9 328.1,78.2 328.6,79 329.6,78.9 330.3,77.8 329.3,76.6 328.5,74.9 327.3,74.7 
	326.6,74.9 326.4,75.9 "/>
<polygon points="330.4,73.3 331.8,73.2 332.5,72.7 333.5,71.7 332.8,71.4 331.3,71.7 330.6,72.2 "/>
<polygon points="284.4,42 285,41.4 285.3,42 285.2,45 284.7,46.5 284,47.4 282.9,47.7 282.9,46.8 284,45.8 284.5,44.3 "/>
<polygon points="228.2,60.2 227.5,60.2 227.3,61.1 226.4,61.6 225.8,62.1 226,62.7 226.9,63.4 228.6,65.7 228.6,67.9 229.8,68.9 
	230.8,70.4 231.3,72.3 232,73.2 231.9,73.9 230.6,74.7 229.6,74.7 227.1,73.3 225.4,72.9 225.4,70.5 226.3,68.1 224.4,66.1 
	221.5,62.9 221.4,60.9 223.4,59.2 226.2,58.3 227.3,58 228.3,58.2 228.8,58.8 228.7,59.7 "/>
<polygon points="236.5,57.7 238.1,57.7 238.4,58.2 238.7,60.7 237.9,62.2 236.8,62.6 235.4,62.6 235,60.9 235.1,59.3 235.9,58.5 "/>
<polygon points="251.9,58.2 251.2,58.3 251.4,59.2 252,59.4 252.6,60 253.1,60.1 253.4,59.2 253.4,58.5 255.3,58.4 256.9,58.2 
	258.3,57.8 258.3,57.1 257.2,57.1 256.6,57.5 255.8,57.3 254.8,56.9 254.1,56.6 253.2,56.6 252.5,57.2 "/>
<polygon points="207.3,131.6 209.1,131 210,131 211.2,131.4 211.1,132 210.5,132.9 209.7,133.9 209.7,135.7 208.3,135.9 207,134.7 
	"/>
<polygon points="204,138.5 203.9,141.7 205.1,144 205.9,144.1 205.9,142.6 204.9,140.8 204.9,139.4 204.6,138.4 "/>
<polygon points="209.2,146.8 210.1,146.5 210.2,148.1 210.5,151.4 210.8,153.8 210.1,153.5 209.6,152.6 209.4,150.9 209.5,148.5 "/>
<polygon points="222.6,162.5 222.7,160.6 222.2,160.4 222.9,157.5 225,155.9 226.2,155 227.3,153.3 230,150.4 230.6,150.2 
	230.6,152.4 230.7,156.8 228,164.1 226.4,170.2 223.7,171.1 222.2,171.2 221,168.7 220.9,166.3 "/>
<polygon points="236.8,163.7 236.9,164.7 237.7,165.2 238.6,165.2 238.8,164.6 237.7,163.7 "/>
<polygon points="240.3,162.3 240.8,162.3 241,163.1 240.6,163.9 239.9,163.8 "/>
<polygon points="320.4,89.1 321.5,88.8 322.1,90.6 322.1,91.5 322.7,94.2 321.7,94.2 320.4,93 319.8,91.3 "/>
<polygon points="322,99.9 323.9,99.7 325.4,101.6 324.5,103.8 325.4,106.5 327.4,107.1 329.1,108.5 329.3,109.5 328.2,109.5 
	326.5,107.8 324.2,108 322.2,105.1 322,103.7 322.5,103 322.2,101 "/>
<polygon points="271.5,115.6 273.1,118 274.4,119.5 273.5,121.4 271.4,122 270.4,120.2 270.7,118 271.1,116.3 "/>
<polygon points="292.8,122.4 297.5,126.3 301.8,130.8 304.5,133.8 306.2,135.8 305.9,137.9 305.9,139.6 304.1,140.1 300.9,137.1 
	297.4,131.4 294.7,127.4 292.5,124.3 291.7,124.3 291.6,123 "/>
<polygon points="304.2,142.2 304.9,140.9 307.2,140.2 308.9,140.9 312.3,141.3 314.3,142.2 316.6,144 317.1,145.9 315.7,145.8 
	314.3,144.9 312.3,144.8 310.5,144 307,143.2 305.9,142.2 "/>
<polyline points="323.7,112.7 323.3,114.3 322.3,116 321.5,116 321.6,114.7 322.4,113.7 322.8,112.7 323.6,112.4 "/>
<polygon points="326.7,111.1 328.3,111.4 328.3,112.1 327.6,113.3 326.6,113.5 326.4,112.2 "/>
<polygon points="325.3,117.1 326,116.1 326.8,115.6 327.4,115.6 328,115.4 328.5,114.3 329.4,114.3 329.8,115.3 330.5,116.6 
	328.9,119.1 327.2,119.2 327.1,117.7 326.9,117.4 325.6,117.5 "/>
<polygon points="321.2,120.2 322.1,121 322.7,121.7 323.4,122.8 322,124.1 321.6,126.3 322.6,127.7 323.2,129.5 321.6,131.1 
	320.3,134.1 319.1,137.1 318.3,137.8 316.6,137.8 312.1,135.7 311.1,132.8 310.5,130 310.5,128.5 311.2,128.5 315,126.1 
	317.4,123.3 318.7,121.6 319.1,120.1 "/>
<polygon points="336.1,127.2 336.7,128.2 336.7,130.4 336.2,131.7 335.6,131.7 335,130.5 334.9,129.2 335,127.8 335.8,127.1 "/>
<polygon points="331.1,129 331.7,128.9 331.8,129.5 331.1,130.3 329.4,130.4 326,130.6 325.5,133.3 327.3,132.5 328.8,131.7 
	330,131.9 329.9,132.6 329,132.7 327.3,133.9 327.1,135.1 328.4,136.8 328.8,138 328.1,139.2 326.5,139.6 326.4,138.4 326.2,135.8 
	325.3,135.8 325,137.3 325.4,140 325.2,140.5 324,140.5 324,138 323.3,136.5 323.3,133.8 324.6,130.2 325.4,129.1 327.3,129.1 
	327.6,129.7 329.4,129.7 "/>
<polygon points="318.5,146 319.2,145 320,144.6 322.1,144.6 322.3,145.4 321.6,146.1 "/>
<polygon points="323.9,145 323.9,145.8 324.6,146.4 326.5,146.3 328.3,145 328.3,144.1 327.7,144.1 326.4,144.9 "/>
<polygon points="328.9,147 328.9,148.3 330,148.2 331.1,147.4 333.1,146.4 333.7,146.1 333.7,145.2 332.9,145.2 331.1,145.8 
	330,146.1 329.7,146.8 "/>
<polygon points="335.8,135.6 337.4,135.8 338.8,136.5 338.9,137.2 337.1,137.4 335.9,136.8 "/>
<polygon points="339.8,133.1 341.1,136.4 343.2,136.8 345.5,138.9 347.8,140.5 348.4,141.5 348.5,144.1 350.7,145.8 352.9,146.3 
	354.3,147 356.1,144.7 357.1,144.6 358.9,146.7 359.8,148.5 361.6,149.4 363.5,149.4 363.8,148.3 361.9,145.7 360.8,143.9 
	360.5,143.1 360.8,141.9 357.7,139.3 354.9,137.1 352.8,136.4 350.5,135.4 347.4,134.8 345.5,136 344,136.1 344.1,135.1 
	344.1,133.8 343.8,133.3 342.5,132.7 341.4,132.2 340.7,132.4 "/>
<polygon points="361.7,142.1 365.6,142.1 366.6,140.7 366.6,138.2 366,138.3 365.8,139.3 365.3,140.2 365.3,140.8 364.8,140.8 
	364,140.2 363.5,140.2 363.3,140.7 362.5,140.9 361.9,141.4 "/>
<polygon points="353.2,149.5 353.9,149.5 354.2,156 354.9,162.2 357.6,169 359.1,177.2 357.1,182.2 352.5,189.5 346.6,195.9 
	345.3,196.6 343.5,196.9 342.1,198.1 340.6,198.7 339.5,198.4 339.5,197.5 338.3,197.5 337.3,198.8 336.2,197.9 334.8,195.7 
	334.3,193.1 333.6,190.6 335.4,189.1 335.5,188.3 334.5,188.3 332.7,189.2 332.3,190.3 331.5,190.6 331.3,189 331.4,186.5 
	330.4,185.5 323,185.7 317.3,186.8 312.1,189.1 310.2,189.4 308.9,189.5 307.6,187.8 309.4,181.3 310.5,174.3 311.1,168 
	316.5,165.2 321.1,164.4 327.3,158.7 331.2,155.2 333.2,155.1 333.2,156.4 335.6,156.4 334.8,155.4 335,154.3 336.4,153.8 
	338.4,151.2 339.4,149.9 340.6,149.9 341.6,150.9 344.3,151.3 344.7,152.3 343.2,156.2 343.3,157.8 344.3,158.8 346.9,161.4 
	348.4,161.1 350.6,156.8 351.2,153.3 352.1,150.7 "/>
<polygon points="336.1,201.6 337.1,201.4 337.8,202.1 339.1,201.7 339.9,201.7 340.5,201.7 340.7,203.1 339.1,204.4 338.7,205.3 
	337.6,206.2 336.1,206.4 334.9,206.2 334.9,204.4 335.6,202.4 335.7,201.4 "/>
<polygon points="373.9,194.4 374.6,195.4 375.1,198.8 375.1,200.6 377,201 377,202.2 375.3,202.1 373.6,203.3 371.7,205.3 
	370.5,207 369.1,206.7 369.3,205.1 369.9,203 371.5,202.3 372.8,200.6 373.3,198 373.5,195.4 "/>
<polygon points="367,205 368.1,206.2 368.2,207.7 366.3,208.4 363.2,209.4 360.8,211.2 359.5,212.2 358.4,213.6 357.3,214.2 
	355.1,214.3 354.1,214.1 353.9,212.4 355.1,211.6 358.3,210.6 360.2,208.9 362.8,207.8 364.9,205.6 "/>
</svg>
