<svg xmlns="http://www.w3.org/2000/svg" viewBox="0 0 183.97 233.71"><defs><style>.a{opacity:0.1;}.b{fill:#231f20;}.c{fill:#fc9d9d;}.d{fill:#ffa9a9;}.e{fill:#fccaca;}.f{fill:#cc8f8f;}</style></defs><g class="a"><path class="b" d="M77.46,40.29c-1.92,20-16.65,34.92-32.9,33.36s-27.88-19-26-39S35.24-.28,51.5,1.28,79.38,20.31,77.46,40.29Z"/><path class="b" d="M67.86,39.37c-1.92,20-17.73,34.82-35.31,33.13S2.27,53.25,4.19,33.26,21.92-1.56,39.5.13,69.78,19.39,67.86,39.37Z"/><path class="b" d="M48.15,5.36S76,30.45,53.24,63.29"/><path class="b" d="M55.07,66.48A37.76,37.76,0,0,0,39.76,54.55a37.74,37.74,0,0,0-17.3,8.8A39.7,39.7,0,0,0,8.15,54L6.6,70.11h0C5.31,87.52,17.86,102.84,35,104.48s32.34-11,34.35-28.36h0l1.54-16.07A39.64,39.64,0,0,0,55.07,66.48Z"/><g class="a"><path class="b" d="M65,61.53l-1.35,14h0C61.75,92,48.07,104.14,32.14,104.07c.93.18,1.87.32,2.83.41,17.11,1.64,32.34-11,34.35-28.36h0l1.54-16.07A35.91,35.91,0,0,0,65,61.53Z"/></g><path class="b" d="M51.18,2s23.43,9.41,20.61,36.33"/><path class="b" d="M71.65,44.71A33,33,0,0,1,59.73,63.53"/><path class="b" d="M40.78,1S-.66,5.12,11.09,51.8"/><path class="b" d="M42.72,3.05s-26,5-25.91,26.43"/></g><path class="c" d="M73.46,40.29c-1.92,20-16.65,34.92-32.9,33.36s-27.88-19-26-39S31.24-.28,47.5,1.28,75.38,20.31,73.46,40.29Z"/><path class="d" d="M63.86,39.37c-1.92,20-17.73,34.82-35.31,33.13S-1.73,53.25.19,33.26,17.92-1.56,35.5.13,65.78,19.39,63.86,39.37Z"/><path class="e" d="M44.15,5.36a20.81,20.81,0,0,1,2.12,1.77,40.21,40.21,0,0,1,4.89,5.43,39.25,39.25,0,0,1,2.74,4.09,41,41,0,0,1,2.51,4.91c.34.9.75,1.79,1.05,2.73l.48,1.42.39,1.46c.29,1,.44,2,.67,3s.33,2,.42,3.05.17,2.06.15,3.09v1.54l-.09,1.52a24.58,24.58,0,0,1-.33,3c-.11,1-.37,1.94-.56,2.88A35.07,35.07,0,0,1,57,50.52c-.16.41-.31.81-.46,1.21s-.36.76-.53,1.14c-.37.74-.67,1.47-1,2.13a37.41,37.41,0,0,1-2.12,3.55A29.59,29.59,0,0,1,51,61.14c-1.09,1.38-1.73,2.15-1.73,2.15s.45-.91,1.26-2.45c.43-.75.83-1.73,1.36-2.82s1-2.35,1.59-3.7c.29-.67.5-1.42.77-2.16.13-.37.26-.75.4-1.13s.23-.79.34-1.19a23.86,23.86,0,0,0,.65-2.49c.16-.86.44-1.71.55-2.61a42.92,42.92,0,0,0,.6-5.53l.06-1.42,0-1.43c0-1-.11-1.92-.19-2.87s-.22-1.91-.35-2.86-.32-1.89-.57-2.8a51.21,51.21,0,0,0-1.58-5.35c-.67-1.69-1.3-3.34-2.06-4.84s-1.48-2.91-2.22-4.18a66.35,66.35,0,0,0-4-6C44.82,6.11,44.15,5.36,44.15,5.36Z"/><path class="f" d="M51.07,66.48A37.76,37.76,0,0,0,35.76,54.55a37.74,37.74,0,0,0-17.3,8.8A39.7,39.7,0,0,0,4.15,54L2.6,70.11h0C1.31,87.52,13.86,102.84,31,104.48s32.34-11,34.35-28.36h0l1.54-16.07A39.64,39.64,0,0,0,51.07,66.48Z"/><g class="a"><path d="M61,61.53l-1.35,14h0C57.75,92,44.07,104.14,28.14,104.07c.93.18,1.87.32,2.83.41,17.11,1.64,32.34-11,34.35-28.36h0l1.54-16.07A35.91,35.91,0,0,0,61,61.53Z"/></g><path class="d" d="M47.18,2A14.31,14.31,0,0,1,49,2.54,27.39,27.39,0,0,1,53.7,4.79a28.57,28.57,0,0,1,2.88,1.94,29.43,29.43,0,0,1,3,2.54,31.35,31.35,0,0,1,2.82,3.11c.45.55.86,1.15,1.28,1.74s.8,1.22,1.16,1.85a30.65,30.65,0,0,1,1.89,3.92,19.17,19.17,0,0,1,.7,2c.23.67.39,1.35.55,2a17,17,0,0,1,.4,2c.12.64.19,1.28.25,1.89a26.52,26.52,0,0,1,.16,3.48,27.18,27.18,0,0,1-.2,2.92,21.45,21.45,0,0,1-.33,2.22c-.25,1.22-.43,1.9-.43,1.9s-.07-.71-.13-1.93c0-.61-.13-1.35-.19-2.19s-.24-1.79-.34-2.81-.35-2.11-.63-3.25c-.12-.57-.26-1.15-.44-1.73s-.31-1.2-.52-1.79A36,36,0,0,0,64.15,21a34,34,0,0,0-1.81-3.56,39.82,39.82,0,0,0-4.6-6.4c-.86-.93-1.68-1.85-2.53-2.65s-1.67-1.56-2.45-2.23c-1.58-1.33-3-2.38-4-3.08S47.18,2,47.18,2Z"/><path class="d" d="M67.65,44.71a6.07,6.07,0,0,1,.07,1,14.78,14.78,0,0,1-.24,2.67c-.08.55-.24,1.12-.39,1.74s-.37,1.25-.64,1.89a21.92,21.92,0,0,1-2,3.86,20.9,20.9,0,0,1-1.28,1.8c-.43.58-.94,1.1-1.4,1.61a18.18,18.18,0,0,1-1.45,1.36A14.67,14.67,0,0,1,59,61.76a13.08,13.08,0,0,1-1.26.81c-.39.23-.75.4-1,.54-.58.29-.93.42-.93.42s.2-.33.56-.85c.19-.26.4-.57.67-.91s.53-.77.84-1.19.67-.86,1-1.36.73-1,1.08-1.52L61,56.07c.35-.58.77-1.11,1.11-1.7s.74-1.15,1.08-1.73.69-1.14,1-1.69c.65-1.11,1.24-2.17,1.75-3.09l1.24-2.26Z"/><path class="e" d="M36.78,1,36,1.14c-.48.11-1.18.33-2.07.59a52.72,52.72,0,0,0-7.1,2.76A43.55,43.55,0,0,0,22.44,6.9a38.65,38.65,0,0,0-4.51,3.25,36.31,36.31,0,0,0-4.16,4.16c-.6.8-1.28,1.55-1.81,2.42-.27.42-.56.84-.83,1.27l-.74,1.33L10,20l-.33.68L9,22.05c-.37.94-.74,1.88-1,2.83-.14.49-.27,1-.41,1.45a12.11,12.11,0,0,0-.39,1.43c-.18,1-.47,1.92-.57,2.88s-.28,1.9-.36,2.83-.14,1.84-.21,2.73c0,1.79-.09,3.49,0,5.06,0,.79.06,1.55.1,2.27s.13,1.39.18,2,.11,1.25.16,1.81.15,1.06.21,1.52c.24,1.84.36,2.91.36,2.91s-.35-1-.92-2.79c-.13-.45-.29-.95-.45-1.49s-.28-1.15-.43-1.78-.3-1.32-.47-2-.24-1.49-.37-2.29a49.56,49.56,0,0,1-.52-5.22V33.32c0-1,.15-2,.22-3a35.29,35.29,0,0,1,1.23-6.24C5.7,23,6.09,22,6.47,21l.69-1.52A12.09,12.09,0,0,1,7.91,18l.83-1.45c.3-.46.62-.92.93-1.37.6-.94,1.35-1.75,2-2.61A32.84,32.84,0,0,1,16.38,8.2a33.46,33.46,0,0,1,5-3.14c.83-.45,1.67-.81,2.47-1.17s1.6-.65,2.37-.9A36.07,36.07,0,0,1,30.5,1.77c1.28-.29,2.41-.47,3.34-.59A22.31,22.31,0,0,1,36.78,1Z"/><path class="e" d="M38.72,3.05l-1.6.67c-1,.44-2.44,1.08-4.11,1.89-.83.42-1.72.88-2.65,1.38S28.48,8.07,27.5,8.64a43.17,43.17,0,0,0-5.68,4.21,27,27,0,0,0-2.51,2.51,25.37,25.37,0,0,0-2.13,2.69,29.82,29.82,0,0,0-1.64,2.76c-.44.93-.85,1.82-1.16,2.68A11.34,11.34,0,0,0,14,24.73c-.12.4-.26.77-.36,1.14-.15.73-.35,1.37-.45,1.91-.2,1.07-.34,1.7-.34,1.7s-.11-.62-.23-1.74c-.05-.56-.05-1.24-.05-2a17.88,17.88,0,0,1,.28-2.64A17.84,17.84,0,0,1,13.59,20c.21-.53.4-1.08.64-1.63a17.74,17.74,0,0,1,.83-1.62,20.83,20.83,0,0,1,2.15-3.17,27,27,0,0,1,2.72-2.84A30.06,30.06,0,0,1,23,8.35a32.76,32.76,0,0,1,3.25-1.88,34.8,34.8,0,0,1,6.15-2.38A31.49,31.49,0,0,1,37,3.18,16.73,16.73,0,0,1,38.72,3.05Z"/><g class="a"><path class="b" d="M167.66,133.59c-14.16,8.16-31,5.43-37.65-6.08s-.53-27.47,13.62-35.62,31-5.44,37.65,6.08S181.82,125.44,167.66,133.59Z"/><path class="b" d="M163.74,126.79c-14.16,8.16-31.45,4.67-38.63-7.79s-1.51-29.16,12.65-37.32,31.45-4.67,38.63,7.79S177.9,118.63,163.74,126.79Z"/><path class="b" d="M177,97.67s-3.48,30.34-36,30.71"/><path class="b" d="M139.73,131.1a30.81,30.81,0,0,0,.69-15.79,30.79,30.79,0,0,0-14-7.32,32.27,32.27,0,0,0-.58-13.88l-11.38,6.55v0c-12.17,7.33-16.41,22.88-9.43,35s22.56,16.26,35,9.41l0,0,11.38-6.56A32.22,32.22,0,0,0,139.73,131.1Z"/><g class="a"><path class="b" d="M147.71,135.36l-10,5.74v0A26,26,0,0,1,104,133.63c.32.69.67,1.38,1.06,2.06,7,12.12,22.56,16.26,35,9.41l0,0,11.38-6.56A29.62,29.62,0,0,0,147.71,135.36Z"/></g><path class="b" d="M180.69,98.08s4.82,20-14.37,30.81"/><path class="b" d="M162,131.83a26.94,26.94,0,0,1-18.11,1"/><path class="b" d="M176.44,90.71S154.14,65.19,128.71,95"/><path class="b" d="M176,93s-15.6-14.88-29.77-4.71"/></g><path class="c" d="M165.66,129.59c-14.16,8.16-31,5.43-37.65-6.08S127.48,96,141.63,87.89s31-5.44,37.65,6.08S179.82,121.44,165.66,129.59Z"/><path class="d" d="M161.74,122.79c-14.16,8.16-31.45,4.67-38.63-7.79s-1.51-29.16,12.65-37.32,31.45-4.67,38.63,7.79S175.9,114.63,161.74,122.79Z"/><path class="e" d="M175,93.67a17.88,17.88,0,0,1-.12,2.26,31.2,31.2,0,0,1-1.21,5.85,34,34,0,0,1-3.44,7.79,30.47,30.47,0,0,1-2.81,4c-.51.66-1.12,1.25-1.68,1.87s-1.19,1.19-1.84,1.74-1.29,1.09-2,1.57l-1,.73-1.06.66a17.63,17.63,0,0,1-2.16,1.2c-.72.39-1.47.67-2.2,1a28.25,28.25,0,0,1-4.31,1.38,15.47,15.47,0,0,1-2,.43c-.66.1-1.3.24-1.92.29a30.42,30.42,0,0,1-3.37.22,23.48,23.48,0,0,1-2.59,0c-1.44-.11-2.25-.19-2.25-.19s.81-.16,2.21-.37c.71-.09,1.55-.3,2.51-.48s2-.47,3.19-.74c.58-.13,1.16-.35,1.78-.53l.93-.28,1-.34a39.68,39.68,0,0,0,3.9-1.64,36.36,36.36,0,0,0,3.91-2.21l1-.63.93-.69c.63-.45,1.2-1,1.8-1.47s1.15-1,1.72-1.56,1.09-1.09,1.57-1.69a41.22,41.22,0,0,0,2.8-3.53c.81-1.23,1.61-2.41,2.26-3.6s1.26-2.33,1.76-3.42a58,58,0,0,0,2.17-5.39C174.8,94.47,175,93.67,175,93.67Z"/><path class="f" d="M137.73,127.1a30.81,30.81,0,0,0,.69-15.79,30.79,30.79,0,0,0-14-7.32,32.27,32.27,0,0,0-.58-13.88l-11.38,6.55v0c-12.17,7.33-16.41,22.88-9.43,35s22.56,16.26,35,9.41l0,0,11.38-6.56A32.22,32.22,0,0,0,137.73,127.1Z"/><g class="a"><path d="M145.71,131.36l-10,5.74v0A26,26,0,0,1,102,129.63c.32.69.67,1.38,1.06,2.06,7,12.12,22.56,16.26,35,9.41l0,0,11.38-6.56A29.62,29.62,0,0,0,145.71,131.36Z"/></g><path class="d" d="M178.69,94.08a9.56,9.56,0,0,1,.54,1.5c.16.49.3,1.09.45,1.79a19.8,19.8,0,0,1,.34,2.37c0,.43.08.89.12,1.37s0,1,0,1.47a25.69,25.69,0,0,1-.24,3.19c-.11.55-.21,1.1-.32,1.67-.06.28-.1.57-.17.85l-.25.84c-.18.56-.36,1.13-.53,1.7l-.72,1.64a20.22,20.22,0,0,1-1.72,3.13c-.16.25-.29.51-.47.74l-.55.68c-.36.44-.73.88-1.08,1.32a21.8,21.8,0,0,1-2.3,2.23,15,15,0,0,1-2.29,1.71,13.27,13.27,0,0,1-2,1.24c-.64.31-1.21.55-1.68.76-.93.41-1.46.61-1.46.61s.42-.42,1.16-1.09c.38-.33.83-.74,1.36-1.17a6.87,6.87,0,0,0,.79-.75l.84-.86a23.22,23.22,0,0,0,1.83-2l.92-1.12a10.73,10.73,0,0,0,.93-1.18l.87-1.28a11.58,11.58,0,0,0,.84-1.34,25.73,25.73,0,0,0,1.48-2.86l.66-1.47.54-1.52c.4-1,.61-2,.91-3s.46-2,.59-2.91.29-1.82.36-2.66.13-1.6.21-2.28.07-1.3.07-1.79,0-.9,0-1.16Z"/><path class="d" d="M160,127.83a6.28,6.28,0,0,1-.63.57,11.69,11.69,0,0,1-1.85,1.2c-.41.22-.86.4-1.34.61a15.86,15.86,0,0,1-1.56.5,16.59,16.59,0,0,1-3.52.56c-.6,0-1.21,0-1.81,0s-1.18-.12-1.74-.19a15,15,0,0,1-1.6-.36,10.29,10.29,0,0,1-1.39-.46,11.55,11.55,0,0,1-2-1c-.45-.28-.7-.47-.7-.47s.32-.05.84-.08c.26,0,.58,0,.94,0s.76-.05,1.18-.05.89,0,1.37,0l1.51,0c.52,0,1.06,0,1.6-.05s1.09,0,1.63-.07c1.1-.06,2.19-.12,3.23-.2l2.87-.21Z"/><path class="e" d="M174.44,86.71s-.66-.58-1.87-1.47a46.51,46.51,0,0,0-5.23-3.32,39.52,39.52,0,0,0-3.68-1.74,33.38,33.38,0,0,0-4.27-1.41,29.68,29.68,0,0,0-4.68-.77,24.07,24.07,0,0,0-4.87.14c-.81,0-1.61.26-2.41.37s-1.59.39-2.36.63a36.23,36.23,0,0,0-4.43,1.78c-.69.36-1.39.69-2,1.07l-1.92,1.13c-1.18.83-2.36,1.55-3.36,2.35l-1.46,1.12-1.28,1.06c-.81.67-1.52,1.25-2.07,1.77-1.12,1-1.8,1.58-1.8,1.58s.49-.72,1.39-2l.75-1,1-1.14,1.11-1.3c.41-.43.87-.87,1.33-1.34a37,37,0,0,1,3.2-2.85L137.37,80c.65-.48,1.39-.85,2.1-1.29a29.4,29.4,0,0,1,4.75-2.17c.85-.28,1.72-.51,2.6-.75s1.78-.4,2.69-.47a27.49,27.49,0,0,1,5.44,0,26.79,26.79,0,0,1,9.6,3,28,28,0,0,1,3.66,2.28,29.44,29.44,0,0,1,4.73,4.28A17.3,17.3,0,0,1,174.44,86.71Z"/><path class="e" d="M174,89l-1.24-.7c-.79-.44-1.91-1-3.25-1.75l-2.17-1.07c-.77-.37-1.61-.7-2.45-1.06a36.64,36.64,0,0,0-5.43-1.75,25.25,25.25,0,0,0-5.56-.64c-.89,0-1.76.07-2.58.17s-1.6.26-2.31.44a9.63,9.63,0,0,0-1,.28c-.32.1-.64.18-.93.28-.56.23-1.09.38-1.5.55-.81.35-1.32.54-1.32.54s.36-.38,1-1c.34-.31.78-.65,1.3-1a14.38,14.38,0,0,1,1.88-1.11,13.42,13.42,0,0,1,2.42-1,15.77,15.77,0,0,1,2.88-.61,16.46,16.46,0,0,1,3.15-.08,19.43,19.43,0,0,1,3.2.46,23.79,23.79,0,0,1,3.07,1,24.81,24.81,0,0,1,2.8,1.29,27.44,27.44,0,0,1,4.46,3.05,23.51,23.51,0,0,1,2.7,2.67A12.76,12.76,0,0,1,174,89Z"/><path class="f" d="M32.53,91.2s0,.55.12,1.59.19,2.55.26,4.47.2,4.27.22,6.94.12,5.7.07,9c0,1.64,0,3.35,0,5.12s-.11,3.6-.16,5.48c-.11,3.75-.21,7.71-.45,11.8-.09,2-.23,4.12-.36,6.22s-.27,4.23-.44,6.37c-.31,4.29-.71,8.63-1.11,13s-.87,8.69-1.39,13c-.23,2.13-.5,4.25-.78,6.34s-.53,4.15-.83,6.17c-.54,4.06-1.2,8-1.8,11.68-.31,1.85-.56,3.66-.89,5.4s-.64,3.42-.94,5c-.58,3.23-1.21,6.18-1.77,8.8s-1.1,4.89-1.54,6.77-.84,3.34-1.09,4.34l-.43,1.54-.56-.06s.77-8.69,1.93-21.73S23.39,178,25,160.6s3.43-34.73,4.72-47.75S32,91.15,32,91.15Z"/><path class="f" d="M18.48,231.63s0-.58.06-1.66.16-2.67.46-4.67.64-4.43,1.26-7.17,1.37-5.85,2.41-9.16a103.13,103.13,0,0,1,3.88-10.55c.75-1.85,1.64-3.7,2.5-5.62.45-1,.94-1.9,1.43-2.85s1-1.92,1.53-2.87l1.63-2.89c.55-1,1.16-1.9,1.75-2.86s1.17-1.94,1.83-2.87,1.3-1.89,2-2.83c1.32-1.89,2.73-3.74,4.16-5.58s3-3.64,4.53-5.37,3.16-3.47,4.85-5.08c.82-.83,1.66-1.64,2.5-2.45s1.73-1.55,2.59-2.32,1.71-1.53,2.58-2.27l2.68-2.11c.9-.69,1.76-1.41,2.66-2.06l2.72-1.91c.9-.62,1.78-1.26,2.68-1.85s1.82-1.13,2.73-1.67l2.67-1.61,2.68-1.45c1.77-.93,3.43-1.94,5.17-2.67l5-2.22c3.24-1.26,6.19-2.46,8.9-3.23,1.35-.41,2.6-.82,3.77-1.13l1.68-.48,1.55-.35c2-.47,3.52-.75,4.57-1l1.62-.31.18.54-5.8,2.2-1.46.55-1.57.69-3.53,1.54c-.62.28-1.28.55-1.94.87l-2,1-4.35,2.16c-3,1.65-6.2,3.36-9.45,5.48L79,145.13l-2.48,1.72L74,148.6c-.84.61-1.66,1.26-2.5,1.9l-2.54,1.94c-.84.66-1.65,1.38-2.49,2.08L64,156.63c-.83.73-1.63,1.49-2.44,2.24s-1.65,1.5-2.45,2.28l-2.36,2.38c-1.61,1.57-3.09,3.27-4.61,4.93s-2.93,3.42-4.4,5.12-2.79,3.5-4.1,5.3-2.6,3.57-3.78,5.39-2.37,3.62-3.47,5.42-2.12,3.62-3.13,5.38-1.93,3.54-2.77,5.29c-1.76,3.45-3.22,6.81-4.54,9.93s-2.37,6-3.26,8.63-1.6,4.9-2.12,6.8c-1.08,3.8-1.48,6-1.48,6Z"/><path class="f" d="M110.88,184.52s-.12.42-.42,1.18-.74,1.88-1.42,3.24a54.2,54.2,0,0,1-2.63,4.82,63.81,63.81,0,0,1-4,5.92,69.82,69.82,0,0,1-5.4,6.51c-1,1.13-2.11,2.21-3.21,3.35-.56.57-1.14,1.11-1.74,1.65s-1.2,1.11-1.83,1.64C89,213.92,87.73,215,86.37,216s-2.74,2.05-4.17,3-2.92,1.92-4.42,2.83-3,1.78-4.63,2.57S70,226,68.36,226.72s-3.24,1.38-4.88,2c-.82.29-1.62.61-2.44.89l-2.47.74c-.81.24-1.62.51-2.43.72l-2.44.58a48.46,48.46,0,0,1-4.77.95l-2.32.37-2.28.26c-1.51.14-2.95.38-4.37.39l-4.09.12c-2.63-.05-5-.09-7.12-.35a52.17,52.17,0,0,1-5.43-.72c-1.49-.26-2.65-.55-3.44-.71l-1.21-.29,0-.56h4.62c1.48,0,3.26-.13,5.3-.21,1,0,2.11-.13,3.26-.25l3.59-.35c2.5-.37,5.21-.7,8-1.31l2.15-.43,2.18-.54,2.23-.55c.75-.19,1.49-.44,2.25-.65l2.27-.68c.77-.24,1.52-.53,2.29-.79l2.3-.8,2.29-.92c.77-.31,1.54-.6,2.31-.93l2.27-1c1.54-.66,3-1.45,4.52-2.2s3-1.6,4.42-2.39,2.87-1.69,4.26-2.6c2.78-1.78,5.44-3.65,7.92-5.59S92,205,94.09,203s4.06-3.89,5.81-5.7,3.26-3.57,4.57-5.14,2.42-3,3.29-4.15c1.77-2.36,2.64-3.79,2.64-3.79Z"/><g class="a"><path class="b" d="M135,181.48c-5.31,8.51-15.22,11.91-22.15,7.59s-8.23-14.72-2.92-23.23,15.22-11.91,22.15-7.59S140.32,173,135,181.48Z"/><path class="b" d="M130.92,178.93c-5.31,8.51-15.68,11.62-23.17,6.95S98.5,170.53,103.81,162s15.68-11.63,23.17-7S136.23,170.42,130.92,178.93Z"/><path class="b" d="M129.68,159.33s6.89,17.43-10.62,27"/><path class="b" d="M119.16,188.21a18.81,18.81,0,0,0-4.19-8.75,18.71,18.71,0,0,0-9.69.09,20,20,0,0,0-4.33-7.36L96.68,179h0a15.73,15.73,0,1,0,26.69,16.65h0l4.27-6.84A19.69,19.69,0,0,0,119.16,188.21Z"/><g class="a"><path class="b" d="M124.72,188.21l-3.73,6h0a15.92,15.92,0,0,1-20.43,5.73,13.52,13.52,0,0,0,1.17.81,15.89,15.89,0,0,0,21.68-5h0l4.27-6.84A17.29,17.29,0,0,0,124.72,188.21Z"/></g><path class="b" d="M131.79,158.48s8.39,9.42,1.13,20.84"/><path class="b" d="M127.36,155.72s-19.45-7.37-24.6,16.13"/><path class="b" d="M127.77,157.09s-12.75-3.55-17.48,6"/></g><path class="c" d="M132,179.48c-5.31,8.51-15.22,11.91-22.15,7.59s-8.23-14.72-2.92-23.23,15.22-11.91,22.15-7.59S137.32,171,132,179.48Z"/><path class="d" d="M127.92,176.93c-5.31,8.51-15.68,11.62-23.17,6.95S95.5,168.53,100.81,160s15.68-11.63,23.17-7S133.23,168.42,127.92,176.93Z"/><path class="e" d="M126.68,157.33a11.08,11.08,0,0,1,.55,1.26c.17.41.32.92.51,1.51s.35,1.26.46,2c.07.38.14.77.2,1.17s.08.83.12,1.27a24.93,24.93,0,0,1,0,2.75c-.06.48-.11,1-.16,1.46l-.08.74-.17.73c-.12.5-.23,1-.35,1.49s-.35,1-.52,1.46a17.53,17.53,0,0,1-1.33,2.76,6.65,6.65,0,0,1-.82,1.26l-.88,1.17a21.55,21.55,0,0,1-1.91,2l-.46.45-.5.37-1,.7A11.32,11.32,0,0,1,118.7,183l-1.41.73-1.23.61,1.08-.85,1.25-.94a13.21,13.21,0,0,0,1.52-1.32l.84-.77.44-.4c.14-.16.27-.32.41-.47.52-.66,1.15-1.28,1.67-2l.77-1.15a9.46,9.46,0,0,0,.73-1.19,18.52,18.52,0,0,0,1.19-2.6c.17-.45.35-.89.5-1.35s.24-.92.35-1.38l.18-.69.11-.69c.07-.46.14-.91.22-1.36,0-.91.18-1.78.14-2.62v-1.22q0-.6-.06-1.14c0-.74-.14-1.41-.19-2s-.15-1.12-.25-1.54C126.81,157.81,126.68,157.33,126.68,157.33Z"/><path class="f" d="M116.16,186.21a18.81,18.81,0,0,0-4.19-8.75,18.71,18.71,0,0,0-9.69.09A20,20,0,0,0,98,170.19L93.68,177h0a15.73,15.73,0,1,0,26.69,16.65h0l4.27-6.84A19.69,19.69,0,0,0,116.16,186.21Z"/><g class="a"><path d="M121.72,186.21l-3.73,6h0a15.92,15.92,0,0,1-20.43,5.73,13.52,13.52,0,0,0,1.17.81,15.89,15.89,0,0,0,21.68-5h0l4.27-6.84A17.29,17.29,0,0,0,121.72,186.21Z"/></g><path class="d" d="M128.79,156.48a7.14,7.14,0,0,1,.71.68c.21.22.45.51.73.85s.57.73.84,1.19a13.32,13.32,0,0,1,.86,1.51,15.7,15.7,0,0,1,.76,1.8,14.12,14.12,0,0,1,.55,2c.07.36.13.71.2,1.07l.09,1.09a14.29,14.29,0,0,1,0,2.17,4.58,4.58,0,0,1-.14,1.05c-.06.35-.13.69-.19,1a14.12,14.12,0,0,1-.57,1.87,9.64,9.64,0,0,1-.72,1.58,7.46,7.46,0,0,1-.72,1.27c-.25.35-.47.66-.66.91-.37.5-.59.77-.59.77l.35-.91c.11-.28.26-.62.42-1a13.09,13.09,0,0,0,.45-1.34,15.05,15.05,0,0,0,.46-1.59c.1-.57.28-1.16.36-1.79s.18-1.26.18-1.92a13.37,13.37,0,0,0,0-2l-.06-1c-.05-.33-.11-.66-.16-1-.08-.66-.27-1.29-.4-1.91s-.33-1.2-.54-1.74-.39-1.08-.6-1.55c-.41-1-.8-1.72-1.09-2.26S128.79,156.48,128.79,156.48Z"/><path class="e" d="M124.36,153.72a13.86,13.86,0,0,0-1.43-.28,26.4,26.4,0,0,0-3.79-.35,20.85,20.85,0,0,0-5.25.55,17.56,17.56,0,0,0-2.79.93,14.91,14.91,0,0,0-2.63,1.49c-.43.26-.8.61-1.21.91s-.75.68-1.1,1a21.05,21.05,0,0,0-1.89,2.27c-.56.78-1,1.59-1.5,2.36s-.81,1.54-1.11,2.27-.61,1.38-.83,2-.44,1.12-.58,1.56l-.49,1.39.22-1.46a14.49,14.49,0,0,1,.33-1.65q.12-.48.24-1l.35-1.1a22.32,22.32,0,0,1,.93-2.45,22,22,0,0,1,1.4-2.59,18.84,18.84,0,0,1,1.94-2.52c.38-.39.78-.76,1.18-1.14a15.88,15.88,0,0,1,1.31-1,16.16,16.16,0,0,1,2.91-1.59,15.85,15.85,0,0,1,3.06-.89,17.61,17.61,0,0,1,5.57-.14,19.23,19.23,0,0,1,3.8.88A10.65,10.65,0,0,1,124.36,153.72Z"/><path class="e" d="M124.77,155.09l-.87-.06-1,0c-.37,0-.81,0-1.27,0s-1,0-1.49,0-1.08,0-1.64.11-1.15.15-1.74.23-1.16.24-1.74.38a13.27,13.27,0,0,0-1.68.57,9.94,9.94,0,0,0-1.54.74l-.71.41a7.42,7.42,0,0,0-.64.46,8,8,0,0,0-1.11.93c-.32.33-.64.61-.89.88l-.61.77-.56.67s.11-.3.32-.81c.11-.26.23-.58.4-.94s.45-.7.73-1.11a6,6,0,0,1,1-1.19,7.33,7.33,0,0,1,.63-.61c.23-.18.49-.34.74-.52a8.69,8.69,0,0,1,1.66-.94,16.3,16.3,0,0,1,1.85-.68c.64-.13,1.28-.29,1.91-.37a15.15,15.15,0,0,1,1.88-.11,12.31,12.31,0,0,1,1.74.08c.55,0,1.06.14,1.53.21A13.39,13.39,0,0,1,124.77,155.09Z"/></svg>