<svg xmlns="http://www.w3.org/2000/svg" viewBox="0 0 221.82 210.9"><defs><style>.a{opacity:0.1;}.b{fill:#231f20;}.c{fill:#ffa9a9;}.d{fill:#fff;}</style></defs><g class="a"><path class="b" d="M146.69,56.66h0a38.4,38.4,0,1,0-67.6-.08h0v0c.64,1.18,1.35,2.33,2.1,3.44l32,52.49L145.11,59.3c.55-.86,1.09-1.73,1.58-2.63Z"/><circle class="b" cx="112.91" cy="112.53" r="8.37"/><line class="b" x1="112.91" y1="40.44" x2="112.91" y2="104.16"/><line class="b" x1="97.69" y1="62.97" x2="110.53" y2="104.28"/><line class="b" x1="128.56" y1="62.97" x2="115.71" y2="104.28"/><path class="b" d="M116.18,40.44a3.27,3.27,0,1,1-3.27-3.27A3.27,3.27,0,0,1,116.18,40.44Z"/><path class="b" d="M101,63a3.27,3.27,0,1,1-3.27-3.28A3.27,3.27,0,0,1,101,63Z"/><path class="b" d="M131.83,63a3.27,3.27,0,1,1-3.27-3.28A3.28,3.28,0,0,1,131.83,63Z"/><path class="b" d="M70.21,63.13h0a38.4,38.4,0,1,0-21,64.27h0a37.22,37.22,0,0,0,3.92-.93L113,112.23,72.24,65.46c-.64-.8-1.31-1.58-2-2.32Z"/><path class="b" d="M115.49,104.57A8.36,8.36,0,1,1,105,109.94,8.37,8.37,0,0,1,115.49,104.57Z"/><line class="b" x1="44.35" y1="90.25" x2="104.95" y2="109.94"/><line class="b" x1="61.07" y1="111.68" x2="104.33" y2="112.23"/><line class="b" x1="70.61" y1="82.33" x2="105.93" y2="107.31"/><path class="b" d="M45.36,87.14a3.27,3.27,0,1,1-4.12,2.1A3.27,3.27,0,0,1,45.36,87.14Z"/><path class="b" d="M62.08,108.57a3.27,3.27,0,1,1-4.12,2.1A3.27,3.27,0,0,1,62.08,108.57Z"/><path class="b" d="M71.62,79.22a3.27,3.27,0,1,1-4.12,2.1A3.26,3.26,0,0,1,71.62,79.22Z"/><path class="b" d="M52.74,137.87h0a38.4,38.4,0,1,0,54.65,39.79h0a36.28,36.28,0,0,0,.32-4l5-61.28L55.57,136.66c-1,.36-1.9.76-2.82,1.2Z"/><path class="b" d="M106.14,107.61A8.37,8.37,0,1,1,108,119.29,8.36,8.36,0,0,1,106.14,107.61Z"/><line class="b" x1="70.54" y1="170.84" x2="107.99" y2="119.29"/><line class="b" x1="96.09" y1="161.56" x2="109.98" y2="120.59"/><line class="b" x1="71.12" y1="143.42" x2="105.79" y2="117.55"/><path class="b" d="M67.89,168.92a3.27,3.27,0,1,1,.72,4.57A3.27,3.27,0,0,1,67.89,168.92Z"/><path class="b" d="M93.44,159.64a3.27,3.27,0,1,1,.72,4.57A3.27,3.27,0,0,1,93.44,159.64Z"/><path class="b" d="M68.47,141.5a3.27,3.27,0,1,1,.72,4.57A3.28,3.28,0,0,1,68.47,141.5Z"/><path class="b" d="M118.41,177.58h0a38.39,38.39,0,1,0,54.73-39.68h0a36.66,36.66,0,0,0-3.73-1.55l-56.75-23.64,5.48,61.8c.06,1,.14,2,.27,3.06Z"/><path class="b" d="M106.14,117.44a8.37,8.37,0,1,1,11.69,1.85A8.35,8.35,0,0,1,106.14,117.44Z"/><line class="b" x1="155.28" y1="170.84" x2="117.83" y2="119.29"/><line class="b" x1="154.35" y1="143.68" x2="119.68" y2="117.8"/><line class="b" x1="129.38" y1="161.82" x2="115.49" y2="120.85"/><path class="b" d="M152.63,172.77a3.28,3.28,0,1,1,4.57.72A3.27,3.27,0,0,1,152.63,172.77Z"/><path class="b" d="M151.7,145.6a3.27,3.27,0,1,1,4.57.72A3.27,3.27,0,0,1,151.7,145.6Z"/><path class="b" d="M126.73,163.74a3.27,3.27,0,1,1,4.57.72A3.27,3.27,0,0,1,126.73,163.74Z"/><path class="b" d="M176.48,127.39h0a38.4,38.4,0,1,0-20.82-64.32h0A38.36,38.36,0,0,0,153,66.15l-40,46.67,60.48,13.88c1,.27,2,.5,3,.69Z"/><path class="b" d="M115.49,120.48a8.36,8.36,0,1,1,5.38-10.54A8.36,8.36,0,0,1,115.49,120.48Z"/><line class="b" x1="181.46" y1="90.25" x2="120.87" y2="109.94"/><line class="b" x1="155.34" y1="82.74" x2="120.02" y2="107.72"/><line class="b" x1="164.88" y1="112.09" x2="121.62" y2="112.65"/><path class="b" d="M182.48,93.36a3.27,3.27,0,1,1,2.1-4.12A3.28,3.28,0,0,1,182.48,93.36Z"/><path class="b" d="M156.35,85.85a3.27,3.27,0,1,1,2.1-4.12A3.27,3.27,0,0,1,156.35,85.85Z"/><path class="b" d="M165.89,115.21a3.27,3.27,0,1,1,2.1-4.13A3.27,3.27,0,0,1,165.89,115.21Z"/></g><path class="c" d="M140.35,55.73h0a37.77,37.77,0,1,0-66.5-.08h0v0a35.09,35.09,0,0,0,2.07,3.38l31.49,51.63,31.37-52.35c.55-.85,1.07-1.71,1.55-2.59Z"/><path class="c" d="M115.35,110.68a8.23,8.23,0,1,1-8.23-8.23A8.24,8.24,0,0,1,115.35,110.68Z"/><path class="d" d="M107.12,119.81a9.13,9.13,0,1,1,9.13-9.13A9.15,9.15,0,0,1,107.12,119.81Zm0-16.46a7.33,7.33,0,1,0,7.33,7.33A7.34,7.34,0,0,0,107.12,103.35Z"/><rect class="d" x="105.77" y="39.78" width="2.69" height="62.67"/><rect class="d" x="97.12" y="60.97" width="2.69" height="42.55" transform="translate(-19.98 32.94) rotate(-17.27)"/><rect class="d" x="94.92" y="80.9" width="42.55" height="2.69" transform="translate(3.16 168.8) rotate(-72.73)"/><path class="d" d="M110.34,39.78a3.22,3.22,0,1,1-3.22-3.22A3.22,3.22,0,0,1,110.34,39.78Z"/><path class="d" d="M95.37,61.93a3.22,3.22,0,1,1-3.22-3.22A3.22,3.22,0,0,1,95.37,61.93Z"/><path class="d" d="M125.73,61.93a3.22,3.22,0,1,1-3.22-3.22A3.22,3.22,0,0,1,125.73,61.93Z"/><path class="c" d="M65.13,62.09h0a37.76,37.76,0,1,0-20.62,63.21h0a38.5,38.5,0,0,0,3.85-.92l58.83-14-40.09-46c-.63-.78-1.29-1.55-2-2.28Z"/><path class="c" d="M109.66,102.85a8.23,8.23,0,1,1-10.37,5.29A8.23,8.23,0,0,1,109.66,102.85Z"/><path class="d" d="M107.13,119.81A9.13,9.13,0,1,1,109.94,102h0a9.13,9.13,0,0,1,5.86,11.5,9.15,9.15,0,0,1-8.67,6.31Zm0-16.46a7.33,7.33,0,1,0,2.26.36h0A7.16,7.16,0,0,0,107.13,103.35Z"/><rect class="d" x="68.15" y="67.12" width="2.69" height="62.67" transform="matrix(0.31, -0.95, 0.95, 0.31, -45.62, 134.12)"/><rect class="d" x="76.06" y="88.84" width="2.69" height="42.55" transform="translate(-33.69 186.12) rotate(-89.27)"/><rect class="d" x="81.54" y="71.99" width="2.69" height="42.55" transform="translate(-41.12 107.08) rotate(-54.73)"/><path class="d" d="M40.68,85.71a3.22,3.22,0,1,1-4,2.06A3.21,3.21,0,0,1,40.68,85.71Z"/><path class="d" d="M57.13,106.79a3.22,3.22,0,1,1-4.06,2.06A3.21,3.21,0,0,1,57.13,106.79Z"/><path class="d" d="M66.51,77.92A3.22,3.22,0,1,1,62.46,80,3.21,3.21,0,0,1,66.51,77.92Z"/><path class="c" d="M47.94,135.6h0a37.77,37.77,0,1,0,53.75,39.15h0v0a37.33,37.33,0,0,0,.32-3.95l4.87-60.28L50.73,134.42c-.94.35-1.87.74-2.78,1.18Z"/><path class="c" d="M100.46,105.84a8.23,8.23,0,1,1,1.82,11.5A8.23,8.23,0,0,1,100.46,105.84Z"/><path class="d" d="M107.1,119.81a9,9,0,0,1-5.34-1.75,9.13,9.13,0,0,1-2-12.75h0a9.11,9.11,0,1,1,7.36,14.5Zm0-16.47a6.6,6.6,0,0,0-1.17.1,7.23,7.23,0,0,0-4.78,2.93h0a7.31,7.31,0,1,0,6-3Z"/><rect class="d" x="52.53" y="141.34" width="62.67" height="2.69" transform="translate(-80.87 126.68) rotate(-54)"/><rect class="d" x="76.13" y="137.42" width="42.55" height="2.69" transform="translate(-65.29 186.45) rotate(-71.27)"/><rect class="d" x="61.79" y="127" width="42.55" height="2.69" transform="translate(-60.26 75.15) rotate(-36.73)"/><path class="d" d="M62.84,166.15a3.22,3.22,0,1,1,.71,4.49A3.23,3.23,0,0,1,62.84,166.15Z"/><path class="d" d="M88,157a3.22,3.22,0,1,1,.71,4.49A3.22,3.22,0,0,1,88,157Z"/><path class="d" d="M63.41,139.17a3.22,3.22,0,1,1,.71,4.5A3.24,3.24,0,0,1,63.41,139.17Z"/><path class="c" d="M112.54,174.67h0a37.76,37.76,0,1,0,53.83-39h0a38.69,38.69,0,0,0-3.66-1.52l-55.83-23.25,5.4,60.79c0,1,.13,2,.27,3Z"/><path class="c" d="M100.46,115.52a8.23,8.23,0,1,1,11.5,1.82A8.24,8.24,0,0,1,100.46,115.52Z"/><path class="d" d="M107.13,119.8A9.1,9.1,0,0,1,99.74,116h0a9.12,9.12,0,1,1,12.74,2A9,9,0,0,1,107.13,119.8ZM101.19,115a7.33,7.33,0,0,0,11.86-8.62,7.33,7.33,0,0,0-10.24-1.62A7.33,7.33,0,0,0,101.19,115Z"/><rect class="d" x="129.03" y="111.35" width="2.69" height="62.67" transform="translate(-58.97 103.88) rotate(-36)"/><rect class="d" x="129.48" y="107.32" width="2.69" height="42.55" transform="translate(-50.48 156.54) rotate(-53.27)"/><rect class="d" x="115.14" y="117.74" width="2.69" height="42.55" transform="translate(-38.47 44.77) rotate(-18.73)"/><path class="d" d="M146.19,169.93a3.22,3.22,0,1,1,4.5.71A3.24,3.24,0,0,1,146.19,169.93Z"/><path class="d" d="M145.27,143.21a3.22,3.22,0,1,1,4.5.71A3.23,3.23,0,0,1,145.27,143.21Z"/><path class="d" d="M120.71,161.05a3.22,3.22,0,1,1,4.5.71A3.21,3.21,0,0,1,120.71,161.05Z"/><path class="c" d="M169.65,125.3h0A37.77,37.77,0,1,0,149.17,62h0a35,35,0,0,0-2.58,3L107.21,111l59.49,13.65c1,.26,2,.49,2.94.68Z"/><g class="a"><path class="b" d="M112.56,121a11,11,0,1,1,7.06-13.86A11,11,0,0,1,112.56,121Z"/></g><path class="c" d="M109.66,118.5A8.23,8.23,0,1,1,115,108.14,8.23,8.23,0,0,1,109.66,118.5Z"/><path class="d" d="M107.11,119.81a9.14,9.14,0,1,1,2.83-.45A9.11,9.11,0,0,1,107.11,119.81Zm0-16.47a7.33,7.33,0,0,0-7,9.6,7.33,7.33,0,0,0,9.24,4.71,7.34,7.34,0,0,0-2.28-14.31Z"/><rect class="d" x="113.41" y="97.11" width="62.67" height="2.69" transform="translate(-23.35 49.57) rotate(-18.01)"/><rect class="d" x="110.21" y="92.32" width="42.55" height="2.69" transform="translate(-29.95 93.15) rotate(-35.28)"/><rect class="d" x="115.69" y="109.18" width="42.55" height="2.69" transform="translate(-1.39 1.74) rotate(-0.73)"/><path class="d" d="M175.55,91.83a3.22,3.22,0,1,1,2.06-4.06A3.23,3.23,0,0,1,175.55,91.83Z"/><path class="d" d="M149.85,84.44a3.22,3.22,0,1,1,2.07-4A3.22,3.22,0,0,1,149.85,84.44Z"/><path class="d" d="M159.23,113.32a3.22,3.22,0,1,1,2.07-4.06A3.23,3.23,0,0,1,159.23,113.32Z"/></svg>