<svg xmlns="http://www.w3.org/2000/svg" viewBox="0 0 265.31 254.49"><defs><style>.a{opacity:0.1;}.b{fill:#231f20;}.c{fill:#ffa9a9;}.d{fill:#fff;}</style></defs><g class="a"><path class="b" d="M139.5.41,132.18,13.1,124.85.41C107.56,5.69,94.52,29.28,94.52,57.59c0,32.2,16.86,58.3,37.66,58.3s37.66-26.1,37.66-58.3C169.84,29.28,156.79,5.69,139.5.41Z"/><line class="b" x1="132.73" y1="36.73" x2="132.73" y2="109.46"/><path class="b" d="M137.63,36.73a4.9,4.9,0,1,1-4.9-4.9A4.91,4.91,0,0,1,137.63,36.73Z"/><line class="b" x1="115.73" y1="79.68" x2="128.61" y2="109.99"/><path class="b" d="M118.8,79A3.15,3.15,0,1,1,115,76.61,3.15,3.15,0,0,1,118.8,79Z"/><line class="b" x1="150" y1="81.26" x2="137.12" y2="111.57"/><path class="b" d="M146.93,80.56a3.15,3.15,0,1,0,3.77-2.38A3.15,3.15,0,0,0,146.93,80.56Z"/><path class="b" d="M135,128a6.2,6.2,0,1,1,4-7.81A6.2,6.2,0,0,1,135,128Z"/><path class="b" d="M139.32,122.06a6.2,6.2,0,1,1-6.2-6.2A6.2,6.2,0,0,1,139.32,122.06Z"/><path class="b" d="M135,116.17a6.2,6.2,0,1,1-7.82,4A6.2,6.2,0,0,1,135,116.17Z"/><path class="b" d="M128.1,118.42a6.2,6.2,0,1,1,1.37,8.66A6.2,6.2,0,0,1,128.1,118.42Z"/><path class="b" d="M128.1,125.71a6.2,6.2,0,1,1,8.67,1.37A6.2,6.2,0,0,1,128.1,125.71Z"/><path class="b" d="M164.4,137.33A31.28,31.28,0,1,1,133.12,106,31.28,31.28,0,0,1,164.4,137.33Z"/><path class="b" d="M4.88,89l9.8,10.88-14.33,3C0,121,18.43,140.65,45.36,149.4c30.62,9.95,60.65,2,67.08-17.8S99.25,87.72,68.64,77.77C41.7,69,15.24,74.13,4.88,89Z"/><line class="b" x1="37.32" y1="106.61" x2="106.5" y2="129.09"/><path class="b" d="M38.84,102a4.9,4.9,0,1,1-6.18,3.15A4.9,4.9,0,0,1,38.84,102Z"/><line class="b" x1="72.92" y1="136.06" x2="105.73" y2="133.17"/><path class="b" d="M73.2,132.92a3.15,3.15,0,1,1-3.42,2.85A3.16,3.16,0,0,1,73.2,132.92Z"/><line class="b" x1="85.01" y1="103.94" x2="109.85" y2="125.57"/><path class="b" d="M83.4,106.65a3.15,3.15,0,1,0-1.1-4.32A3.14,3.14,0,0,0,83.4,106.65Z"/><path class="b" d="M142.79,107.58a31.28,31.28,0,1,1-39.42,20.08A31.27,31.27,0,0,1,142.79,107.58Z"/><path class="b" d="M47.48,244.34l13.38-6L59.33,253c17.09,5.89,41.51-5.53,58.15-28.44,18.92-26.05,20.62-57.07,3.8-69.3s-45.81-1-64.73,25C39.91,203.16,36.59,229.91,47.48,244.34Z"/><line class="b" x1="74.31" y1="218.95" x2="117.06" y2="160.1"/><path class="b" d="M70.34,216.07a4.9,4.9,0,1,1,1.09,6.84A4.91,4.91,0,0,1,70.34,216.07Z"/><line class="b" x1="113.31" y1="194.19" x2="120.7" y2="162.09"/><path class="b" d="M110.41,193a3.15,3.15,0,1,1,1.65,4.14A3.16,3.16,0,0,1,110.41,193Z"/><line class="b" x1="86.5" y1="172.77" x2="114.74" y2="155.82"/><path class="b" d="M88.58,175.14a3.15,3.15,0,1,0-4.45-.3A3.15,3.15,0,0,0,88.58,175.14Z"/><path class="b" d="M107.81,118.94a31.29,31.29,0,1,1,6.92,43.7A31.28,31.28,0,0,1,107.81,118.94Z"/><path class="b" d="M208.43,251.85l-1.53-14.57,13.38,6c10.89-14.43,7.57-41.19-9.07-64.09-18.92-26.05-47.9-37.26-64.73-25s-15.12,43.25,3.8,69.29C166.92,246.32,191.34,257.74,208.43,251.85Z"/><line class="b" x1="192.57" y1="218.48" x2="149.81" y2="159.64"/><path class="b" d="M188.6,221.36a4.9,4.9,0,1,1,6.85,1.09A4.9,4.9,0,0,1,188.6,221.36Z"/><line class="b" x1="181.08" y1="173.74" x2="152.83" y2="156.79"/><path class="b" d="M179,176.11a3.15,3.15,0,1,1,4.45-.29A3.14,3.14,0,0,1,179,176.11Z"/><line class="b" x1="152.42" y1="192.61" x2="145.03" y2="160.52"/><path class="b" d="M155.32,191.37a3.16,3.16,0,1,0-1.66,4.14A3.15,3.15,0,0,0,155.32,191.37Z"/><path class="b" d="M107.81,155.72a31.29,31.29,0,1,1,43.7,6.92A31.29,31.29,0,0,1,107.81,155.72Z"/><path class="b" d="M265.31,101.09,251,98l9.8-10.88C250.42,72.34,224,67.23,197,76c-30.62,10-50.23,34.05-43.8,53.83s36.46,27.75,67.08,17.8C247.23,138.86,265.63,119.16,265.31,101.09Z"/><line class="b" x1="228.67" y1="105.87" x2="159.5" y2="128.34"/><path class="b" d="M230.19,110.53a4.9,4.9,0,1,1,3.14-6.18A4.91,4.91,0,0,1,230.19,110.53Z"/><line class="b" x1="182.57" y1="102.97" x2="157.73" y2="124.59"/><path class="b" d="M184.18,105.68a3.15,3.15,0,1,1,1.1-4.32A3.14,3.14,0,0,1,184.18,105.68Z"/><line class="b" x1="191.66" y1="136.06" x2="158.86" y2="133.17"/><path class="b" d="M191.38,132.92a3.15,3.15,0,1,0,3.42,2.85A3.14,3.14,0,0,0,191.38,132.92Z"/><path class="b" d="M142.79,167.08a31.28,31.28,0,1,1,20.08-39.42A31.28,31.28,0,0,1,142.79,167.08Z"/><path class="b" d="M154.14,137.33a21.42,21.42,0,1,1-21.41-21.42A21.41,21.41,0,0,1,154.14,137.33Z"/><line class="b" x1="133.12" y1="106.04" x2="133.12" y2="119.63"/><path class="b" d="M152.85,130a21.42,21.42,0,1,1-27.45-12.8A21.4,21.4,0,0,1,152.85,130Z"/><line class="b" x1="122.4" y1="107.8" x2="127.04" y2="120.56"/><path class="b" d="M149.13,123.56A21.41,21.41,0,1,1,119,120.92,21.42,21.42,0,0,1,149.13,123.56Z"/><line class="b" x1="112.92" y1="113.11" x2="121.65" y2="123.52"/><path class="b" d="M143.43,118.78a21.41,21.41,0,1,1-29.25,7.84A21.41,21.41,0,0,1,143.43,118.78Z"/><line class="b" x1="105.83" y1="121.35" x2="117.59" y2="128.14"/><path class="b" d="M136.45,116.24a21.42,21.42,0,1,1-24.81,17.37A21.42,21.42,0,0,1,136.45,116.24Z"/><line class="b" x1="101.99" y1="131.51" x2="115.36" y2="133.87"/><path class="b" d="M129,116.24a21.42,21.42,0,1,1-17.37,24.81A21.41,21.41,0,0,1,129,116.24Z"/><line class="b" x1="101.85" y1="142.38" x2="115.23" y2="140.01"/><path class="b" d="M122,118.78A21.41,21.41,0,1,1,114.18,148,21.42,21.42,0,0,1,122,118.78Z"/><line class="b" x1="105.44" y1="152.63" x2="117.2" y2="145.84"/><path class="b" d="M116.32,123.56A21.41,21.41,0,1,1,119,153.73,21.42,21.42,0,0,1,116.32,123.56Z"/><line class="b" x1="112.32" y1="161.04" x2="121.05" y2="150.63"/><path class="b" d="M112.6,130a21.42,21.42,0,1,1,12.8,27.45A21.43,21.43,0,0,1,112.6,130Z"/><line class="b" x1="121.66" y1="166.59" x2="126.3" y2="153.83"/><path class="b" d="M111.31,137.33a21.42,21.42,0,1,1,21.42,21.41A21.42,21.42,0,0,1,111.31,137.33Z"/><line class="b" x1="132.34" y1="168.61" x2="132.33" y2="155.03"/><path class="b" d="M112.6,144.65a21.42,21.42,0,1,1,27.45,12.8A21.43,21.43,0,0,1,112.6,144.65Z"/><line class="b" x1="143.06" y1="166.86" x2="138.41" y2="154.1"/><path class="b" d="M116.32,151.09a21.41,21.41,0,1,1,30.17,2.64A21.42,21.42,0,0,1,116.32,151.09Z"/><line class="b" x1="152.54" y1="161.54" x2="143.8" y2="151.14"/><path class="b" d="M122,155.88A21.42,21.42,0,1,1,151.27,148,21.43,21.43,0,0,1,122,155.88Z"/><line class="b" x1="159.62" y1="153.31" x2="147.86" y2="146.52"/><path class="b" d="M129,158.42a21.42,21.42,0,1,1,24.81-17.37A21.41,21.41,0,0,1,129,158.42Z"/><line class="b" x1="163.47" y1="143.15" x2="150.09" y2="140.79"/><path class="b" d="M136.45,158.42a21.42,21.42,0,1,1,17.37-24.81A21.41,21.41,0,0,1,136.45,158.42Z"/><line class="b" x1="163.6" y1="132.28" x2="150.23" y2="134.64"/><path class="b" d="M143.43,155.88a21.42,21.42,0,1,1,7.84-29.26A21.41,21.41,0,0,1,143.43,155.88Z"/><line class="b" x1="160.02" y1="122.03" x2="148.25" y2="128.82"/><path class="b" d="M149.13,151.09a21.41,21.41,0,1,1-2.64-30.17A21.41,21.41,0,0,1,149.13,151.09Z"/><line class="b" x1="153.14" y1="113.62" x2="144.41" y2="124.02"/><path class="b" d="M152.85,144.65a21.42,21.42,0,1,1-12.8-27.45A21.4,21.4,0,0,1,152.85,144.65Z"/><line class="b" x1="143.79" y1="108.07" x2="139.15" y2="120.83"/></g><path class="c" d="M134.25.39l-7,12.21-7-12.21C103.52,5.47,91,28.18,91,55.43c0,31,16.23,56.1,36.24,56.1s36.24-25.12,36.24-56.1C163.44,28.18,150.89,5.47,134.25.39Z"/><path class="d" d="M127.2,111.86c-20.16,0-36.57-25.32-36.57-56.43C90.63,28.56,103,5.28,120.06.08l.25-.08,6.89,11.94L134.1,0l.25.08c17.05,5.2,29.43,28.48,29.43,55.35C163.78,86.54,147.37,111.86,127.2,111.86ZM120,.79C103.35,6.06,91.3,29,91.3,55.43c0,30.75,16.1,55.77,35.9,55.77s35.91-25,35.91-55.77c0-26.45-12.05-49.37-28.7-54.64L127.2,13.27Z"/><rect class="d" x="126.7" y="35.35" width="2.06" height="70"/><path class="d" d="M132.45,35.35a4.72,4.72,0,1,1-4.72-4.72A4.71,4.71,0,0,1,132.45,35.35Z"/><rect class="d" x="116.54" y="75.42" width="2.06" height="31.7" transform="translate(-26.34 53.28) rotate(-23.03)"/><path class="d" d="M114.33,76a3,3,0,1,1-3.63-2.29A3,3,0,0,1,114.33,76Z"/><rect class="d" x="122.31" y="91.75" width="31.7" height="2.06" transform="translate(-1.29 183.62) rotate(-66.97)"/><path class="d" d="M141.4,77.53A3,3,0,1,0,145,75.24,3,3,0,0,0,141.4,77.53Z"/><path class="c" d="M130,123.15a6,6,0,1,1,3.84-7.53A6,6,0,0,1,130,123.15Z"/><path class="c" d="M134.08,117.47a6,6,0,1,1-6-6A6,6,0,0,1,134.08,117.47Z"/><path class="c" d="M130,111.79a6,6,0,1,1-7.52,3.83A6,6,0,0,1,130,111.79Z"/><path class="c" d="M123.28,114a6,6,0,1,1,1.32,8.34A6,6,0,0,1,123.28,114Z"/><path class="c" d="M123.28,121a6,6,0,1,1,8.34,1.32A6,6,0,0,1,123.28,121Z"/><path class="d" d="M158.21,132.16a30.11,30.11,0,1,1-30.1-30.11A30.1,30.1,0,0,1,158.21,132.16Z"/><path class="c" d="M4.69,85.6l9.44,10.47L.34,99C0,116.4,17.74,135.35,43.65,143.77c29.47,9.58,58.37,1.91,64.56-17.13S95.52,84.42,66.05,74.84C40.13,66.42,14.66,71.34,4.69,85.6Z"/><path class="d" d="M68.78,148.24a82.13,82.13,0,0,1-25.23-4.15C18,135.79-.31,116.82,0,99v-.26l13.48-2.87L4.27,85.62l.15-.21C14.64,70.8,40.6,66.22,66.15,74.53c29.6,9.61,48.61,33,42.37,52.22-3,9.31-11.47,16.24-23.77,19.51A62.56,62.56,0,0,1,68.78,148.24ZM.66,99.28c-.12,17.46,17.94,36,43.1,44.18,14.19,4.61,28.69,5.38,40.82,2.16s20.36-10,23.31-19.08C114,107.71,95.2,84.66,66,75.16,40.79,67,15.28,71.37,5.12,85.57l9.64,10.71Z"/><rect class="d" x="68.18" y="78.42" width="2.06" height="70" transform="translate(-60.05 144.19) rotate(-72)"/><path class="d" d="M37.37,98.12a4.72,4.72,0,1,1-5.94,3A4.7,4.7,0,0,1,37.37,98.12Z"/><rect class="d" x="70.11" y="128.52" width="31.7" height="2.06" transform="translate(-11.05 8.05) rotate(-5.04)"/><path class="d" d="M70.45,127.91a3,3,0,1,1-3.3,2.75A3,3,0,0,1,70.45,127.91Z"/><rect class="d" x="92.74" y="94.59" width="2.06" height="31.7" transform="translate(-51.1 108.66) rotate(-48.97)"/><path class="d" d="M80.26,102.64a3,3,0,1,0-1.06-4.16A3,3,0,0,0,80.26,102.64Z"/><path class="d" d="M137.41,103.53a30.1,30.1,0,1,1-37.93,19.33A30.1,30.1,0,0,1,137.41,103.53Z"/><path class="c" d="M45.69,235.15l12.88-5.74-1.48,14c16.45,5.67,40-5.32,56-27.36,18.21-25.07,19.85-54.92,3.65-66.69s-44.08-1-62.29,24.09C38.4,195.51,35.21,221.26,45.69,235.15Z"/><path class="d" d="M66.3,245.24A28.38,28.38,0,0,1,57,243.75l-.25-.09L58.18,230l-12.6,5.61-.16-.21c-10.73-14.24-7.06-40.34,8.73-62.08,18.29-25.17,46.44-36,62.76-24.16s14.71,42-3.58,67.15C100.27,234.23,81.82,245.24,66.3,245.24Zm-8.85-2c16.58,5.52,39.79-5.93,55.34-27.33,18.07-24.87,19.75-54.58,3.73-66.22s-43.76-.87-61.83,24c-15.55,21.4-19.26,47-8.89,61.08L59,228.88Z"/><rect class="d" x="57.08" y="181.36" width="70" height="2.06" transform="translate(-109.59 149.62) rotate(-53.98)"/><path class="d" d="M67.69,207.93a4.71,4.71,0,1,1,1,6.59A4.73,4.73,0,0,1,67.69,207.93Z"/><rect class="d" x="96.75" y="170.41" width="31.7" height="2.06" transform="translate(-79.72 242.73) rotate(-77.04)"/><path class="d" d="M106.25,185.69a3,3,0,1,1,1.6,4A3,3,0,0,1,106.25,185.69Z"/><rect class="d" x="80.99" y="157.08" width="31.7" height="2.06" transform="translate(-67.55 72.35) rotate(-30.96)"/><path class="d" d="M85.24,168.55a3,3,0,1,0-4.28-.29A3,3,0,0,0,85.24,168.55Z"/><path class="d" d="M103.75,114.46a30.1,30.1,0,1,1,6.66,42.06A30.11,30.11,0,0,1,103.75,114.46Z"/><path class="c" d="M200.59,242.37l-1.48-14L212,234.08c10.48-13.89,7.29-39.63-8.73-61.68-18.21-25.06-46.1-35.85-62.29-24.08s-14.56,41.62,3.65,66.68C160.64,237.05,184.14,248,200.59,242.37Z"/><path class="d" d="M191.38,244.18c-15.52,0-34-11-47-29-18.29-25.17-19.9-55.3-3.59-67.15s44.47-1,62.76,24.16c15.79,21.73,19.46,47.84,8.73,62.07l-.16.21-12.6-5.6,1.44,13.71-.25.08A28.39,28.39,0,0,1,191.38,244.18ZM156.5,143.9a25.6,25.6,0,0,0-15.34,4.69c-16,11.63-14.34,41.34,3.73,66.22,15.55,21.4,38.77,32.85,55.34,27.33l-1.51-14.33,13.17,5.86c10.36-14,6.65-39.67-8.9-61.07C189.86,154.53,171.63,143.9,156.5,143.9Z"/><rect class="d" x="163.72" y="146.94" width="2.06" height="70" transform="translate(-75.48 131.59) rotate(-36)"/><path class="d" d="M181.5,213a4.71,4.71,0,1,1,6.59,1A4.71,4.71,0,0,1,181.5,213Z"/><rect class="d" x="159.64" y="143.2" width="2.06" height="31.7" transform="translate(-58.38 214.98) rotate(-59.03)"/><path class="d" d="M172.26,169.48a3,3,0,1,1,4.28-.28A3,3,0,0,1,172.26,169.48Z"/><rect class="d" x="142.1" y="154.07" width="2.06" height="31.7" transform="translate(-34.48 36.45) rotate(-12.97)"/><path class="d" d="M149.47,184.17a3,3,0,1,0-1.59,4A3,3,0,0,0,149.47,184.17Z"/><path class="d" d="M103.75,149.85a30.1,30.1,0,1,1,42.06,6.66A30.11,30.11,0,0,1,103.75,149.85Z"/><path class="c" d="M255.32,97.28l-13.79-2.93L251,83.88c-10-14.26-35.45-19.18-61.36-10.76-29.47,9.58-48.35,32.77-42.16,51.8s35.09,26.71,64.55,17.13C237.92,133.63,255.63,114.68,255.32,97.28Z"/><path class="d" d="M186.94,146.49c-19.45,0-35.39-7.87-39.81-21.46-3-9.32-.27-19.89,7.77-29.77s20.29-17.8,34.6-22.45c25.56-8.31,51.52-3.73,61.74,10.88l.15.21-9.23,10.25L255.65,97v.27c.32,17.82-18,36.79-43.54,45.09A81.89,81.89,0,0,1,186.94,146.49Zm27.79-77.14a81.28,81.28,0,0,0-25,4.09C175.52,78.05,163.34,86,155.42,95.68s-10.61,20-7.65,29.14c6.11,18.83,34.89,26.42,64.13,16.92C237.06,133.56,255.12,115,255,97.55l-14.09-3,9.64-10.71C243.81,74.45,230.35,69.35,214.73,69.35Z"/><rect class="d" x="151.78" y="111.67" width="70" height="2.06" transform="translate(-25.69 63.28) rotate(-18.01)"/><path class="d" d="M221.52,106.37a4.72,4.72,0,1,1,3-5.94A4.72,4.72,0,0,1,221.52,106.37Z"/><rect class="d" x="147.9" y="108.47" width="31.7" height="2.06" transform="translate(-31.66 134.39) rotate(-41.03)"/><path class="d" d="M177.25,101.7a3,3,0,1,1,1.05-4.16A3,3,0,0,1,177.25,101.7Z"/><rect class="d" x="167.63" y="113.7" width="2.06" height="31.7" transform="translate(24.82 286.19) rotate(-84.97)"/><path class="d" d="M184.17,127.92a3,3,0,1,0,3.3,2.74A3,3,0,0,0,184.17,127.92Z"/><path class="d" d="M137.41,160.79a30.1,30.1,0,1,1,19.33-37.94A30.1,30.1,0,0,1,137.41,160.79Z"/><path class="c" d="M148.34,132.16a20.61,20.61,0,1,1-20.61-20.61A20.61,20.61,0,0,1,148.34,132.16Z"/><path class="d" d="M127.73,153.16a21,21,0,1,1,21-21A21,21,0,0,1,127.73,153.16Zm0-41.22A20.22,20.22,0,1,0,148,132.16,20.24,20.24,0,0,0,127.73,111.94Z"/><rect class="c" x="127.34" y="102.05" width="1.54" height="13.07"/><path class="c" d="M147.1,125.11a20.61,20.61,0,1,1-26.42-12.32A20.6,20.6,0,0,1,147.1,125.11Z"/><path class="d" d="M127.72,153.17A21,21,0,1,1,147.47,125h0a21,21,0,0,1-19.75,28.19Zm0-41.24a20.22,20.22,0,1,0,19,13.31h0a20.27,20.27,0,0,0-19-13.31Z"/><rect class="c" x="119.25" y="103.35" width="1.54" height="13.07" transform="translate(-30.35 47.7) rotate(-20.01)"/><path class="c" d="M143.52,118.91a20.61,20.61,0,1,1-29-2.54A20.62,20.62,0,0,1,143.52,118.91Z"/><path class="d" d="M127.75,153.15a21,21,0,1,1,13.48-4.9A21,21,0,0,1,127.75,153.15Zm0-41.21a20.22,20.22,0,1,0,15.52,7.22h0A20.11,20.11,0,0,0,129.49,112C128.89,112,128.29,111.94,127.7,111.94Z"/><rect class="c" x="112.1" y="107.32" width="1.54" height="13.07" transform="translate(-46.78 99.21) rotate(-40.01)"/><path class="c" d="M138,114.31a20.61,20.61,0,1,1-28.16,7.54A20.61,20.61,0,0,1,138,114.31Z"/><path class="d" d="M127.7,153.17A21,21,0,1,1,138.23,114h0a21,21,0,0,1-10.53,39.2Zm.06-41.24a20.25,20.25,0,1,0,10.08,2.72A20.18,20.18,0,0,0,127.76,111.93Z"/><rect class="c" x="106.74" y="113.51" width="1.54" height="13.07" transform="translate(-50.2 153.15) rotate(-60.01)"/><path class="c" d="M131.31,111.86a20.61,20.61,0,1,1-23.88,16.72A20.62,20.62,0,0,1,131.31,111.86Z"/><path class="d" d="M127.78,153.17a21.12,21.12,0,0,1-3.7-.33,21,21,0,0,1,7.3-41.37h0a21,21,0,0,1-3.6,41.7Zm-.06-41.23a20.25,20.25,0,0,0-19.9,16.71,20.22,20.22,0,1,0,23.42-16.4h0A20.1,20.1,0,0,0,127.72,111.94Z"/><rect class="c" x="103.81" y="121.16" width="1.54" height="13.07" transform="translate(-39.32 208.53) rotate(-80.01)"/><path class="c" d="M124.15,111.86a20.61,20.61,0,1,1-16.72,23.88A20.62,20.62,0,0,1,124.15,111.86Z"/><path class="d" d="M127.68,153.17a21,21,0,0,1-3.6-41.69h0a21,21,0,1,1,3.6,41.69Zm-3.46-40.92a20.21,20.21,0,1,0,23.42,16.4,20.1,20.1,0,0,0-23.42-16.4Z"/><rect class="c" x="97.92" y="135.11" width="13.07" height="1.54" transform="translate(-21.99 20.18) rotate(-9.99)"/><path class="c" d="M117.43,114.31a20.61,20.61,0,1,1-7.55,28.15A20.61,20.61,0,0,1,117.43,114.31Z"/><path class="d" d="M127.76,153.17a21.22,21.22,0,0,1-5.46-.72,20.92,20.92,0,1,1,5.46.72Zm-.06-41.24a20.1,20.1,0,0,0-10.08,2.72h0a20.06,20.06,0,1,0,10.08-2.72Z"/><rect class="c" x="100.59" y="142.85" width="13.07" height="1.54" transform="translate(-57.48 72.87) rotate(-30.02)"/><path class="c" d="M111.94,118.91a20.61,20.61,0,1,1,2.54,29A20.61,20.61,0,0,1,111.94,118.91Z"/><path class="d" d="M127.69,153.16a21,21,0,0,1-16-34.5h0a21,21,0,1,1,17.92,34.42C128.94,153.14,128.31,153.16,127.69,153.16Zm.07-41.22c-.59,0-1.19,0-1.79.08a20.11,20.11,0,0,0-13.73,7.14h0a20.23,20.23,0,1,0,15.52-7.22Z"/><rect class="c" x="105.75" y="149.2" width="13.07" height="1.54" transform="translate(-74.78 139.62) rotate(-50.01)"/><path class="c" d="M108.36,125.11a20.61,20.61,0,1,1,12.32,26.41A20.62,20.62,0,0,1,108.36,125.11Z"/><path class="d" d="M127.74,153.17a21,21,0,1,1,8.87-2A20.82,20.82,0,0,1,127.74,153.17Zm0-41.24a20.3,20.3,0,0,0-19,13.31h0a20.18,20.18,0,1,0,19-13.31Z"/><rect class="c" x="112.78" y="153.41" width="13.07" height="1.54" transform="matrix(0.34, -0.94, 0.94, 0.34, -66.37, 213.57)"/><path class="c" d="M107.12,132.16a20.61,20.61,0,1,1,20.61,20.61A20.61,20.61,0,0,1,107.12,132.16Z"/><path class="d" d="M127.73,153.16a21,21,0,0,1-21-21h0a21,21,0,0,1,21-21h0a21,21,0,1,1,0,42Zm0-41.22h0a20.23,20.23,0,0,0-20.22,20.22h0a20.25,20.25,0,0,0,20.22,20.22h0a20.22,20.22,0,1,0,0-40.44Z"/><rect class="c" x="126.58" y="149.19" width="1.54" height="13.07"/><path class="c" d="M108.36,139.21a20.61,20.61,0,1,1,26.42,12.32A20.62,20.62,0,0,1,108.36,139.21Z"/><path class="d" d="M127.72,153.17A21,21,0,0,1,108,139.34h0a21,21,0,1,1,19.73,13.83Zm0-41.24a20.24,20.24,0,0,0-19,27.14h0a20.2,20.2,0,1,0,19-27.14Z"/><rect class="c" x="134.67" y="147.9" width="1.54" height="13.07" transform="translate(-44.66 55.65) rotate(-20)"/><path class="c" d="M111.94,145.41A20.61,20.61,0,1,1,141,148,20.62,20.62,0,0,1,111.94,145.41Z"/><path class="d" d="M127.77,153.16c-.62,0-1.24,0-1.87-.08a21,21,0,1,1,1.87.08Zm-.08-41.22a20.22,20.22,0,0,0-15.45,33.21h0A20.22,20.22,0,1,0,129.49,112C128.89,112,128.29,111.94,127.69,111.94Z"/><rect class="c" x="141.82" y="143.92" width="1.54" height="13.07" transform="matrix(0.77, -0.64, 0.64, 0.77, -63.35, 126.88)"/><path class="c" d="M117.42,150a20.61,20.61,0,1,1,28.16-7.55A20.62,20.62,0,0,1,117.42,150Z"/><path class="d" d="M127.7,153.17a21,21,0,1,1,5.47-.72A21.35,21.35,0,0,1,127.7,153.17Zm.06-41.24a20.23,20.23,0,0,0-10.14,37.74h0a20.22,20.22,0,1,0,10.14-37.74Z"/><rect class="c" x="147.18" y="137.74" width="1.54" height="13.07" transform="translate(-50.96 200.29) rotate(-60.01)"/><path class="c" d="M124.15,152.46A20.61,20.61,0,1,1,148,135.74,20.61,20.61,0,0,1,124.15,152.46Z"/><path class="d" d="M127.74,153.16a20.73,20.73,0,0,1-3.66-.32h0a21,21,0,1,1,3.66.32Zm-3.52-1.09a20.21,20.21,0,1,0-13-8.31,20.24,20.24,0,0,0,13,8.31Z"/><rect class="c" x="150.11" y="130.09" width="1.54" height="13.07" transform="matrix(0.17, -0.98, 0.98, 0.17, -9.86, 261.5)"/><path class="c" d="M131.31,152.46A20.61,20.61,0,1,1,148,128.58,20.61,20.61,0,0,1,131.31,152.46Z"/><path class="d" d="M127.69,153.17a21.05,21.05,0,1,1,3.69-.33h0A21,21,0,0,1,127.69,153.17Zm.09-41.23a20.38,20.38,0,0,0-3.56.31,20.22,20.22,0,0,0,7,39.82h0a20.22,20.22,0,0,0-3.46-40.13Z"/><rect class="c" x="144.47" y="127.67" width="13.07" height="1.54" transform="translate(-19.99 28.14) rotate(-9.99)"/><path class="c" d="M138,150a20.61,20.61,0,1,1,7.54-28.16A20.62,20.62,0,0,1,138,150Z"/><path class="d" d="M127.77,153.17a21.29,21.29,0,0,1-5.47-.72,21,21,0,1,1,15.93-2.1h0A20.82,20.82,0,0,1,127.77,153.17Zm-.07-41.24a20.22,20.22,0,1,0,10.14,37.74h0a20.24,20.24,0,0,0-10.14-37.74Z"/><rect class="c" x="141.8" y="119.93" width="13.07" height="1.54" transform="matrix(0.87, -0.5, 0.5, 0.87, -40.48, 90.36)"/><path class="c" d="M143.52,145.41a20.61,20.61,0,1,1-2.54-29A20.62,20.62,0,0,1,143.52,145.41Z"/><path class="d" d="M127.7,153.16a21,21,0,1,1,16.12-7.5h0a20.87,20.87,0,0,1-14.26,7.42C128.94,153.14,128.32,153.16,127.7,153.16Zm.07-41.22c-.6,0-1.2,0-1.8.08a20.14,20.14,0,1,0,1.8-.08Z"/><rect class="c" x="136.64" y="113.57" width="13.07" height="1.54" transform="translate(-36.45 150.55) rotate(-50.01)"/><path class="c" d="M147.1,139.21a20.61,20.61,0,1,1-12.32-26.42A20.61,20.61,0,0,1,147.1,139.21Z"/><path class="d" d="M127.75,153.17a21,21,0,1,1,19.72-13.83h0a21,21,0,0,1-19.72,13.83Zm0-41.24a20.22,20.22,0,1,0,19,27.14h0a20.24,20.24,0,0,0-19-27.14Z"/><rect class="c" x="129.61" y="109.37" width="13.07" height="1.54" transform="translate(-13.91 200.42) rotate(-70.01)"/></svg>