<svg xmlns="http://www.w3.org/2000/svg" viewBox="0 0 255.15 253.47"><defs><style>.a{opacity:0.1;}.b{fill:#231f20;}.c{fill:#ffa9a9;}.d{fill:#fff;}</style></defs><g class="a"><path class="b" d="M253.44,169.18c7.58-20.67-10.7-46.39-40.85-57.46a82.52,82.52,0,0,0-18.2-4.44,82.78,82.78,0,0,0,13.16-13.34c19.84-25.25,21.89-56.75,4.58-70.35s-47.43-4.16-67.27,21.09A83,83,0,0,0,135,60.61,82.38,82.38,0,0,0,126.39,44C108.51,17.31,79.19,5.62,60.9,17.88S42.29,61.7,60.17,88.37a83.1,83.1,0,0,0,12.11,14.3,82.35,82.35,0,0,0-18.48,3.06c-30.89,8.76-51.06,33-45.06,54.22s35.93,31.24,66.82,22.47a81.86,81.86,0,0,0,17.33-7.1,83.09,83.09,0,0,0-2.8,18.53c-1.21,32.08,15.65,58.77,37.65,59.6s40.81-24.51,42-56.6a81.89,81.89,0,0,0-1.4-18.68,82.82,82.82,0,0,0,16.76,8.39C215.26,197.63,245.85,189.84,253.44,169.18Zm-137.7-50.56.41-.08.13.28L116,119Zm33.56,1.45.15-.27.41.11-.29.31Zm-16.06-12.62-.21-.23.24-.35.2.37Zm-11.38,31c0,.1,0,.2,0,.31l-.4.14c0-.14,0-.28,0-.42Zm20.34,1.07.06-.3.31.06c0,.14,0,.28,0,.42Z"/></g><path class="c" d="M239.56,168.27c7.39-20.14-10.43-45.22-39.82-56A81.18,81.18,0,0,0,182,107.93a80.65,80.65,0,0,0,12.83-13c19.34-24.62,21.34-55.32,4.46-68.58s-46.23-4.05-65.57,20.56a80.29,80.29,0,0,0-9.6,15.53,80.31,80.31,0,0,0-8.41-16.21c-17.43-26-46-37.39-63.83-25.44S33.73,63.5,51.16,89.5A80.6,80.6,0,0,0,63,103.44a80.43,80.43,0,0,0-18,3C14.84,115-4.82,138.63,1,159.27s35,30.46,65.13,21.91a80,80,0,0,0,16.9-6.92,80.8,80.8,0,0,0-2.73,18.06c-1.18,31.28,15.25,57.29,36.7,58.1s39.78-23.89,41-55.17A80.67,80.67,0,0,0,156.63,177,80.13,80.13,0,0,0,173,185.21C202.34,196,232.16,188.42,239.56,168.27ZM105.33,119l.4-.08a2.39,2.39,0,0,1,.13.28l-.27.12C105.51,119.2,105.42,119.1,105.33,119Zm32.72,1.41c0-.09.09-.18.14-.26l.4.11-.28.3Zm-15.66-12.3-.2-.22.23-.34.2.36Zm-11.1,30.24c0,.1,0,.2,0,.3l-.38.14c0-.14,0-.27,0-.41Zm19.84,1,.06-.29.29,0c0,.14,0,.28,0,.41Z"/><path class="d" d="M246.9,88.27c-6.63-20.4-36.14-29.11-65.91-19.43a80.4,80.4,0,0,0-16.63,7.55,80.54,80.54,0,0,0,2-18.15c0-31.3-17.4-56.68-38.86-56.68S88.7,26.94,88.7,58.24a80.55,80.55,0,0,0,2,18.15,80.62,80.62,0,0,0-16.62-7.56c-29.77-9.67-59.28-1-65.92,19.44s12.13,44.8,41.9,54.47A80.32,80.32,0,0,0,68,146.41a80.34,80.34,0,0,0-12.32,13.47c-18.4,25.33-19.24,56.08-1.88,68.7s46.35,2.31,64.75-23a80.77,80.77,0,0,0,9-15.88,80.48,80.48,0,0,0,9,15.88c18.4,25.33,47.39,35.63,64.75,23s16.52-43.37-1.88-68.7a80.34,80.34,0,0,0-12.32-13.47A80.86,80.86,0,0,0,205,142.75C234.77,133.07,253.53,108.68,246.9,88.27Zm-136,44.19.27-.31.27.14-.14.27Zm26.6-19.11a2.93,2.93,0,0,1,0-.29l.38-.16c0,.13,0,.27,0,.41Zm-19.91,0-.3,0,0-.41c.12,0,.25.11.38.15C117.63,113.16,117.61,113.25,117.6,113.35Zm10,30.64.22.21c-.08.11-.14.23-.22.35l-.21-.35Zm16.24-11.43c0-.1-.09-.18-.13-.27l.27-.14.26.31Z"/><path class="c" d="M183.91,235.49c-16.32,0-35.26-10.62-48.61-29a82.2,82.2,0,0,1-7.75-13,82.59,82.59,0,0,1-7.74,13c-13.36,18.38-32.3,29-48.62,29a30.7,30.7,0,0,1-18.32-5.65c-18-13.1-17.34-44.9,1.53-70.88a82.93,82.93,0,0,1,10-11.38,82.06,82.06,0,0,1-14.75-3.35C19.08,134.31-.17,109,6.72,87.79S44.06,57.42,74.6,67.35a82.5,82.5,0,0,1,13.9,6,82.71,82.71,0,0,1-1.37-15.06C87.13,26.13,105.26,0,127.55,0S168,26.13,168,58.24a82.82,82.82,0,0,1-1.37,15.07,81.83,81.83,0,0,1,13.91-6c30.54-9.93,61-.76,67.88,20.44h0c6.88,21.2-12.36,46.52-42.9,56.44a82.26,82.26,0,0,1-14.75,3.35,83.54,83.54,0,0,1,10,11.38c18.88,26,19.56,57.78,1.53,70.88A30.67,30.67,0,0,1,183.91,235.49Zm-56.36-49.82,1.44,3.4a79,79,0,0,0,8.84,15.57c17.86,24.59,45.93,34.76,62.56,22.67s15.64-41.92-2.22-66.51a78.87,78.87,0,0,0-12.08-13.21l-2.79-2.42,3.68-.32a79.14,79.14,0,0,0,17.54-3.59c28.9-9.39,47.25-32.95,40.89-52.5h0c-6.35-19.56-35-27.83-63.94-18.44a79.66,79.66,0,0,0-16.3,7.41L162,79.63l.84-3.59a79.1,79.1,0,0,0,2-17.8c0-30.39-16.72-55.11-37.29-55.11S90.26,27.85,90.26,58.24a79,79,0,0,0,2,17.79l.83,3.6-3.16-1.9a79,79,0,0,0-16.31-7.41C44.73,60.93,16.05,69.2,9.69,88.76s12,43.1,40.9,52.5a78.91,78.91,0,0,0,17.54,3.59l3.68.32L69,147.59A78.44,78.44,0,0,0,56.94,160.8c-17.87,24.59-18.86,54.42-2.23,66.51s44.7,1.92,62.57-22.67a78.93,78.93,0,0,0,8.83-15.57Zm0-38.19L125.32,144l2.23-2.17,2.22,2.18ZM143,134.4l-1.39-2.78,2.76-1.45,2.64,3.2Zm-30.83,0-1.61-.42-2.41-.6,2.65-3.22,2.76,1.47Zm6.74-19.28-1.51-.22.23-1.55-.28,1.54-1.52-.23-.09-1.65-.18-2.5,3.88,1.54Zm17.34,0-.52-3.06,3.87-1.54-.27,4.16Z"/><path class="c" d="M156.82,59.72c0,24-13.37,43.54-29.85,43.54S97.13,83.77,97.13,59.72,110.49,16.19,127,16.19,156.82,35.68,156.82,59.72Z"/><rect class="d" x="125.9" y="55.33" width="2.15" height="47.93"/><rect class="d" x="118.34" y="83.81" width="37.23" height="2.15" transform="translate(5.78 178.45) rotate(-67.29)"/><rect class="d" x="115.3" y="66.27" width="2.15" height="37.23" transform="translate(-23.75 51.52) rotate(-22.71)"/><path class="d" d="M130.57,55.33a3.6,3.6,0,1,1-3.6-3.59A3.59,3.59,0,0,1,130.57,55.33Z"/><path class="d" d="M147.74,67.71a3.6,3.6,0,1,1-3.6-3.59A3.6,3.6,0,0,1,147.74,67.71Z"/><path class="d" d="M112.78,67.71a3.6,3.6,0,1,1-3.59-3.59A3.6,3.6,0,0,1,112.78,67.71Z"/><path class="c" d="M75,75.77c22.87,7.43,37.27,26.16,32.18,41.84S79.46,140,56.59,132.54,19.32,106.38,24.42,90.7,52.17,68.34,75,75.77Z"/><rect class="d" x="83.35" y="86.24" width="2.15" height="47.93" transform="translate(-46.47 156.44) rotate(-72)"/><rect class="d" x="91.76" y="83.82" width="2.15" height="37.24" transform="translate(-45.36 105.98) rotate(-49.29)"/><rect class="d" x="67.86" y="120.93" width="37.23" height="2.15" transform="translate(-9.74 7.52) rotate(-4.72)"/><path class="d" d="M62.75,99.38a3.59,3.59,0,1,1-4.53,2.31A3.6,3.6,0,0,1,62.75,99.38Z"/><path class="d" d="M79.83,86.87a3.6,3.6,0,1,1-4.53,2.31A3.6,3.6,0,0,1,79.83,86.87Z"/><path class="d" d="M69,120.12a3.59,3.59,0,1,1-4.53,2.3A3.59,3.59,0,0,1,69,120.12Z"/><path class="c" d="M65,158.5c14.13-19.45,36.4-27.36,49.73-17.67s12.69,33.31-1.44,52.76S76.92,221,63.59,211.26,50.9,178,65,158.5Z"/><rect class="d" x="76.72" y="159.14" width="47.93" height="2.15" transform="translate(-88.11 147.5) rotate(-54)"/><rect class="d" x="77.27" y="148.75" width="37.24" height="2.15" transform="translate(-63.86 71.58) rotate(-31.29)"/><rect class="d" x="93.92" y="160.84" width="37.24" height="2.15" transform="translate(-70.91 234.23) rotate(-76.72)"/><path class="d" d="M83.69,177.49a3.59,3.59,0,1,1,.79,5A3.59,3.59,0,0,1,83.69,177.49Z"/><path class="d" d="M77.07,157.38a3.59,3.59,0,1,1,.79,5A3.59,3.59,0,0,1,77.07,157.38Z"/><path class="d" d="M105.35,177.92a3.59,3.59,0,1,1,.79,5A3.6,3.6,0,0,1,105.35,177.92Z"/><ellipse class="c" cx="164.77" cy="176.04" rx="29.84" ry="43.53" transform="translate(-72.01 130.46) rotate(-36)"/><rect class="d" x="152.19" y="136.25" width="2.15" height="47.93" transform="translate(-64.9 120.68) rotate(-36)"/><rect class="d" x="140.82" y="142.94" width="2.15" height="37.23" transform="translate(-33.33 36.93) rotate(-13.29)"/><rect class="d" x="157.47" y="130.84" width="2.15" height="37.24" transform="translate(-51.52 207.33) rotate(-58.71)"/><path class="d" d="M164.44,181.71a3.59,3.59,0,1,1,5,.8A3.59,3.59,0,0,1,164.44,181.71Z"/><path class="d" d="M143.27,181.79a3.59,3.59,0,1,1,5,.79A3.6,3.6,0,0,1,143.27,181.79Z"/><path class="d" d="M171.55,161.24a3.59,3.59,0,1,1,5,.8A3.6,3.6,0,0,1,171.55,161.24Z"/><path class="c" d="M197.35,132.54c-22.87,7.43-45.53.74-50.63-14.93S156,83.2,178.9,75.77,224.43,75,229.53,90.7,220.21,125.11,197.35,132.54Z"/><rect class="d" x="145.55" y="109.13" width="47.92" height="2.15" transform="translate(-25.75 57.74) rotate(-17.99)"/><rect class="d" x="166.21" y="102.81" width="2.15" height="37.23" transform="translate(32.52 278.16) rotate(-85.29)"/><rect class="d" x="142.3" y="100.78" width="37.24" height="2.15" transform="translate(-27.49 129.6) rotate(-40.71)"/><path class="d" d="M193.41,106.22a3.6,3.6,0,1,1,2.31-4.53A3.6,3.6,0,0,1,193.41,106.22Z"/><path class="d" d="M187,126.37a3.59,3.59,0,1,1,2.3-4.53A3.59,3.59,0,0,1,187,126.37Z"/><path class="d" d="M176.14,93.13a3.6,3.6,0,1,1,2.31-4.53A3.6,3.6,0,0,1,176.14,93.13Z"/><path class="c" d="M152,117.19c-1.21-3.72-11.7-2.66-17.85-1.69-1-6.15-3.21-16.46-7.13-16.46s-6.14,10.31-7.13,16.46c-6.15-1-16.64-2-17.85,1.69s7.9,9,13.45,11.87c-2.82,5.55-7.07,15.19-3.91,17.49s11-4.72,15.44-9.12c4.41,4.4,12.27,11.43,15.44,9.12s-1.09-11.94-3.91-17.5C144.05,126.22,153.16,120.91,152,117.19Z"/><path class="d" d="M113,148.19a3.58,3.58,0,0,1-2.17-.66c-2.86-2.08-1.85-8.12,3-17.95-9.71-5.1-14.07-9.39-13-12.76s7.15-4.27,18-2.69c1.85-10.81,4.58-16.29,8.12-16.29s6.27,5.48,8.12,16.29c10.85-1.58,16.91-.68,18,2.69h0c1.09,3.37-3.27,7.66-13,12.76,4.86,9.83,5.87,15.87,3,17.95s-8.29-.75-16.14-8.41C120.79,145.15,116.1,148.19,113,148.19Zm-3.19-32.42c-4.36,0-6.36.82-6.67,1.79-.5,1.53,2.57,5.17,12.84,10.43l1.07.54-.54,1.07c-5.23,10.29-5.57,15-4.27,16s5.71-.85,13.88-9l.85-.84.85.84c8.17,8.15,12.59,9.94,13.88,9s1-5.69-4.27-16l-.54-1.07L138,128c10.27-5.25,13.34-8.89,12.85-10.42s-5.12-2.67-16.52-.88l-1.19.19-.19-1.18c-1.82-11.4-4.34-15.44-5.94-15.44s-4.12,4-5.94,15.44l-.19,1.18-1.18-.19A66.16,66.16,0,0,0,109.81,115.77Z"/></svg>