<svg xmlns="http://www.w3.org/2000/svg" viewBox="0 0 293.01 179.68"><defs><style>.a{fill:#ffa9a9;}.b{fill:#fff;}.c{fill:#ed9f9f;}.d{opacity:0.1;}.e{fill:#231f20;}</style></defs><path class="a" d="M197,127.46l-2-2.53c39.37-30.82,45.22-82.82,45.27-83.34l3.2.33C243.38,42.46,237.38,95.81,197,127.46Z"/><path class="a" d="M191.66,132.91l-1.27-3c52.83-22.6,71.95-84.91,72.14-85.54l3.08.92C265.42,46,245.89,109.7,191.66,132.91Z"/><path class="a" d="M103.89,136.4c-40.44-31.65-46.44-85-46.49-85.54l3.19-.33c.06.52,5.94,52.54,45.28,83.34Z"/><path class="a" d="M113,135.64C58.73,112.43,39.21,48.7,39,48.06l3.08-.92c.18.63,19.3,62.94,72.14,85.54Z"/><path class="b" d="M48.14,44.87a7.59,7.59,0,1,1-7.58-7.59A7.58,7.58,0,0,1,48.14,44.87Z"/><path class="a" d="M40.56,54.06a9.19,9.19,0,1,1,9.19-9.19A9.2,9.2,0,0,1,40.56,54.06Zm0-15.17a6,6,0,1,0,6,6A6,6,0,0,0,40.56,38.89Z"/><path class="b" d="M66.58,55.17A7.59,7.59,0,1,1,59,47.58,7.59,7.59,0,0,1,66.58,55.17Z"/><path class="a" d="M59,64.36a9.19,9.19,0,1,1,9.2-9.19A9.2,9.2,0,0,1,59,64.36Zm0-15.17a6,6,0,1,0,6,6A6,6,0,0,0,59,49.19Z"/><circle class="b" cx="239.42" cy="50.7" r="7.58"/><path class="a" d="M239.42,59.89a9.2,9.2,0,1,1,9.19-9.19A9.21,9.21,0,0,1,239.42,59.89Zm0-15.17a6,6,0,1,0,6,6A6,6,0,0,0,239.42,44.72Z"/><path class="b" d="M271.65,41.76a7.58,7.58,0,1,1-7.58-7.59A7.58,7.58,0,0,1,271.65,41.76Z"/><path class="a" d="M264.07,51a9.2,9.2,0,1,1,9.19-9.19A9.2,9.2,0,0,1,264.07,51Zm0-15.17a6,6,0,1,0,6,6A6,6,0,0,0,264.07,35.78Z"/><path class="a" d="M138.94,163.62S22.46,87.15,92.7,8c14.23-11.56,30.23-9.78,40.9,0s23.12,0,27.57-2.67,44.46-16.9,60.46,37.34c2.67,13.34,8,78.25-68.46,120.93A65.38,65.38,0,0,0,138.94,163.62Z"/><path class="c" d="M112.26,57.13s.77,6.41,2.33,15.9c.41,2.36.87,4.93,1.35,7.64s1.09,5.55,1.68,8.48,1.33,5.95,2.07,9,1.55,6.15,2.45,9.2,1.81,6.12,2.8,9.09l1.55,4.39c.55,1.44,1.05,2.87,1.62,4.25,1.12,2.76,2.24,5.42,3.41,7.9s2.35,4.77,3.48,6.88c.59,1,1.16,2,1.71,3s1.12,1.81,1.63,2.64,1,1.59,1.5,2.28l1.31,1.92,2.65,3.54s-.28-.29-.82-.81-1.36-1.29-2.32-2.33-2.15-2.3-3.32-3.88c-.61-.79-1.27-1.61-1.93-2.5s-1.3-1.87-2-2.88-1.33-2.1-2-3.21-1.32-2.32-2-3.54c-1.34-2.45-2.66-5.09-3.88-7.88s-2.42-5.71-3.49-8.72-2.06-6.1-3-9.22-1.68-6.27-2.38-9.38-1.28-6.19-1.82-9.17c-1-6-1.69-11.61-2.09-16.44s-.52-8.86-.55-11.69S112.26,57.13,112.26,57.13Z"/><path class="c" d="M180.73,61.57a152,152,0,0,1-.34,16.14c-.17,2.42-.36,5-.68,7.8s-.63,5.68-1.11,8.68-1,6.09-1.61,9.22-1.38,6.29-2.21,9.43c-.43,1.57-.86,3.13-1.35,4.68l-.72,2.31-.78,2.29c-1,3-2.26,5.95-3.5,8.75-.63,1.4-1.32,2.74-2,4.06s-1.44,2.54-2.16,3.75S162.81,141,162,142.1s-1.55,2.1-2.38,3-1.57,1.84-2.4,2.6-1.59,1.5-2.36,2.13l-2.25,1.67c-.71.49-1.42.85-2,1.21a17.14,17.14,0,0,1-3,1.39l-1.08.43,1-.59a21.2,21.2,0,0,0,2.72-1.77c.55-.43,1.2-.85,1.82-1.41l2-1.84c.68-.68,1.33-1.48,2-2.28s1.36-1.75,2.09-2.68,1.33-2,2-3.07,1.3-2.25,2-3.42,1.24-2.47,1.87-3.75,1.2-2.62,1.76-4C167,127,168,124.09,169,121.12c.25-.74.49-1.49.74-2.24s.45-1.51.67-2.27c.47-1.52.87-3.06,1.28-4.6.85-3.07,1.59-6.18,2.28-9.25s1.32-6.1,1.86-9.05,1.08-5.8,1.52-8.52.85-5.3,1.22-7.68C180,68,180.73,61.57,180.73,61.57Z"/><path class="c" d="M146.53,148.45s-.06-.95-.14-2.6-.13-4-.16-6.83c0-1.41,0-2.94,0-4.55s0-3.32.06-5.08.06-3.58.14-5.42.12-3.72.18-5.59.22-3.75.27-5.59.19-3.65.28-5.41.2-3.45.3-5,.18-3.13.28-4.53S148,95.1,148,94s.1-2.14.15-3c.11-1.64.2-2.6.2-2.6s.18.93.44,2.56c.12.82.29,1.82.44,3,.07.58.17,1.19.23,1.83s.09,1.32.15,2c.1,1.41.2,2.94.27,4.57s.14,3.33.13,5.09,0,3.6,0,5.45-.1,3.74-.16,5.62-.19,3.76-.29,5.61-.29,3.66-.42,5.42c-.29,3.52-.67,6.79-1,9.6C147.34,144.74,146.53,148.45,146.53,148.45Z"/><g class="d"><path class="e" d="M135.13,159.41S87.52,140.23,60.84,99.32-7.63,94,1.27,115.33s70.33,72.91,133.86,63.13C145.31,175.79,154.65,169.39,135.13,159.41Z"/></g><g class="d"><path class="e" d="M157.93,159.41s47.62-19.18,74.29-60.09,68.47-5.33,59.57,16-70.33,72.91-133.86,63.13C147.75,175.79,138.41,169.39,157.93,159.41Z"/></g><path class="a" d="M135.13,150.34S87.52,131.16,60.84,90.25s-68.47-5.33-59.57,16,70.33,72.91,133.86,63.13C145.31,166.72,154.65,160.32,135.13,150.34Z"/><path class="a" d="M157.93,150.34s47.62-19.18,74.29-60.09,68.47-5.33,59.57,16-70.33,72.91-133.86,63.13C147.75,166.72,138.41,160.32,157.93,150.34Z"/><path class="c" d="M239.42,123.15s-1.07,1.21-3.07,3.2-5,4.74-8.7,7.82A146.17,146.17,0,0,1,214.27,144c-2.56,1.63-5.22,3.3-8,4.82s-5.7,3-8.65,4.36c-1.47.69-3,1.27-4.49,1.91s-3,1.16-4.53,1.71a93.76,93.76,0,0,1-9,2.63c-1.49.32-3,.71-4.41.91s-2.87.5-4.27.63a63.12,63.12,0,0,1-7.87.5c-1.22,0-2.39,0-3.5-.07l-3.15-.29c-2-.17-3.66-.56-5-.77s-2.45-.62-3.18-.8L147,159.2l4.39.46,2.32.1c.84,0,1.74.12,2.71.08l3.09-.05,3.41-.22c1.19,0,2.41-.28,3.68-.41s2.58-.38,3.92-.61,2.7-.54,4.09-.85,2.8-.69,4.24-1.07c2.86-.76,5.76-1.78,8.7-2.81,1.45-.55,2.92-1.12,4.38-1.71s2.92-1.22,4.35-1.9c2.9-1.3,5.75-2.69,8.51-4.17s5.46-3,8-4.49,5-3,7.32-4.54,4.45-2.95,6.43-4.3C234.41,127.22,239.42,123.15,239.42,123.15Z"/><path class="c" d="M45.58,118.26s5.31,4.65,13.86,10.73c2.13,1.53,4.5,3.11,7,4.78s5.19,3.32,8,5,5.78,3.29,8.79,4.91,6.15,3.15,9.33,4.54,6.38,2.76,9.58,4c1.6.62,3.22,1.12,4.79,1.7s3.18,1,4.73,1.5l4.63,1.27c1.51.39,3,.71,4.47,1.06,2.92.6,5.7,1.16,8.29,1.51l1.9.29,1.82.21,3.37.38c2.13.11,4,.28,5.52.35l4.83.14s-1.74.2-4.82.5c-1.54.11-3.42.17-5.58.24s-4.59,0-7.24-.27-5.52-.52-8.54-1c-1.5-.27-3-.53-4.62-.84s-3.17-.72-4.78-1.13c-3.22-.86-6.54-1.8-9.83-3s-6.6-2.49-9.84-4-6.39-3.08-9.48-4.72-6-3.46-8.8-5.25-5.42-3.64-7.89-5.43-4.71-3.57-6.74-5.28a126.52,126.52,0,0,1-9.44-8.63C46.71,119.62,45.58,118.26,45.58,118.26Z"/><path class="c" d="M143.8,160a74.45,74.45,0,0,1-10.32-1.36c-1.53-.3-3.2-.64-4.93-1.08s-3.58-.89-5.45-1.47-3.81-1.17-5.74-1.89-3.88-1.47-5.81-2.31-3.8-1.76-5.64-2.71-3.59-2-5.27-3c-.82-.55-1.65-1-2.43-1.61s-1.52-1.1-2.24-1.65-1.41-1.1-2-1.65l-1.84-1.65c-1.14-1.1-2.15-2.13-3-3.11s-1.49-1.88-2.06-2.59-.9-1.37-1.17-1.78l-.4-.63,2,2c.69.6,1.46,1.36,2.44,2.14s2.09,1.64,3.3,2.57,2.62,1.81,4.09,2.75,3.08,1.85,4.73,2.8l2.57,1.36,2.66,1.34c1.8.88,3.65,1.74,5.53,2.53s3.75,1.61,5.62,2.35,3.72,1.47,5.53,2.11,3.56,1.29,5.23,1.86l4.72,1.59C139.82,158.73,143.8,160,143.8,160Z"/><path class="c" d="M77.08,153.4s4.06,1.3,10.14,3l4.91,1.34c1.75.48,3.6.9,5.51,1.38s3.9.87,5.91,1.29,4.07.8,6.13,1.1,4.12.62,6.16.84l3,.28c1,.06,2,.16,3,.19,1.94.07,3.82.12,5.61.08s3.47-.15,5-.28l2.23-.25c.71-.09,1.38-.21,2-.3,1.27-.18,2.35-.46,3.26-.62l2.83-.71-.68.35c-.45.22-1.09.59-2,1s-1.91.84-3.16,1.21c-.63.2-1.29.43-2,.63l-2.25.56a50.15,50.15,0,0,1-5.16.84,53.8,53.8,0,0,1-5.82.36c-2,0-4.12,0-6.23-.21s-4.25-.42-6.38-.75-4.22-.78-6.28-1.25-4.06-1-6-1.59a101.39,101.39,0,0,1-10.3-3.71c-3-1.25-5.34-2.45-7-3.33S77.08,153.4,77.08,153.4Z"/><path class="c" d="M231.83,145.69A103.18,103.18,0,0,1,220.11,153c-1.81,1-3.81,2.05-6,3.08s-4.42,2.12-6.83,3.11-4.89,2-7.49,2.89-5.25,1.71-7.94,2.47-5.43,1.32-8.14,1.79c-1.36.23-2.7.48-4,.6s-2.67.3-4,.36-2.61.15-3.88.13-2.51-.06-3.71-.13a42,42,0,0,1-6.74-.94,28.4,28.4,0,0,1-2.93-.76c-.46-.15-.91-.26-1.34-.42l-1.23-.48a30.49,30.49,0,0,1-4-1.87c-1.08-.56-1.83-1.19-2.38-1.52l-.82-.56.91.41c.6.24,1.43.69,2.56,1.09a37,37,0,0,0,4.1,1.28l1.23.32c.43.1.88.15,1.33.24.91.14,1.85.38,2.87.45a57.31,57.31,0,0,0,6.51.37c1.16,0,2.34,0,3.56-.12l1.84-.12c.62,0,1.24-.13,1.87-.19,2.52-.23,5.1-.72,7.72-1.19,1.31-.22,2.61-.56,3.93-.84l3.94-1c2.62-.7,5.24-1.45,7.78-2.31s5.05-1.69,7.44-2.58,4.72-1.78,6.89-2.66,4.24-1.74,6.13-2.56c3.77-1.63,6.91-3,9.09-4.06S231.83,145.69,231.83,145.69Z"/><path class="c" d="M209.61,134.16a88.57,88.57,0,0,1-8.26,6.54c-1.28.92-2.68,1.9-4.2,2.88s-3.12,2-4.83,3-3.47,2.05-5.31,3-3.72,1.92-5.62,2.85-3.86,1.74-5.79,2.52c-1,.41-1.93.78-2.89,1.12s-1.92.67-2.87,1c-1.88.64-3.74,1.14-5.51,1.58s-3.48.77-5.06,1a41.93,41.93,0,0,1-4.33.46,32.15,32.15,0,0,1-3.35,0,20.88,20.88,0,0,1-2.14-.16l-.75-.08.75-.1c.49-.07,1.21-.13,2.11-.3s2-.34,3.22-.62c.62-.13,1.27-.28,1.95-.48s1.41-.33,2.15-.57c3-.85,6.4-2,10-3.45,1.8-.69,3.64-1.5,5.51-2.3s3.75-1.68,5.62-2.57,3.75-1.77,5.57-2.7,3.63-1.8,5.35-2.72c3.46-1.8,6.68-3.52,9.44-5Z"/><g class="d"><path class="e" d="M135.09,150.73s-47.62-19.18-74.3-60.09-68.46-5.33-59.57,16,70.34,72.91,133.87,63.13C145.26,167.11,154.6,160.71,135.09,150.73Z"/></g><g class="d"><path class="e" d="M157.88,150.73s47.62-19.18,74.29-60.09,68.47-5.33,59.58,16-70.34,72.91-133.87,63.13C147.7,167.11,138.37,160.71,157.88,150.73Z"/></g></svg>