<svg xmlns="http://www.w3.org/2000/svg" viewBox="0 0 208.86 192.18"><defs><style>.a{opacity:0.1;}.b{fill:#231f20;}.c{fill:#efa0a0;}.d{fill:#fff;}.e{fill:#ffa9a9;}</style></defs><g class="a"><path class="b" d="M98.46,26.88c0,20.37-11,36.88-24.66,36.88S49.14,47.25,49.14,26.88A49.38,49.38,0,0,1,54.4,4.12c4.52-8.6,11.53-.51,19.4-.51S88.5-4.62,93,3.78A49.19,49.19,0,0,1,98.46,26.88Z"/><line class="b" x1="73.8" y1="36.49" x2="73.8" y2="61.43"/><line class="b" x1="58.13" y1="30.48" x2="71.1" y2="57.03"/><line class="b" x1="90" y1="30.48" x2="77.03" y2="57.03"/><path class="b" d="M92.23,73A18.43,18.43,0,1,1,73.8,54.52,18.43,18.43,0,0,1,92.23,73Z"/><path class="b" d="M76.64,36.15a2.84,2.84,0,1,1-2.84-2.83A2.84,2.84,0,0,1,76.64,36.15Z"/><path class="b" d="M61,30.49a2.84,2.84,0,1,1-2.83-2.84A2.83,2.83,0,0,1,61,30.49Z"/><path class="b" d="M92.83,30.49A2.84,2.84,0,1,1,90,27.65,2.83,2.83,0,0,1,92.83,30.49Z"/><path class="b" d="M37.61,35.27C57,41.56,69.27,57.16,65.06,70.11S41.74,88.46,22.37,82.17a49.4,49.4,0,0,1-20-12C-4.44,63.18,5.42,59,7.85,51.52S4.56,35,14,33.3A49.14,49.14,0,0,1,37.61,35.27Z"/><line class="b" x1="39.12" y1="61.68" x2="62.84" y2="69.39"/><line class="b" x1="28.57" y1="74.74" x2="57.82" y2="70.6"/><line class="b" x1="38.41" y1="44.43" x2="59.65" y2="64.97"/><path class="b" d="M79.5,55.42A18.43,18.43,0,1,1,56.27,67.26,18.43,18.43,0,0,1,79.5,55.42Z"/><path class="b" d="M39.68,58.89a2.84,2.84,0,1,1-3.57,1.82A2.83,2.83,0,0,1,39.68,58.89Z"/><path class="b" d="M29.44,72a2.83,2.83,0,1,1-3.57,1.82A2.82,2.82,0,0,1,29.44,72Z"/><path class="b" d="M39.29,41.73a2.83,2.83,0,1,1-3.57,1.82A2.83,2.83,0,0,1,39.29,41.73Z"/><path class="b" d="M26.77,95.73c12-16.48,30.61-23.35,41.63-15.34s10.24,27.85-1.73,44.33A49.28,49.28,0,0,1,49,140c-8.7,4.3-9.62-6.36-16-11s-16.73-2-15.45-11.43A49.3,49.3,0,0,1,26.77,95.73Z"/><line class="b" x1="52.37" y1="102.46" x2="67.03" y2="82.28"/><line class="b" x1="61.52" y1="116.52" x2="66.63" y2="87.42"/><line class="b" x1="35.74" y1="97.79" x2="61.83" y2="83.94"/><path class="b" d="M58.89,62.12A18.43,18.43,0,1,1,63,87.86,18.42,18.42,0,0,1,58.89,62.12Z"/><path class="b" d="M49.88,101.06a2.83,2.83,0,1,1,.62,4A2.83,2.83,0,0,1,49.88,101.06Z"/><path class="b" d="M59.23,114.86a2.83,2.83,0,1,1,.62,4A2.83,2.83,0,0,1,59.23,114.86Z"/><path class="b" d="M33.44,96.12a2.84,2.84,0,1,1,.63,4A2.84,2.84,0,0,1,33.44,96.12Z"/><path class="b" d="M80.93,124.72C69,108.24,68.19,88.39,79.2,80.39s29.66-1.14,41.63,15.34A49.32,49.32,0,0,1,130,117.24c1.4,9.6-9,7.18-15.39,11.81s-7,15.3-15.65,11.16A49.22,49.22,0,0,1,80.93,124.72Z"/><line class="b" x1="95.24" y1="102.46" x2="80.58" y2="82.28"/><line class="b" x1="111.44" y1="98.1" x2="85.35" y2="84.25"/><line class="b" x1="85.66" y1="116.83" x2="80.55" y2="87.73"/><path class="b" d="M58.89,83.79a18.43,18.43,0,1,1,25.74,4.07A18.43,18.43,0,0,1,58.89,83.79Z"/><path class="b" d="M93.14,104.39a2.84,2.84,0,1,1,4,.63A2.83,2.83,0,0,1,93.14,104.39Z"/><path class="b" d="M109.15,99.76a2.84,2.84,0,1,1,4,.63A2.83,2.83,0,0,1,109.15,99.76Z"/><path class="b" d="M83.37,118.5a2.83,2.83,0,1,1,4,.62A2.83,2.83,0,0,1,83.37,118.5Z"/><path class="b" d="M125.23,82.17c-19.37,6.29-38.48.89-42.69-12.06S90.62,41.56,110,35.27a49.33,49.33,0,0,1,23.27-2c9.57,1.64,4,10.81,6.48,18.3S152.12,63,145.53,69.85A49.26,49.26,0,0,1,125.23,82.17Z"/><line class="b" x1="108.48" y1="61.68" x2="84.76" y2="69.39"/><line class="b" x1="109.35" y1="44.92" x2="88.11" y2="65.46"/><line class="b" x1="119.19" y1="75.23" x2="89.94" y2="71.1"/><path class="b" d="M79.5,90.48A18.43,18.43,0,1,1,91.33,67.26,18.43,18.43,0,0,1,79.5,90.48Z"/><path class="b" d="M78.1,86.19A13.92,13.92,0,1,1,87,68.65,13.92,13.92,0,0,1,78.1,86.19Z"/><path class="b" d="M77.06,81.2a8.85,8.85,0,1,1,5.68-11.15A8.86,8.86,0,0,1,77.06,81.2Z"/><path class="b" d="M109.68,64.28a2.84,2.84,0,1,1,1.81-3.58A2.83,2.83,0,0,1,109.68,64.28Z"/><path class="b" d="M110.22,47.62A2.83,2.83,0,1,1,112,44.05,2.83,2.83,0,0,1,110.22,47.62Z"/><path class="b" d="M120.07,77.93a2.83,2.83,0,1,1,1.82-3.57A2.83,2.83,0,0,1,120.07,77.93Z"/><line class="b" x1="73.8" y1="59.02" x2="73.8" y2="64.97"/><path class="b" d="M79.14,80.21A8.85,8.85,0,1,1,81.75,68,8.86,8.86,0,0,1,79.14,80.21Z"/><line class="b" x1="70.26" y1="59.63" x2="71.79" y2="65.37"/><path class="b" d="M80.9,78.71a8.85,8.85,0,1,1-.66-12.5A8.85,8.85,0,0,1,80.9,78.71Z"/><line class="b" x1="66.99" y1="61.13" x2="69.96" y2="66.28"/><path class="b" d="M82.21,76.8a8.85,8.85,0,1,1-3.87-11.9A8.85,8.85,0,0,1,82.21,76.8Z"/><line class="b" x1="64.22" y1="63.43" x2="68.42" y2="67.63"/><path class="b" d="M83,74.63a8.85,8.85,0,1,1-6.82-10.5A8.85,8.85,0,0,1,83,74.63Z"/><line class="b" x1="62.14" y1="66.36" x2="67.29" y2="69.33"/><path class="b" d="M83.16,72.32A8.85,8.85,0,1,1,73.86,64,8.86,8.86,0,0,1,83.16,72.32Z"/><line class="b" x1="60.89" y1="69.73" x2="66.63" y2="71.27"/><path class="b" d="M82.74,70.05a8.85,8.85,0,1,1-11.15-5.68A8.85,8.85,0,0,1,82.74,70.05Z"/><line class="b" x1="60.56" y1="73.31" x2="66.5" y2="73.31"/><path class="b" d="M81.74,68A8.85,8.85,0,1,1,69.5,65.36,8.84,8.84,0,0,1,81.74,68Z"/><line class="b" x1="61.16" y1="76.85" x2="66.9" y2="75.32"/><path class="b" d="M80.24,66.21a8.85,8.85,0,1,1-12.5.65A8.85,8.85,0,0,1,80.24,66.21Z"/><line class="b" x1="62.67" y1="80.12" x2="67.81" y2="77.15"/><path class="b" d="M78.34,64.9a8.86,8.86,0,1,1-11.91,3.87A8.85,8.85,0,0,1,78.34,64.9Z"/><line class="b" x1="64.96" y1="82.89" x2="69.16" y2="78.69"/><path class="b" d="M76.16,64.13A8.85,8.85,0,1,1,65.66,71,8.85,8.85,0,0,1,76.16,64.13Z"/><line class="b" x1="67.9" y1="84.97" x2="70.86" y2="79.82"/><path class="b" d="M73.86,64a8.85,8.85,0,1,1-8.38,9.3A8.85,8.85,0,0,1,73.86,64Z"/><line class="b" x1="71.27" y1="86.22" x2="72.8" y2="80.48"/><path class="b" d="M71.59,64.37A8.85,8.85,0,1,1,65.9,75.52,8.85,8.85,0,0,1,71.59,64.37Z"/><line class="b" x1="74.85" y1="86.55" x2="74.85" y2="80.61"/><path class="b" d="M69.5,65.37a8.85,8.85,0,1,1-2.6,12.24A8.84,8.84,0,0,1,69.5,65.37Z"/><line class="b" x1="78.39" y1="85.95" x2="76.85" y2="80.21"/><path class="b" d="M67.75,66.87a8.85,8.85,0,1,1,.65,12.5A8.83,8.83,0,0,1,67.75,66.87Z"/><line class="b" x1="81.66" y1="84.44" x2="78.69" y2="79.3"/><path class="b" d="M66.44,68.77a8.85,8.85,0,1,1,3.87,11.9A8.84,8.84,0,0,1,66.44,68.77Z"/><line class="b" x1="84.42" y1="82.15" x2="80.22" y2="77.95"/><path class="b" d="M65.67,71a8.85,8.85,0,1,1,6.81,10.5A8.83,8.83,0,0,1,65.67,71Z"/><line class="b" x1="86.5" y1="79.22" x2="81.36" y2="76.25"/><path class="b" d="M65.49,73.25a8.85,8.85,0,1,1,9.3,8.38A8.84,8.84,0,0,1,65.49,73.25Z"/><line class="b" x1="87.75" y1="75.84" x2="82.01" y2="74.31"/><path class="b" d="M65.91,75.52a8.85,8.85,0,1,1,11.15,5.69A8.85,8.85,0,0,1,65.91,75.52Z"/><line class="b" x1="88.09" y1="72.26" x2="82.14" y2="72.26"/><path class="b" d="M66.9,77.61a8.85,8.85,0,1,1,12.25,2.6A8.85,8.85,0,0,1,66.9,77.61Z"/><line class="b" x1="87.48" y1="68.72" x2="81.74" y2="70.26"/><path class="b" d="M68.4,79.36a8.85,8.85,0,1,1,12.5-.65A8.84,8.84,0,0,1,68.4,79.36Z"/><line class="b" x1="85.98" y1="65.45" x2="80.84" y2="68.42"/><path class="b" d="M70.31,80.67a8.85,8.85,0,1,1,11.9-3.87A8.84,8.84,0,0,1,70.31,80.67Z"/><line class="b" x1="83.68" y1="62.68" x2="79.48" y2="66.89"/><path class="b" d="M72.48,81.44A8.85,8.85,0,1,1,83,74.62,8.83,8.83,0,0,1,72.48,81.44Z"/><line class="b" x1="80.75" y1="60.61" x2="77.78" y2="65.75"/><path class="b" d="M74.79,81.62a8.85,8.85,0,1,1,8.37-9.3A8.83,8.83,0,0,1,74.79,81.62Z"/><path class="b" d="M74.16,79.34a6.89,6.89,0,1,1,6.52-7.24A6.89,6.89,0,0,1,74.16,79.34Z"/><line class="b" x1="77.38" y1="59.36" x2="75.84" y2="65.1"/></g><g class="a"><path class="b" d="M155.53,74.43c3.24,19.48-4.69,37-17.72,39.21s-26.22-11.87-29.46-31.36a47.89,47.89,0,0,1,1.4-22.62c3-8.94,11-2.32,18.48-3.58s12.75-10.21,18.42-2.9A47.73,47.73,0,0,1,155.53,74.43Z"/><line class="b" x1="133.47" y1="87.54" x2="137.44" y2="111.4"/><line class="b" x1="117.51" y1="84.29" x2="134.15" y2="107.63"/><line class="b" x1="148.01" y1="79.22" x2="139.82" y2="106.68"/><path class="b" d="M156.91,119.5a17.88,17.88,0,1,1-20.57-14.7A17.88,17.88,0,0,1,156.91,119.5Z"/><path class="b" d="M136.13,86.77A2.75,2.75,0,1,1,133,84.51,2.76,2.76,0,0,1,136.13,86.77Z"/><path class="b" d="M120.23,83.84a2.75,2.75,0,1,1-3.17-2.26A2.76,2.76,0,0,1,120.23,83.84Z"/><path class="b" d="M150.72,78.77a2.75,2.75,0,1,1-3.16-2.26A2.75,2.75,0,0,1,150.72,78.77Z"/><path class="b" d="M98.64,92.13c19.54,2.94,33.78,15.91,31.82,29s-19.4,21.27-38.93,18.34a47.94,47.94,0,0,1-21.08-8.33c-7.59-5.57,1.17-11.13,2.31-18.68S67,97.14,75.69,94A47.75,47.75,0,0,1,98.64,92.13Z"/><line class="b" x1="104.29" y1="117.17" x2="128.22" y2="120.77"/><line class="b" x1="96.28" y1="131.34" x2="123.61" y2="122.73"/><line class="b" x1="100.87" y1="100.77" x2="124.46" y2="117.04"/><path class="b" d="M141.93,104.75a17.88,17.88,0,1,1-20.34,15A17.88,17.88,0,0,1,141.93,104.75Z"/><path class="b" d="M104.38,114.4a2.75,2.75,0,1,1-3.12,2.31A2.75,2.75,0,0,1,104.38,114.4Z"/><path class="b" d="M96.69,128.62a2.75,2.75,0,1,1-3.13,2.31A2.75,2.75,0,0,1,96.69,128.62Z"/><path class="b" d="M101.28,98.05a2.75,2.75,0,1,1-3.12,2.31A2.75,2.75,0,0,1,101.28,98.05Z"/><path class="b" d="M97.9,151.71c8.83-17.67,25.57-27.21,37.39-21.31s14.23,25,5.4,42.69a47.84,47.84,0,0,1-14.43,17.48c-7.65,5.5-10.22-4.56-17.05-8s-16.33.77-16.61-8.48A47.76,47.76,0,0,1,97.9,151.71Z"/><line class="b" x1="123.46" y1="154.07" x2="134.27" y2="132.43"/><line class="b" x1="134.46" y1="166.07" x2="134.71" y2="137.42"/><line class="b" x1="106.81" y1="152.26" x2="129.57" y2="134.85"/><path class="b" d="M123.28,114.44a17.88,17.88,0,1,1,8,24A17.87,17.87,0,0,1,123.28,114.44Z"/><path class="b" d="M120.86,153.13a2.75,2.75,0,1,1,1.23,3.69A2.74,2.74,0,0,1,120.86,153.13Z"/><path class="b" d="M132,164.85a2.75,2.75,0,1,1,1.23,3.68A2.75,2.75,0,0,1,132,164.85Z"/><path class="b" d="M104.35,151a2.75,2.75,0,1,1,1.23,3.69A2.74,2.74,0,0,1,104.35,151Z"/><path class="b" d="M154.34,170.82c-14.08-13.86-18-32.72-8.72-42.14s28.2-5.8,42.27,8.06a47.79,47.79,0,0,1,12.16,19.12c2.87,9-7.49,8.32-12.85,13.76s-4.31,15.76-13.19,13.17A47.55,47.55,0,0,1,154.34,170.82Z"/><line class="b" x1="164.48" y1="147.25" x2="147.24" y2="130.27"/><line class="b" x1="179.29" y1="140.5" x2="152.12" y2="131.4"/><line class="b" x1="157.61" y1="162.52" x2="148.09" y2="135.49"/><path class="b" d="M126.73,135.17A17.88,17.88,0,1,1,152,135,17.88,17.88,0,0,1,126.73,135.17Z"/><path class="b" d="M162.78,149.43a2.75,2.75,0,1,1,3.89,0A2.75,2.75,0,0,1,162.78,149.43Z"/><path class="b" d="M177.36,142.46a2.75,2.75,0,1,1,3.89,0A2.76,2.76,0,0,1,177.36,142.46Z"/><path class="b" d="M155.68,164.48a2.74,2.74,0,1,1,3.89,0A2.74,2.74,0,0,1,155.68,164.48Z"/><path class="b" d="M190,123.06c-17.53,9.1-36.68,7-42.77-4.74s3.19-28.6,20.72-37.71A47.8,47.8,0,0,1,189.85,75c9.42,0,5.59,9.69,9.11,16.47s13.66,9,8.45,16.61A47.66,47.66,0,0,1,190,123.06Z"/><line class="b" x1="170.66" y1="106.13" x2="149.19" y2="117.28"/><line class="b" x1="168.82" y1="89.95" x2="151.77" y2="112.99"/><line class="b" x1="183.07" y1="117.38" x2="154.42" y2="118.09"/><path class="b" d="M147.51,138.3a17.88,17.88,0,1,1,7.63-24.11A17.88,17.88,0,0,1,147.51,138.3Z"/><path class="b" d="M145.5,134.42a13.51,13.51,0,1,1,5.76-18.22A13.52,13.52,0,0,1,145.5,134.42Z"/><path class="b" d="M143.7,129.81a8.59,8.59,0,1,1,3.66-11.58A8.58,8.58,0,0,1,143.7,129.81Z"/><path class="b" d="M172.22,108.42a2.75,2.75,0,1,1,1.17-3.71A2.75,2.75,0,0,1,172.22,108.42Z"/><path class="b" d="M170.09,92.39a2.75,2.75,0,1,1,1.17-3.71A2.75,2.75,0,0,1,170.09,92.39Z"/><path class="b" d="M184.34,119.83a2.76,2.76,0,1,1,1.17-3.71A2.76,2.76,0,0,1,184.34,119.83Z"/><line class="b" x1="137.05" y1="109.1" x2="138" y2="114.79"/><path class="b" d="M145.54,128.52a8.59,8.59,0,1,1,.54-12.13A8.58,8.58,0,0,1,145.54,128.52Z"/><line class="b" x1="133.76" y1="110.25" x2="136.14" y2="115.49"/><path class="b" d="M147,126.81A8.58,8.58,0,1,1,144.36,115,8.58,8.58,0,0,1,147,126.81Z"/><line class="b" x1="130.87" y1="112.2" x2="134.53" y2="116.65"/><path class="b" d="M147.93,124.78a8.59,8.59,0,1,1-5.6-10.78A8.58,8.58,0,0,1,147.93,124.78Z"/><line class="b" x1="128.59" y1="114.84" x2="133.28" y2="118.19"/><path class="b" d="M148.32,122.57a8.58,8.58,0,1,1-8.19-9A8.57,8.57,0,0,1,148.32,122.57Z"/><line class="b" x1="127.07" y1="117.98" x2="132.46" y2="120"/><path class="b" d="M148.13,120.34a8.59,8.59,0,1,1-10.24-6.53A8.59,8.59,0,0,1,148.13,120.34Z"/><line class="b" x1="126.41" y1="121.4" x2="132.15" y2="121.96"/><path class="b" d="M147.36,118.23a8.59,8.59,0,1,1-11.57-3.66A8.58,8.58,0,0,1,147.36,118.23Z"/><line class="b" x1="126.66" y1="124.88" x2="132.34" y2="123.94"/><path class="b" d="M146.08,116.4a8.58,8.58,0,1,1-12.13-.54A8.57,8.57,0,0,1,146.08,116.4Z"/><line class="b" x1="127.8" y1="128.18" x2="133.05" y2="125.79"/><path class="b" d="M144.36,115a8.59,8.59,0,1,1-11.85,2.62A8.59,8.59,0,0,1,144.36,115Z"/><line class="b" x1="129.76" y1="131.06" x2="134.21" y2="127.4"/><path class="b" d="M142.33,114a8.59,8.59,0,1,1-10.77,5.59A8.57,8.57,0,0,1,142.33,114Z"/><line class="b" x1="132.4" y1="133.34" x2="135.75" y2="128.66"/><path class="b" d="M140.13,113.61a8.59,8.59,0,1,1-9,8.2A8.58,8.58,0,0,1,140.13,113.61Z"/><line class="b" x1="135.53" y1="134.87" x2="137.56" y2="129.47"/><path class="b" d="M137.9,113.81A8.59,8.59,0,1,1,131.36,124,8.57,8.57,0,0,1,137.9,113.81Z"/><line class="b" x1="138.96" y1="135.52" x2="139.52" y2="129.79"/><path class="b" d="M135.79,114.57a8.59,8.59,0,1,1-3.66,11.58A8.59,8.59,0,0,1,135.79,114.57Z"/><line class="b" x1="142.44" y1="135.27" x2="141.49" y2="129.59"/><path class="b" d="M134,115.86a8.59,8.59,0,1,1-.54,12.12A8.58,8.58,0,0,1,134,115.86Z"/><line class="b" x1="145.73" y1="134.13" x2="143.35" y2="128.89"/><path class="b" d="M132.51,117.57a8.58,8.58,0,1,1,2.62,11.86A8.58,8.58,0,0,1,132.51,117.57Z"/><line class="b" x1="148.62" y1="132.17" x2="144.96" y2="127.73"/><path class="b" d="M131.56,119.6a8.59,8.59,0,1,1,5.6,10.78A8.57,8.57,0,0,1,131.56,119.6Z"/><line class="b" x1="150.9" y1="129.54" x2="146.21" y2="126.19"/><path class="b" d="M131.17,121.81a8.59,8.59,0,1,1,8.19,9A8.57,8.57,0,0,1,131.17,121.81Z"/><line class="b" x1="152.42" y1="126.4" x2="147.03" y2="124.38"/><path class="b" d="M131.36,124a8.59,8.59,0,1,1,10.24,6.53A8.59,8.59,0,0,1,131.36,124Z"/><line class="b" x1="153.08" y1="122.98" x2="147.35" y2="122.42"/><path class="b" d="M132.13,126.15a8.59,8.59,0,1,1,11.58,3.66A8.58,8.58,0,0,1,132.13,126.15Z"/><line class="b" x1="152.83" y1="119.5" x2="147.15" y2="120.44"/><path class="b" d="M133.41,128a8.59,8.59,0,1,1,12.13.54A8.57,8.57,0,0,1,133.41,128Z"/><line class="b" x1="151.69" y1="116.2" x2="146.44" y2="118.59"/><path class="b" d="M135.13,129.42A8.58,8.58,0,1,1,147,126.81,8.58,8.58,0,0,1,135.13,129.42Z"/><line class="b" x1="149.73" y1="113.32" x2="145.28" y2="116.98"/><path class="b" d="M137.16,130.37a8.59,8.59,0,1,1,10.77-5.59A8.58,8.58,0,0,1,137.16,130.37Z"/><line class="b" x1="147.09" y1="111.03" x2="143.74" y2="115.72"/><path class="b" d="M139.36,130.76a8.58,8.58,0,1,1,9-8.19A8.58,8.58,0,0,1,139.36,130.76Z"/><line class="b" x1="143.96" y1="109.51" x2="141.93" y2="114.91"/><path class="b" d="M141.6,130.57a8.59,8.59,0,1,1,6.53-10.23A8.59,8.59,0,0,1,141.6,130.57Z"/><path class="b" d="M140.63,128.48a6.68,6.68,0,1,1,5.09-8A6.68,6.68,0,0,1,140.63,128.48Z"/><line class="b" x1="140.53" y1="108.85" x2="139.98" y2="114.59"/></g><path class="c" d="M157.79,73.41c3.1,18.66-4.5,35.47-17,37.55s-25.11-11.37-28.21-30a45.9,45.9,0,0,1,1.34-21.67c2.83-8.56,10.49-2.22,17.7-3.42s12.22-9.78,17.64-2.78A45.8,45.8,0,0,1,157.79,73.41Z"/><rect class="d" x="137.49" y="85.81" width="2.13" height="23.17" transform="matrix(0.99, -0.16, 0.16, 0.99, -14.11, 24.06)"/><rect class="d" x="128.28" y="80.31" width="2.13" height="27.45" transform="translate(-30.56 92.56) rotate(-35.49)"/><rect class="d" x="132.94" y="90.08" width="27.44" height="2.13" transform="translate(17.41 205.65) rotate(-73.4)"/><path class="e" d="M159.11,116.57a17.12,17.12,0,1,1-19.7-14.08A17.13,17.13,0,0,1,159.11,116.57Z"/><path class="d" d="M139.2,85.23a2.63,2.63,0,1,1-3-2.17A2.64,2.64,0,0,1,139.2,85.23Z"/><path class="d" d="M124,82.42a2.64,2.64,0,1,1-3-2.16A2.64,2.64,0,0,1,124,82.42Z"/><path class="d" d="M153.18,77.56a2.64,2.64,0,1,1-3-2.16A2.63,2.63,0,0,1,153.18,77.56Z"/><path class="c" d="M103.3,90.37c18.71,2.81,32.35,15.23,30.47,27.74s-18.57,20.37-37.28,17.56a46,46,0,0,1-20.19-8C69,122.36,77.43,117,78.52,109.8S73,95.16,81.32,92.17A45.71,45.71,0,0,1,103.3,90.37Z"/><rect class="d" x="119.11" y="104.48" width="2.13" height="23.17" transform="translate(-12.47 217.64) rotate(-81.45)"/><rect class="d" x="100.4" y="122.73" width="27.44" height="2.13" transform="translate(-31.92 40.01) rotate(-17.48)"/><rect class="d" x="115.67" y="92.71" width="2.13" height="27.45" transform="translate(-37.15 142.1) rotate(-55.41)"/><path class="e" d="M144.76,102.45a17.12,17.12,0,1,1-19.47,14.39A17.14,17.14,0,0,1,144.76,102.45Z"/><path class="d" d="M108.8,111.69a2.63,2.63,0,1,1-3,2.22A2.63,2.63,0,0,1,108.8,111.69Z"/><path class="d" d="M101.43,125.31a2.63,2.63,0,1,1-3,2.21A2.63,2.63,0,0,1,101.43,125.31Z"/><path class="d" d="M105.83,96a2.63,2.63,0,1,1-3,2.22A2.65,2.65,0,0,1,105.83,96Z"/><path class="c" d="M102.6,147.42c8.45-16.92,24.48-26.06,35.8-20.4s13.63,24,5.17,40.88a45.85,45.85,0,0,1-13.82,16.74c-7.32,5.26-9.79-4.37-16.33-7.64s-15.63.74-15.9-8.12A45.64,45.64,0,0,1,102.6,147.42Z"/><rect class="d" x="120.67" y="138.26" width="23.17" height="2.13" transform="translate(-51.49 195.34) rotate(-63.45)"/><rect class="d" x="124.01" y="146.39" width="27.44" height="2.13" transform="translate(-10.92 283.9) rotate(-89.5)"/><rect class="d" x="108.3" y="138.55" width="27.45" height="2.13" transform="translate(-59.71 102.83) rotate(-37.4)"/><path class="e" d="M126.9,111.73a17.12,17.12,0,1,1,7.66,23A17.13,17.13,0,0,1,126.9,111.73Z"/><path class="d" d="M124.58,148.78a2.63,2.63,0,1,1,1.18,3.54A2.63,2.63,0,0,1,124.58,148.78Z"/><path class="d" d="M135.25,160a2.63,2.63,0,1,1,1.18,3.53A2.63,2.63,0,0,1,135.25,160Z"/><path class="d" d="M108.77,146.77A2.63,2.63,0,1,1,110,150.3,2.63,2.63,0,0,1,108.77,146.77Z"/><path class="c" d="M156.64,165.73c-13.48-13.28-17.21-31.34-8.34-40.36s27-5.56,40.48,7.71a45.89,45.89,0,0,1,11.65,18.32c2.74,8.59-7.18,8-12.31,13.17s-4.13,15.1-12.63,12.62A45.69,45.69,0,0,1,156.64,165.73Z"/><rect class="d" x="157.04" y="123.44" width="2.13" height="23.17" transform="translate(-49.03 152.96) rotate(-45.45)"/><rect class="d" x="166.47" y="118.6" width="2.13" height="27.45" transform="translate(-11.14 249.18) rotate(-71.49)"/><rect class="d" x="154.15" y="131.11" width="2.13" height="27.45" transform="translate(-39.31 59.8) rotate(-19.41)"/><path class="e" d="M130.2,131.58a17.12,17.12,0,1,1,24.22-.19A17.12,17.12,0,0,1,130.2,131.58Z"/><path class="d" d="M164.73,145.24a2.63,2.63,0,1,1,3.72,0A2.63,2.63,0,0,1,164.73,145.24Z"/><path class="d" d="M178.7,138.56a2.63,2.63,0,1,1,3.72,0A2.63,2.63,0,0,1,178.7,138.56Z"/><path class="d" d="M157.93,159.66a2.63,2.63,0,1,1,3.72,0A2.64,2.64,0,0,1,157.93,159.66Z"/><path class="c" d="M190.75,120c-16.79,8.72-35.13,6.69-41-4.53s3.06-27.4,19.85-36.12a45.7,45.7,0,0,1,21-5.41c9,0,5.35,9.28,8.72,15.77s13.08,8.59,8.09,15.91A45.53,45.53,0,0,1,190.75,120Z"/><rect class="d" x="150.41" y="108.04" width="23.17" height="2.13" transform="translate(-32.05 86.92) rotate(-27.44)"/><rect class="d" x="148.63" y="98.24" width="27.45" height="2.13" transform="translate(-14.05 170.74) rotate(-53.5)"/><rect class="d" x="156.72" y="113.82" width="27.44" height="2.13" transform="translate(-2.74 4.18) rotate(-1.39)"/><path class="e" d="M150.11,134.58a17.12,17.12,0,1,1,7.3-23.09A17.13,17.13,0,0,1,150.11,134.58Z"/><path class="d" d="M142.24,137.58a18.31,18.31,0,0,1-5.51-.86,18,18,0,1,1,5.51.86Zm0-34.27a16.06,16.06,0,1,0,7.42,30.32h0a16.06,16.06,0,0,0-2.56-29.56A16.27,16.27,0,0,0,142.2,103.31Z"/><path class="e" d="M148.18,130.86a12.93,12.93,0,1,1,5.51-17.44A12.94,12.94,0,0,1,148.18,130.86Z"/><path class="d" d="M142.23,133.38a14,14,0,1,1,6.44-1.58h0A13.93,13.93,0,0,1,142.23,133.38Zm0-25.87a11.87,11.87,0,1,0,5.49,22.41h0a11.87,11.87,0,0,0-5.49-22.41Z"/><path class="d" d="M146.46,126.44A8.22,8.22,0,1,1,150,115.36,8.22,8.22,0,0,1,146.46,126.44Z"/><path class="d" d="M173.77,106a2.63,2.63,0,1,1,1.12-3.55A2.63,2.63,0,0,1,173.77,106Z"/><path class="d" d="M171.73,90.61a2.63,2.63,0,1,1,1.12-3.55A2.63,2.63,0,0,1,171.73,90.61Z"/><path class="d" d="M185.37,116.89a2.63,2.63,0,1,1,1.13-3.56A2.64,2.64,0,0,1,185.37,116.89Z"/><rect class="d" x="139.48" y="106.58" width="2.13" height="5.52" transform="translate(-16.03 24.54) rotate(-9.44)"/><path class="d" d="M148.22,125.22a8.22,8.22,0,1,1,.52-11.62A8.23,8.23,0,0,1,148.22,125.22Z"/><rect class="d" x="137.02" y="107.47" width="2.13" height="5.52" transform="translate(-33.24 67.03) rotate(-24.45)"/><path class="d" d="M149.6,123.57a8.22,8.22,0,1,1-2.51-11.35A8.23,8.23,0,0,1,149.6,123.57Z"/><rect class="d" x="134.86" y="108.96" width="2.13" height="5.52" transform="translate(-40.02 111.8) rotate(-39.44)"/><path class="d" d="M150.51,121.63a8.22,8.22,0,1,1-5.36-10.32A8.22,8.22,0,0,1,150.51,121.63Z"/><rect class="d" x="133.17" y="110.96" width="2.13" height="5.52" transform="translate(-36.34 156.78) rotate(-54.44)"/><path class="d" d="M150.88,119.52a8.22,8.22,0,1,1-7.85-8.58A8.22,8.22,0,0,1,150.88,119.52Z"/><rect class="d" x="132.05" y="113.33" width="2.13" height="5.52" transform="translate(-22.32 199.96) rotate(-69.45)"/><path class="d" d="M150.7,117.38a8.22,8.22,0,1,1-9.8-6.26A8.23,8.23,0,0,1,150.7,117.38Z"/><rect class="d" x="131.58" y="115.9" width="2.13" height="5.52" transform="translate(1.7 239.2) rotate(-84.44)"/><path class="d" d="M150,115.36a8.22,8.22,0,1,1-11.08-3.51A8.22,8.22,0,0,1,150,115.36Z"/><rect class="d" x="130.1" y="120.21" width="5.52" height="2.13" transform="translate(-18.09 23.43) rotate(-9.44)"/><path class="d" d="M148.73,113.6a8.22,8.22,0,1,1-11.61-.52A8.22,8.22,0,0,1,148.73,113.6Z"/><rect class="d" x="130.99" y="122.68" width="5.52" height="2.13" transform="translate(-39.22 66.44) rotate(-24.45)"/><path class="d" d="M147.09,112.22a8.22,8.22,0,1,1-11.35,2.51A8.22,8.22,0,0,1,147.09,112.22Z"/><rect class="d" x="132.48" y="124.83" width="5.52" height="2.13" transform="translate(-49.18 114.6) rotate(-39.45)"/><path class="d" d="M145.15,111.31a8.22,8.22,0,1,1-10.32,5.36A8.22,8.22,0,0,1,145.15,111.31Z"/><rect class="d" x="134.48" y="126.53" width="5.52" height="2.13" transform="translate(-46.37 165.04) rotate(-54.44)"/><path class="d" d="M143,110.94a8.22,8.22,0,1,1-8.59,7.84A8.22,8.22,0,0,1,143,110.94Z"/><rect class="d" x="136.85" y="127.64" width="5.52" height="2.13" transform="translate(-29.9 214.28) rotate(-69.46)"/><path class="d" d="M140.9,111.12a8.22,8.22,0,1,1-6.26,9.8A8.23,8.23,0,0,1,140.9,111.12Z"/><rect class="d" x="139.42" y="128.11" width="5.52" height="2.13" transform="translate(-0.16 258.17) rotate(-84.44)"/><path class="d" d="M138.88,111.86a8.22,8.22,0,1,1-3.51,11.08A8.21,8.21,0,0,1,138.88,111.86Z"/><rect class="d" x="143.73" y="126.2" width="2.13" height="5.52" transform="translate(-19.19 25.49) rotate(-9.44)"/><path class="d" d="M137.12,113.08a8.22,8.22,0,1,1-.52,11.62A8.22,8.22,0,0,1,137.12,113.08Z"/><rect class="d" x="146.2" y="125.32" width="2.13" height="5.52" transform="translate(-39.8 72.41) rotate(-24.44)"/><path class="d" d="M135.74,114.73a8.22,8.22,0,1,1,2.51,11.35A8.22,8.22,0,0,1,135.74,114.73Z"/><rect class="d" x="148.35" y="123.82" width="2.13" height="5.52" transform="translate(-46.39 123.77) rotate(-39.45)"/><path class="d" d="M134.83,116.67A8.22,8.22,0,1,1,140.19,127,8.22,8.22,0,0,1,134.83,116.67Z"/><rect class="d" x="150.05" y="121.82" width="2.13" height="5.52" transform="translate(-38.11 175.09) rotate(-54.45)"/><path class="d" d="M134.46,118.78a8.22,8.22,0,1,1,7.84,8.58A8.21,8.21,0,0,1,134.46,118.78Z"/><rect class="d" x="151.16" y="119.46" width="2.13" height="5.52" transform="translate(-15.63 221.88) rotate(-69.46)"/><path class="d" d="M134.64,120.92a8.22,8.22,0,1,1,9.8,6.26A8.23,8.23,0,0,1,134.64,120.92Z"/><rect class="d" x="151.63" y="116.88" width="2.13" height="5.52" transform="translate(18.85 260.04) rotate(-84.45)"/><path class="d" d="M135.37,122.94a8.23,8.23,0,1,1,11.09,3.51A8.22,8.22,0,0,1,135.37,122.94Z"/><rect class="d" x="149.72" y="115.96" width="5.52" height="2.13" transform="translate(-17.13 26.6) rotate(-9.44)"/><path class="d" d="M136.6,124.7a8.22,8.22,0,1,1,11.62.52A8.23,8.23,0,0,1,136.6,124.7Z"/><rect class="d" x="148.84" y="113.5" width="5.52" height="2.13" transform="translate(-33.82 73.01) rotate(-24.45)"/><path class="d" d="M138.25,126.08a8.22,8.22,0,1,1,11.35-2.51A8.22,8.22,0,0,1,138.25,126.08Z"/><rect class="d" x="147.34" y="111.34" width="5.52" height="2.13" transform="translate(-37.23 120.97) rotate(-39.45)"/><path class="d" d="M140.19,127a8.22,8.22,0,1,1,10.32-5.36A8.22,8.22,0,0,1,140.19,127Z"/><rect class="d" x="145.34" y="109.65" width="5.52" height="2.13" transform="translate(-28.09 166.81) rotate(-54.44)"/><path class="d" d="M142.3,127.36a8.22,8.22,0,1,1,8.58-7.85A8.21,8.21,0,0,1,142.3,127.36Z"/><rect class="d" x="142.97" y="108.53" width="5.52" height="2.13" transform="translate(-8.02 207.61) rotate(-69.46)"/><path class="d" d="M144.44,127.18a8.22,8.22,0,1,1,6.26-9.81A8.23,8.23,0,0,1,144.44,127.18Z"/><path class="c" d="M143.52,125.18a6.4,6.4,0,1,1,4.87-7.63A6.39,6.39,0,0,1,143.52,125.18Z"/><rect class="d" x="140.4" y="108.06" width="5.52" height="2.13" transform="translate(20.73 241.09) rotate(-84.46)"/><path class="e" d="M101.19,25.39c0,19.24-10.42,34.83-23.29,34.83S54.62,44.63,54.62,25.39a46.62,46.62,0,0,1,5-21.5c4.27-8.12,10.89-.48,18.32-.48s13.89-7.78,18.15.16A46.35,46.35,0,0,1,101.19,25.39Z"/><rect class="d" x="76.84" y="34.46" width="2.13" height="23.56"/><rect class="d" x="68.16" y="27.38" width="2.13" height="27.91" transform="translate(-11.12 34.59) rotate(-26.04)"/><rect class="d" x="73.12" y="40.27" width="27.9" height="2.13" transform="translate(11.71 101.41) rotate(-63.95)"/><path class="e" d="M95.31,68.9A17.41,17.41,0,1,1,77.9,51.5,17.4,17.4,0,0,1,95.31,68.9Z"/><path class="d" d="M80.58,34.15a2.68,2.68,0,1,1-2.68-2.68A2.68,2.68,0,0,1,80.58,34.15Z"/><path class="d" d="M65.78,28.79a2.68,2.68,0,1,1-2.68-2.67A2.68,2.68,0,0,1,65.78,28.79Z"/><path class="d" d="M95.88,28.79a2.68,2.68,0,1,1-2.68-2.67A2.68,2.68,0,0,1,95.88,28.79Z"/><path class="e" d="M43.72,33.31C62,39.25,73.62,54,69.65,66.22s-22,17.33-40.32,11.39A46.62,46.62,0,0,1,10.41,66.24c-6.4-6.56,2.91-10.5,5.21-17.57s-3.11-15.61,5.75-17.22A46.52,46.52,0,0,1,43.72,33.31Z"/><rect class="d" x="55.29" y="50.12" width="2.13" height="23.56" transform="translate(-19.94 96.36) rotate(-72)"/><rect class="d" x="35.04" y="67.57" width="27.9" height="2.13" transform="translate(-9.13 7.54) rotate(-8.05)"/><rect class="d" x="53.45" y="37.71" width="2.13" height="27.9" transform="translate(-20.52 54.93) rotate(-45.96)"/><path class="e" d="M83.28,52.35A17.41,17.41,0,1,1,61.35,63.53,17.4,17.4,0,0,1,83.28,52.35Z"/><path class="d" d="M45.67,55.62a2.68,2.68,0,1,1-3.37,1.72A2.66,2.66,0,0,1,45.67,55.62Z"/><path class="d" d="M36,68a2.68,2.68,0,1,1-1.65,5.09A2.68,2.68,0,0,1,36,68Z"/><path class="d" d="M45.31,39.42a2.68,2.68,0,1,1-3.37,1.71A2.66,2.66,0,0,1,45.31,39.42Z"/><path class="e" d="M33.49,90.42c11.3-15.57,28.91-22,39.31-14.49s9.68,26.3-1.63,41.87a46.61,46.61,0,0,1-16.66,14.47c-8.22,4.06-9.09-6-15.1-10.38S23.61,120,24.82,111.1A46.23,46.23,0,0,1,33.49,90.42Z"/><rect class="d" x="52.8" y="86.18" width="23.56" height="2.13" transform="translate(-43.96 88.19) rotate(-53.99)"/><rect class="d" x="54.76" y="95.25" width="27.9" height="2.13" transform="translate(-38.02 147.36) rotate(-80.05)"/><rect class="d" x="40.32" y="84.76" width="27.9" height="2.13" transform="translate(-33.91 35.47) rotate(-27.97)"/><path class="e" d="M63.82,58.67A17.41,17.41,0,1,1,67.67,83,17.41,17.41,0,0,1,63.82,58.67Z"/><path class="d" d="M55.31,95.45a2.68,2.68,0,1,1,.59,3.74A2.67,2.67,0,0,1,55.31,95.45Z"/><path class="d" d="M64.14,108.48a2.68,2.68,0,1,1,.59,3.74A2.68,2.68,0,0,1,64.14,108.48Z"/><path class="d" d="M39.79,90.79a2.68,2.68,0,1,1,.59,3.74A2.68,2.68,0,0,1,39.79,90.79Z"/><path class="e" d="M84.64,117.8C73.33,102.23,72.6,83.49,83,75.93s28-1.08,39.31,14.49a46.52,46.52,0,0,1,8.62,20.31c1.32,9.08-8.52,6.79-14.54,11.16s-6.66,14.45-14.78,10.54A46.46,46.46,0,0,1,84.64,117.8Z"/><rect class="d" x="90.16" y="75.46" width="2.13" height="23.56" transform="translate(-33.86 70.28) rotate(-36)"/><rect class="d" x="100.07" y="72.16" width="2.13" height="27.9" transform="translate(-22.34 135.07) rotate(-62.04)"/><rect class="d" x="85.63" y="82.65" width="2.13" height="27.9" transform="translate(-15.4 16.45) rotate(-9.96)"/><path class="e" d="M63.82,79.14A17.41,17.41,0,1,1,88.14,83,17.41,17.41,0,0,1,63.82,79.14Z"/><path class="d" d="M96.17,98.6a2.68,2.68,0,1,1,3.74.59A2.68,2.68,0,0,1,96.17,98.6Z"/><path class="d" d="M111.29,94.23a2.68,2.68,0,1,1,3.74.59A2.68,2.68,0,0,1,111.29,94.23Z"/><path class="d" d="M86.94,111.92a2.68,2.68,0,1,1,3.74.59A2.68,2.68,0,0,1,86.94,111.92Z"/><path class="e" d="M126.48,77.61c-18.29,5.94-36.35.85-40.32-11.39s7.63-27,25.93-32.91a46.58,46.58,0,0,1,22-1.92c9,1.55,3.82,10.2,6.11,17.28s11.69,10.8,5.46,17.31A46.48,46.48,0,0,1,126.48,77.61Z"/><rect class="d" x="87.68" y="60.84" width="23.56" height="2.13" transform="translate(-14.27 33.79) rotate(-18.01)"/><rect class="d" x="87.5" y="51.07" width="27.9" height="2.13" transform="translate(-7.72 85.16) rotate(-44.03)"/><rect class="d" x="105.9" y="55.15" width="2.13" height="27.9" transform="translate(23.58 165.35) rotate(-81.96)"/><path class="e" d="M83.28,85.46A17.41,17.41,0,1,1,94.46,63.52,17.4,17.4,0,0,1,83.28,85.46Z"/><path class="d" d="M77.88,87.39a18.56,18.56,0,1,1,5.73-.92A18.56,18.56,0,0,1,77.88,87.39Zm0-34.84a16.43,16.43,0,0,0-5.07.81A16.34,16.34,0,1,0,83,84.45h0a16.35,16.35,0,0,0-5-31.9Z"/><path class="e" d="M82,81.41a13.15,13.15,0,1,1,8.44-16.57A13.15,13.15,0,0,1,82,81.41Z"/><path class="d" d="M77.89,83.13a14.3,14.3,0,1,1,4.41-.71A14.22,14.22,0,0,1,77.89,83.13Zm0-26.32a12.09,12.09,0,0,0-5.5,22.86,12,12,0,0,0,9.22.73h0a12.09,12.09,0,0,0-3.72-23.59Z"/><path class="d" d="M81,76.7a8.36,8.36,0,1,1,5.37-10.54A8.36,8.36,0,0,1,81,76.7Z"/><path class="d" d="M111.79,60.71a2.68,2.68,0,1,1,1.72-3.37A2.66,2.66,0,0,1,111.79,60.71Z"/><path class="d" d="M112.31,45A2.68,2.68,0,1,1,114,41.6,2.7,2.7,0,0,1,112.31,45Z"/><path class="d" d="M121.61,73.6a2.68,2.68,0,1,1,1.71-3.37A2.68,2.68,0,0,1,121.61,73.6Z"/><rect class="d" x="76.84" y="55.75" width="2.13" height="5.61"/><path class="d" d="M83,75.76a8.36,8.36,0,1,1,2.46-11.57A8.36,8.36,0,0,1,83,75.76Z"/><rect class="d" x="74.22" y="56.22" width="2.13" height="5.61" transform="translate(-12.71 21.49) rotate(-15)"/><path class="d" d="M84.61,74.34A8.36,8.36,0,1,1,84,62.53,8.36,8.36,0,0,1,84.61,74.34Z"/><rect class="d" x="71.81" y="57.36" width="2.13" height="5.61" transform="translate(-20.32 44.49) rotate(-29.99)"/><path class="d" d="M85.84,72.54A8.36,8.36,0,1,1,82.19,61.3,8.36,8.36,0,0,1,85.84,72.54Z"/><rect class="d" x="69.78" y="59.08" width="2.13" height="5.61" transform="translate(-23.01 68.21) rotate(-45)"/><path class="d" d="M86.57,70.49a8.36,8.36,0,1,1-6.44-9.92A8.36,8.36,0,0,1,86.57,70.49Z"/><rect class="d" x="68.26" y="61.27" width="2.13" height="5.61" transform="translate(-20.83 92.08) rotate(-60)"/><path class="d" d="M86.74,68.31A8.36,8.36,0,1,1,78,60.4,8.36,8.36,0,0,1,86.74,68.31Z"/><rect class="d" x="67.36" y="63.78" width="2.13" height="5.61" transform="translate(-13.6 115.44) rotate(-75)"/><path class="d" d="M86.35,66.16A8.36,8.36,0,1,1,75.81,60.8,8.37,8.37,0,0,1,86.35,66.16Z"/><rect class="d" x="65.4" y="68.18" width="5.61" height="2.13"/><path class="d" d="M85.41,64.2a8.36,8.36,0,1,1-11.57-2.46A8.36,8.36,0,0,1,85.41,64.2Z"/><rect class="d" x="65.87" y="70.8" width="5.61" height="2.13" transform="translate(-16.27 20.24) rotate(-15.01)"/><path class="d" d="M84,62.54a8.36,8.36,0,1,1-11.81.61A8.35,8.35,0,0,1,84,62.54Z"/><rect class="d" x="67.01" y="73.21" width="5.61" height="2.13" transform="translate(-27.78 44.85) rotate(-29.99)"/><path class="d" d="M82.19,61.3A8.36,8.36,0,1,1,71,65,8.35,8.35,0,0,1,82.19,61.3Z"/><rect class="d" x="68.73" y="75.24" width="5.61" height="2.13" transform="translate(-33 72.97) rotate(-45.02)"/><path class="d" d="M80.13,60.57A8.36,8.36,0,1,1,70.22,67,8.36,8.36,0,0,1,80.13,60.57Z"/><rect class="d" x="70.92" y="76.76" width="5.61" height="2.13" transform="translate(-30.52 102.8) rotate(-60.02)"/><path class="d" d="M78,60.4a8.36,8.36,0,1,1-7.91,8.79A8.35,8.35,0,0,1,78,60.4Z"/><rect class="d" x="73.43" y="77.66" width="5.61" height="2.13" transform="translate(-19.52 132.01) rotate(-75.01)"/><path class="d" d="M75.81,60.8a8.36,8.36,0,1,1-5.36,10.53A8.36,8.36,0,0,1,75.81,60.8Z"/><rect class="d" x="77.83" y="76.14" width="2.13" height="5.61"/><path class="d" d="M73.85,61.74A8.36,8.36,0,1,1,71.39,73.3,8.35,8.35,0,0,1,73.85,61.74Z"/><rect class="d" x="80.45" y="75.66" width="2.13" height="5.61" transform="translate(-17.53 23.77) rotate(-15)"/><path class="d" d="M72.19,63.16A8.36,8.36,0,1,1,72.8,75,8.34,8.34,0,0,1,72.19,63.16Z"/><rect class="d" x="82.86" y="74.52" width="2.13" height="5.61" transform="translate(-27.42 52.32) rotate(-30)"/><path class="d" d="M71,65A8.36,8.36,0,1,1,74.6,76.2,8.36,8.36,0,0,1,71,65Z"/><rect class="d" x="84.89" y="72.8" width="2.13" height="5.61" transform="translate(-28.29 82.92) rotate(-45)"/><path class="d" d="M70.22,67a8.36,8.36,0,1,1,6.44,9.92A8.36,8.36,0,0,1,70.22,67Z"/><rect class="d" x="86.41" y="70.61" width="2.13" height="5.61" transform="translate(-19.84 112.47) rotate(-60)"/><path class="d" d="M70.05,69.19a8.36,8.36,0,1,1,8.79,7.91A8.36,8.36,0,0,1,70.05,69.19Z"/><rect class="d" x="87.31" y="68.1" width="2.13" height="5.61" transform="translate(-2.99 137.92) rotate(-75)"/><path class="d" d="M70.45,71.33A8.36,8.36,0,1,1,81,76.7,8.35,8.35,0,0,1,70.45,71.33Z"/><rect class="d" x="85.79" y="67.19" width="5.61" height="2.13"/><path class="d" d="M71.39,73.3A8.36,8.36,0,1,1,83,75.76,8.34,8.34,0,0,1,71.39,73.3Z"/><rect class="d" x="85.31" y="64.57" width="5.61" height="2.13" transform="translate(-13.99 25.07) rotate(-15.01)"/><path class="d" d="M72.8,75a8.36,8.36,0,1,1,11.81-.62A8.35,8.35,0,0,1,72.8,75Z"/><rect class="d" x="84.17" y="62.16" width="5.61" height="2.13" transform="matrix(0.87, -0.5, 0.5, 0.87, -19.96, 51.99)"/><path class="d" d="M74.6,76.2a8.36,8.36,0,1,1,11.25-3.66A8.37,8.37,0,0,1,74.6,76.2Z"/><rect class="d" x="82.45" y="60.13" width="5.61" height="2.13" transform="translate(-18.29 78.24) rotate(-45.02)"/><path class="d" d="M76.66,76.92a8.36,8.36,0,1,1,9.92-6.44A8.36,8.36,0,0,1,76.66,76.92Z"/><rect class="d" x="80.26" y="58.61" width="5.61" height="2.13" transform="translate(-10.13 101.81) rotate(-60.02)"/><path class="d" d="M78.84,77.09a8.36,8.36,0,1,1,7.91-8.78A8.35,8.35,0,0,1,78.84,77.09Z"/><path class="e" d="M78.24,74.93A6.5,6.5,0,1,1,84.4,68.1,6.5,6.5,0,0,1,78.24,74.93Z"/><rect class="d" x="77.75" y="57.71" width="5.61" height="2.13" transform="translate(2.95 121.39) rotate(-75.01)"/></svg>