<svg xmlns="http://www.w3.org/2000/svg" viewBox="0 0 197 20"><defs><style>.cls-1{fill:#161823;}</style></defs><title>Logo | 197x20</title><g id="Layer_2" data-name="Layer 2"><g id="Layer_10" data-name="Layer 10"><g id="HIEPDEEP"><path id="P" class="cls-1" d="M196,2.18A4.73,4.73,0,0,0,194.82,1a5.17,5.17,0,0,0-3.07-1H177V20h1V10.5h13.75a5.17,5.17,0,0,0,3.07-1A4.73,4.73,0,0,0,196,8.32a5.21,5.21,0,0,0,0-6.14ZM191.75,9.5H178V1h13.75a4.25,4.25,0,0,1,0,8.5Z"/><g id="E"><rect class="cls-1" x="149" y="9.5" width="20" height="1"/><rect class="cls-1" x="149" width="20" height="1"/><rect class="cls-1" x="149" y="19" width="20" height="1"/></g><g id="E-2" data-name="E"><rect class="cls-1" x="121" y="9.5" width="20" height="1"/><rect class="cls-1" x="121" width="20" height="1"/><rect class="cls-1" x="121" y="19" width="20" height="1"/></g><g id="D"><path class="cls-1" d="M113,5.25v9.5a5.17,5.17,0,0,1-1,3.07A4.73,4.73,0,0,1,110.82,19a5.17,5.17,0,0,1-3.07,1H93V9.5h1V19h13.75A4.25,4.25,0,0,0,112,14.75V5.25A4.25,4.25,0,0,0,107.75,1H93V0h14.75a5.17,5.17,0,0,1,3.07,1A4.73,4.73,0,0,1,112,2.18,5.17,5.17,0,0,1,113,5.25Z"/></g><path id="P-2" data-name="P" class="cls-1" d="M84,2.18A4.73,4.73,0,0,0,82.82,1a5.17,5.17,0,0,0-3.07-1H65V20h1V10.5H79.75a5.17,5.17,0,0,0,3.07-1A4.73,4.73,0,0,0,84,8.32a5.21,5.21,0,0,0,0-6.14ZM79.75,9.5H66V1H79.75a4.25,4.25,0,0,1,0,8.5Z"/><g id="E-3" data-name="E"><rect class="cls-1" x="37" y="9.5" width="20" height="1"/><rect class="cls-1" x="37" width="20" height="1"/><rect class="cls-1" x="37" y="19" width="20" height="1"/></g><rect id="I" class="cls-1" x="28" width="1" height="20"/><polygon id="H" class="cls-1" points="20 0 20 20 19 20 19 10.5 1 10.5 1 20 0 20 0 0 1 0 1 9.5 19 9.5 19 0 20 0"/></g></g></g></svg>