<svg xmlns="http://www.w3.org/2000/svg" viewBox="0 0 20 20"><defs><style>.cls-1{fill:#161823;}</style></defs><title>Logo | 20x20</title><g id="Layer_2" data-name="Layer 2"><g id="Layer_9" data-name="Layer 9"><g id="HD"><path class="cls-1" d="M12,14v6H8V14a2,2,0,0,0-4,0v6H2a2,2,0,0,1-2-2V2A2,2,0,0,1,2,0H4V8.35a5.89,5.89,0,0,1,4,0,3.32,3.32,0,0,1,.59.24L9,8.8a6,6,0,0,1,1,.74A5.57,5.57,0,0,1,11.19,11c.08.13.15.27.22.41A5.9,5.9,0,0,1,12,14Z"/><path class="cls-1" d="M20,2V18a2,2,0,0,1-2,2H13V16h2.5a.5.5,0,0,0,.5-.5V4.5a.5.5,0,0,0-.5-.5H12v6.4A7,7,0,0,0,9,7.68a5.76,5.76,0,0,0-1-.39V0H18A2,2,0,0,1,20,2Z"/></g></g></g></svg>