<svg xmlns="http://www.w3.org/2000/svg" viewBox="0 0 3401.57 1277.29"><defs><style>.cls-1{fill:#f1f2f2;}.cls-2{fill:#223f80;}</style></defs><title>fushan</title><g id="Layer_2" data-name="Layer 2"><g id="Layer_1-2" data-name="Layer 1"><g id="Fushan"><path class="cls-1" d="M0,1000.77H81.4c58.43,0,97.51,15.66,97.51,61.69,0,44.12-39.89,64.9-97.51,64.9H33.85v83.12H0Zm77,104.85c46.33,0,68.49-13.43,68.49-43.16,0-30.36-23-40.28-68.49-40.28H33.85v83.44Z"/><path class="cls-1" d="M294.55,1051.27c48,0,90.68,29.73,90.68,81.85,0,51.47-42.71,81.2-90.68,81.2s-90.66-29.73-90.66-81.2C203.89,1081,246.62,1051.27,294.55,1051.27Zm0,141.31c33.86,0,56.43-24,56.43-59.46,0-35.81-22.57-60.1-56.43-60.1-33.44,0-56.41,24.29-56.41,60.1C238.14,1168.59,261.11,1192.58,294.55,1192.58Z"/><path class="cls-1" d="M411.81,1055.11h33.84l29,89.84c4.42,14.7,8.07,28.76,11.68,43.16H488c4.43-14.4,8.46-28.78,13.3-43.16l30.22-89.84h32.23L594.36,1145c4.83,14.7,9.26,28.76,13.7,43.16h1.6c4.44-14.4,8.07-28.46,12.09-43.16l28.62-89.84H681.8l-52.38,155.37H589.1L560.91,1127c-4.84-14.71-8.46-29.09-13.3-44.76H546c-4.44,15.67-8.48,30.37-13.71,45.08l-27.4,83.12H466.2Z"/><path class="cls-1" d="M796.2,1051.27c50,0,78.19,28.46,78.19,72.9a73.46,73.46,0,0,1-1.22,14.38H741c2.41,33.57,27.8,54.66,65.27,54.66,18.55,0,34.26-4.79,48.76-12.14l11.69,17.26c-16.92,8.64-37.88,16-64.47,16-52.4,0-93.9-30.38-93.9-81.2S751.47,1051.27,796.2,1051.27Zm49.18,70c0-31.64-17.74-49.23-48.37-49.23-27.4,0-52.39,17.9-56.4,49.23Z"/><path class="cls-1" d="M922.72,1055.11h27.41l2.81,28.13h1.21c13.3-19.5,33.44-32,55.63-32,8.45,0,14.49,1,20.94,3.2l-6.45,23a68.06,68.06,0,0,0-18.94-2.56c-16.51,0-36.26,9.6-49.55,35.82v99.74H922.72Z"/><path class="cls-1" d="M1131.84,1051.27c50,0,78.18,28.46,78.18,72.9a73.53,73.53,0,0,1-1.21,14.38H1076.64c2.42,33.57,27.8,54.66,65.28,54.66,18.54,0,34.25-4.79,48.75-12.14l11.7,17.26c-16.92,8.64-37.89,16-64.49,16-52.37,0-93.88-30.38-93.88-81.2S1087.11,1051.27,1131.84,1051.27Zm49.17,70c0-31.64-17.73-49.23-48.36-49.23-27.4,0-52.39,17.9-56.41,49.23Z"/><path class="cls-1" d="M1329.28,1051.27c22.57,0,37.48,6.72,54.81,17.91l-1.61-26.53V982.86h33.44v227.62h-27.4l-2.82-18.22h-1.2c-15.31,11.82-36.28,22.06-59.25,22.06-49.16,0-81-29.42-81-81.2C1244.25,1082.6,1284.55,1051.27,1329.28,1051.27Zm3.22,141c18.14,0,33.86-7,50-21.42v-81.2c-16.53-11.83-31.43-16.31-47.56-16.31-31.43,0-56.41,24-56.41,59.46C1278.51,1169.88,1298.26,1192.26,1332.5,1192.26Z"/><path class="cls-1" d="M1563.37,982.86h33.06v62l-.82,28.15c17.73-12.47,39.51-21.75,61.26-21.75,50.78,0,77.78,31,77.78,79,0,53.06-39.9,84.08-84.63,84.08-18.13,0-38.69-7-56-19.19h-1.21l-2.82,15.35h-26.61Zm81,209.4c32.23,0,56-23.35,56-61.7,0-34.21-14.52-57.23-51.58-57.23-16.53,0-33.87,7.36-52.39,21.11V1176C1613.75,1187.77,1631.48,1192.26,1644.39,1192.26Z"/><path class="cls-1" d="M1787,1255.55c22.16,0,36.27-14.06,44.33-33.24l4.42-11.51-78.58-155.69h34.26l39.9,86c6,13.43,12.9,29.41,18.93,43.79h1.63c5.64-14.06,11.27-30.05,16.51-43.79l35.07-86h32.23L1862,1223.27c-13.71,30.69-33.86,54-73.35,54a80.85,80.85,0,0,1-23-3.19l6.46-20.78C1776.13,1254.27,1782.17,1255.55,1787,1255.55Z"/><path class="cls-1" d="M2057,1000.77H2209.7v22.38H2090.83v71h100.74v22.37H2090.83v94H2057Z"/><path class="cls-1" d="M2322.53,1051.27c47.95,0,90.67,29.73,90.67,81.85,0,51.47-42.72,81.2-90.67,81.2s-90.67-29.73-90.67-81.2C2231.86,1081,2274.58,1051.27,2322.53,1051.27Zm0,141.31c33.85,0,56.42-24,56.42-59.46,0-35.81-22.57-60.1-56.42-60.1-33.45,0-56.43,24.29-56.43,60.1C2266.1,1168.59,2289.08,1192.58,2322.53,1192.58Z"/><path class="cls-1" d="M2494.57,1129.28l-59.23-74.17h35.86l26.19,34.22c6,8.3,12.49,17.25,19.34,25.88h1.61c5.65-8.63,11.68-17.58,17.74-25.88l23.77-34.22h34.66l-59.24,77,63.67,78.33h-35.87l-28.6-36.12c-6.85-9.28-14.1-18.86-21.36-27.82h-1.62c-6.85,9-13.3,18.22-19.75,27.82l-26.59,36.12H2430.5Z"/><path class="cls-1" d="M2710.55,1051.27c25.79,0,43.92,8.63,57.23,18.55l-16.52,16.94c-11.69-8-23.78-13.74-39.5-13.74-35.46,0-61.25,24.29-61.25,60.1,0,35.47,24.58,59.46,60.46,59.46,18.52,0,34.24-7.36,45.93-15.66l14.91,17.25a111.9,111.9,0,0,1-63.67,20.15c-52,0-91.88-29.73-91.88-81.2C2616.26,1081,2660.18,1051.27,2710.55,1051.27Z"/><path class="cls-1" d="M2882.21,1051.27c47.95,0,90.66,29.73,90.66,81.85,0,51.47-42.71,81.2-90.66,81.2s-90.67-29.73-90.67-81.2C2791.54,1081,2834.26,1051.27,2882.21,1051.27Zm0,141.31c33.84,0,56.42-24,56.42-59.46,0-35.81-22.58-60.1-56.42-60.1-33.44,0-56.42,24.29-56.42,60.1C2825.79,1168.59,2848.77,1192.58,2882.21,1192.58Z"/><path class="cls-1" d="M3024.43,1055.11h27.4l2.83,22.37h1.2c18.54-14.69,38.69-26.21,65.69-26.21,41.11,0,59.63,21.1,59.63,60.75v98.46h-33v-94.94c0-29.1-11.28-41.57-37.06-41.57-20.16,0-33.87,8.31-53.61,24v112.53h-33Z"/><path class="cls-1" d="M3244.82,1055.11h27.4l2.83,22.37h1.2c18.54-14.69,38.7-26.21,65.69-26.21,41.11,0,59.63,21.1,59.63,60.75v98.46h-33v-94.94c0-29.1-11.26-41.57-37.06-41.57-20.16,0-33.86,8.31-53.6,24v112.53h-33Z"/><path class="cls-2" d="M502.5,6.78V152.66H648.37A145.87,145.87,0,0,0,502.5,6.78ZM1863,215.53c-44.32-.17-84.8,13.17-126.4,32.23V223.9q0-6.93,0-13.88V99.86c0-27,.05-54,.27-81a56.19,56.19,0,0,0-.27-6.49V0H1590.85V210q.17,215.89,0,431.79v210h145.61v-210q.09-61,.25-122c.08-33.18,3.39-66,17.18-96.8,18.95-42.3,68.46-69.65,117.54-65.28,46.76,4.16,82.63,35,95.08,81.91,4.9,18.5,8.08,37.36,8.14,56.54q.25,72.78.46,145.59H1975s0,183.27,0,189.44c0,.21,0,20.25,0,20.25h13c2.27.27,132.83,0,132.83,0V641.81q0-64.39.1-128.78c0-32.39-2.76-64.47-9.53-96.24C2085.45,294.86,1987.63,216,1863,215.53ZM2242.34,335.3c-87.13,109.27-98.21,229.48-34.46,354.24,58.64,114.7,181,180.69,309.27,169.64,7.71-.68,16.36.23,21.61-8.16,32.51-51.85,65.15-103.62,100.52-159.82C2581,713.67,2525.73,721.61,2469,715.36c-97.1-10.72-167.57-103.27-153.68-201,14.31-100.73,109.95-172.28,207.17-155,92.77,16.51,150.41,86,150.82,182.94q.22,49.74.18,99.51V851.5h11.47a38.81,38.81,0,0,0,6.34.27c5-.17,9.94-.15,14.89-.27h72.76c5.3.14,10.6.1,15.89.3a38.83,38.83,0,0,0,6.74-.3h11.58V641.81q0-43.89.06-87.75c0-61.58-7.84-121.5-37.86-176.53C2668.15,181.19,2384,157.7,2242.34,335.3ZM1411.08,487.46c-6.93-2.33-13.88-4.67-20.84-6.87-36.31-11.48-72.79-22.44-108.88-34.58-18.21-6.13-32.8-17.22-34.39-38.57-1.6-21.54,7-38.51,24.87-50.67,18.21-12.39,38.68-16.67,60.36-17.62,59.76-2.6,114.13,14.84,168.71,46.57,0-47.63-.42-90.86.26-134.05.2-12.44-7.76-14.22-16.16-16.75-45.08-13.64-90.94-23.7-138.13-25-78.56-2.17-147.74,18.94-199.71,82.35-58.61,71.51-64.73,212.6,54.82,272.63,29.62,14.87,60.63,25.76,92.39,34.8,25.37,7.24,50.73,14.44,74.57,26.09,20.1,9.81,29,25.75,28.23,47.88-1.15,33.11-24.68,54.85-65,58.62-36.92,3.45-73.11-.89-108.87-10.69-36.71-10.07-71.41-25.46-108.35-41,0,47,.39,91.73-.3,136.39-.17,11.15,6.52,13.27,14.1,16,46.49,16.65,94.21,28,143.56,30.94,61.83,3.68,121.89-2.06,175.33-37.62,67.59-45,95.65-109.34,89.13-188.76C1530.31,558.72,1483.65,511.83,1411.08,487.46ZM269,6.78H143.8c-6.75.17-13.52.2-20.27.4C41.84,9.73-.46,60.29,0,142.83V851.9H159.52V565.34h-.43V419.46H444.61V273.59h-19v0H159V153.05H452V6.78H269ZM889.42,432.49c-.06,29.16-.07,58.31-.28,87.46-.25,35.15-1,70.47-8.59,105.08-12,55.26-57.92,92.91-113,93-53.88.08-98.45-36.92-110.27-92.49-6.74-31.67-8.94-63.91-9-96.27q0-60.4-.09-120.82v-186H502.76v210c-.1,47-.66,93.92.26,140.85.85,43.25,2.81,86.62,19.5,127.54,46.23,113.39,164,175.49,293.49,154.9,117.31-18.64,208-115.31,214.79-234.43,3.61-62.9,3.94-125.87,3.58-188.86h.12v-210H889.42Zm2511.87,209c0-52.6,0-105.21-.28-157.82-.21-36.69-4.17-73.21-17.8-107.94-39-99.3-134.24-160.11-250.71-160-136.69.11-246.19,100.29-258.74,235.72-6.18,66.74-1.3,133.56-3.29,188.62V851.5h12.72a48.2,48.2,0,0,0,6.69.23c4.8-.14,9.6-.12,14.41-.23h74.79c5.52.13,11,.09,16.55.28a49.58,49.58,0,0,0,7.79-.28h12.5V839.19a50.06,50.06,0,0,0,.49-7.73c-.36-40.47-.44-81-.49-121.43V641.69h0q.09-52.76.22-105.51c.08-27.89,2.27-55.69,7.85-83.14,11.84-58.47,54.92-95.21,112.18-95.47,57.47-.25,100.52,35.77,112.12,94.78,7.81,39.77,8.79,80.16,8.8,120.56,0,23,0,278.59,0,278.59h11.21a37.61,37.61,0,0,0,6.16.28c5.43-.18,10.88-.15,16.33-.28h75.34c5.43.13,10.86.1,16.29.27a40.94,40.94,0,0,0,6.6-.27h12.56Z"/></g></g></g></svg>