<svg xmlns="http://www.w3.org/2000/svg" viewBox="0 0 197 58"><defs><style>.cls-1{fill:#161823;}</style></defs><title>Logo | vertical</title><g id="Layer_2" data-name="Layer 2"><g id="Layer_10" data-name="Layer 10"><g id="HIEPDEEP"><path id="P" class="cls-1" d="M196,40.18A4.73,4.73,0,0,0,194.82,39a5.17,5.17,0,0,0-3.07-1H177V58h1V48.5h13.75a5.17,5.17,0,0,0,3.07-1A4.73,4.73,0,0,0,196,46.32a5.21,5.21,0,0,0,0-6.14Zm-4.25,7.32H178V39h13.75a4.25,4.25,0,0,1,0,8.5Z"/><g id="E"><rect class="cls-1" x="149" y="47.5" width="20" height="1"/><rect class="cls-1" x="149" y="38" width="20" height="1"/><rect class="cls-1" x="149" y="57" width="20" height="1"/></g><g id="E-2" data-name="E"><rect class="cls-1" x="121" y="47.5" width="20" height="1"/><rect class="cls-1" x="121" y="38" width="20" height="1"/><rect class="cls-1" x="121" y="57" width="20" height="1"/></g><g id="D"><path class="cls-1" d="M113,43.25v9.5a5.17,5.17,0,0,1-1,3.07A4.73,4.73,0,0,1,110.82,57a5.17,5.17,0,0,1-3.07,1H93V47.5h1V57h13.75A4.25,4.25,0,0,0,112,52.75v-9.5A4.25,4.25,0,0,0,107.75,39H93V38h14.75a5.17,5.17,0,0,1,3.07,1A4.73,4.73,0,0,1,112,40.18,5.17,5.17,0,0,1,113,43.25Z"/></g><path id="P-2" data-name="P" class="cls-1" d="M84,40.18A4.73,4.73,0,0,0,82.82,39a5.17,5.17,0,0,0-3.07-1H65V58h1V48.5H79.75a5.17,5.17,0,0,0,3.07-1A4.73,4.73,0,0,0,84,46.32a5.21,5.21,0,0,0,0-6.14ZM79.75,47.5H66V39H79.75a4.25,4.25,0,0,1,0,8.5Z"/><g id="E-3" data-name="E"><rect class="cls-1" x="37" y="47.5" width="20" height="1"/><rect class="cls-1" x="37" y="38" width="20" height="1"/><rect class="cls-1" x="37" y="57" width="20" height="1"/></g><rect id="I" class="cls-1" x="28" y="38" width="1" height="20"/><polygon id="H" class="cls-1" points="20 38 20 58 19 58 19 48.5 1 48.5 1 58 0 58 0 38 1 38 1 47.5 19 47.5 19 38 20 38"/></g><g id="HD"><path class="cls-1" d="M101.5,21v9h-6V21a3,3,0,0,0-6,0v9h-3a3,3,0,0,1-3-3V3a3,3,0,0,1,3-3h3V12.52a8.91,8.91,0,0,1,6,0,5.19,5.19,0,0,1,.89.36l.61.32a9.09,9.09,0,0,1,1.5,1.11,8.56,8.56,0,0,1,1.79,2.19c.12.2.22.4.32.61A8.92,8.92,0,0,1,101.5,21Z"/><path class="cls-1" d="M113.5,3V27a3,3,0,0,1-3,3H103V24h3.75a.74.74,0,0,0,.75-.75V6.75a.74.74,0,0,0-.75-.75H101.5v9.6A10.5,10.5,0,0,0,97,11.52a9.74,9.74,0,0,0-1.5-.59V0h15A3,3,0,0,1,113.5,3Z"/></g></g></g></svg>