<svg xmlns="http://www.w3.org/2000/svg" viewBox="0 0 237.42 224.5"><defs><style>.a{opacity:0.1;}.b{fill:#231f20;}.c{fill:#ffa9a9;}.d{fill:#fff;}</style></defs><g class="a"><path class="b" d="M234.72,81.74a55,55,0,0,0-58.63-37.6,55,55,0,0,0-107.76,0A55,55,0,0,0,35,146.62,55,55,0,0,0,122.21,210a55,55,0,0,0,87.18-63.35A55,55,0,0,0,234.72,81.74Z"/></g><path class="c" d="M223.77,80.32a54,54,0,0,0-57.61-36.95,54,54,0,0,0-105.89,0A54,54,0,0,0,27.54,144.08a54,54,0,0,0,85.67,62.24,54,54,0,0,0,85.67-62.24A54,54,0,0,0,223.77,80.32Z"/><circle class="d" cx="113.21" cy="109.94" r="3.5"/><path class="d" d="M114.29,106.61a3.5,3.5,0,1,1-4.41,2.25A3.5,3.5,0,0,1,114.29,106.61Z"/><path class="d" d="M110.38,107.88a3.5,3.5,0,1,1,.77,4.89A3.5,3.5,0,0,1,110.38,107.88Z"/><path class="d" d="M110.38,112a3.5,3.5,0,1,1,4.89.77A3.5,3.5,0,0,1,110.38,112Z"/><g class="a"><path class="b" d="M149.71,103.35c-1-3.15-8.88-3.42-17.55-.61a38.14,38.14,0,0,0-9.38,4.43,37.16,37.16,0,0,0,1.43-10.68c0-9.11-2.69-16.5-6-16.5s-6,7.39-6,16.5a37.16,37.16,0,0,0,1.43,10.68,38,38,0,0,0-9.38-4.43c-8.66-2.81-16.52-2.54-17.54.61s5.17,8,13.83,10.81a38.08,38.08,0,0,0,9.88,1.91,38.61,38.61,0,0,0-6.67,7.2c-5.36,7.38-7.53,14.93-4.85,16.88s9.2-2.45,14.55-9.82a35.77,35.77,0,0,0,5.37-10.27,35.77,35.77,0,0,0,5.37,10.27c5.36,7.37,11.88,11.77,14.56,9.82s.51-9.5-4.85-16.88a37.89,37.89,0,0,0-6.77-7.27,40.08,40.08,0,0,0,8.73-1.84C144.54,111.34,150.73,106.5,149.71,103.35ZM118.22,113a1.79,1.79,0,0,0,.09.46,1.51,1.51,0,0,0-.18-.09,2.2,2.2,0,0,0,.07-.37h0Z"/></g><path class="d" d="M144.71,103.35c-1-3.15-8.88-3.42-17.55-.61a38.14,38.14,0,0,0-9.38,4.43,37.16,37.16,0,0,0,1.43-10.68c0-9.11-2.69-16.5-6-16.5s-6,7.39-6,16.5a37.16,37.16,0,0,0,1.43,10.68,38,38,0,0,0-9.38-4.43c-8.66-2.81-16.52-2.54-17.54.61s5.17,8,13.83,10.81a38.08,38.08,0,0,0,9.88,1.91,38.61,38.61,0,0,0-6.67,7.2c-5.36,7.38-7.53,14.93-4.85,16.88s9.2-2.45,14.55-9.82a35.77,35.77,0,0,0,5.37-10.27,35.77,35.77,0,0,0,5.37,10.27c5.36,7.37,11.88,11.77,14.56,9.82s.51-9.5-4.85-16.88a37.89,37.89,0,0,0-6.77-7.27,40.08,40.08,0,0,0,8.73-1.84C139.54,111.34,145.73,106.5,144.71,103.35ZM113.22,113a1.79,1.79,0,0,0,.09.46,1.51,1.51,0,0,0-.18-.09,2.2,2.2,0,0,0,.07-.37h0Z"/><path class="c" d="M121.1,113.45a7.8,7.8,0,1,1-7.79-7.8A7.8,7.8,0,0,1,121.1,113.45Z"/></svg>