<svg width="24" height="24" viewBox="0 0 24 24" fill="none" xmlns="http://www.w3.org/2000/svg">
<g clip-path="url(#clip0_1014_4559)">
<path fill-rule="evenodd" clip-rule="evenodd" d="M17.0246 23.836C17.4026 23.9833 17.8336 23.9739 18.2151 23.7903L23.1563 21.4127C23.6755 21.1628 24.0057 20.6374 24.0057 20.0609V3.93928C24.0057 3.36281 23.6755 2.83733 23.1563 2.58749L18.2151 0.209822C17.7144 -0.0311083 17.1284 0.0279046 16.689 0.347388C16.6262 0.393026 16.5664 0.443982 16.5103 0.500137L7.05103 9.13001L2.93076 6.00238C2.5472 5.71123 2.01071 5.73509 1.65449 6.05914L0.332984 7.26124C-0.102752 7.65759 -0.103252 8.3431 0.331904 8.74013L3.90513 12L0.331904 15.26C-0.103252 15.657 -0.102752 16.3425 0.332984 16.7389L1.65449 17.941C2.01071 18.265 2.5472 18.2889 2.93076 17.9977L7.05103 14.8701L16.5103 23.4999C16.6599 23.6497 16.8356 23.7624 17.0246 23.836ZM18.0094 6.5518L10.832 12L18.0094 17.4483V6.5518Z" fill="white" style="fill:white;fill-opacity:1;"/>
<path d="M23.1593 2.59099L18.2142 0.210053C17.6418 -0.0655401 16.9578 0.0507111 16.5086 0.49992L0.320385 15.2598C-0.115037 15.6567 -0.114537 16.3423 0.321465 16.7386L1.64377 17.9407C2.00022 18.2648 2.53704 18.2886 2.92082 17.9975L22.4152 3.20867C23.0692 2.71253 24.0085 3.17899 24.0085 3.9999V3.94249C24.0085 3.36626 23.6784 2.84097 23.1593 2.59099Z" fill="#0065A9" style="fill:#0065A9;fill:color(display-p3 0.0000 0.3961 0.6627);fill-opacity:1;"/>
<path d="M23.1651 21.4086L18.2201 23.7896C17.6477 24.0652 16.9637 23.9489 16.5145 23.4997L0.326244 8.73989C-0.109178 8.34288 -0.108677 7.65735 0.327324 7.26099L1.64963 6.05889C2.00607 5.73485 2.5429 5.71099 2.92668 6.00213L22.421 20.791C23.075 21.2871 24.0144 20.8206 24.0144 19.9998V20.0572C24.0144 20.6334 23.6843 21.1587 23.1651 21.4086Z" fill="#007ACC" style="fill:#007ACC;fill:color(display-p3 0.0000 0.4784 0.8000);fill-opacity:1;"/>
<path d="M18.2156 23.7908C17.6431 24.0662 16.959 23.9497 16.5098 23.5004C17.0633 24.054 18.0098 23.6619 18.0098 22.8791V1.12194C18.0098 0.339131 17.0633 -0.0529048 16.5098 0.500626C16.959 0.0513763 17.6431 -0.0650391 18.2156 0.210311L23.1598 2.58799C23.6793 2.83783 24.0097 3.3633 24.0097 3.93978V20.0614C24.0097 20.6379 23.6793 21.1633 23.1598 21.4132L18.2156 23.7908Z" fill="#1F9CF0" style="fill:#1F9CF0;fill:color(display-p3 0.1216 0.6118 0.9412);fill-opacity:1;"/>
<g style="mix-blend-mode:overlay" opacity="0.25">
<path fill-rule="evenodd" clip-rule="evenodd" d="M17.0187 23.8365C17.3967 23.9838 17.8277 23.9743 18.2092 23.7908L23.1504 21.4132C23.6696 21.1633 23.9998 20.6379 23.9998 20.0614V3.93978C23.9998 3.36329 23.6696 2.83781 23.1504 2.58797L18.2092 0.210311C17.7086 -0.0306198 17.1226 0.028393 16.6831 0.347874C16.6203 0.393514 16.5605 0.444471 16.5044 0.500625L7.04516 9.13049L2.9249 6.00288C2.54136 5.71171 2.00486 5.73559 1.64863 6.05962L0.327125 7.26172C-0.108612 7.6581 -0.109111 8.3436 0.326045 8.74061L3.89927 12.0005L0.326045 15.2605C-0.109111 15.6575 -0.108612 16.343 0.327125 16.7393L1.64863 17.9414C2.00486 18.2655 2.54136 18.2893 2.9249 17.9982L7.04516 14.8706L16.5044 23.5004C16.6541 23.6502 16.8298 23.7629 17.0187 23.8365ZM18.0035 6.55231L10.8261 12.0005L18.0035 17.4488V6.55231Z" fill="url(#paint0_linear_1014_4559)" style=""/>
</g>
</g>
<defs>
<linearGradient id="paint0_linear_1014_4559" x1="11.9999" y1="0.0624999" x2="11.9999" y2="23.9386" gradientUnits="userSpaceOnUse">
<stop stop-color="white" style="stop-color:white;stop-opacity:1;"/>
<stop offset="1" stop-color="white" stop-opacity="0" style="stop-color:none;stop-opacity:0;"/>
</linearGradient>
<clipPath id="clip0_1014_4559">
<rect width="23.9998" height="23.9998" fill="white" style="fill:white;fill-opacity:1;" transform="translate(0.00390625)"/>
</clipPath>
</defs>
</svg>
