<svg xmlns="http://www.w3.org/2000/svg" xmlns:xlink="http://www.w3.org/1999/xlink" viewBox="0 0 1054 1041"><defs><style>.cls-1{fill:url(#linear-gradient);}.cls-2{fill:#fff;fill-rule:evenodd;}</style><linearGradient id="linear-gradient" y1="520.5" x2="1054" y2="520.5" gradientUnits="userSpaceOnUse"><stop offset="0" stop-color="#f63"/><stop offset="0.33" stop-color="#fd5d32"/><stop offset="0.88" stop-color="#f7432e"/><stop offset="0.99" stop-color="#f53d2d"/></linearGradient></defs><g id="Layer_2" data-name="Layer 2"><g id="Layer_2-2" data-name="Layer 2"><rect class="cls-1" width="1054" height="1041" rx="163.38"/><path class="cls-2" d="M889.18,318a15.57,15.57,0,0,0-15.52-15.64H705.54C701.42,192.58,623.07,105.06,527,105.06S352.61,192.58,348.49,302.33H180.15A15.61,15.61,0,0,0,164.89,318c0,.41,0,.81.06,1.22h-.13l24,529c0,1.48.07,3,.19,4.46a8.57,8.57,0,0,0,.07,1l.06,1.13.06,0c3.64,36.83,30.37,66.48,66.67,67.86l.09.06h536.7l0,0c37-1,66.92-31.06,70.06-68.33l0,0,0-.5c0-.38.06-.76.06-1.16.06-1,.13-1.89.13-2.8l26.19-531.14h0A5.49,5.49,0,0,0,889.18,318ZM527,152.79c70,0,127,66.42,129.69,149.54H397.32C400,219.21,457,152.79,527,152.79ZM659.75,717.06c-4.74,39.25-28.54,70.72-65.41,86.45-20.54,8.79-48.07,13.53-69.9,12A225.2,225.2,0,0,1,429,790.82c-10.55-5.4-26.22-16.2-38.28-26.31-3.05-2.55-3.42-4.18-1.41-7.07,1.09-1.63,3.1-4.58,7.56-11.12,6.44-9.45,7.23-10.61,8-11.74,2-3.14,5.4-3.42,8.7-.82l.63.47,1.82,1.42c1.29,1,2,1.6,2.35,1.82,31.78,24.9,68.8,39.25,106.17,40.7,52-.73,89.41-24.09,96.09-60,7.38-39.51-23.64-73.64-84.31-92.67-19-5.93-66.95-25.15-75.81-30.33q-62.27-36.56-58.18-95.72c4.24-54.64,54.95-95.4,119.07-95.68a217,217,0,0,1,84.76,17.49c9.73,4.11,27.1,13.57,33.1,18,3.45,2.54,4.14,5.49,2.16,8.69-1.13,1.86-3,4.78-6.78,10.9l-.06.06c-5.06,8-5.22,8.29-6.38,10.18-2,3.08-4.39,3.36-8,1.07-29.42-19.76-62-29.71-97.88-30.43-44.62.88-78.06,27.44-80.26,63.65-.6,32.69,23.93,56.52,76.87,74.74C626.37,612.71,667.51,653.19,659.75,717.06Z"/></g></g></svg>